<svg xmlns="http://www.w3.org/2000/svg" viewBox="0 0 236.54 361.45"><defs><style>.cls-1{fill:#aadde5;}.cls-2{fill:#70b0b8;}.cls-3{fill:#bb91c8;}.cls-4{fill:#ed98e7;}.cls-5{fill:#856098;}.cls-6{fill:#764c89;}.cls-7{fill:#f8a795;}.cls-8{fill:#5e387d;}.cls-9{fill:#396b6e;}.cls-10{fill:#ed7550;}.cls-11{fill:#c95b44;}.cls-12{fill:#ffa462;}.cls-13{fill:#a83d2d;}.cls-14{fill:#ffcab8;}.cls-15{fill:#8f4434;}.cls-16{fill:#6d3026;}.cls-17{fill:#34201c;}.cls-18{fill:#743327;}.cls-19{fill:#46c1cd;}.cls-20{fill:#005472;}.cls-21{fill:#35adc7;}.cls-22{fill:#fff;}.cls-23{fill:#27bed7;}.cls-24{fill:#005f6e;}</style></defs><title>bullying_1</title><g id="Layer_2" data-name="Layer 2"><g id="OBJECTS"><path class="cls-1" d="M27.65,326.71s8.07,9.65,19.67,6.89c0,0,2,4.8,4.34,5.38a17.51,17.51,0,0,0,6-.15L101,336.58l3.34-.87,31.17-1.09,4.22-2.81s2.83-5.77,3.19-6.2,4.15-11.05,4.15-11.05l-1.41-2.25,12.89-18.82s5.88-12.87,7.12-16.35,3.85-29.22,3.85-29.22.15-23.44-10.46-27.38-31.46.05-35.39,5.91L117.94,222s.16-4.22-15.58-3A62.61,62.61,0,0,0,74.7,228.3L33.85,248.6S17.4,311.11,27.65,326.71Z"/><path class="cls-2" d="M136.9,290.13a128.63,128.63,0,0,0,26-4l3.66-10.23L136.27,275c2.45-9.92,3.62-21,1.35-31.62-2-9.08-12.05-15-12.05-15,12.05,27.79-1,46.08-1,46.08l-.08.22-29.33-.88L57.56,257.57l-5.06,8.66.36.57a20.11,20.11,0,0,1-5.16,3.29c-2.49,1.12-4.29.85-5.52.2l0-.12a2.32,2.32,0,0,0-1.25-.8A5.07,5.07,0,0,1,40,268l-.7,2.11c-2.37,2.55-4.09,10.73-4.75,14.29l-2.44,7.35.5,3.33L27,325.57c4.18,11.05,20.33,8,20.33,8s-1.17-8.48-1.42-13.87S50.38,314,50.38,314l1.17-8.57A177.57,177.57,0,0,1,58.1,281.3a4.24,4.24,0,0,1,6.61-1.91c10.21,8,27.35,16.08,53.36,13.28l-6.95,19.58-8.08,23h26.61L119,330.73V312.25h21.18l-12.05-3.69a4.22,4.22,0,0,1-2.49-6c1-1.88,2.17-4.28,3.44-7.11A9,9,0,0,1,136.9,290.13Z"/><path class="cls-3" d="M49.66,146.13S41,150.86,31,166.47s-16.83,35.46-16.83,35.46C-.52,235.7-6.94,292,21.07,324,26,347.66,30.48,301.44,31.69,298L36.38,276,40,268l3.73,2.9,4-.83,9-7.27-4.9-6.53c5.19-11.46,18-21.8,26.63-30.63,5.07-4.47,38.15-14.23,44.47,1.27,18.47-12.26,48.17-15.09,46.59,17.91,0,0,13.52-.55,21.94-7.31-2.41-5.08-23.34-39.62-26.63-42.45Z"/><path class="cls-4" d="M27,201.41S30.16,246.19,48.15,259L44.4,269.88S20.64,253.76,27,201.41Z"/><path class="cls-4" d="M62.47,151.57l-12.81-5.44S41,150.86,31,166.47s-16.83,35.46-16.83,35.46a151.74,151.74,0,0,0-8.92,28.21C25,171.68,44.29,160.59,62.47,151.57Z"/><path class="cls-5" d="M178.21,243.52c-12.48-37.87-23.72-42.13-23.72-42.13-7.77,4.34-24.17,4.9-24.17,4.9l-8.62,6.47c-4,5.19-14,5.64-14,5.64C83.1,216.49,78,192.9,78,192.9s3.67,17.73,0,20.31-12.58-7.28-12.58-7.28L74.7,228.3l.3.81q1.81-1.76,3.47-3.45c5.07-4.47,38.15-14.23,44.47,1.27,18.47-12.26,48.17-15.09,46.59,17.91A49.38,49.38,0,0,0,178.21,243.52Z"/><path class="cls-5" d="M25.66,209.06S10.52,254.8,35.69,279L40,268S22.61,250.22,25.66,209.06Z"/><path class="cls-6" d="M50.68,257.57l5.78,5.1-10.88,7.89s-1.74.19-1.18-.68,1.06-2.05,2.12-3.55S50.68,257.57,50.68,257.57Z"/><path class="cls-7" d="M77.53,190.85s8.37,20.59,21,25.77a21.8,21.8,0,0,0,23.14-3.86,45.06,45.06,0,0,1-20.9-3.7C90.08,204.28,77.53,190.85,77.53,190.85Z"/><path class="cls-8" d="M75.34,224.34c-4.1-9.44-11.67-27.16-16.31-39.79-1.68-4.59-3.75-8-6.18-10.34,1,2.75,1.85,5.54,2.65,8.35.22.71.44,1.43.65,2.14l.3.79c4.67,12.7,12.26,30.48,16.37,39.95a4.89,4.89,0,0,1-1.66,5.9c-5.75,4.09-19.89,18.48-27.9,37.51-2.33-1.93-6.23-6.67-9.84-15.61-3.32-8.23-7.15-22.18-6.53-41.91a97.76,97.76,0,0,1,1.6-15.5,78.34,78.34,0,0,1,1.27-13.17c-2.83,5.86-5.19,14.84-5.62,28.59-.63,20.2,3.31,34.55,6.73,43a54.27,54.27,0,0,0,7.65,13.6c-5.2,9.56-8.05,27.11-10.35,41.26-.85,5.24-1.66,10.19-2.45,13.85a22.3,22.3,0,0,1-1.78,5.82c-.6-1-1.93-4.67-2-18.84,0-9.11.52-18,.52-18.09l.4-8.56a64.32,64.32,0,0,0-3.67,27.18c.33,4.05.14,7.35.34,10-9.36-13.28-26.44-47.06-9.92-101.26,9.45-31,20-48.9,27.2-58.46,7.77-10.34,13.39-13.39,13.44-13.42l-.64-1.22L49,144.91c-.24.13-6.06,3.25-14.17,14-7.38,9.74-18.2,28-27.82,59.56-18.75,61.54,5.05,97.52,13.2,107.49.79,4.25,1.94,5.41,3.07,5.79a2.18,2.18,0,0,0,1.82-.21c2.34-1.42,3.52-8.12,5.76-21.92,2.2-13.52,4.91-30.2,9.61-39.53a11.66,11.66,0,0,0,2.79,2.12,3.53,3.53,0,0,0,1.61.37c2.83,0,6.8-2.91,12.52-9.09l-2-1.87c-5.08,5.5-7.92,7.36-9.42,7.95,7.11-16.58,20-31.12,26.79-35.94A7.65,7.65,0,0,0,75.34,224.34Z"/><path class="cls-8" d="M103.45,216.41c-7.83-2-14.4-7.16-19.53-15.32a49.52,49.52,0,0,1-5.44-11.88h0l-1.33.35-1.32.35a50.55,50.55,0,0,0,5.71,12.57c5.45,8.7,12.79,14.43,21.23,16.59a26.64,26.64,0,0,0,6.61.9,16.74,16.74,0,0,0,14.3-7.45l-2.23-1.6C117.34,216.66,111.45,218.46,103.45,216.41Z"/><path class="cls-8" d="M137.44,205.48c0,.09,0,8.4-2.4,14.45l2.56,1c2.59-6.54,2.59-15.1,2.59-15.47Z"/><path class="cls-8" d="M191.93,235.74a218.24,218.24,0,0,0-25.6-40.66l-2.14,1.73a239.43,239.43,0,0,1,24.52,38.59,2.15,2.15,0,0,1-.85,2.8,37.06,37.06,0,0,1-18.57,5.05l0,2.75h0c13.27.12,20.86-6,21.65-6.44l.08-.05a3.06,3.06,0,0,0,.94-3.77Z"/><path class="cls-9" d="M146.92,311.86c19.54-24.41,19.67-33.78,19.66-34.17h-2.75c0,.09-.39,9.38-19.9,33.5H113.32l8.54-24.85-2.6-.89-9.64,28v-.15L51.42,313c2.59-14.49,2.9-21.47,6.4-31.66a113.59,113.59,0,0,0-9.06,31.82,5.55,5.55,0,0,0-4.15,5.92L46,332.37c-13.39,1.35-17.23-5.49-18-7.15a28,28,0,0,1-1,3.53c3.6,4.92,11,7.28,19.28,6.35a5.59,5.59,0,0,0,5.83,5.33c2.57-.69,50.46-.89,51.23-3.81h30.33a8.56,8.56,0,0,0,7.84-5.14l6.63-15.26A3.62,3.62,0,0,0,146.92,311.86ZM103.16,332.3a4.73,4.73,0,0,1-4.26,3.19L52,337.69A2.81,2.81,0,0,1,49,335.16l-1.7-16.38a2.79,2.79,0,0,1,2.77-3l58.62.36Zm42.45-17.18c-11.16,25.89-4,17.33-40.13,18.75a6.91,6.91,0,0,0,.28-.68L112.37,314h32.47C145.55,314.06,145.79,314.42,145.61,315.12Z"/><path class="cls-9" d="M170.08,237.29c-1.53-10.52-6.05-17.12-13.07-19.08-14.22-4-30,4-34.14,6.35A19.23,19.23,0,0,0,111.68,218c-10-1.87-19.79.78-26.25,3.32A67.93,67.93,0,0,0,75.79,226a9,9,0,0,1-.12,3.31c2.7-1.75,19-11.71,35.51-8.64,17.41,3.24,17.89,31.52,17.89,31.81l2.75,0a61.07,61.07,0,0,0-2.54-15.65,36.29,36.29,0,0,0-4.7-10.07c4.38-2.36,19-9.44,31.69-5.9,14.47,4,11.35,30.84,11.31,31.11l2.73.34A62.27,62.27,0,0,0,170.08,237.29Z"/><path class="cls-10" d="M233.55,81.94s-5.81-18.31-15.19-26.36S194,42.38,194,42.38s.44-6.38-4.33-9.83S177.44,34,177.44,34c2.12-10.34-3.38-19.21-11.45-25.3S144.5,2,136.73,2.48s-17.31,3.74-24,10.19a27.66,27.66,0,0,0-7.92,13.72c-6.38-1.18-9.61,4.69-9.61,4.69s-10-5.43-18-6.75-21.49,8-24.57,12.4-7.19,14.81-6.53,23.32,6.16,18.78,6.16,18.78S44.9,83.16,43.06,89s1.11,12.79,1.11,12.79c11.37-4.6,20.46,3.42,22.51,14.35s-1.93,23.41-1.93,23.41l2,1.6,5.2,1,7.7-1.32s4-2.2,9.47-8.58,7.11-22.15,7.11-22.15a24.19,24.19,0,0,0,14.6,2.34c8.31-1.28,14.74-9,14.74-9a5.8,5.8,0,0,1,1.69.44c.14.22,7.77,2.13,7.77,2.13l7.48-.22,3.67-.88-.29,1.32A69.46,69.46,0,0,0,151,121c3.45,6.83,16.21,5.21,16.21,5.21l2.2-.95,2.05-.44s4.77,12.25,5.58,13.64,3.45,2.71,3.74,2.86,2.05.52,3.81.92c1.25,13.9-7.88,24.16,1.55,20,9.68-4.26,8.53-19.31,8.53-19.31a8.8,8.8,0,0,0-.27-1.82l3.54-1a27.53,27.53,0,0,0,8.22-6.53c3.08-4-.3-14.6-.3-14.6h1.32s10.35-2.12,13.72-3.74,11.59-12.76,12.62-17.6S233.55,81.94,233.55,81.94Z"/><path class="cls-11" d="M150.84,76.58a11.59,11.59,0,0,0-2.88-4A13.62,13.62,0,0,0,143.67,70l-.58-.21a4.85,4.85,0,0,0-.61-.2l-.67-.17-.68-.1a9.67,9.67,0,0,0-2.74,0,12.93,12.93,0,0,0-4.88,1.92,20.64,20.64,0,0,0-3.81,3.17l-.17.18c-.11-.3-.22-.6-.34-.9a19.61,19.61,0,0,0-2.88-4.93,12.15,12.15,0,0,0-2.19-2.1,9.8,9.8,0,0,0-2.77-1.52,10.15,10.15,0,0,0-3.11-.56,11,11,0,0,0-3,.38,13.9,13.9,0,0,0-1.38.42c-.45.16-.89.36-1.32.55a15,15,0,0,0-2.46,1.48A13.59,13.59,0,0,0,108,69.36a14.25,14.25,0,0,0-1.61,2.28,16.06,16.06,0,0,0-1.76,5.09,16.89,16.89,0,0,0-.11,5.21,19.87,19.87,0,0,1,.56-2.48,23.61,23.61,0,0,1,.81-2.37A17.82,17.82,0,0,1,107,74.9a14.5,14.5,0,0,1,1.34-2,12,12,0,0,1,3.47-3,12.82,12.82,0,0,1,2-.91l.54-.16a3.32,3.32,0,0,1,.54-.15,9.15,9.15,0,0,1,1.09-.22,7.89,7.89,0,0,1,2.05-.07,5.69,5.69,0,0,1,1.84.49,7.62,7.62,0,0,1,3,2.52,17.06,17.06,0,0,1,2.14,3.91c.28.71.53,1.45.75,2.2.11.37.22.75.31,1.12,0,.19.09.38.13.57l.06.27,0,.24,1.09,5.58,3-4.77.12-.18.13-.21.29-.41c.19-.28.39-.55.6-.82.41-.55.85-1.08,1.3-1.58a19.43,19.43,0,0,1,2.93-2.69,9.78,9.78,0,0,1,3.28-1.6,7,7,0,0,1,1.7-.19l.43,0,.43.06a2.72,2.72,0,0,1,.46.1l.49.12a11.42,11.42,0,0,1,3.58,1.54l.4.29a3.68,3.68,0,0,1,.39.3l.37.32a3.82,3.82,0,0,1,.36.34l.34.37a3.68,3.68,0,0,1,.32.37c.2.28.43.53.61.82a15,15,0,0,1,1.79,3.83,29,29,0,0,1,1,4.33,19.18,19.18,0,0,0,.19-4.55A14.51,14.51,0,0,0,150.84,76.58Z"/><path class="cls-11" d="M199.65,93.82a17,17,0,0,0-1.5-2.47,15.9,15.9,0,0,0-4.32-4.08c-.44-.26-.88-.52-1.35-.74a12.28,12.28,0,0,0-1.45-.6,14,14,0,0,0-3.09-.69,15.37,15.37,0,0,0-6.2.74l-.72.27a7.49,7.49,0,0,0-.71.28c-.45.21-.92.39-1.36.63l-.66.35-.66.39a14.66,14.66,0,0,0-1.27.84,16.31,16.31,0,0,0-2.3,2,7,7,0,0,0-.52.57c-.17.2-.34.39-.49.6l-.45.62c-.15.21-.28.43-.42.65a13.46,13.46,0,0,0-1.94,8.61,10,10,0,0,0,.71,2.77,16.74,16.74,0,0,1,3.92-9.43,15.8,15.8,0,0,1,3.74-3.07c.35-.2.69-.42,1.06-.61l.55-.28.56-.26c.37-.18.77-.33,1.15-.49.19-.09.38-.15.57-.22l.57-.2c.38-.13.77-.23,1.15-.34l.57-.12.29-.07.29,0,.58-.09c.19,0,.38,0,.58-.06.38,0,.77,0,1.15,0a13,13,0,0,1,2.31.27,11.43,11.43,0,0,1,1.15.3c.39.11.76.26,1.14.4a19.77,19.77,0,0,1,4.37,2.57,32,32,0,0,1,4,3.68A12.78,12.78,0,0,0,199.65,93.82Z"/><path class="cls-11" d="M162.78,55.17c-.05-.24-.12-.47-.19-.7a5.39,5.39,0,0,0-.22-.68c-.09-.23-.17-.46-.26-.68l-.31-.68c-.11-.22-.24-.43-.36-.65s-.26-.43-.4-.64a11.8,11.8,0,0,0-.93-1.21,13.94,13.94,0,0,0-1.1-1.07,12.31,12.31,0,0,0-5.43-2.59c-.24-.06-.48-.09-.73-.13l-.72-.11-1.38-.12a23.47,23.47,0,0,0-2.78,0,18.63,18.63,0,0,0-2.77.38,18.22,18.22,0,0,0-2.7.81,14.63,14.63,0,0,0-4.72,3A12.18,12.18,0,0,0,136,52.24a8.42,8.42,0,0,0-1.12,2.44A15.82,15.82,0,0,1,139,51.81a17.47,17.47,0,0,1,4.46-1.49c.76-.14,1.53-.23,2.3-.31.39,0,.77,0,1.16,0l.59,0,.58,0c.39,0,.78,0,1.17,0l1.18.09c.39.06.79.09,1.17.14l.54.09a4.69,4.69,0,0,1,.54.11,7.21,7.21,0,0,1,1,.27l.5.15.48.2.25.09.23.11.46.23a9.64,9.64,0,0,1,.86.55,8,8,0,0,1,.81.63c.24.25.51.47.73.74a10.82,10.82,0,0,1,1.27,1.76c.11.16.18.33.28.5s.18.33.26.51c.17.34.31.7.47,1.07a20.48,20.48,0,0,1,.76,2.29,38.14,38.14,0,0,1,1,5,13,13,0,0,0,.77-2.55,16.93,16.93,0,0,0,.32-2.67,16,16,0,0,0-.13-2.76C163,56.09,162.89,55.63,162.78,55.17Z"/><path class="cls-12" d="M206.19,133.62c3.08-4-.3-14.6-.3-14.6h1.32s10.35-2.12,13.72-3.74,11.59-12.76,12.62-17.6,0-15.74,0-15.74-5.81-18.31-15.19-26.36S194,42.38,194,42.38s.44-6.38-4.33-9.83c-3.75-2.71-9.18-.25-11.32.92l-7.41,10s16.4,5.18,9.5,20c0,0,24.67-7.24,35.52,8.88s1.32,41.11-25,37.17c0,0,18.61,14.24,7,30.64A27.53,27.53,0,0,0,206.19,133.62Z"/><path class="cls-12" d="M174.22,40.55l3.64-9.91c.45-8.9-4.69-16.52-11.87-21.93C157.92,2.62,144.5,2,136.73,2.48s-17.31,3.74-24,10.19a27.66,27.66,0,0,0-7.92,13.72c-6.38-1.18-9.61,4.69-9.61,4.69s-10-5.43-18-6.75-21.49,8-24.57,12.4-7.19,14.81-6.53,23.32,6.16,18.78,6.16,18.78S44.9,83.16,43.06,89c-1.75,5.55.87,12.2,1.09,12.75C47.76,96.84,57,87,70.06,91.19c0,0-17.07-25.75-5.21-42s35.33,4.34,35.33,4.34-1.48-11,5.47-13.88,11.86,7.23,11.86,7.23S121.25,18,146.74,17.69,174.22,40.55,174.22,40.55Z"/><path class="cls-13" d="M231.54,69.75c-6.88-13.16-20.81-24.52-35.2-28.15,1-10-7.22-15.14-16.49-11.4-.43-37.94-68-40.78-76.81-4.85a11.13,11.13,0,0,0-7.93,3.42c-9.81-7.75-22.48-7-32.74-.56A45.71,45.71,0,0,0,49,39.81c-8.25,11.2-6.12,26.92.5,38.39-8.5,4.55-10,15.7-5.69,23.67l.38-.13c-2.16-8.11-.09-18,8.72-20.86l1-2.95C48.22,67.45,44.86,54.29,50.15,43A30.87,30.87,0,0,1,61.76,30c10.34-7,24.58-4.34,33.79,3.37,4.33-7,11-7,17.12-2.19l.29-.27a15.13,15.13,0,0,0-6-4.69C116.83-11.12,190.88,2.57,173,39.46a59.34,59.34,0,0,0-4.89,11.47c5.16-6,7.6-5.5,11-16v0c8.29-4.55,15.32-1.22,12.75,9.72,32.56,5,59.34,52.1,23.76,71-8.09,2.7-7.95,1.53-12.51,1.25,4.08,7.73,5,20.38-9.43,23.38-12.62,3.82-19.79-8.33-20.76-15.6a16.7,16.7,0,0,0,5.87-8.43c-3.4,5.79-10.15,9.79-16.9,8.06-3.89-.85-7.75-2.71-10.22-5.92-3.68-4.62-3.78-11-2.89-16.57-9.43,4.26-21.88,6.3-27.24-4.9a13.59,13.59,0,0,0,3.52,6.74c-11.1,10.12-25.42,6.34-38.21,2a29,29,0,0,0,7.8,5.33c-1.18,8.19-11.27,38.23-28.92,26.65l-2,3.49c20.88,12.63,32.59-16.65,34.64-28.59,9.79,3.56,22,1.46,27-8.5,4.94,4.91,12.68,5,19,3.28-.63,8.7,4.93,17.49,13.61,19.54a18,18,0,0,0,11.23-.14c1.62,9,10.49,20.64,23.21,17.89.72,5.08-.45,10.53-4.13,13.77a22.12,22.12,0,0,1-1.14,5.46c7.66-3.47,10.54-12.54,9.2-20.13,11-2.57,15.45-13.75,12.62-22.4C230,120.65,244.71,90.57,231.54,69.75Z"/><path class="cls-14" d="M184.74,144.57c-8.49-2.14-14.18-10.78-15.44-17.81a18,18,0,0,1-11.23.14c-8.68-2.05-14.24-10.84-13.61-19.54-6.34,1.72-14.08,1.63-19-3.28-5,10-17.2,12.06-27,8.5-2,11.94-13.76,41.22-34.64,28.59l.94-1.67s4-12.48,1.93-23.41-11.14-19-22.51-14.35l-.38.13c-.06-.11-.11-.21-.16-.32-6,3.32-9.19,11.27-9.74,20.37-.73,12.26,9.12,23.62,21.59,25.59L58,156.72s7.33,19.6,14.88,27.25,17.71,22.3,31.24,26.31,20.54.39,22.84-1.22a21.39,21.39,0,0,0,3.36-2.77s18.71-1.14,27.79-6.71,11.82-12,11.82-12,2.42-7.52,2.31-13c0,0,6.84-7.64,9.83-11.9C180.89,161,184.85,153.75,184.74,144.57Z"/><path class="cls-15" d="M172.24,174.64c-4.07,15.67-8.92,19-12.16,21.27-10.19,7-23.49,8.41-28.88,8.67a19.29,19.29,0,0,0,.87-4.92v-4.18c-1.75,4.68-4.64,12.24-9.4,14.43-7.46,3.44-19.8-.8-33.84-11.62C75.76,188.22,68,175,63.8,165.6a89.27,89.27,0,0,1-6.07-18.16l-.21-1.15-1.15-.17c-12.57-1.84-17.6-9.24-19.6-15.12-3.13-9.21-.79-20.3,3.28-24.5,3.38-3.49,9.26-6.34,14.8-4.83,5.09,1.38,8.76,6.13,10.61,13.72,2.36,9.7,1.05,16.47-.46,20.46a30,30,0,0,0-1.13,3.3,26.41,26.41,0,0,1-.73,2.64L62,145.37c.43-.38,11.66-10.25,6.67-30.75C65.9,103.48,60.1,99.72,55.7,98.53c-6-1.63-13.05.62-18,5.71s-7.58,17.34-4,27.8c2.23,6.56,7.7,14.76,21.08,17.11a94.77,94.77,0,0,0,6,17.69c4.36,9.73,12.41,23.52,26,34,7.81,6,15.08,10.07,21.64,12.06a28.64,28.64,0,0,0,8.44,1.37,16.94,16.94,0,0,0,7.11-1.42,13,13,0,0,0,5.65-5c4.1,0,20-.83,32.25-9.3,5.06-3.5,11.22-9.91,12.73-24.48.05-.48,8.54-12.11,8.6-12.6s-5.52,6.83-7,8.57C174.68,171.55,173.31,173.44,172.24,174.64Z"/><path class="cls-16" d="M134.19,178.49l.05.32c0,.21.06.43.11.64l.16.63a10.41,10.41,0,0,0,1,2.43l.17.3.19.27c.13.19.24.38.38.56l.43.52c.14.18.3.34.46.51a12.6,12.6,0,0,0,2.09,1.75,13.61,13.61,0,0,0,5.1,2,13.3,13.3,0,0,0,5.61-.17,11.18,11.18,0,0,0,5.05-2.81,10.26,10.26,0,0,0,1-1.1l.43-.59c.14-.2.26-.41.39-.62a8.86,8.86,0,0,0,1.07-2.86,6.82,6.82,0,0,0,.1-.79c0-.26,0-.53,0-.79a7.35,7.35,0,0,0-.24-1.56,8.25,8.25,0,0,0-1.3-2.7,11.52,11.52,0,0,0-1.91-2.08,12.19,12.19,0,0,0-1.09-.84c-.19-.13-.38-.26-.58-.38l0,0,.09-1.71c0-.82.06-1.64.09-2.47s0-1.65,0-2.47,0-1.66,0-2.49c-.25.79-.47,1.59-.69,2.39s-.42,1.6-.62,2.4-.39,1.6-.57,2.4-.36,1.61-.53,2.41l-.13.58.66.52.42.33c.15.12.29.25.43.38a10.32,10.32,0,0,1,.81.81,9.15,9.15,0,0,1,1.32,1.77,6.17,6.17,0,0,1,.46.93,4.26,4.26,0,0,1,.15.47l.07.24c0,.08,0,.16,0,.23a5.07,5.07,0,0,1,.09.94,5.65,5.65,0,0,1-.12.92,5.78,5.78,0,0,1-.76,1.81c-.09.14-.17.29-.28.44l-.32.43a8.4,8.4,0,0,1-.7.76,7.65,7.65,0,0,1-1.66,1.26,11,11,0,0,1-2,.84,12.44,12.44,0,0,1-8.76-.79,11.92,11.92,0,0,1-3.74-2.75,12.88,12.88,0,0,1-2.52-4.19c0,.21,0,.43,0,.64Z"/><path class="cls-15" d="M100.38,186.23a6.34,6.34,0,0,1,1.21-.92,10.28,10.28,0,0,1,1.36-.7,11.52,11.52,0,0,1,3-.79,11.93,11.93,0,0,1,6.22.84,11.31,11.31,0,0,1,1.44.71,11.81,11.81,0,0,1,1.32.9,13,13,0,0,1,1.19,1c.18.19.35.39.52.58l.26.29.23.31a11.42,11.42,0,0,1,2.31,5.58,14.34,14.34,0,0,1-1.16-.94c-.2-.15-.38-.3-.56-.45s-.35-.31-.54-.45c-.37-.29-.71-.59-1.07-.85l-.52-.41c-.19-.13-.37-.25-.54-.38l-.26-.2-.27-.18-.53-.36c-.36-.21-.7-.45-1.07-.64s-.72-.4-1.08-.59-.74-.36-1.12-.51a21,21,0,0,0-2.31-.81,24,24,0,0,0-2.47-.54c-.86-.16-1.74-.26-2.65-.34S101.4,186.28,100.38,186.23Z"/><path class="cls-17" d="M110.39,147.51c.64,1.24,1.21,2.43,1.81,3.57a36.69,36.69,0,0,0,1.85,3.24,17.17,17.17,0,0,0,1,1.39,9.49,9.49,0,0,0,1.07,1.11,5.12,5.12,0,0,0,1.09.72,3.36,3.36,0,0,0,1.1.31,1.29,1.29,0,0,0,.29,0h.3l.39,0,.4,0a15.21,15.21,0,0,0,1.6-.26,16.39,16.39,0,0,0,1.62-.46c.54-.18,1.08-.39,1.63-.63a32.11,32.11,0,0,0,3.28-1.7c1.1-.65,2.19-1.36,3.35-2.13a9,9,0,0,1-.76,1.94,14.29,14.29,0,0,1-1.08,1.8,14.81,14.81,0,0,1-2.93,3.1,12.72,12.72,0,0,1-1.83,1.23,12.29,12.29,0,0,1-2,.94,12,12,0,0,1-2.23.57,5.4,5.4,0,0,1-.58.08c-.19,0-.37.05-.59.06a7.77,7.77,0,0,1-1.36-.05,7,7,0,0,1-2.63-.86,8.12,8.12,0,0,1-2-1.64,11.2,11.2,0,0,1-2.25-4,16.83,16.83,0,0,1-.76-6.24A11.13,11.13,0,0,1,110.39,147.51Z"/><path class="cls-15" d="M116.55,148.83a24.92,24.92,0,0,0,2.66-.09c.83-.07,1.63-.18,2.44-.31l.61-.1c.21,0,.41-.09.61-.12.42-.06.82-.18,1.25-.25.21,0,.42-.09.64-.13l.66-.12a11.22,11.22,0,0,1,1.4-.2,7.18,7.18,0,0,1-1,1.08l-.56.44a5.69,5.69,0,0,1-.6.4,7.76,7.76,0,0,1-1.31.6,7,7,0,0,1-.69.23l-.71.15a7.37,7.37,0,0,1-2.92-.11,5.19,5.19,0,0,1-.7-.22l-.34-.14-.33-.17A3.7,3.7,0,0,1,116.55,148.83Z"/><path class="cls-17" d="M161.24,161.51c.19,1,.33,1.86.49,2.74s.32,1.72.54,2.48a4.75,4.75,0,0,0,.83,1.75.88.88,0,0,0,.39.26s.06,0,.1,0l.12,0,.17,0h.19a4.34,4.34,0,0,0,.9-.1,9.83,9.83,0,0,0,1-.3,24.14,24.14,0,0,0,2.24-.95c1.55-.73,3.12-1.59,4.9-2.35a8.26,8.26,0,0,1-.64,1.3,11.73,11.73,0,0,1-.78,1.2,15.48,15.48,0,0,1-1.93,2.13,11.88,11.88,0,0,1-2.45,1.71,7.26,7.26,0,0,1-3.28.86,4.1,4.1,0,0,1-.49,0l-.49-.07-.54-.14a4.93,4.93,0,0,1-.53-.22,4,4,0,0,1-1.63-1.48,5.21,5.21,0,0,1-.69-1.72,7.6,7.6,0,0,1-.15-1.61,10.26,10.26,0,0,1,.47-2.92,12.11,12.11,0,0,1,.51-1.35A7.21,7.21,0,0,1,161.24,161.51Z"/><path class="cls-15" d="M164.12,160.59c.48.39.85.76,1.22,1.12s.7.7,1,1a8.64,8.64,0,0,0,1,.86,9.33,9.33,0,0,0,1.37.76,2.32,2.32,0,0,1-1.79.34,3.5,3.5,0,0,1-1.65-.86,4.22,4.22,0,0,1-1-1.48A3.33,3.33,0,0,1,164.12,160.59Z"/><path class="cls-15" d="M51.57,114.75a9.07,9.07,0,0,1,1.89,1.82,13.45,13.45,0,0,1,1.41,2.22A12.82,12.82,0,0,1,56.22,124a10.9,10.9,0,0,1-1.08,5.32c-.09.2-.21.4-.32.59a5.65,5.65,0,0,1-.36.58,8.52,8.52,0,0,1-.83,1.05,8,8,0,0,1-2.06,1.65,31.12,31.12,0,0,0,1.34-4.65,18.85,18.85,0,0,0,.29-2.21,20.18,20.18,0,0,0,0-2.2,30,30,0,0,0-.57-4.52C52.35,118,52,116.46,51.57,114.75Z"/><path class="cls-18" d="M105.78,139.15a.73.73,0,0,0,.13,1.43c6.33.39,17.6.5,26.34-2.61,12.88-4.59,12.42-8.24,10.59-9.18C139.41,127.05,119.75,135.68,105.78,139.15Z"/><path class="cls-18" d="M176.42,163.25a.53.53,0,0,0,.81-.65,79.85,79.85,0,0,1-6.65-16.76c-2.34-9.56-.93-11.26-4.1-11.2S162.44,151.45,176.42,163.25Z"/><path class="cls-19" d="M184.74,141.67c-4.6-5.59-9.18-4.92-16.49-1.52s-13.76,16.11-13.76,16.11c-5.4-4.18-9.93-2.16-9.93-2.16.95-5.82-2-14.87-3.85-17.94a23.18,23.18,0,0,0-21.15-10.94c-13,.47-20.09,13.14-20.09,13.14L69.71,122.62v5.67l26.61,14.32L96,144c-1.42,15.66-2.21,15.34-1.26,19.11s5,9.85,9.91,13.94,12.44,6.3,22.16,3.31,17.59-21.25,17.59-21.25c4.56-1.18,9.12,2,9.12,2l-.49,1.48-.21,8.48c2.44,1.14,4.38,4.82,4.38,4.82l-.21-3.65.39-7,2.52-6.84,4.64-7.64,5.75-5.35s3.7-1.18,4.33-1.34a23.85,23.85,0,0,1,3.46.08l3.54,3.78,1,3.46.24,7.79s-2,6.06-2,6.3-1.89,4.56-1.89,4.56L176,175.9l-6.37,4.41L165.65,182h-3l-1.49-1.65-3.41-2.85c1,3.93-2,7.16-2,7.16,6.78,5.81,10.45,3.71,14.77,2.22s13.54-11.33,16.06-20.54S189.34,147.25,184.74,141.67Zm-59.5,30.64c-9,3.15-18.59,1.63-22.43-9.65,0,0-2.59-11.39,1.11-18.46s11-12.62,17.23-12.27,16.11,5.81,16.11,17.08S134.26,169.17,125.24,172.31Z"/><path class="cls-20" d="M113.62,175a16.22,16.22,0,0,0,4.31.58,18.31,18.31,0,0,0,10.22-3.28,25.38,25.38,0,0,0,8.48-30.87,17.52,17.52,0,0,0-11.12-9.74,16.22,16.22,0,0,0-4.31-.58A18.29,18.29,0,0,0,111,134.36a25.4,25.4,0,0,0-8.47,30.87A17.52,17.52,0,0,0,113.62,175Zm-10-26a22,22,0,0,1,8.7-12.52,15.9,15.9,0,0,1,8.83-2.85,14,14,0,0,1,3.64.49,15.05,15.05,0,0,1,9.53,8.4,22.9,22.9,0,0,1-7.61,27.73,15.9,15.9,0,0,1-8.83,2.85,14.08,14.08,0,0,1-3.65-.49,15,15,0,0,1-9.52-8.4A22,22,0,0,1,103.67,149Z"/><path class="cls-20" d="M153,162.1c.05.09,0,2.45,0,3a43.07,43.07,0,0,1,1.3-4.12c.13-.33.11-.79-.07-.93h0l-.39-.32a10.3,10.3,0,0,0-9.42-2.22,2.81,2.81,0,0,0-2,2l0,.1a29.22,29.22,0,0,1-11.64,16.62A23,23,0,0,1,118,180.3a21.32,21.32,0,0,1-5.59-.75,22.21,22.21,0,0,1-14.15-12.28A29.22,29.22,0,0,1,96.68,147c.18-.64.31-1.44.46-2.25l.69-2.63-28-15.31-.28,2.7,25.6,14.13q-.49,1.32-.87,2.7a31.68,31.68,0,0,0,1.68,22A24.65,24.65,0,0,0,111.7,182a23.6,23.6,0,0,0,6.25.84,25.55,25.55,0,0,0,14.25-4.51,31.7,31.7,0,0,0,12.66-18l.11-.41a7.64,7.64,0,0,1,7.12,1.62Z"/><path class="cls-20" d="M180.56,145a7.34,7.34,0,0,0-5-1.89,11.14,11.14,0,0,0-4.68,1.14c-3.84,1.8-7.53,5.49-10.39,10.38a33.78,33.78,0,0,0-4.71,15.47,24,24,0,0,0,.16,3.85,8.64,8.64,0,0,1,2,5.62,8.93,8.93,0,0,0,1.47,1.69,7.35,7.35,0,0,0,5,1.9,11,11,0,0,0,4.68-1.15c3.84-1.8,7.53-5.48,10.39-10.38a33.75,33.75,0,0,0,4.71-15.47C184.34,151.22,183.06,147.25,180.56,145Zm1.61,11.09a31.67,31.67,0,0,1-4.44,14.53c-2.65,4.55-6,8-9.51,9.58a9,9,0,0,1-3.83,1,5.33,5.33,0,0,1-3.67-1.39c-2.05-1.83-3.1-5.24-2.95-9.6a31.74,31.74,0,0,1,4.44-14.53c2.65-4.55,6-8,9.51-9.58a9.14,9.14,0,0,1,3.83-.95,5.32,5.32,0,0,1,3.67,1.38C181.27,148.34,182.32,151.75,182.17,156.1Z"/><path class="cls-20" d="M184.13,139.69a11.46,11.46,0,0,0-7.77-3h0a15.8,15.8,0,0,0-6.68,1.62c-5,2.33-9.7,7-13.3,13.17-.45.77-.88,1.56-1.28,2.36a.94.94,0,0,1-1.37.34,10.25,10.25,0,0,0-6.19-1.69,1.43,1.43,0,0,1-1.48-1.4,30.54,30.54,0,0,0-2.88-12.83,24.64,24.64,0,0,0-15.76-13.62,23.52,23.52,0,0,0-6.24-.84v0h0a25.58,25.58,0,0,0-14.26,4.51,30.35,30.35,0,0,0-8.14,8.19L69.71,121.29l.14,2.89L99,139.49l.61.35a28.21,28.21,0,0,1,8.67-9.42,23,23,0,0,1,12.86-4.09,21.25,21.25,0,0,1,5.58.75,22.2,22.2,0,0,1,14.16,12.28,29.87,29.87,0,0,1,2.58,14.37,1.57,1.57,0,0,0,2,1.6c.23-.07.44-.12.58-.15h0a7.84,7.84,0,0,1,7.82,2l0,0,.28.28h0a.94.94,0,0,0,1.55-.28,42.93,42.93,0,0,1,2.37-4.69c3.39-5.82,7.8-10.21,12.42-12.37a13.85,13.85,0,0,1,5.83-1.43,9.45,9.45,0,0,1,6.44,2.46c3.2,2.87,4.85,7.88,4.63,14.11a40.18,40.18,0,0,1-5.6,18.48c-3.39,5.81-7.8,10.2-12.42,12.37a13.83,13.83,0,0,1-5.83,1.42,9.48,9.48,0,0,1-6.44-2.45,11,11,0,0,1-.95-1,14.3,14.3,0,0,1-1.37,1.56c.29.32.67.62,1,.91a11.43,11.43,0,0,0,3.8,2.28,11.7,11.7,0,0,0,4,.68,15.78,15.78,0,0,0,6.68-1.61c5-2.33,9.7-7,13.3-13.17a42.38,42.38,0,0,0,5.87-19.43C189.67,148.52,187.78,143,184.13,139.69Z"/><path class="cls-14" d="M52.5,257l3.41-5.17,4.69-6.18,3.92-4.54,4.17-4.21,3.66-3.08,2.19-1.95S85.4,246.93,98,252.94s19.35,8.72,20.91,8.8a7.45,7.45,0,0,0,4.17-1.64c.19-.33,5.79-7.61,7.44-7.59a14.59,14.59,0,0,1,3.46.55s9.3-3.83,10.86-3.17,8.89,6.83,8.89,6.83l16.47-5.35.17-.54.2-4.84,3.18-.2,4.93-.83,3.7-1.08,3.55-1.45,2.69-1.55,1.09-.62,1.67,4.36s.63,15.89-6.28,22.15-21.32,12.92-32.6,13.83-12.93.41-12.93.41a69.32,69.32,0,0,1-21.4,5c-11.52.66-31.61-4.36-38.53-7.82s-20.5-13.09-20.5-13.09l-6-6.83Z"/><path class="cls-15" d="M192.79,247.43a34,34,0,0,0-1.68-8.05l-2.41,1.5c1.21,3.86,3.61,14.5-3.09,23.44-7.54,10-26.46,14.49-40.2,15.44,5.18-3.56,8.9-8.15,10.54-13.28a12.72,12.72,0,0,0,.08-8.66l16.62-5.67a36.56,36.56,0,0,0,7.94-3.83l1.18-.75-27.37,7.9a7.11,7.11,0,0,0-1.13-.85c-2.15-2.08-7.17-6.62-9.86-6.31-2.18.25-7.32,2.87-9.26,3.89-1.79-1-3.1-1.33-4.11-1-1.7.54-5.81,4.89-8.64,8.07a3.25,3.25,0,0,1-3.28,1,77.27,77.27,0,0,1-31.55-17.55,75.12,75.12,0,0,1-11.13-12.52,15.34,15.34,0,0,1-1.61,2.5,79.73,79.73,0,0,0,10.82,12c7.23,6.6,16.9,14.27,33.36,18.4l1.13.27a3.32,3.32,0,0,0,3.29-1.06c3.57-4.14,7.3-8,8.41-8.43.84-.07,3.82,1.77,6.3,3.88l.63.54.78-.31a26.37,26.37,0,0,1,9.63-1.89l-.85.84c-.9.86-1.84,1.68-2.81,2.46-.48.4-1,.77-1.48,1.16s-1,.74-1.55,1.07a35.28,35.28,0,0,1-3.25,1.94,35.92,35.92,0,0,0,3.56-1.39c.59-.25,1.15-.55,1.73-.83s1.14-.59,1.69-.91c1.12-.63,2.22-1.31,3.29-2.05.53-.36,1.06-.74,1.58-1.13.26-.2.52-.39.78-.6l.07-.06a4.58,4.58,0,0,1,2,1.39,2.32,2.32,0,0,1,.22.3l-.06.08-.3.37-.63.73c-.44.49-.88,1-1.35,1.43a36.9,36.9,0,0,1-2.92,2.65l-.38.31-.39.3-.79.61c-.54.38-1.08.77-1.64,1.13a34.77,34.77,0,0,1-3.47,2,36.62,36.62,0,0,0,3.77-1.45c.63-.27,1.22-.59,1.83-.89.31-.15.6-.32.9-.48l.45-.25.44-.26a36.64,36.64,0,0,0,3.42-2.25c.56-.41,1.1-.83,1.64-1.27l.28-.24a12.18,12.18,0,0,1-.62,4.9c0,.09-.06.2-.1.31-.29.23-.6.47-.9.69s-.89.65-1.34,1c-.91.63-1.84,1.22-2.8,1.78s-1.93,1.08-2.94,1.57-2,.91-3.08,1.31c1.1-.2,2.21-.42,3.3-.73s2.18-.63,3.25-1,1.95-.73,2.91-1.15c-2.45,4.16-7.81,10.14-19.16,13.35-10.62,3-24.77,2.46-38.8-1.49A91.33,91.33,0,0,1,52.59,257l-1.48,2.43a94.24,94.24,0,0,0,41.82,24.45,90.57,90.57,0,0,0,24.28,3.5,59.3,59.3,0,0,0,16-2,44.19,44.19,0,0,0,7.07-2.65A97.85,97.85,0,0,0,165.65,279c10.35-3,18-7.52,22.16-13A26.67,26.67,0,0,0,192.79,247.43Zm-54.25,8.66c-.38-.3-1.65-1.44-2.25-1.88,2.58-1.31,6.24-3,7.43-3.17.57,0,3.34,1.89,5.11,3.26C144.73,254,140.16,255.52,138.54,256.09Z"/><path class="cls-21" d="M110.62,336.59a84.14,84.14,0,0,1,27.84-4.78c15,.16,26.37,13.2,24.19,16.93-3.75,6.42-22.15,8.49-43.54,5.37S104.92,337.88,110.62,336.59Z"/><path class="cls-22" d="M162.65,348.74c.5-.86.29-2.2-.51-3.77-10.59,8.35-37.83,5.07-37.83,5.07l-2.55,4.43C142,357.05,159.05,354.9,162.65,348.74Z"/><path class="cls-23" d="M52.8,340.33s-2.16,3.28-.81,6.1,17.88,12.86,44.55,13.77,27.79-8.69,27.56-11.85-9.12-16.71-29.68-14.2S65,339.83,65,339.83Z"/><path class="cls-22" d="M124.12,349.1h0c-.09.15-5.38,9-36,5.56C61.35,351.7,54,343.24,52.44,341c-.56,1.1-1.43,3.39-.45,5.44,1.36,2.82,17.88,12.86,44.55,13.77,13.52.46,20.47-1.79,24-4.52Z"/><path class="cls-24" d="M52.8,340.33a14.41,14.41,0,0,0-.56,2.38A5.41,5.41,0,0,0,52.4,345a4.87,4.87,0,0,0,1.16,1.87,10,10,0,0,0,1.79,1.42,26.47,26.47,0,0,0,4.22,2.13c.74.31,1.49.59,2.24.87s1.48.64,2.22,1a72.61,72.61,0,0,0,9.12,3.12,94.79,94.79,0,0,0,9.46,2.05,98.21,98.21,0,0,0,19.3,1.23,88.19,88.19,0,0,0,9.62-.9l1.2-.19.59-.1.3-.05.28-.06a16.66,16.66,0,0,0,2.21-.57,12.15,12.15,0,0,0,3.89-2,7.75,7.75,0,0,0,2.48-3.3,7.19,7.19,0,0,0,.28-4.06,9.91,9.91,0,0,0-1.83-3.87,14.68,14.68,0,0,0-3.21-3.13,24.9,24.9,0,0,0-8.42-3.83,41.75,41.75,0,0,0-9.41-1.28h-2.4c-.81,0-1.62,0-2.43,0H92.62c-.81,0-1.62,0-2.43,0-3.24.09-6.48.32-9.7.72-1.61.21-3.22.45-4.81.76s-3.17.68-4.73,1.14a34.37,34.37,0,0,0-4.59,1.64,22.08,22.08,0,0,0-2.17,1.1,11.58,11.58,0,0,0-2,1.4,11.47,11.47,0,0,1,1.88-1.59,21.57,21.57,0,0,1,2.1-1.3,35.28,35.28,0,0,1,4.51-2.06c1.54-.59,3.12-1.09,4.72-1.54s3.2-.81,4.82-1.15c3.25-.64,6.53-1.1,9.82-1.43.82-.09,1.65-.15,2.47-.22l2.48-.18c.82-.05,1.65-.09,2.47-.11.41,0,.83,0,1.25,0l1.26,0a44.45,44.45,0,0,1,10,1.37,27.87,27.87,0,0,1,9.35,4.27,17.48,17.48,0,0,1,3.79,3.7,12.88,12.88,0,0,1,2.31,4.95,10,10,0,0,1-.4,5.61,10.55,10.55,0,0,1-3.33,4.47,14.86,14.86,0,0,1-4.75,2.5,19.11,19.11,0,0,1-2.55.66l-.32.06-.31.06-.61.1-1.23.2a89.6,89.6,0,0,1-9.93.92,99.87,99.87,0,0,1-19.85-1.26A95.44,95.44,0,0,1,72.43,358,81,81,0,0,1,63,354.8a24.51,24.51,0,0,1-2.3-1c-.73-.39-1.46-.81-2.19-1.24a28.85,28.85,0,0,1-4.17-2.94,11.34,11.34,0,0,1-1.77-1.95,6,6,0,0,1-1-2.49,5.7,5.7,0,0,1,.27-2.58A12.63,12.63,0,0,1,52.8,340.33Z"/><path class="cls-24" d="M137.45,357A120,120,0,0,1,122,355.89l.35-2.73c26.43,3.46,38.72-2.42,39.16-5.33.15-1-.41-3.15-2.51-5.75-4.07-5.06-11-8.39-18.48-8.9a67.78,67.78,0,0,0-26.83,3.92l-1-2.55a69.54,69.54,0,0,1,28.05-4.11c11.91.81,18.26,7.2,20.44,9.91s3.41,5.75,3.09,7.88C163.53,353.05,153.5,357,137.45,357Z"/></g></g></svg>