<svg xmlns="http://www.w3.org/2000/svg" xmlns:xlink="http://www.w3.org/1999/xlink" viewBox="0 0 326.73 347.18"><defs><style>.cls-1{fill:none;}.cls-2{isolation:isolate;}.cls-3{fill:#fff;}.cls-13,.cls-4{fill:#d07a52;}.cls-5{fill:#a04b2a;}.cls-6{clip-path:url(#clip-path);}.cls-15,.cls-7{fill:#5c2c12;}.cls-13,.cls-16,.cls-8{opacity:0.5;}.cls-9{clip-path:url(#clip-path-2);}.cls-10{fill:#ff8f80;}.cls-11{clip-path:url(#clip-path-3);}.cls-12{fill:#c56c48;}.cls-13,.cls-15,.cls-16{mix-blend-mode:multiply;}.cls-14{clip-path:url(#clip-path-4);}</style><clipPath id="clip-path"><path class="cls-1" d="M192.52,197.3c4.1,16.27,16.87,27.09,28.52,24.16s17.78-18.5,13.69-34.78-16.87-27.09-28.52-24.16S188.43,181,192.52,197.3Z"/></clipPath><clipPath id="clip-path-2"><path class="cls-1" d="M130.41,213.9c4.57,16.15-1.1,31.89-12.66,35.16s-24.64-7.17-29.21-23.31,1.1-31.9,12.66-35.17S125.84,197.75,130.41,213.9Z"/></clipPath><clipPath id="clip-path-3"><path class="cls-1" d="M307.77,159.05c-6-8.17-14.56-14.25-24.84-15.3-9.24-.94-17.87,2.51-25.09,7.94C255,144,252,136.31,248.73,128.75,241.1,110.83,233,88.24,215.5,77.15s-41.39-12.05-61.26-11.5a246.73,246.73,0,0,0-53.67,7.5,83.19,83.19,0,0,0-49.49,35.69c-10.68,16.92-14.9,37.2-15.22,57A178.64,178.64,0,0,0,43,217.6a33.27,33.27,0,0,0-18.86,6c-8.4,6-12.77,15.57-13.9,25.65C9,260,12.2,271.66,18,280.68c4.58,7.11,12,11.73,20.06,14,10.64,2.94,23.88,2,34.14-3.51C82.44,308,96.21,322,116.9,329.92c17.56,6.73,36.83,8.42,55.46,6.64,18.33-1.76,36.67-7.34,52.45-16.92,18.08-11,32-27.87,40.21-47.33,6.14-14.59,8.46-30.29,8.31-46,12.12.15,24.83-5.78,32.95-14,5.86-5.94,10-13.65,10.42-22.1C317.24,179.47,314.16,167.75,307.77,159.05Z"/></clipPath><clipPath id="clip-path-4"><path class="cls-1" d="M248.73,128.75C241.1,110.83,233,88.24,215.5,77.15s-41.39-12.05-61.26-11.5a246.73,246.73,0,0,0-53.67,7.5,83.19,83.19,0,0,0-49.49,35.69c-10.68,16.92-14.9,37.2-15.22,57a182.53,182.53,0,0,0,10.3,61.9C60.08,268.24,72.74,313,116.9,329.92c17.56,6.73,36.83,8.42,55.46,6.64,18.33-1.76,36.67-7.34,52.45-16.92,18.08-11,32-27.87,40.21-47.33,9.67-23,9.89-48.73,5.82-73C266.74,174.92,258.4,151.45,248.73,128.75Z"/></clipPath></defs><title>Asset 2</title><g class="cls-2"><g id="Layer_2" data-name="Layer 2"><g id="OBJECTS"><path class="cls-3" d="M315.8,153.14c-8.24-11.2-19.56-18.06-31.87-19.31a40.76,40.76,0,0,0-14.74,1.22l-.14,0a12.17,12.17,0,0,0-2.14-9.06,12.53,12.53,0,0,0-4.37-3.84,12.16,12.16,0,0,0-1.81-10.46,12.66,12.66,0,0,0-5.44-4.34,12.16,12.16,0,0,0-2.2-8.62A12.51,12.51,0,0,0,244,93.53c8.89-11.68,11.46-26.92,6.25-40.24-.07-.19-.15-.37-.24-.56s-.22-.55-.34-.81C244.11,40,235.59,31.7,225,27.84a36.4,36.4,0,0,0-19.68-1.2,37.56,37.56,0,0,0-16.82-14.32c-7.73-3.17-16.67-3.15-26.52.06a68.63,68.63,0,0,0-16.82,8.2A38,38,0,0,0,128.5,5.16C112.93-2.42,95.61-.26,83.81,2.89c-1.6.43-3.23.91-4.83,1.43C60.09,10.44,39.45,24,34.31,44.55c-9.65,4-16.93,9.06-22.16,15.51-6,7.4-8.9,16.9-8.37,27.47.54,10.73,5,23,13.73,30.55a40.12,40.12,0,0,0-.92,16.45,41.55,41.55,0,0,0,9.75,21.54c-.08,1.07-.15,2.14-.21,3.23A12.53,12.53,0,0,0,22.45,167a12.24,12.24,0,0,0,2.4,8.58,12.45,12.45,0,0,0-2.54,6.47,12.08,12.08,0,0,0,3.64,10,12.64,12.64,0,0,0-1.87,5.51,12.07,12.07,0,0,0,4,10.26,13,13,0,0,0-.53,2.6.45.45,0,0,1,0,.11,40.2,40.2,0,0,0-9.21,4.94c-10,7.23-16.43,18.82-18,32.64-1.41,12.52,2.07,26.71,9.32,38,5.57,8.66,14.72,15.11,25.78,18.17a58.83,58.83,0,0,0,30.41,0c.87-.23,1.72-.48,2.57-.75,12,17,26.74,28.76,44.94,35.73,17.76,6.79,38.5,9.3,60,7.24a143.16,143.16,0,0,0,23.12-4.15A128.71,128.71,0,0,0,230,328.17c19.36-11.75,35.07-30.21,44.23-52a120.33,120.33,0,0,0,8.9-40.81c1.31-.25,2.61-.54,3.92-.89h0a59,59,0,0,0,26.35-15.18c8.05-8.17,12.77-18.33,13.28-28.61C327.33,177.33,323.27,163.29,315.8,153.14Z"/><path class="cls-4" d="M248.73,128.75C241.1,110.83,233,88.24,215.5,77.15s-41.39-12.05-61.26-11.5a246.73,246.73,0,0,0-53.67,7.5,83.19,83.19,0,0,0-49.49,35.69c-10.68,16.92-14.9,37.2-15.22,57a182.53,182.53,0,0,0,10.3,61.9C60.08,268.24,72.74,313,116.9,329.92c17.56,6.73,36.83,8.42,55.46,6.64,18.33-1.76,36.67-7.34,52.45-16.92,18.08-11,32-27.87,40.21-47.33,9.67-23,9.89-48.73,5.82-73C266.74,174.92,258.4,151.45,248.73,128.75Z"/><path class="cls-4" d="M87,261.75l-8.61-12.37-19.71-28.3a3.35,3.35,0,0,0-2.39-1.94c-10.86-2.7-22.79-2.3-32.15,4.44-8.4,6-12.77,15.57-13.9,25.65C9,260,12.2,271.66,18,280.68c4.58,7.11,12,11.73,20.06,14,14.8,4.09,34.61.62,44.46-12a24.69,24.69,0,0,0,4.87-10.25C88,269.55,88.72,264.24,87,261.75Z"/><path class="cls-5" d="M60.41,253.48a42.38,42.38,0,0,0-15.29-5.72c-4.69-.72-9.5-.44-13.72,1.89-4.66,2.57-6.74,7.46-7.52,12.48-.28,1.78,2.31,2.59,2.76.76,1-4,3.26-8,7.27-9.69,3.64-1.5,7.8-1.16,11.54-.29,1,.23,2,.52,3,.84-3.1,3.59-2.68,8.86.27,12.65s10.63,7.2,14.25,2.39a1.11,1.11,0,0,0-.41-1.54c-2-1-3.7-.77-5.79-1.19a7.88,7.88,0,0,1-4.38-2.69,9.43,9.43,0,0,1-1.57-8.76,49,49,0,0,1,7,3.45,39.94,39.94,0,0,1,5.39,3.84c1.52,1.28,2.82,3,4.64,3.9a2.25,2.25,0,0,0,3.27-2.5C69.88,259,64,255.63,60.41,253.48Z"/><path class="cls-4" d="M247.48,208.19q.65-7.5,1.3-15,1.47-17.19,2.95-34.36a3.38,3.38,0,0,1,1.11-2.88c8.07-7.75,18.61-13.36,30.09-12.19,10.28,1.05,18.83,7.13,24.84,15.3,6.39,8.7,9.47,20.42,8.93,31.14-.42,8.45-4.56,16.16-10.42,22.1C295.5,223.23,276.6,230.1,261.74,224a24.79,24.79,0,0,1-9.33-6.45C250.52,215.44,247.22,211.22,247.48,208.19Z"/><path class="cls-5" d="M266.39,187.76a42.63,42.63,0,0,1,10.39-12.58c3.71-3,8-5.12,12.84-5.21,5.32-.09,9.56,3.11,12.74,7.08,1.13,1.4-.71,3.39-2,2-2.87-3-6.83-5.33-11.14-4.77-3.9.51-7.34,2.88-10.14,5.5-.76.7-1.48,1.45-2.17,2.21,4.48,1.58,6.75,6.35,6.07,11.1-.7,4.94-5.61,11.55-11.15,9.19a1.12,1.12,0,0,1-.41-1.54c1.24-1.82,2.82-2.52,4.42-3.93a7.87,7.87,0,0,0,2.46-4.51,9.41,9.41,0,0,0-3-8.38,49.72,49.72,0,0,0-4.31,6.46,40.4,40.4,0,0,0-2.76,6c-.68,1.87-.93,4-2.07,5.7a2.26,2.26,0,0,1-4.09-.54C260.9,197.24,264.35,191.42,266.39,187.76Z"/><path class="cls-3" d="M192.52,197.3c4.1,16.27,16.87,27.09,28.52,24.16s17.78-18.5,13.69-34.78-16.87-27.09-28.52-24.16S188.43,181,192.52,197.3Z"/><g class="cls-6"><path class="cls-7" d="M185.84,207.82c4.53,18,18.67,30,31.58,26.75s19.69-20.49,15.15-38.51-18.67-30-31.58-26.76S181.3,189.79,185.84,207.82Z"/></g><g class="cls-8"><path class="cls-3" d="M223.69,213.63c-.33.23-2.41,1.17-1.08.61l-2.1.89a11.67,11.67,0,0,1-4,.68,4.67,4.67,0,0,1,0-9.33c.33,0,1.89-.23.43,0,.78-.13,1.54-.28,2.32-.36a7.13,7.13,0,0,1,4.42.94,3.83,3.83,0,0,1,0,6.55Z"/></g><path class="cls-3" d="M216.24,170c-.85,2.32-2,5.2-4.09,6.63a2.08,2.08,0,0,1-3.21-2.06c.32-2.37,2.2-4.38,3.19-6.52,1.25-2.71,5.09-.76,4.11,1.95Z"/><path class="cls-7" d="M231,177.8c-3.25-7-11.07-14-19.39-12.9a17.8,17.8,0,0,0-9.58,4.15,20.31,20.31,0,0,0-4,5c-1.08,1.82-1.9,4-3.67,5.25a.81.81,0,0,1-1.21-.37c-1.54-4.48,3.1-10,6.19-12.76s7.76-4.81,12-4.59a22.51,22.51,0,0,1,12,3.83c4.18,2.84,6.82,7.47,8.55,12.11a.45.45,0,0,1-.84.31Z"/><path class="cls-1" d="M204.16,138.62a48.06,48.06,0,1,0,52,43.76A48.11,48.11,0,0,0,204.16,138.62Z"/><path class="cls-3" d="M130.41,213.9c4.57,16.15-1.1,31.89-12.66,35.16s-24.64-7.17-29.21-23.31,1.1-31.9,12.66-35.17S125.84,197.75,130.41,213.9Z"/><g class="cls-9"><path class="cls-7" d="M141.45,219.68c5.06,17.88-1.22,35.32-14,38.94s-27.29-7.94-32.35-25.82,1.22-35.32,14-38.94S136.39,201.79,141.45,219.68Z"/></g><g class="cls-8"><path class="cls-3" d="M111.55,243.6c.4,0,2.67-.19,1.24,0,.75-.09,1.51-.17,2.26-.27a11.64,11.64,0,0,0,3.78-1.39,4.66,4.66,0,0,0-4.61-8.11c-.29.16-1.75.75-.36.24-.74.27-1.47.52-2.2.84a7.1,7.1,0,0,0-3.35,3,3.84,3.84,0,0,0,3.24,5.7Z"/></g><path class="cls-3" d="M96.21,202c1.89,1.6,4.31,3.52,6.86,3.71a2.08,2.08,0,0,0,1.75-3.39c-1.47-1.89-4.09-2.69-6-4.06-2.43-1.72-4.79,1.88-2.59,3.74Z"/><path class="cls-7" d="M87.37,216.18c-.67-7.69,2.6-17.68,10.37-20.85a17.7,17.7,0,0,1,10.38-1.19,20.09,20.09,0,0,1,6,2.3c1.85,1,3.64,2.51,5.8,2.71a.8.8,0,0,0,.86-.92c-.9-4.65-7.68-7.14-11.73-8s-9.12-.29-12.68,2a22.48,22.48,0,0,0-8.48,9.31c-2.2,4.54-2.19,9.88-1.37,14.76a.45.45,0,0,0,.88-.14Z"/><path class="cls-1" d="M91.06,168.84a48.06,48.06,0,1,1-23.24,63.87A48.11,48.11,0,0,1,91.06,168.84Z"/><path class="cls-7" d="M80.93,177.07a21.67,21.67,0,0,1,12.41-8.44c5-1.36,2.27-8.84-2.68-7.53-6.89,1.82-13.11,6.32-15.23,13.31-.9,3,3.7,5.16,5.5,2.66Z"/><path class="cls-7" d="M213.85,141.55a21.65,21.65,0,0,0-15-1.12c-5,1.3-6.37-6.53-1.43-7.87,6.88-1.86,14.51-1.06,19.84,3.94,2.27,2.13-.64,6.32-3.44,5.05Z"/><path class="cls-10" d="M179.65,228.58c-2.31-4.78-10.3-4.31-14.72-3.44-4.88,1-10.74,3.66-11.59,9.15-.8,5.13,3.63,9.49,8.65,9.35,7.68-.22,21.31-3.22,18-14.2A5.89,5.89,0,0,0,179.65,228.58Z"/><path class="cls-3" d="M175.13,229.13a1.6,1.6,0,0,1,.05-.21,1.67,1.67,0,0,0-1.33-1.93,1.7,1.7,0,0,0-1.93,1.33l-.21.86c.13-.26.25-.53.38-.8l0,0a1.78,1.78,0,0,0-.31,1.72,1.73,1.73,0,0,0,1.31,1.11A1.73,1.73,0,0,0,175,229v0c0,.29.05.59.07.89,0-.3.07-.59.11-.89a1.69,1.69,0,0,0-1.33-1.93,1.67,1.67,0,0,0-1.93,1.33,1.49,1.49,0,0,1,0,.21,1.66,1.66,0,0,0,1.31,1.91,1.68,1.68,0,0,0,1.92-1.31Z"/><g class="cls-11"><path class="cls-12" d="M76.23,303a32,32,0,1,0,22.66-39.18A32,32,0,0,0,76.23,303Z"/><path class="cls-3" d="M90.52,274.44a9.84,9.84,0,0,1,4.29-3.81c1.64-.78,4-.72,5.1-2.26a1.19,1.19,0,0,0-.19-1.65c-1.89-1.51-4.91-.18-6.83.73a12.58,12.58,0,0,0-5.27,4.69c-1.25,2,1.63,4.33,2.9,2.3Z"/><path class="cls-12" d="M283.65,247.58a32,32,0,1,1-39.17-22.66A32,32,0,0,1,283.65,247.58Z"/><path class="cls-3" d="M257,230a9.73,9.73,0,0,0-5.62-1.16c-1.82.14-3.8,1.34-5.56.58a1.19,1.19,0,0,1-.66-1.52c.89-2.25,4.17-2.61,6.29-2.78a12.61,12.61,0,0,1,6.9,1.43c2.09,1.11.75,4.57-1.35,3.45Z"/></g><path class="cls-13" d="M312.69,175.19c-.42,8.45-4.56,16.16-10.42,22.1-8.12,8.23-20.83,14.15-32.95,14,.15,15.73-2.17,31.43-8.31,46-8.19,19.47-22.13,36.36-40.21,47.34-15.78,9.58-34.12,15.16-52.45,16.91-18.63,1.79-37.9.09-55.46-6.63C92.2,307,78.43,293,68.2,276.12c-10.26,5.49-23.5,6.46-34.14,3.51-8-2.22-15.48-6.84-20.06-13.95a51.12,51.12,0,0,1-3.77-7.06A51.6,51.6,0,0,0,18,280.68c4.58,7.11,12,11.73,20.06,14,10.64,2.94,23.88,2,34.14-3.51C82.44,308,96.21,322,116.9,329.92c17.56,6.73,36.83,8.42,55.46,6.64,18.33-1.76,36.67-7.34,52.45-16.92,18.08-11,32-27.87,40.21-47.33,6.14-14.59,8.46-30.29,8.31-46,12.12.15,24.83-5.78,32.95-14,5.86-5.94,10-13.65,10.42-22.1a51.56,51.56,0,0,0-4.26-23A49.86,49.86,0,0,1,312.69,175.19Z"/><path class="cls-7" d="M38.6,213.57c2.69,1.29,5.72,1.5,8.66,1.64s6.22.23,8.83-1c3.51-1.66,1.58-6.8-1.85-6.93-2.23-.08-4.7.69-6.92,1a67,67,0,0,0-8.14,1c-1.93.46-2.47,3.43-.58,4.35Z"/><path class="cls-7" d="M35.16,200.7c2.69,1.3,5.73,1.51,8.66,1.65s6.22.23,8.84-1c3.5-1.66,1.57-6.8-1.86-6.93-2.23-.08-4.69.69-6.92,1a71.49,71.49,0,0,0-8.14,1c-1.92.47-2.46,3.44-.58,4.35Z"/><path class="cls-7" d="M33.39,185.23c2.69,1.3,5.72,1.5,8.66,1.64s6.22.23,8.84-1c3.5-1.66,1.57-6.79-1.86-6.92-2.23-.09-4.69.68-6.92.95a71.47,71.47,0,0,0-8.14,1c-1.93.47-2.46,3.44-.58,4.36Z"/><path class="cls-7" d="M33.54,170.18c2.69,1.3,5.72,1.5,8.66,1.64s6.22.23,8.83-1c3.51-1.66,1.58-6.8-1.85-6.93-2.23-.09-4.69.68-6.92,1a69.3,69.3,0,0,0-8.14,1c-1.93.46-2.47,3.44-.58,4.35Z"/><path class="cls-7" d="M262.3,147.14c-1.68,2.47-4.2,4.16-6.68,5.75s-5.28,3.3-8.16,3.53c-3.87.31-4.76-5.11-1.85-6.93,1.89-1.18,4.41-1.75,6.48-2.63a69.29,69.29,0,0,1,7.54-3.2c1.9-.56,3.85,1.75,2.67,3.48Z"/><path class="cls-7" d="M258.87,134.28c-1.69,2.47-4.21,4.16-6.69,5.74s-5.27,3.3-8.15,3.54c-3.87.31-4.76-5.11-1.86-6.93,1.9-1.19,4.42-1.75,6.48-2.63a69.45,69.45,0,0,1,7.55-3.2c1.9-.56,3.85,1.75,2.67,3.48Z"/><path class="cls-7" d="M252.68,120c-1.68,2.46-4.21,4.15-6.69,5.74s-5.27,3.3-8.15,3.53c-3.87.31-4.76-5.11-1.85-6.93,1.89-1.18,4.41-1.75,6.47-2.63a72.38,72.38,0,0,1,7.55-3.2c1.9-.56,3.85,1.75,2.67,3.49Z"/><path class="cls-7" d="M245,107c-1.68,2.47-4.2,4.16-6.68,5.74s-5.28,3.3-8.16,3.53c-3.87.32-4.75-5.1-1.85-6.92,1.89-1.19,4.41-1.75,6.48-2.63a69.36,69.36,0,0,1,7.54-3.21c1.91-.55,3.86,1.75,2.67,3.49Z"/><g class="cls-14"><path class="cls-13" d="M243.81,67.68c-.05-.12-.11-.24-.17-.36a4,4,0,0,0-.17-.44c-3.92-8.45-10.09-15.65-19-18.89-6.92-2.52-14.48-1.47-21.16,1.32-3.1-7.28-8.27-13.94-15.71-17-6.32-2.59-13.3-1.76-19.65.31A57.64,57.64,0,0,0,143,48.81a34.14,34.14,0,0,0-2.75-10.69A27.65,27.65,0,0,0,127,24.89c-12.92-6.29-28.83-4.61-42.07-.31-17,5.51-37.3,18.55-38.89,38.09-8.73,2.91-17.41,7.2-23.28,14.44C18,83,16.24,90.34,16.62,97.79c.54,10.76,6.25,23.52,16.57,27.25-3.92,5.1-4.76,12.32-3.84,18.87a30.23,30.23,0,0,0,17.31,23.74c22,9.93,41.4-6.48,52-25.15a26.32,26.32,0,0,0,6.94,10.69c5.65,5.26,13.26,7.8,20.84,8.43,16,1.32,32.47-7.52,37.16-23.41a29.2,29.2,0,0,0,.91-4.27c7.09,4.39,17,2.49,24.81-1,8.69-3.93,19.09-11.51,22.26-21.19C233.57,112.62,252.16,89.06,243.81,67.68Z"/></g><path class="cls-7" d="M240.93,56.92c-.05-.13-.11-.25-.17-.37a3.83,3.83,0,0,0-.17-.43c-3.92-8.46-10.09-15.66-19-18.9-6.92-2.52-14.48-1.47-21.16,1.32-3.1-7.28-8.27-13.94-15.71-17-6.32-2.59-13.3-1.76-19.65.31A57.61,57.61,0,0,0,140.14,38a34.23,34.23,0,0,0-2.76-10.69,27.65,27.65,0,0,0-13.25-13.23c-12.92-6.29-28.82-4.61-42.07-.31-17,5.51-37.3,18.55-38.89,38.09-8.73,2.92-17.4,7.2-23.28,14.44C15.13,72.21,13.37,79.58,13.74,87c.55,10.76,6.25,23.52,16.57,27.25-3.92,5.1-4.76,12.33-3.84,18.87a30.28,30.28,0,0,0,17.31,23.74c22,9.93,41.41-6.48,52-25.14a26.29,26.29,0,0,0,6.94,10.68c5.66,5.26,13.26,7.8,20.84,8.43,16,1.32,32.47-7.52,37.16-23.41a30.59,30.59,0,0,0,.92-4.27c7.08,4.39,17,2.5,24.8-1,8.7-3.93,19.09-11.51,22.26-21.19C230.69,101.85,249.28,78.3,240.93,56.92Z"/><g class="cls-8"><path class="cls-15" d="M27.52,100.42C21.06,98.08,16.41,92.21,13.7,85.5c0,.51,0,1,0,1.52.42,8.16,3.8,17.47,9.92,23.12A20.83,20.83,0,0,1,27.52,100.42Z"/><path class="cls-15" d="M240.76,56.55a3.83,3.83,0,0,0-.17-.43c-.14-.31-.29-.62-.44-.92-.78,17.25-16.4,32.63-34.28,31.91-3.17,9.67-13.56,17.25-22.26,21.18-7.79,3.53-17.72,5.42-24.8,1a30.59,30.59,0,0,1-.92,4.27c-4.69,15.89-21.16,24.73-37.16,23.41-7.58-.63-15.18-3.17-20.84-8.43A26.29,26.29,0,0,1,93,117.89C82.4,136.55,63,153,41,143A29.45,29.45,0,0,1,26.14,127.9a33.84,33.84,0,0,0,.33,5.24,30.28,30.28,0,0,0,17.31,23.74c22,9.93,41.41-6.48,52-25.14a26.29,26.29,0,0,0,6.94,10.68c5.66,5.26,13.26,7.8,20.84,8.43,16,1.32,32.47-7.52,37.16-23.41a30.59,30.59,0,0,0,.92-4.27c7.08,4.39,17,2.5,24.8-1,8.7-3.93,19.09-11.51,22.26-21.19,22,.9,40.62-22.65,32.27-44C240.88,56.79,240.82,56.67,240.76,56.55Z"/></g><g class="cls-16"><path class="cls-7" d="M85.06,99.33c2.21-12.19,12.55-17.85,24.23-17.67a33.13,33.13,0,0,1,15.83,4.51c4.94,2.83,8.57,7.51,12.57,11.43a1.57,1.57,0,0,0,2.66-1.1c-.06-7.29-5.5-12.31-11.4-15.84a38.16,38.16,0,0,0-19.61-5.06,30.24,30.24,0,0,0-18.18,6.13c-5.38,4.21-8.24,10.52-9,17.2-.18,1.66,2.58,2,2.88.4Z"/></g><g class="cls-16"><path class="cls-7" d="M127.19,68.65c5.83-8,17.06-10.17,26.32-8.82A33.52,33.52,0,0,1,167,65a30.71,30.71,0,0,1,5.11,4.56c1.74,1.77,3.13,4.11,5.49,5.08a2.17,2.17,0,0,0,2.64-1.51c.89-2.64-.94-5.89-2.44-8A27.22,27.22,0,0,0,171.18,59c-4.89-3.47-10.85-5.15-16.73-5.88A31.78,31.78,0,0,0,123.82,66.7c-1.4,2.12,1.92,3.93,3.37,2Z"/></g><g class="cls-16"><path class="cls-7" d="M68.36,54.52C69.48,42.4,80.26,33.7,91,29.8a36.39,36.39,0,0,1,17.89-2.08,26.72,26.72,0,0,1,8.23,2.61c2.94,1.53,5.49,3.4,8.59,4.52,1.55.57,2.82-1.1,2.52-2.5-1.55-7.15-10.24-10.79-16.8-11.86a43,43,0,0,0-22.22,2.58C76.44,28,63.15,39.61,64,54.49a2.17,2.17,0,0,0,4.34,0Z"/></g><g class="cls-16"><path class="cls-7" d="M56.35,105.37a23.66,23.66,0,0,0-16.44,13c-3.29,7.3-1.29,15.8,6.38,19.14,3.15,1.38,7.17-2.66,4-5.23-4.07-3.29-5.69-6.81-3.89-11.89,1.66-4.66,6.24-9.74,11-11.36a1.92,1.92,0,0,0-1-3.71Z"/></g><path class="cls-3" d="M200.37,262c-1-1.69-4.37-2.2-8.21-1.19-4,1.06-5.77,3.25-8.77,5.07-6.87,4.16-13.83,3.65-20.81,3.72-3,0-6.42,1.39-7.84,3.1a3.75,3.75,0,0,0-.26,4.55c.77,1.33,2.22,2.25,4.42,2.87a28.58,28.58,0,0,0,8.46.78,64.12,64.12,0,0,0,20.14-4.29c6.1-2.38,11.22-5.75,12.81-9.34A5.71,5.71,0,0,0,200.37,262Z"/></g></g></g></svg>