<svg xmlns="http://www.w3.org/2000/svg" viewBox="0 0 2422.04 3244.74"><defs><style>.cls-1{fill:#334896;}.cls-2{opacity:0.3;}.cls-3{fill:#fff;}.cls-4{fill:#000072;}.cls-5{fill:#ffc891;}.cls-6{fill:#c0d0d8;}.cls-7{fill:#606060;}.cls-8{fill:#ffb03e;}.cls-9{opacity:0.6;}.cls-10{fill:#ff061e;}.cls-11{opacity:0.2;}.cls-12{fill:#319dff;}.cls-13{fill:#fd6ccb;}.cls-14{fill:#e5693e;}.cls-15{fill:#fcb381;}.cls-16{fill:#f9d9c2;}.cls-17{fill:#7fbef7;}.cls-18{fill:#ff668f;}</style></defs><title>understanding-feelings</title><g id="Layer_2" data-name="Layer 2"><g id="Layer_1-2" data-name="Layer 1"><path class="cls-1" d="M437.36,1225.88l-53.14,96.68c-42.33,64.15-111.65,147.69-214.09,210.18C-21.15,1649.39,26.39,1829.58,26.39,1829.58s18-74.59,133.6-99.09c-74.77,76.85-183,244.66-109.83,531.69,0,0,69.36-150.07,208.25-140.15,39.55,2.83,72.31,4.5,99.56,5.39h0c-65.68,31-95.79,124.89-95.79,124.89s58.85-53.9,315.39,32.35,405.32-61.55,405.32-61.55l196.79-668.92Z"/><g class="cls-2"><path class="cls-3" d="M52.28,1786.55c8.34-62.06,41.28-145.47,146.52-209.65,102.44-62.49,171.76-146,214.09-210.18L466,1270l705.45,312,8.19-27.85L437.36,1225.88l-53.14,96.68c-42.33,64.15-111.65,147.69-214.09,210.18C-21.15,1649.39,26.39,1829.58,26.39,1829.58S31.31,1809.37,52.28,1786.55Z"/></g><g class="cls-2"><path class="cls-3" d="M188.67,1774.65c-45.45,9.63-75.76,27-95.88,44.55-54.56,93.66-94.9,237.87-42.63,443a246,246,0,0,1,14.08-25C23.48,1992,120.11,1845.11,188.67,1774.65Z"/></g><g class="cls-2"><path class="cls-3" d="M386.64,2171.59l67-47.48c-22.1-.72-115.44-7.16-144.93,43.55-31.63,38.33-46.53,84.66-46.53,84.66s13.88-12.7,57.52-15.9C335.32,2211.57,357.46,2185.38,386.64,2171.59Z"/></g><g class="cls-2"><path class="cls-4" d="M446.89,1230.09c-35.82,125.23-96.76,289.79-184.71,367.89,0,0,166.54-73.14,245.49-149.08,0,0,18.59,135.69-189.66,334.8-153.46,146.73-182.15,305.17-186.63,378.39,32.55-25,74.89-43.78,127-40.06,39.55,2.83,72.31,4.5,99.56,5.39h0a119.2,119.2,0,0,0-18.67,11.1c40.28-7.8,88.12-15.8,144.94-23.69,307.62-42.7,299.11-144,299.11-144s33.48,170.2-253,298.88q22.39,6.68,47.19,15c256.54,86.24,405.32-61.55,405.32-61.55l196.79-668.92Z"/></g><path class="cls-4" d="M26.36,1850.85A21.22,21.22,0,0,1,5.94,1835c-.54-2-13-50.54-.14-114.26,11.8-58.54,48-141.8,153.31-206C341.73,1403.3,417,1219.85,417.73,1218A21.15,21.15,0,0,1,457,1233.73c-3.21,8-80.82,198.11-275.87,317.06-111.49,68-136.09,157.73-138.84,215.58,22.52-22.29,58.28-45.14,114.46-56.83a21.15,21.15,0,1,1,8.62,41.42c-100.6,20.93-117.81,81.26-118.49,83.82a21,21,0,0,1-20.31,16.07Z"/><path class="cls-4" d="M222.72,1682.21c-8.32,11.25-16.68,21.85-24.92,32.23s-16.33,20.6-24.53,30.61l-12.15,15.09q-3,3.79-6.08,7.5l-5.88,7.65c-7.85,10.19-15.1,20.83-22,31.66-27.84,43.24-48,90.92-61.73,140.52a573.57,573.57,0,0,0-14.36,76.1c-2.53,25.79-4.18,51.81-3.12,77.92,1.42,52.21,9.67,104.39,22.71,155.47L31,2253.31c1.5-3.2,2.67-5.38,4-8l4-7.31c2.77-4.78,5.6-9.51,8.58-14.11q8.9-13.86,19.09-26.81a298.13,298.13,0,0,1,46.39-47.47,243,243,0,0,1,58.07-35.16,214.92,214.92,0,0,1,32.94-10.75c11.34-2.42,22.88-4.38,34.5-4.66a148,148,0,0,1,17.37,0l4.3.19,3.83.26,7.65.53,30.56,2.67,61,6.16c20.33,2.13,40.62,4.46,60.95,6.43,10.18,1.16,20.31,1.89,30.48,2.79,5.06.3,10.16.7,15.21.91,2.56.15,5,.11,7.57.2,2.36,0,5.24-.09,7-.18l.93,0a3.19,3.19,0,0,1,1.72,6,56,56,0,0,1-7.93,3.57c-2.54.93-5.14,1.84-7.7,2.56-5.16,1.6-10.32,2.88-15.52,4-10.37,2.34-20.82,4.07-31.24,5.54-20.86,2.74-41.77,4.71-62.61,5.46-20.86.94-41.67,1.05-62.44.62-10.4-.11-20.73-.78-31.1-1.24l-7.76-.49-3.89-.25-3.41-.11c-4.51-.13-9-.47-13.5-.23a167,167,0,0,0-26.77,2.63,159,159,0,0,0-26,7.39,152.92,152.92,0,0,0-24.7,12,182.28,182.28,0,0,0-22.87,16A255.88,255.88,0,0,0,100,2223.27c-5.95,7.54-11.54,15.41-16.73,23.5-2.62,4-5.08,8.16-7.48,12.28l-3.43,6.21c-1,1.95-2.28,4.34-3,5.8l-.06.12a21.15,21.15,0,0,1-39.64-3.77C16,2213.85,7.33,2158.75,5,2103c-1.64-27.86-.49-55.9,1.5-83.88A590.82,590.82,0,0,1,20.1,1935.8c13.7-54.8,37-107.59,69.52-154,8.23-11.53,16.8-22.8,26-33.54a278.82,278.82,0,0,1,29.4-30.52,221.52,221.52,0,0,1,34.46-24.84c12.37-7.07,25.41-13.05,39.91-16.25a3.41,3.41,0,0,1,3.48,5.34Z"/><path class="cls-4" d="M735.5,2333.12c-48.77,0-103.79-7.93-164.67-28.4-223.88-75.27-288.94-40-294.73-36.4-6.67,7.07-16.67,8-25.18,3.1S239,2255.37,242,2245.86c1.34-4.19,33.76-103,106.89-137.55A21.15,21.15,0,1,1,367,2146.56c-30.18,14.26-52.23,45.14-66.25,70.91,47.81-7,134.14-3.08,283.55,47.15,241.36,81.12,382.27-55.12,383.67-56.5a21.15,21.15,0,1,1,29.81,30C992.82,2243.08,899.71,2333.12,735.5,2333.12Z"/><path class="cls-5" d="M1666.35,2990.39l26,37s-189.77,81-290.1,13.4l12.81-64.59-25.66-174,321.06-45Z"/><path class="cls-4" d="M1507.34,3088.79c-41.75,0-83.35-7.89-116.88-30.49a21.17,21.17,0,0,1-8.93-21.66l12.11-61-25.14-170.42a21.14,21.14,0,0,1,18-24l321.06-45a21.15,21.15,0,0,1,23.72,24.88l-42.47,224.52,20.88,29.64a21.17,21.17,0,0,1-9,31.64C1695,3049.22,1600.84,3088.78,1507.34,3088.79ZM1426,3030.18c70.93,36.18,183.8,4.22,233.4-13l-10.29-14.6a21.12,21.12,0,0,1-3.49-16.12l38.66-204.34-270.77,38,22.56,153a21.5,21.5,0,0,1-.17,7.2Z"/><path class="cls-6" d="M1839.52,3208.7c-158.45,33.49-465.17-56.6-465.17-56.6-9-62.37,27.93-111.35,27.93-111.35,100.33,67.64,290.1-13.4,290.1-13.4C1893.84,3101.28,1839.52,3208.7,1839.52,3208.7Z"/><g class="cls-2"><path class="cls-4" d="M1487.28,3142.53c-42-10.12-66.73-50.13-62.94-89.81a135.08,135.08,0,0,1-22.06-12s-37,49-27.93,111.35c0,0,306.72,90.09,465.17,56.6,0,0,4.71-9.33,6.21-24.38C1735.93,3196.11,1579.17,3164.67,1487.28,3142.53Z"/></g><path class="cls-4" d="M1755.53,3237.31c-163.9,0-376.48-61.78-387.14-64.92a21.13,21.13,0,0,1-15-17.25c-10.21-70.31,30.26-124.85,32-127.13a21.15,21.15,0,0,1,28.71-4.79c89.54,60.36,268.18-14.56,270-15.33a21.18,21.18,0,0,1,15.58-.4c85.57,31.41,139.15,73.19,159.25,124.19,18.73,47.52.27,85-.53,86.56a21.12,21.12,0,0,1-14.5,11.15C1817.52,3235,1787.44,3237.31,1755.53,3237.31Zm84-28.61h0Zm0,0h0Zm-445.38-73c59.22,16.23,294.26,76.78,429.31,54.51,2.1-9.41,3.37-25.28-4.3-44-15.12-36.94-58.78-70.08-126.47-96.1-36.31,14.25-184.1,66.69-282.85,19.31C1402.41,3084.16,1393.36,3108.05,1394.14,3135.68Z"/><path class="cls-6" d="M1309.84,3204.08c-199.2,63.52-406.31-49.67-406.31-49.67a814.58,814.58,0,0,1,13-121.51h.05c106.39,34.65,183.08-59.83,316.27-10.17C1346.87,3065.24,1309.84,3204.08,1309.84,3204.08Z"/><g class="cls-2"><path class="cls-4" d="M1028.67,3150.88c-53.86-15.64-92.2-61.36-101-114.85-3.65-.9-7.32-1.92-11-3.13h-.05a814.58,814.58,0,0,0-13,121.51s207.11,113.19,406.31,49.67a213.09,213.09,0,0,0,5.7-46.18C1211.22,3189.3,1105.32,3173.13,1028.67,3150.88Z"/></g><path class="cls-4" d="M1179.26,3244.74c-152.32,0-279.07-68-285.88-71.77a21.15,21.15,0,0,1-11-19.27A835.44,835.44,0,0,1,895.77,3029a21.14,21.14,0,0,1,20.79-17.28,21.38,21.38,0,0,1,6.6,1c43.2,14.06,81.11,3.82,125-8.06,53.5-14.48,114.15-30.89,192.11-1.82,104.4,38.94,104.53,152.18,90,206.62a21.14,21.14,0,0,1-14,14.7C1270,3239,1223.54,3244.74,1179.26,3244.74Zm130.58-40.66h0Zm0,0h0Zm-384.61-62.46c44.22,21.1,208,90.53,366.5,45.82,5.31-30.87,12.06-115.69-66.24-144.89-65.23-24.31-114.32-11-166.28,3-39.51,10.68-80.17,21.68-125.63,13.4A800.13,800.13,0,0,0,925.23,3141.62Z"/><path class="cls-5" d="M1203.81,2954.59l29.07,68.14c-133.19-49.66-209.88,44.82-316.27,10.17h-.05c11.28-60.29,25.45-94.48,25.45-94.48V2661.21h358.55Z"/><g class="cls-2"><path class="cls-4" d="M1300.56,2661.21l-79.36,240.71c-113-17.1-205.76-53-279.19-93.42V2661.21Z"/></g><g class="cls-2"><path class="cls-4" d="M1710.49,2757.08l-20.28,107.23c-103.67,29.25-198.47,43.66-284.67,47.17l-16.11-109.36Z"/></g><path class="cls-4" d="M966.24,3061.88a179.19,179.19,0,0,1-55.9-8.78A21.17,21.17,0,0,1,895.77,3029c9.45-50.53,20.9-83.46,25.08-94.57V2661.21A21.16,21.16,0,0,1,942,2640.05h358.55a21.16,21.16,0,0,1,20.09,27.78l-94.25,285.8,25.93,60.81a21.15,21.15,0,0,1-26.84,28.11c-65.23-24.31-114.32-11-166.28,3C1029.4,3053.63,998.93,3061.87,966.24,3061.88Zm-25-44.51c36,6.56,69.23-2.45,106.89-12.64,43-11.63,90.58-24.51,148-14.05l-11.85-27.79a21.11,21.11,0,0,1-.63-14.93l87.58-265.6H963.16v256.06a21.24,21.24,0,0,1-1.61,8.1C961.44,2946.78,951,2972.38,941.27,3017.37Z"/><path class="cls-5" d="M2059.46,1771.83s-54.89,174-167,220.23-245.31,35.85-245.31,35.85l217.67-285.34Z"/><g class="cls-2"><path class="cls-4" d="M2059.46,1771.83s-54.89,174-167,220.23-245.31,35.85-245.31,35.85l217.67-285.34Z"/></g><path class="cls-4" d="M1681.5,2050.11c-21,0-34.32-1-36-1.11a21.15,21.15,0,0,1-15.18-33.92L1848,1729.74a21.21,21.21,0,0,1,20-8.09l194.67,29.26a21.14,21.14,0,0,1,17,27.28c-2.36,7.49-59.24,184-179.14,233.42C1819.81,2044.85,1730.14,2050.11,1681.5,2050.11ZM1874,1765.35l-184.83,242.29c46.6-.63,125.71-6.52,195.18-35.14,78.17-32.21,127.48-136.52,146.28-183.61Z"/><path class="cls-5" d="M1892.07,1239.08c-112.72,231.38-355.79,402.23-684,402.23-265.29,0-498.08-109.5-629.68-274.25,36.94-44.82,69.4-133.76,52.6-310.29v0c62.52-65.42,54.92-138.65,54.92-138.65,247-89.86,339.94-335.24,341.44-339.26l0,0c87.83-18.85,178.28-29,267.83-29,111.68,0,219,12.24,318.89,34.83,0,0,14.17,93.38,152.84,233S1892.07,1239.08,1892.07,1239.08Z"/><g class="cls-2"><path class="cls-4" d="M1208,1578.67c-250.56,0-472.08-97.71-606.79-247.36a187.82,187.82,0,0,1-22.89,35.75c131.6,164.75,364.39,274.25,629.68,274.25,328.26,0,571.33-170.85,684.05-402.23,0,0,1.14-23.95-.67-61.32C1778.39,1408.46,1535.65,1578.67,1208,1578.67Z"/></g><path class="cls-1" d="M1969.17,911.88c-2.67,43.47-8.46,91.11-17.56,143.27a690.54,690.54,0,0,1-59.54,183.93s13.45-281.92-125.17-421.5-152.84-233-152.84-233c128.57,29.06,244.92,75.22,342.48,134.27C1969.26,771.75,1974,835.37,1969.17,911.88Z"/><path class="cls-7" d="M2044.5,779.6a864.39,864.39,0,0,0-88-60.7"/><path class="cls-7" d="M394.49,957.34a461.48,461.48,0,0,0-49,99.38"/><path class="cls-7" d="M685.86,918.07Q666.3,925.21,645.48,931"/><path class="cls-5" d="M507.67,1370.8a114.67,114.67,0,0,1-24,2.54c-64.38,0-116.57-53.27-116.57-119a123.39,123.39,0,0,1,2.62-25.41h.05a118.66,118.66,0,0,1,62.2-81.22c32.73-5.36,61.25-12.75,86.11-21.62C518,1126.12,524.37,1266.38,507.67,1370.8Z"/><path class="cls-1" d="M578.34,1367.06c-37.31,45.37-79.23,45.55-79.23,45.55,3.35-12.89,6.2-27,8.56-41.81,16.7-104.42,10.37-244.68,10.37-244.68,52-18.49,88-43.3,112.9-69.35C647.74,1233.3,615.28,1322.24,578.34,1367.06Z"/><path class="cls-1" d="M685.86,918.07s7.6,73.23-54.92,138.65v0c-24.9,26-60.89,50.86-112.9,69.35-24.86,8.87-53.38,16.26-86.11,21.62,0,0,10.32-142.07-37.44-190.4,116-179.91,361.81-320.54,632.81-378.53C1025.8,582.83,932.91,828.21,685.86,918.07Z"/><g class="cls-2"><path class="cls-4" d="M1027.3,743.8l0,0c87.83-18.85,178.28-29,267.83-29,111.68,0,219,12.25,318.89,34.84,128.57,29.06,244.92,75.22,342.48,134.26a493.25,493.25,0,0,1,10.25,58.93q1.44-15.79,2.38-30.93c4.8-76.51.09-140.13-12.63-193-97.56-59-213.91-105.21-342.48-134.27-99.87-22.59-207.21-34.83-318.89-34.83-89.55,0-180,10.12-267.83,29l0,0c-271,58-516.82,198.62-632.81,378.53,24.12,24.4,33.42,72.7,36.72,114.55C557.69,916.31,782.19,796.24,1027.3,743.8Z"/></g><path class="cls-8" d="M1969.17,911.88c4.8-76.51.09-140.13-12.63-193-97.56-59-213.91-105.21-342.48-134.27-99.87-22.59-207.21-34.83-318.89-34.83-89.55,0-180,10.12-267.83,29l0,0c-271,58-516.82,198.62-632.81,378.53,47.76,48.33,37.44,190.4,37.44,190.4a118.66,118.66,0,0,0-62.2,81.22h-.05c-4.3.46-249.26,26.29-238-134,4.71-67.64,95.35-191.51,248.23-312.33,212.68-168.17,545.79-330.48,935.58-327.57,297.34,2.22,465.89,50.36,587.26,107.15,135.18,63.25,212,137.12,343.16,170.06C2439,780.81,2192.27,933.27,1969.17,911.88Z"/><g class="cls-2"><path class="cls-4" d="M2245.87,732.29c-131.2-32.94-208-106.81-343.16-170.06a946.38,946.38,0,0,0-127.62-48.8c-100.63-24-227.72-40-396.18-41.23C989.12,469.29,656,631.6,443.33,799.77,290.44,920.59,199.81,1044.46,195.1,1112.1c-4.32,61.62,29.26,95.72,72.45,114.34,52.37,7.77,100.25,2.72,102.13,2.52h.05a118.66,118.66,0,0,1,62.2-81.22s10.32-142.07-37.44-190.4c116-179.91,361.81-320.54,632.81-378.53l0,0c87.83-18.85,178.28-29,267.83-29,111.68,0,219,12.24,318.89,34.83q42.93,9.71,83.92,22c120.46,29.22,229.66,73.54,322,129.44,11.85,49.23,16.74,107.82,13.47,177.46C2235.47,905,2420.52,776.16,2245.87,732.29Z"/></g><path class="cls-8" d="M1888.14,501.24C1211.28-159.35,383.35,691.91,383.35,691.91c44-505.39,487-581.81,487-581.81s181.09-132.42,567.39-73.92C1737.11,81.55,1851.74,372.57,1888.14,501.24Z"/><g class="cls-9"><path class="cls-3" d="M1714.14,181.44c-67.35-70.19-157.22-127.2-276.41-145.26-31.12-4.72-60.89-8.17-89.36-10.58-324.93-27.42-478,84.5-478,84.5S711.5,137.54,574.6,268C702.48,163.26,836.39,140.13,836.39,140.13S1008.8,14.11,1376,62.3c31.19,33.73,77.4,66,133,90,51.48,22.21,102.62,33.69,146.39,34.91,84.15,77.14,137.11,176,169.19,256.7q32,26.56,63.62,57.36C1866.23,423.79,1816,287.55,1714.14,181.44Z"/></g><g class="cls-9"><path class="cls-3" d="M383.35,691.91s14.82-15.22,42.08-40C409,666.08,395,678.65,383.64,689.11,383.55,690.05,383.44,691,383.35,691.91Z"/></g><path class="cls-10" d="M1902.71,562.23c-121.37-56.79-289.92-104.93-587.26-107.15-389.79-2.91-722.9,159.4-935.58,327.57q-.35-47.53,3.48-90.74s827.93-851.26,1504.79-190.67C1898.41,537.6,1902.49,561,1902.71,562.23Z"/><g class="cls-11"><path class="cls-4" d="M1396.88,46.83c-325.56-27.72-479,84.42-479,84.42s-443,76.42-487,581.82c-.94,10.68-1.63,21.61-2.2,32.68,36.34-26.29,75.55-52.12,117.4-76.9,32.47-95.74,87.25-225.16,167.11-331.22C854.38,150.22,1143.73,53.22,1396.88,46.83Z"/></g><path class="cls-7" d="M1902.71,562.27v0"/><line class="cls-7" x1="1888.18" y1="501.29" x2="1888.14" y2="501.24"/><path class="cls-12" d="M1857.25,1838.82s-49.47,13.75-86.75,3.17q-.21-3.4-.44-6.79c22.39-9.67,81.1-37,87.19-60.68,7.54-29.26-32.07-38.5-32.07-38.5s-30.92,5.62-68.88,10.36c-9.89-38.76-25.09-74.56-47.25-105.07H1142.91c-170.19-110.94-420.95-9.22-278.62,309.16,0,0,54.49,68,34.41,253.06s-52.49,321.38-173.23,363c0,0,315,443.54,1015,219.46,0,0,25.47-32.34-7.35-60.06,0,0,25.53-278.79-34.52-448.88,0,0,49.91-137.62,67.25-293.94a115.35,115.35,0,0,0,23.48-21s37-10.78,52.06-54.67C1841.4,1907.35,1898,1872.7,1857.25,1838.82Z"/><g class="cls-2"><path class="cls-4" d="M1857.25,1838.82s-49.46,13.75-86.74,3.17c-.26-3.41-.25-3.35-.51-6.76,22.35-9.66,81.15-37.06,87.25-60.71,7.54-29.26-32.07-38.5-32.07-38.5s-30.92,5.62-68.88,10.36c-9.89-38.76-25.09-74.56-47.25-105.07H1142.91c-170.19-110.94-420.95-9.22-278.62,309.16,0,0,54.49,68,34.41,253.06s-52.49,321.38-173.23,363c0,0,315,443.54,1015,219.46,0,0,25.47-32.34-7.35-60.06,0,0,.85-9.31,1.87-25.5q-4.79,2.61-9.66,5.05c-133.85,66.93-293.21-12.81-327.85-160.76-13.07-55.82-45.78-83.29-45.78-83.29s-15.84,222.92-208.24,271.43q-4,1-8,1.89c-142.38,31.79-256.5-121.54-191-254.44,63.32-128.55,98.88-274.33,98.88-274.33l689.47-44.38c12.68-50.29,25.74-112.71,33-178.49a115.35,115.35,0,0,0,23.48-21s37-10.78,52.06-54.67C1841.4,1907.35,1898,1872.7,1857.25,1838.82Z"/></g><path class="cls-4" d="M1364.36,2869.88c-174.14,0-308.66-43.51-403.32-90.7-169-84.27-249.47-195.73-252.81-200.44a21.15,21.15,0,0,1,10.35-32.25c105.69-36.39,138.36-154.15,159.09-345.24,18.63-171.72-29.55-237.1-30-237.74a19.51,19.51,0,0,1-2.65-4.4c-65.15-145.75-57.14-268.09,22-335.64,71.87-61.38,187.08-62.47,282.12-3.31h560a21.15,21.15,0,0,1,17.12,8.72c19.3,26.57,34.58,58.17,45.55,94.13,28.29-3.93,49.43-7.76,49.68-7.8a21.08,21.08,0,0,1,8.59.21c5,1.16,30.36,8,42.83,28.56,6.49,10.72,8.19,23.11,4.91,35.82-1.54,6-5.21,20.19-34.88,40.7,3.58-.74,6.57-1.46,8.76-2.06a21.16,21.16,0,0,1,19.16,4.12c20,16.58,23.11,34.25,22.25,46.15-1.82,25.21-23,44.07-34.18,52.32a108.71,108.71,0,0,1-57.08,58.88,137.65,137.65,0,0,1-15.94,14.76c-16.09,134.88-54.52,252.52-64.82,282.42,52.23,156.15,38,388.89,34,440.65,25.53,28.77,16.06,63.53,2.07,81.3a21.2,21.2,0,0,1-10.17,7.06C1603.26,2852.09,1475.7,2869.88,1364.36,2869.88ZM759.63,2575C790.53,2610.26,864,2684,982,2742.34c146.88,72.68,395,135.79,744.76,25.78,3.16-6.68,4.2-16.41-7.24-26.07a21.18,21.18,0,0,1-7.42-18.09c.25-2.74,24.4-276.22-33.4-439.91a21.19,21.19,0,0,1,.06-14.25c.49-1.35,49.28-137.24,66.11-289.06a21.17,21.17,0,0,1,9.17-15.18,95,95,0,0,0,19.2-17.21,21.19,21.19,0,0,1,10.22-6.63c.86-.28,26.86-8.91,38-41.24a21.12,21.12,0,0,1,8.95-11.16c8.22-5.14,20-16.25,20.48-23.68a6.66,6.66,0,0,0-.84-3.45c-18.85,3.78-54.85,8.78-85.27.15a21.16,21.16,0,0,1-15.34-19.1c-.13-2.19-.27-4.37-.42-6.56a21.13,21.13,0,0,1,12.71-20.89c50.1-21.65,72.68-40.15,75.15-46.73.5-2,.11-2.65-.17-3.13-1.88-3.16-7.81-6.36-12.78-8.2-10.39,1.8-35.43,6-64.95,9.64a21.17,21.17,0,0,1-23.12-15.76c-8.74-34.25-21.45-64.18-37.84-89.15h-555a21.13,21.13,0,0,1-11.55-3.43c-79.16-51.6-178.81-53-236.93-3.39-63.5,54.22-67.74,157.74-11.7,284.24,10.3,14.86,55.89,91.8,37,265.93C902.94,2360.6,876.36,2515.47,759.63,2575Z"/><path class="cls-13" d="M1684.46,2134.86c-355.38-27.37-772.37,71.08-772.37,71.08L903,2252.32c339,24.64,795.6,24.69,795.6,24.69C1728.6,2227.78,1684.46,2134.86,1684.46,2134.86Z"/><path class="cls-4" d="M1698.61,2298.16h0c-4.58,0-461.23-.33-797.14-24.74a21.15,21.15,0,0,1-19.22-25.16l9.08-46.39a21.15,21.15,0,0,1,15.89-16.52c4.21-1,424.31-98.92,778.86-71.58a21.17,21.17,0,0,1,17.49,12c5,10.57,48,104.9,13.1,162.24A21.14,21.14,0,0,1,1698.61,2298.16ZM928.36,2232.9c298.67,20.39,680.31,22.68,756.65,22.92,8.91-29.43-4.91-75.67-14.89-100.8-310-21.1-667.29,52.57-739.93,68.52Z"/><path class="cls-13" d="M962.6,2343.61c-6.18-32.23-24.71-64.8-32.64-76.34l44.47-31.84c1.63,2.38,33.14,43.67,39.13,98.11a18.31,18.31,0,0,1-13.31,19.77l-15.66,4.14A17.78,17.78,0,0,1,962.6,2343.61Z"/><path class="cls-4" d="M980.09,2373.9A33.63,33.63,0,0,1,947,2346.6c-5.79-30.16-23.72-61-30.14-70.34a15.86,15.86,0,0,1,3.84-21.89l44.48-31.84a15.87,15.87,0,0,1,22.31,3.92c10.87,15.05,36.26,54.82,41.82,105.36a34.34,34.34,0,0,1-25,36.83l-15.66,4.15A33.63,33.63,0,0,1,980.09,2373.9Zm-28.85-102.35c9.7,17,22,43.15,26.94,69.07h0a1.81,1.81,0,0,0,.85,1.25,1.86,1.86,0,0,0,1.5.24l15.66-4.14a2.46,2.46,0,0,0,1.6-2.69c-3.61-32.8-17.6-61-27.51-77.37Z"/><path class="cls-13" d="M827.86,2364.71c12-56.17,67.22-100.85,75.15-112.39l-87,4.21c-1.64,2.37-33.14,43.66-39.13,98.11a18.3,18.3,0,0,0,13.31,19.76l15.66,4.15A17.92,17.92,0,0,0,827.86,2364.71Z"/><path class="cls-4" d="M810.43,2395a33.94,33.94,0,0,1-8.62-1.12l-15.66-4.15a34.35,34.35,0,0,1-25-36.84c5.56-50.56,31-90.32,41.61-105.06a16.59,16.59,0,0,1,12.52-7.16l87-4.2a15.86,15.86,0,0,1,13.84,24.83c-2.48,3.61-6.51,7.77-12.62,14.06-18,18.57-51.62,53.15-60.09,92.66h0a34.39,34.39,0,0,1-15.52,22A33.23,33.23,0,0,1,810.43,2395Zm17.43-30.3h0ZM824.61,2272c-9.55,14.43-27.75,46.26-31.94,84.37a2.45,2.45,0,0,0,1.6,2.69l15.66,4.15a1.57,1.57,0,0,0,1.33-.21,2.36,2.36,0,0,0,1.08-1.62h0c8-37.48,32.45-69.22,52.47-91.33Z"/><path class="cls-13" d="M895.42,2214.67l-7.2-18.3a52.94,52.94,0,0,1-2.08-6.88c-23.27-103.63-82.21-133.25-114-141.7a45.64,45.64,0,0,0-38.21,7c-53.83,38-70.49,107.79-34.14,196.73,27.94,68.33,71.9,76.92,95.84,75.86a44.37,44.37,0,0,0,26.13-10.16l59.71-48.65A47.42,47.42,0,0,0,895.42,2214.67Zm-82.84,41.86C738.24,2227.65,772.65,2117,772.65,2117a137,137,0,0,1,37.3,17.93c49.07,32.76,71.48,75.86,71.48,75.86S852.6,2243.22,812.58,2256.53Z"/><path class="cls-4" d="M791.89,2343.35c-28.7,0-76.72-12.29-106.77-85.81-37.85-92.58-23.39-171.2,39.67-215.69a61.54,61.54,0,0,1,51.46-9.39c36.09,9.6,100.4,42.33,125.37,153.56a37,37,0,0,0,1.4,4.63l7.17,18.21h0a62.89,62.89,0,0,1-18.68,72l-59.72,48.66a60,60,0,0,1-35.46,13.71C794.91,2343.31,793.42,2343.35,791.89,2343.35Zm-31.32-281.22a30.37,30.37,0,0,0-17.48,5.64c-50,35.25-60.37,100-28.6,177.77,23.09,56.49,56.52,67.17,80.45,66a28.4,28.4,0,0,0,16.79-6.6l59.73-48.66a31.46,31.46,0,0,0,11.36-24.59c-12.75,11.69-36.17,30.22-65.24,39.88a15.88,15.88,0,0,1-10.75-.26c-69.71-27.09-62.75-115.9-49.33-159.07a15.86,15.86,0,0,1,19.61-10.52,152.87,152.87,0,0,1,41.65,19.95,250,250,0,0,1,40.87,34.22c-24.92-65.31-66.62-86.14-91.56-92.78A29,29,0,0,0,760.57,2062.13Zm23.37,76.11c-5.16,27.55-9.58,81.65,29.22,101.21,21.24-8.33,38.6-22.29,48.21-31.12a223.29,223.29,0,0,0-60.23-60.26A136.57,136.57,0,0,0,783.94,2138.24Z"/><path class="cls-4" d="M812.58,2277.68a21.07,21.07,0,0,1-7.66-1.44c-73.36-28.49-66.4-120.76-52.47-165.57a21.16,21.16,0,0,1,26.15-14,158.39,158.39,0,0,1,43.1,20.64c53,35.36,77.48,81.74,78.5,83.7a21.13,21.13,0,0,1-3,23.79c-1.33,1.5-33.12,36.9-78,51.82A21.17,21.17,0,0,1,812.58,2277.68Zm-24.66-131.46c-4.11,26.91-5.11,70,25.55,87.39,17.06-7.13,31.54-18,40.88-26.16a218.19,218.19,0,0,0-56.14-55C794.78,2150.18,791.34,2148.1,787.92,2146.22Z"/><path class="cls-4" d="M755.63,2253.46c19.28,1.15,36.61-4.95,51.07-14.48a19.13,19.13,0,1,1,13.12,34.92l-1.37.18a121.62,121.62,0,0,1-34.46-.14,95.75,95.75,0,0,1-31.36-10.47,5.34,5.34,0,0,1,2.87-10Z"/><path class="cls-4" d="M723.81,2111a68,68,0,0,1,12.57-6,94.42,94.42,0,0,1,13.32-3.75,110.8,110.8,0,0,1,13.93-1.86,130.44,130.44,0,0,1,14.27-.18l1.24,0a19.46,19.46,0,1,1-11.75,35.45,98.3,98.3,0,0,0-9-5.65,84,84,0,0,0-9.82-4.61,75.73,75.73,0,0,0-10.58-3.2,61.49,61.49,0,0,0-10.84-1.4l-1,0a4.76,4.76,0,0,1-4.56-4.93A4.82,4.82,0,0,1,723.81,2111Z"/><path class="cls-13" d="M954.08,2158.38s-45.27-31.57-85.26-21.56-16.22,122,31.31,136.68,57.34-21.18,57.34-21.18S927.29,2198.42,954.08,2158.38Z"/><path class="cls-4" d="M921.29,2295.55a90.56,90.56,0,0,1-26.6-4.36c-43.84-13.49-65.7-76.91-64.61-117.51.78-29.58,13.27-49.56,34.24-54.81,47.61-11.93,98.21,22.84,100.35,24.33a18.51,18.51,0,0,1,4.79,25.48c-20,30,3.95,74.21,4.19,74.65a18.65,18.65,0,0,1,1.68,13.88,54.5,54.5,0,0,1-25.49,31.33A58.34,58.34,0,0,1,921.29,2295.55Zm-36-142.16a49.5,49.5,0,0,0-12,1.38c-2.38.6-5.89,7.17-6.23,19.9-.89,33.4,18.9,75.11,38.49,81.14,18.62,5.73,27.29,1.3,31.32-3.57-7.23-16.5-19.46-52.53-7.1-86.58C917.72,2159.64,901,2153.39,885.28,2153.39Z"/><path class="cls-4" d="M1892.08,1260.24c-.34,0-.68,0-1,0a21.15,21.15,0,0,1-20.13-22.12c.13-2.73,11.31-274.4-119-405.63C1610,689.63,1593.79,591.92,1593.17,587.83a21.15,21.15,0,0,1,41.8-6.48c.31,1.76,16.86,90.36,146.93,221.31,143.56,144.53,131.86,425.55,131.29,437.45A21.15,21.15,0,0,1,1892.08,1260.24Z"/><path class="cls-4" d="M1208,1662.46c-263.48,0-505.06-105.5-646.21-282.2a21.16,21.16,0,0,1,33.06-26.41C728.06,1520.6,957.28,1620.16,1208,1620.16c367.15,0,664.36-233.84,722.75-568.64C1954.2,917.21,1956,807,1936,723.84a21.15,21.15,0,1,1,41.13-9.89c21.64,90,20.11,202.83-4.66,344.84-28.92,165.78-116.25,316.79-245.92,425.2C1586.88,1600.75,1407.59,1662.46,1208,1662.46Z"/><path class="cls-14" d="M1313.8,1503.86c-104.6,35.85-61.18,187,20.94,186,96.2-1.15,139.77,9.24,139.77,9.24l172.61-156.7S1450.86,1456.89,1313.8,1503.86Z"/><path class="cls-4" d="M1329.78,1531a281.21,281.21,0,0,1,10,27,226.75,226.75,0,0,1,7.09,28.29,130.1,130.1,0,0,1,2.39,30.55c-.6,10.63-2.49,22.37-9.69,33.8l-.59.94a16,16,0,1,1-27.08-17.07,17.2,17.2,0,0,1,2.1-2.66c3.71-3.79,6.63-10.59,8.27-18.25a104.63,104.63,0,0,0,2.1-25,205.87,205.87,0,0,0-2.2-26.56,263.54,263.54,0,0,0-5.14-26.51l-.06-.23a6.77,6.77,0,0,1,12.78-4.34Z"/><path class="cls-4" d="M1474.51,1717.57a17.9,17.9,0,0,1-4.29-.51c-.38-.08-43.26-9.83-135.26-8.74h-1.07c-53.56,0-89.93-48.39-98.25-96.53-10-57.77,18.35-107,72.16-125.45,142.22-48.72,338.42,35.44,346.71,39a18.52,18.52,0,0,1,5,30.68L1487,1712.77A18.57,18.57,0,0,1,1474.51,1717.57Zm-125-46.35c63.76,0,102.55,5,119.44,7.92l143.57-130.34c-57.32-20.64-193.24-61.52-292.69-27.43h0c-54.5,18.68-50.27,69.11-47.68,84.13,5.53,32,29.05,65.81,61.82,65.81h.57C1339.64,1671.25,1344.64,1671.22,1349.48,1671.22Zm-35.68-167.36h0Z"/><path class="cls-14" d="M1758.7,2041.69c20.06-26.29,35.32-60.66,46-103.68,38.21-153.75,39.25-302.89-72.43-362.12s-260.32,6.88-332,147.66c-28.39,55.76-47.76,116.93-50.93,173.35v0c-1,2.4-65.06,159.3-78.55,292.23,0,0,57.36,70.87,172,27.72,0,0,3.89-68.47,29.87-131.26,64.88,18.85,119.93,26.38,165.83,21.25v0c6.89,67.13,75.74,132.69,75.74,132.69,118.84-6.33,127.9-78.54,127.9-78.54C1823.53,2103.92,1758.7,2041.69,1758.7,2041.69Z"/><path class="cls-4" d="M1369.36,2246.85c-73.29,0-110.95-45.19-113-47.69a15.87,15.87,0,0,1-3.45-11.58c13.66-134.72,76.94-290.14,79.62-296.69a15.87,15.87,0,0,1,29.36,12c-.63,1.53-61.92,152.12-76.64,280.69,13.63,13,59.87,48.22,140.52,21.74,2.18-22.22,9.29-75.37,30.16-125.79a15.86,15.86,0,0,1,29.31,12.13c-24.66,59.61-28.63,125.44-28.67,126.1a15.87,15.87,0,0,1-10.26,13.95C1417.37,2242.65,1391.71,2246.85,1369.36,2246.85Z"/><path class="cls-4" d="M1718.48,2085.59c-9.86,9.81-21.76,17.5-34.38,23.85a180.36,180.36,0,0,1-40,13.15c-27.58,5.3-55.6,4.89-82.56,1.32a413.62,413.62,0,0,1-78.43-18.95c-6.34-2.25-12.48-4.41-18.88-6.92a169.22,169.22,0,0,1-18.89-8.76,144.13,144.13,0,0,1-33.61-24.17,6.27,6.27,0,0,1,6.9-10.21l.11,0a250.87,250.87,0,0,0,35.39,12.59c6,1.56,12,3,18,4.22l18.84,3.64c25.19,4.76,50.18,9.18,75,12,24.85,2.63,49.42,3.87,73.68,2.55a249.27,249.27,0,0,0,72.13-14.71l.23-.08a6.3,6.3,0,0,1,6.46,10.44Z"/><path class="cls-4" d="M1712.19,2255.48a15.81,15.81,0,0,1-10.93-4.37c-3-2.84-73.23-70.42-80.61-142.56a15.87,15.87,0,1,1,31.57-3.23c5.18,50.64,51.08,102.27,66.15,118,84.11-6.68,101.89-49.07,105.27-61.23-18.89-51.77-77.45-108.36-78.05-108.94a15.86,15.86,0,0,1-1.62-21.08c18.58-24.33,33.13-57.27,43.22-97.88,45.17-181.79,23.47-297.61-64.48-344.26-42.59-22.58-91.85-26.07-142.44-10.07-69,21.82-130.26,76.82-168,150.89-38.49,75.59-55.86,153.39-47.66,213.43a15.87,15.87,0,0,1-31.44,4.3c-9.19-67.27,8.86-149.71,50.82-232.13,41.55-81.6,109.59-142.38,186.68-166.74,58.06-18.36,117.32-14,166.87,12.29,102.5,54.35,129.55,182.19,80.41,379.94-9.84,39.62-23.22,71.9-40.74,98.2,19.47,20.36,62.56,69.08,77.92,116.12a15.82,15.82,0,0,1,.66,6.9c-.43,3.48-12.2,85.43-142.78,92.41C1712.75,2255.48,1712.47,2255.48,1712.19,2255.48Z"/><path class="cls-15" d="M1717.49,1904.78c-31.43,110-125.16,169.21-214,152.42-133.9-25.28-131.66-135.94-100.23-245.94s127.27-178.25,214-152.43S1748.92,1794.77,1717.49,1904.78Z"/><g class="cls-2"><path class="cls-4" d="M1580,1554.19s-101.49,164.74-14,294.37,235.83-165.5,235.83-165.5Z"/></g><path class="cls-14" d="M2288,1494.91c-67-10-113.27-73.58-103.44-141.92s72.1-115.6,139.07-105.56,87.45,69.76,77.61,138.1S2355,1505,2288,1494.91Z"/><path class="cls-4" d="M2304.56,1514.7a130.6,130.6,0,0,1-19.32-1.49h0c-76.89-11.53-130.28-84.58-119-162.85a143,143,0,0,1,56.36-95.12,138.44,138.44,0,0,1,103.77-26.12c70.09,10.51,105.8,71.46,93.19,159.05-7,48.74-25.79,85.71-54.29,106.9C2347.7,1508.13,2327.35,1514.7,2304.56,1514.7Zm-13.83-38.1c20.61,3.1,38.26-.69,52.43-11.23,20.13-15,34.24-44.26,39.74-82.48,5.67-39.43,5.16-107.08-62-117.16a101.52,101.52,0,0,0-76.19,19.21,106.24,106.24,0,0,0-41.81,70.69c-8.37,58.19,31,112.46,87.87,121Z"/><path class="cls-15" d="M2281.89,1435.41c-37.52-5.62-63.46-41.22-57.95-79.51s40.39-64.77,77.91-59.15,49,39.09,43.48,77.38S2319.41,1441,2281.89,1435.41Z"/><path class="cls-14" d="M1945.36,943.23c21.3,65.56-13.52,136.34-77.76,158.07s-133.59-13.79-154.89-79.36,21.78-111.07,86-132.81S1924.06,877.67,1945.36,943.23Z"/><path class="cls-4" d="M1828.92,1126.23a138.56,138.56,0,0,1-62.28-14.87,141.81,141.81,0,0,1-71.53-83.7c-22.21-68.36,15.22-128.16,97.69-156.06,45.21-15.29,85.64-15.08,116.93.63,25.39,12.74,43.3,34.71,53.23,65.28h0c24.38,75-15.74,156.39-89.43,181.33A139.33,139.33,0,0,1,1828.92,1126.23Zm26.72-228.84c-15.45,0-32.71,3.09-51,9.27-37,12.52-95.84,43.4-74.35,109.57a105.06,105.06,0,0,0,52.94,62,101.33,101.33,0,0,0,78.42,5.49c54.59-18.47,84.23-78.95,66.09-134.82-6.77-20.82-18.42-35.5-34.64-43.64C1882.6,900,1869.89,897.39,1855.64,897.39Z"/><path class="cls-15" d="M1896,975.52c11.94,36.73-7.57,76.38-43.56,88.56s-74.85-7.73-86.79-44.46,12.21-62.24,48.2-74.41S1884.08,938.78,1896,975.52Z"/><path class="cls-14" d="M2094.48,1078.08c-154.3-102.67-360.93-58.24-461.53,99.23a343.1,343.1,0,0,0-39.22,85.31c-23.4,10-42.54,25.19-55.65,45.72-55.07,86.19,16,233.07,158.75,328,122.39,81.44,257.68,98.22,328.49,47,66-24.2,125.13-69.73,166.39-134.32C2292.31,1391.62,2248.78,1180.74,2094.48,1078.08Z"/><ellipse class="cls-16" cx="1693.54" cy="1509.65" rx="82.48" ry="97.17" transform="matrix(0.79, -0.61, 0.61, 0.79, -569.15, 1344.23)"/><g class="cls-2"><path class="cls-4" d="M2233.65,1272.3a344.27,344.27,0,0,1-52.6,217.65c-41.26,64.59-100.38,110.11-166.39,134.32-70.82,51.19-206.1,34.41-328.49-47-84.27-56.07-143.53-130.22-166.64-199.3,1,83,68.2,185.85,177.3,258.44,122.39,81.44,257.68,98.22,328.49,47,66-24.2,125.13-69.73,166.39-134.32C2246.12,1463.92,2258.29,1363.15,2233.65,1272.3Z"/></g><path class="cls-4" d="M1920.94,1731c-71.8,0-156.26-27.25-234.36-79.22-71.75-47.74-128.56-109.77-160-174.66-32.89-68-34.35-131.45-4.13-178.76,13.37-20.93,32.21-37.43,56.07-49.14a362,362,0,0,1,38.8-81.89c51.63-80.82,131.1-136.08,223.76-155.59,91.63-19.32,185.26-1.22,263.62,50.92h0c162.39,108,208.41,330.73,102.58,496.39-41.77,65.37-101.64,114-173.27,140.86C2004,1720.84,1964.81,1731,1920.94,1731Zm-8-689.77a311.14,311.14,0,0,0-64.18,6.73c-82.86,17.45-154,66.92-200.19,139.3a325.26,325.26,0,0,0-37.11,80.73,18.55,18.55,0,0,1-10.43,11.64c-20.67,8.85-36.6,21.85-47.34,38.66-48.74,76.3,21.51,214.91,153.41,302.67,112.55,74.89,241.82,94.84,307.4,47.44A18.46,18.46,0,0,1,2019,1666c65-23.83,119.34-67.71,157.16-126.9,95-148.78,53.82-348.69-91.88-445.64C2032.48,1059.06,1973.31,1041.24,1912.92,1041.24Z"/><path class="cls-4" d="M1935.59,1358.42a57.4,57.4,0,0,1,11-6.5,59.32,59.32,0,0,1,12.08-4.29,68.93,68.93,0,0,1,27.48-1.13c9.81,1.35,19.86,6.28,27.84,13.14a57.28,57.28,0,0,1,5.76,5.43c1.65,2,3.24,4,4.84,6,3.12,4.12,5.17,8.44,7.61,12.86a21.32,21.32,0,0,1-37.33,20.6,22.16,22.16,0,0,1-1.56-3.54l-.7-2.14c-.38-1.18-.78-2.35-1.09-3.59a16.73,16.73,0,0,0-1.11-3.54c-.47-1-.94-2.09-1.36-3.22a21.28,21.28,0,0,0-1.62-2.9,25.3,25.3,0,0,0-9.93-9.49c-4.53-2.52-10.33-4-16.68-4.76a151.77,151.77,0,0,0-20.21-.85h-1a6.73,6.73,0,0,1-4.09-12.14Z"/><path class="cls-4" d="M1727.21,1192.87a90.61,90.61,0,0,1,23.26-9.08,70.24,70.24,0,0,1,26.89-1.32c9.57,1.26,19.47,5.8,27.5,12.37a56.11,56.11,0,0,1,5.82,5.23l5,5.82c3.26,4,5.46,8.22,8.16,12.53a21.57,21.57,0,1,1-39.42,15.78l-.17-.86c-1-5-2-10.21-4.41-14a24.63,24.63,0,0,0-10.25-10.26,45,45,0,0,0-17.28-4.94,75.37,75.37,0,0,0-20.06.85l-.67.12a6.59,6.59,0,0,1-4.38-12.24Z"/><ellipse class="cls-4" cx="1895.44" cy="1482.45" rx="61.5" ry="29.29" transform="translate(-452.31 2010.1) rotate(-50.7)"/><ellipse class="cls-4" cx="1696.25" cy="1315.36" rx="61.5" ry="29.29" transform="translate(-396.03 1794.72) rotate(-50.7)"/><path class="cls-4" d="M1659,1440.55a89.57,89.57,0,0,0-5.5,20.07c-1,6.55-.67,13.54,1.85,17.22a7.65,7.65,0,0,0,4.4,3.2,19.56,19.56,0,0,0,6.79.65c5.28-.18,11.5-1.84,17.54-3.84a13.36,13.36,0,0,1,8.4,25.36,13.76,13.76,0,0,1-3.6.67h-.15c-8,.32-16.16.44-25.06-1.77a35.67,35.67,0,0,1-13.35-6.08,24.13,24.13,0,0,1-8.86-13,30.38,30.38,0,0,1-.22-13.55,54.93,54.93,0,0,1,3.63-11.32,95.9,95.9,0,0,1,11.4-19.18,1.6,1.6,0,0,1,2.76,1.55Z"/><path class="cls-4" d="M1719.86,1455.68c-2.65,3.72-5.91,8-8.16,11.86a50.55,50.55,0,0,0-5.13,11.65,35.84,35.84,0,0,0-1.28,11.13,32.28,32.28,0,0,0,2.68,10.85,36,36,0,0,0,18.29,16.65c8.28,3.5,18.08,5.08,26.63-.31l.24-.15a3.33,3.33,0,0,1,4.76,4.27c-3,6.1-9.17,10.71-15.74,12.92a44,44,0,0,1-20.55,1.76,49,49,0,0,1-42.88-43.77,47.46,47.46,0,0,1,3.39-22.35,49.39,49.39,0,0,1,12.27-17.45,48.5,48.5,0,0,1,17.31-10.62,8,8,0,0,1,9.21,12.09Z"/><path class="cls-4" d="M1710.48,1465.31a16.74,16.74,0,0,1-13.67-14.11c-1.27-8.93-1-21.5,7.17-32.24,14.43-19,57.89,8.58,51.78,31.77C1750.81,1469.54,1725.31,1468,1710.48,1465.31Z"/><path class="cls-14" d="M1789.34,1695.39s143.36-150,304.83-182.29c0,0,69.42,44.66,67.91,140.15,0,0-104.13,135-372.74,195.31"/><g class="cls-2"><path class="cls-4" d="M2104.77,1521.38c13.59,22.5,24.94,53.12,24.32,92.34,0,0-95.64,123.81-339.75,187.27v47.57c268.61-60.33,372.74-195.31,372.74-195.31C2163.21,1581.35,2124.15,1538.28,2104.77,1521.38Z"/></g><path class="cls-4" d="M1789.32,1867.07a18.5,18.5,0,0,1-4-36.56c205.31-46.12,311.77-136.39,348-173.06a32.7,32.7,0,0,0,9.18-26.58,150.23,150.23,0,0,0-38.82-84.76,30.3,30.3,0,0,0-30.45-9c-143.75,39.95-269.25,169.74-270.5,171A18.51,18.51,0,0,1,1776,1682.6c5.38-5.63,133.62-138.41,287.34-181.13a67.23,67.23,0,0,1,67.59,19.56,187,187,0,0,1,48.36,105.54,69.14,69.14,0,0,1-19.63,56.91c-38.53,39-151.36,134.88-366.23,183.14A18.33,18.33,0,0,1,1789.32,1867.07Z"/><path class="cls-12" d="M1087.78,2005.19c-82.08-20.37-131.42-47-131.42-47h0c-63.35-5.28-115.42-52.9-127.87-116.51-47.93-244.73,190.15-304.4,339.11-182.23,11.36,9.33,23,17.88,34.63,25.78C1137.94,1733.39,1078.5,1826.25,1087.78,2005.19Z"/><path class="cls-5" d="M1841.42,1907.34c-15.12,43.89-52.06,54.7-52.06,54.7-77,90.83-255.06,19.22-255.06,19.22-179.55,66-340.4,50.22-446.52,23.93-9.28-178.94,50.16-271.8,114.45-320,146.77,99.29,311.33,91.25,311.33,91.25,43.1-67.92,78.41-105.39,97.56-123.13a31,31,0,0,1,33-6c16.07,6.61,23.9,25.22,17.47,41.67l-23.85,61.31c52.06,10.4,187.47-14.23,187.47-14.23s39.61,9.24,32.09,38.49-95.84,64.31-95.84,64.31c37.71,16.17,95.84,0,95.84,0C1898,1872.69,1841.42,1907.34,1841.42,1907.34Z"/><g class="cls-2"><path class="cls-4" d="M1857.26,1774.51c.2-.77.35-1.52.48-2.27-28,18-64.25,32.42-64.25,32.42a90.16,90.16,0,0,0,24.92,6.25C1837.19,1799.71,1854.14,1786.62,1857.26,1774.51Z"/></g><g class="cls-2"><path class="cls-4" d="M1821.42,1927.88c-77,90.83-255.06,19.22-255.06,19.22a754.21,754.21,0,0,1-208.18,44.81c-163.34,11.43-253.94-177.82-165.67-299-60.41,50.14-113.54,142.41-104.73,312.28,106.12,26.29,267,42.09,446.52-23.93,0,0,178.09,71.61,255.06-19.22,0,0,28.84-8.49,46-40.78A67.41,67.41,0,0,1,1821.42,1927.88Z"/></g><g class="cls-2"><path class="cls-4" d="M1545.63,1742.29c23.88-37.64,45.36-65.89,63-86.65-15.91,15.06-41.35,42.3-72.46,86.8C1542.25,1742.44,1545.63,1742.29,1545.63,1742.29Z"/></g><path class="cls-4" d="M1272.2,2049.45c-188.27,0-318.25-68.53-325.91-72.66a21.15,21.15,0,0,1,20.08-37.24h0c2.52,1.35,255.52,134,560.64,21.87a21.06,21.06,0,0,1,15.19.23c1.63.65,164.87,64.78,231-13.3a21.19,21.19,0,0,1,10.22-6.63c.86-.28,26.86-8.91,38-41.24a21.12,21.12,0,0,1,8.95-11.16c8.22-5.14,20-16.25,20.48-23.68a6.61,6.61,0,0,0-.81-3.39c-21.37,4.38-63.94,10.15-96.93-4a21.17,21.17,0,0,1,.52-39.11c39.63-15.75,79.29-39.63,83.21-50.1.5-2,.11-2.65-.17-3.13-1.88-3.15-7.79-6.36-12.76-8.2-27.92,4.9-140,23.35-190.35,13.28a21.15,21.15,0,0,1-15.57-28.42l23.88-61.33a11.15,11.15,0,0,0-5.82-14.42,9.84,9.84,0,0,0-10.51,2c-16.83,15.59-51.43,51.78-94.1,119a21.18,21.18,0,0,1-16.83,9.79c-8.15.38-201.78,8.25-360.39-121.82-78.75-64.57-187.93-75.24-254-24.82-69.5,53.07-75.56,159.1-16.64,290.9A21.15,21.15,0,0,1,845,1959.11c-96-214.78-11.3-310.58,29.58-341.79,82.54-63,211.43-52.2,306.46,25.73,125.54,103,279.57,111.9,320.92,112.35,40.18-61.7,73.53-97.89,94.82-117.62a52.42,52.42,0,0,1,55.34-10.08c26.63,10.94,39.72,41.85,29.17,68.92l-13.65,35.06c47.64.66,123.57-11,153.78-16.47a21.25,21.25,0,0,1,8.59.21c5,1.16,30.36,8,42.83,28.56,6.49,10.72,8.19,23.11,4.91,35.82-3.79,14.71-17.78,28.63-35,40.74,3.57-.74,6.59-1.47,8.88-2.1a21.21,21.21,0,0,1,19.17,4.12c20,16.58,23.11,34.25,22.25,46.15-1.82,25.21-23,44.07-34.18,52.32a108.75,108.75,0,0,1-57.07,58.88c-78.23,85.16-231,37.1-267.6,23.91A776.82,776.82,0,0,1,1272.2,2049.45Z"/><path class="cls-17" d="M1239.46,1708s-124.79,104.62-94.55,309.07c0,0-11.91,29-47.28,0,0,0-35.65,32-61.31-50.43-24.8-79.66-3-281.68,128-311,11.53-2.58,24,.5,31.72,9.62a19.88,19.88,0,0,1,5.17,13.4S1246,1680.74,1239.46,1708Z"/><path class="cls-4" d="M1125.52,2051.12c-9.49,0-19.38-3.12-29.58-9.31a44.82,44.82,0,0,1-26.88.89c-23-6.33-40.29-29.16-52.93-69.77-19-61-12-174.33,32.52-251.21,26.89-46.5,65.29-76.49,111-86.73,19.93-4.44,40,1.9,52.47,16.59a44.51,44.51,0,0,1,5.48,8c11.71,2.53,26.92,8.07,36,20.19,7,9.35,9.28,21.13,6.38,33.15a21.18,21.18,0,0,1-6.93,11.21c-4.94,4.2-115.24,100.58-87.25,289.8a21.25,21.25,0,0,1-1.37,11.15c-3.7,9-13.41,20.89-28.56,24.71A42.25,42.25,0,0,1,1125.52,2051.12Zm-28.47-55.73a22.29,22.29,0,0,1,14,5.31c5.2,4.26,8.92,6.28,11.31,7.23-20.87-171.21,61.05-273.36,92.16-305.35a57.94,57.94,0,0,0-14.38-2.8,21.24,21.24,0,0,1-20.08-20.65l-.16-.2c-2.21-2.6-6.51-3.65-11-2.65-34.38,7.69-62.52,30.11-83.64,66.62-40.91,70.74-43,171.74-28.75,217.46,11.41,36.65,22.41,41.12,23.63,41.51a4.61,4.61,0,0,0,3.61-.81A18.49,18.49,0,0,1,1097.05,1995.39ZM1239.46,1708h0Z"/><path class="cls-4" d="M1742.36,1903.87c7.75.38,16.26.34,24.32-.06s16.22-1.2,24.1-2.37a181.35,181.35,0,0,0,22.71-5.11,103.59,103.59,0,0,0,19.55-8.41,21.28,21.28,0,0,1,21,37,20.81,20.81,0,0,1-3.91,1.73l-.41.13a144.54,144.54,0,0,1-29.45,6,217.64,217.64,0,0,1-28.12.52q-13.74-.76-27-2.83c-9-1.41-17.45-3.07-26.54-5.42a10.8,10.8,0,0,1,3.22-21.24Z"/><path class="cls-4" d="M1700.05,1951.92c7.21.1,14.83-.06,22.21-.44s14.81-1,22.1-1.86a229.49,229.49,0,0,0,41.78-8.5,21.4,21.4,0,1,1,6.91,41.81h-.51a266.74,266.74,0,0,1-49.06-3.86q-11.82-2-23.35-4.65c-7.73-1.81-15.2-3.78-23-6.14a8.37,8.37,0,0,1,2.55-16.37Z"/><path class="cls-5" d="M2128.67,1714.63c-20.47,72.86-87.79,111.12-129.93,128.39-31.51,13-68.45,2.73-86.88-26.42-12.86-20.33-12.18-40.94,2.13-45.56,24.4-7.85,56,11.65,57.67,12.66-11.59-21.16-35.44-46.2-49.93-60.34a26,26,0,0,1-3.12-33.31c5.56-8,14.53-14.92,28.65-14.23v0s6.88-49.58,54.87-30.82a99.12,99.12,0,0,1,26.58,15.57l-.09-27.26c-.09-13.91,7.24-27.17,19.55-33.13,9.65-4.62,22.64-5.45,38.66,5.92C2124.14,1632.67,2128.67,1714.63,2128.67,1714.63Z"/><g class="cls-2"><path class="cls-4" d="M2128.67,1714.63c-20.47,72.86-87.79,111.12-129.93,128.39-31.51,13-68.45,2.73-86.88-26.42-12.86-20.33-12.18-40.94,2.13-45.56,24.4-7.85,56,11.65,57.67,12.66-11.59-21.16-35.44-46.2-49.93-60.34a26,26,0,0,1-3.12-33.31c5.56-8,14.53-14.92,28.65-14.23v0s6.88-49.58,54.87-30.82a99.12,99.12,0,0,1,26.58,15.57l-.09-27.26c-.09-13.91,7.24-27.17,19.55-33.13,9.65-4.62,22.64-5.45,38.66,5.92C2124.14,1632.67,2128.67,1714.63,2128.67,1714.63Z"/></g><path class="cls-4" d="M2042.08,1644.14a130.43,130.43,0,0,1,15.15,19.37,133.36,133.36,0,0,1,11,20.88,154.45,154.45,0,0,1,7.35,21.63,147.07,147.07,0,0,1,4,22.44,9,9,0,0,1-17.29,4.43l-.36-.86a131.52,131.52,0,0,0-8.68-16.91,124.55,124.55,0,0,0-11-15.42,98.58,98.58,0,0,0-12.79-13,90.72,90.72,0,0,0-14.1-9.84,21.37,21.37,0,1,1,21.94-36.69A22,22,0,0,1,2042.08,1644.14Z"/><path class="cls-4" d="M1970.76,1869.77c-30.61,0-59.84-15.07-76.78-41.88-11.9-18.81-15.48-38.6-9.8-54.28a36.2,36.2,0,0,1,23.31-22.69,57.64,57.64,0,0,1,9.62-2.21c-3.24-3.37-6.64-6.77-10.15-10.2a47.42,47.42,0,0,1-5.66-60.62c7.56-10.84,17.75-18.14,29.58-21.37,4-10,11.36-22.17,24.53-29.89,10.33-6.05,27.77-11.22,52.64-2.05,2.66-18.85,14.18-35.38,30.91-43.48,11-5.28,33.38-11.26,60.11,7.71,44.35,31.63,50.2,115.22,50.72,124.65a21.38,21.38,0,0,1-.76,6.89c-23.18,82.52-99.08,124.54-142.27,142.25A94.38,94.38,0,0,1,1970.76,1869.77Zm-46.85-79.31c.32,3.13,1.81,8.48,5.83,14.83,12.58,19.9,38.2,27.56,60.94,18.18,35.46-14.54,97.11-48.14,116.63-111.19-2.23-28.31-12.59-74.61-32.76-89-10.37-7.36-15.18-5-17.24-4.06-4.52,2.19-7.58,7.8-7.54,13.91l.09,27.33a21.15,21.15,0,0,1-34.54,16.44,78.28,78.28,0,0,0-20.92-12.25c-4.48-1.75-12.75-4.3-17.52-1.56-5.1,2.92-8,11.83-8.69,15.75a21.15,21.15,0,0,1-6.34,12.28,21.39,21.39,0,0,1-15.62,5.83c-4-.24-7.07.61-10.27,5.19a4.87,4.87,0,0,0,.57,6.11c14.36,14,40.47,41.17,53.69,65.29a21.16,21.16,0,0,1-29.53,28.25C1951.47,1796.17,1935,1789.18,1923.91,1790.46Z"/><path class="cls-4" d="M1971.71,1804.9a21.18,21.18,0,1,1,21.15-21.15A21.1,21.1,0,0,1,1971.71,1804.9Z"/><path class="cls-4" d="M1948.21,1654.69A71.06,71.06,0,0,1,1970,1661c3.16,1.42,5.88,3.14,8.8,4.71l4.27,2.43c1.38.88,2.69,1.87,4,2.81a112.9,112.9,0,0,1,27.37,26.52,140.1,140.1,0,0,1,17.66,31.79,147.62,147.62,0,0,1,9.31,34.37,8,8,0,0,1-15.52,3.84l-.24-.66a130.4,130.4,0,0,0-13.7-27.26,113.89,113.89,0,0,0-19.27-22.62,80,80,0,0,0-23.46-15c-1-.45-2-1-3.08-1.36l-3.23-1c-2.13-.61-4.28-1.49-6.3-1.91a28.29,28.29,0,0,0-10.31-.71,21.55,21.55,0,1,1-7.6-42.43,21.78,21.78,0,0,1,6.12-.22Z"/><path class="cls-4" d="M1437.73,1271.7l-23.22,128.85a72.88,72.88,0,0,1-9.06,24.26,68.1,68.1,0,0,1-22.41,22.82c-88.41,54.94-134.27-4-157.63-68-19.11-52.25-23.18-108-23.18-108C1322.11,1315.77,1437.73,1271.7,1437.73,1271.7Z"/><path class="cls-18" d="M1405.45,1424.81a68.1,68.1,0,0,1-22.41,22.82c-88.41,54.94-134.27-4-157.63-68,24.85-8,56.13-9.56,88.82-2.82C1353.16,1384.89,1385.76,1403,1405.45,1424.81Z"/><path class="cls-4" d="M1318.66,1487.91a90.73,90.73,0,0,1-29.81-5c-34.5-11.91-61.69-44.52-80.83-96.94-19.76-54-24.08-110.59-24.25-113a18.51,18.51,0,0,1,24.84-18.72c112.09,41.2,221.44.49,222.53.07A18.52,18.52,0,0,1,1456,1275l-23.23,128.85a91,91,0,0,1-11.38,30.48,87.15,87.15,0,0,1-28.54,29C1366.49,1479.71,1341.67,1487.91,1318.66,1487.91ZM1224.12,1298c3.13,20.08,8.81,48.33,18.67,75.28,10.41,28.5,28.93,64.58,58.14,74.66,19.83,6.85,44.18,1.45,72.34-16.06a49.77,49.77,0,0,0,16.33-16.66,53.82,53.82,0,0,0,6.7-18l17.88-99.22C1375,1307.7,1302.51,1319,1224.12,1298Z"/><path class="cls-4" d="M1011.48,888.35c11.2-18,24.46-33.53,39.73-48.13a226.16,226.16,0,0,1,24.7-20.33c9-6.18,18.31-12.1,28.95-16.61,5.11-2.52,10.81-4.34,16.41-6.29a76,76,0,0,1,20.33-3.42,65.26,65.26,0,0,1,22.63,3.32A67.08,67.08,0,0,1,1184.49,808c11.62,9.6,18.83,21.21,23.64,32.52a111.89,111.89,0,0,1,5.63,17.15c.65,2.89,1.23,5.77,1.69,8.69.25,1.46.41,2.93.58,4.44s.27,2.78.44,5A19.23,19.23,0,0,1,1183.88,891l-9.29-9.12a15.93,15.93,0,0,1-.91-2.27l-1.06-2.78c-.68-1.89-1.46-3.76-2.27-5.59a108.2,108.2,0,0,0-5-10.47c-3.6-6.48-7.67-11.73-11.49-14.59-3.75-3-6.91-4.07-12-4.5a32.94,32.94,0,0,0-8.91.73c-3.85.92-7.75,1.53-11.72,3a112.65,112.65,0,0,0-11.93,4.37c-4,1.53-8,3.5-12.1,5.36-8,4.12-16.07,8.44-24,13.41-15.84,9.72-31.64,21.18-46.74,32.69l-.48.36a10,10,0,0,1-14.5-13.2Z"/><path class="cls-4" d="M1461.1,878.31a128.46,128.46,0,0,1,15.2-26.16,134.13,134.13,0,0,1,21-22.42c15.83-13.58,37.05-24.12,60.67-25.85,2.92-.33,5.86-.28,8.8-.39,3.14.22,6.18.24,9.42.77a68.54,68.54,0,0,1,19.51,5.51c13.14,5.65,24.26,16.79,30.5,28.46a85.21,85.21,0,0,1,7.18,17.61,107.32,107.32,0,0,1,3.06,17.23,115.25,115.25,0,0,1,.22,16.59c-.18,2.73-.45,5.43-.79,8.14l-.67,4.1c-.25,1.5-.48,2.54-.92,4.6a18.49,18.49,0,0,1-33.31,6.62l-8.58-12.52a12.74,12.74,0,0,1-.22-2.22l-.22-2.74c-.13-1.85-.3-3.71-.53-5.56a101.08,101.08,0,0,0-1.69-10.73c-1.38-6.83-3.51-12.92-6-17.12s-5-6.7-8.62-8.6-8.72-3.24-15.7-3.66c-13.1-.88-27.19,2.86-41.3,9.94-13.94,7-28,17.75-40.35,29l-.75.69a10,10,0,0,1-15.89-11.28Z"/><path class="cls-4" d="M345.48,1077.89a21.14,21.14,0,0,1-20-28.07c49.49-143,179.78-275.75,366.87-373.71C874,581,1088.06,528.65,1295.17,528.65c295.53,0,573.42,85.41,762.42,234.34a21.16,21.16,0,0,1-26.19,33.24C1849.73,653.06,1581.38,571,1295.17,571c-418.63,0-835.69,221-929.7,492.71A21.16,21.16,0,0,1,345.48,1077.89Z"/><path class="cls-4" d="M645.47,952.12a21.15,21.15,0,0,1-5.59-41.55C905.26,837.66,1006.55,574,1007.54,571.36a21.15,21.15,0,0,1,39.65,14.76c-4.34,11.66-109.39,286.47-396.11,365.24A21.34,21.34,0,0,1,645.47,952.12Z"/><path class="cls-4" d="M483.63,1394.49c-75.94,0-137.72-62.85-137.72-140.12,0-53.6,29.31-101.69,76.49-125.51a21.15,21.15,0,0,1,19.07,37.76c-32.85,16.59-53.26,50.21-53.26,87.75,0,53.94,42.81,97.82,95.42,97.82a94,94,0,0,0,19.61-2.07,21.15,21.15,0,0,1,8.87,41.36A135.9,135.9,0,0,1,483.63,1394.49Z"/><path class="cls-4" d="M431.94,1168.89a21.16,21.16,0,0,1-21.1-22.68c2.65-36.88,2.18-140-31.4-174a21.15,21.15,0,1,1,30.08-29.74c40.93,41.38,45.27,132.88,44.6,179.59,222.28-47.21,211.28-195.39,210.67-201.9a21.16,21.16,0,0,1,42.1-4.25c.22,2.16,5.11,53.58-27.19,110.61-29.05,51.28-95,117.56-244.33,142.09A21,21,0,0,1,431.94,1168.89Z"/><path class="cls-4" d="M499.1,1433.75a21.16,21.16,0,0,1-20.46-26.52c26-99.24,18.36-278.37,18.28-280.17a21.15,21.15,0,1,1,42.26-1.89c.31,6.8,6.51,151.58-12,257.51A111.46,111.46,0,0,0,559,1357.13c32.62-37,67.92-118.8,50.85-298.39a21.15,21.15,0,1,1,42.11-4c15,157.84-6.13,269.59-62.81,332.14-41.83,46.16-88.06,46.86-90,46.87Z"/><path class="cls-4" d="M329.53,1252c-50.42,0-133.47-7.78-181.63-54-27.77-26.67-40.34-61.81-37.36-104.46C117.46,994.65,266.46,827,464.82,694.89c146.93-97.85,450.46-261,840.25-261,3.51,0,7,0,10.52,0,429.91,3.24,598.45,103.76,733.87,184.54,66.32,39.56,123.6,73.72,201.58,93.31,82.55,20.74,88.56,60.46,84.79,82.3C2323,868.27,2162.65,935,2012.24,935c-15.19,0-30.26-.68-45.08-2.1a21.15,21.15,0,1,1,4-42.11c158.08,15.15,315.6-61.37,322.95-103.94,2.11-12.21-18.36-25.26-53.41-34.07-84-21.1-146.64-58.46-212.94-98-137.85-82.22-294.09-175.41-712.52-178.57-3.39,0-6.82,0-10.2,0-378.69,0-673.86,158.7-816.79,253.9C284.82,865.61,157.9,1022.79,152.75,1096.45c-2.1,29.94,5.89,53.14,24.4,71,56.68,54.49,188.93,40.68,190.25,40.53a21.15,21.15,0,0,1,4.66,42A415,415,0,0,1,329.53,1252Z"/><path class="cls-4" d="M379.87,803.82a21.16,21.16,0,0,1-21.15-21c-2.41-312,135.59-484.05,251.79-573.41C724.26,121.93,837.37,95.19,862,90.18c30.09-20,215.46-130,578.91-74.9C1605.63,40.23,1741.44,142.49,1833.65,311c68.87,125.88,89.09,242.81,89.92,247.73a21.15,21.15,0,0,1-41.72,7h0c-.19-1.14-20.14-115.79-85.9-235.52-86.82-158.08-208.41-250-361.39-273.16C1063,.83,884.52,126,882.76,127.22a21.36,21.36,0,0,1-8.84,3.74c-1.18.2-121.42,22-239.08,113.12C477.87,365.58,399.21,546.73,401,782.51a21.15,21.15,0,0,1-21,21.31Z"/><path class="cls-4" d="M383.36,713.06a21.16,21.16,0,0,1-15.16-35.9c4.39-4.51,109.41-111.78,276.4-221.44C799.31,354.13,1037.8,232.32,1295.42,229c225.22-3,429.7,83.6,607.51,257.18a21.15,21.15,0,1,1-29.55,30.28C1704,351,1509.75,268.6,1296.16,271.27c-247.13,3.15-477.61,121-627.45,219.23C505.32,597.65,399.57,705.58,398.52,706.66A21.1,21.1,0,0,1,383.36,713.06Z"/><path class="cls-13" d="M1080.85,2056.75c-92.08-15.43-162,114.72-162,114.72s-7.74,71.61,34.49,94.71c0,0,112.41,48.52,158.46,27.73C1181.81,2262.26,1172.89,2072.14,1080.85,2056.75Zm-30.19,190.17s-34.14-10.67-67.77-23.8c-16.93-6.65-22.32-28.36-10.69-42.59,18.2-22.18,45.86-49.48,73.89-52.63C1062.61,2152.21,1077.82,2193.32,1050.66,2246.92Z"/><path class="cls-4" d="M1082.1,2314.83c-54.17,0-125.33-29.88-135.06-34.08-.45-.19-.89-.41-1.33-.64-51-27.87-43-107-42.65-110.34a16,16,0,0,1,1.79-5.81c3.08-5.72,76.47-140,178.63-122.85,46.08,7.7,80,53.09,88.49,118.45,7.38,56.66-6.27,127.39-53.66,148.8C1108.12,2313,1095.64,2314.83,1082.1,2314.83Zm-121.76-62.9c41.17,17.63,116.24,40.45,144.91,27.52,26.65-12,42.14-62.91,35.26-115.79-5.2-39.95-24.29-84.91-62.27-91.26h0c-72.9-12.16-133.58,86.1-143.89,103.87C933.05,2195.19,935.54,2237.72,960.34,2251.93Zm90.32,10.86a15.81,15.81,0,0,1-4.73-.73c-1.42-.44-35.05-11-68.81-24.16A42.12,42.12,0,0,1,951.56,2209a43.57,43.57,0,0,1,8.36-38.49c29.33-35.73,57.72-55.35,84.4-58.34a15.89,15.89,0,0,1,14.89,6.84c15.85,23.32,37.65,71.87,5.6,135.11A15.87,15.87,0,0,1,1050.66,2262.79Zm-12.17-116.87c-15.94,5.7-34.74,21.18-54,44.67a11.54,11.54,0,0,0-2.21,10.36,10.66,10.66,0,0,0,6.43,7.41c20,7.81,40.46,14.81,53.34,19.08C1055.44,2193,1049,2165.37,1038.49,2145.92Z"/><path class="cls-18" d="M881.64,2184.18s-3.52-35.81,17.86-48.13"/><path class="cls-4" d="M881.64,2184.18a80.7,80.7,0,0,1-3.79-13.83,69,69,0,0,1-1.22-15.12,51.64,51.64,0,0,1,3.31-16.64,44.13,44.13,0,0,1,11.64-16.29l15.84,27.49a14.19,14.19,0,0,0-7.76,2.13,30.06,30.06,0,0,0-7.81,7.8,56.76,56.76,0,0,0-6.1,11.35A77.57,77.57,0,0,0,881.64,2184.18Z"/><path class="cls-4" d="M1359.92,2462.29c.62,25.24-1.58,49.91-5,74.54a634.7,634.7,0,0,1-14.58,73.07,552.8,552.8,0,0,1-23.27,71,388.64,388.64,0,0,1-34,66.76,8,8,0,0,1-14.45-6.3l.06-.24c6.19-23.76,13.33-46.71,19.68-70s12.78-46.45,18.75-69.83l18-70.23c5.9-23.47,11.81-47.16,18.38-70.55l.07-.24a8.33,8.33,0,0,1,16.34,2.05Z"/><path class="cls-4" d="M980.83,1134.79c-2.25-13-.43-27.08,4.89-39.93A95.13,95.13,0,0,1,1010,1060.8a118.59,118.59,0,0,1,36-22.45,135.63,135.63,0,0,1,41.85-9.66c28.76-2,59.28,4.58,85.35,22a93.19,93.19,0,0,1,31.68,35.78c7.32,14.75,10.34,32.38,6.42,48.28a20.07,20.07,0,0,1-37.78,3.42l-1.51-3.42a119.45,119.45,0,0,0-12.72-22.62,113.52,113.52,0,0,0-17.56-19c-13.85-12.08-33.25-19.78-53.88-22.05a120.32,120.32,0,0,0-31.32,1.39,103.17,103.17,0,0,0-30,10.59,83.68,83.68,0,0,0-24.93,20.75,71,71,0,0,0-14.26,31v.06a3.33,3.33,0,0,1-6.54-.06Z"/><path class="cls-4" d="M1456.77,1134.79c-2.25-13-.43-27.08,4.89-39.93A95,95,0,0,1,1486,1060.8a118.47,118.47,0,0,1,36-22.45,135.64,135.64,0,0,1,41.84-9.66c28.77-2,59.29,4.58,85.35,22a93.3,93.3,0,0,1,31.69,35.78c7.32,14.75,10.34,32.38,6.42,48.28a20.07,20.07,0,0,1-37.78,3.42l-1.51-3.42a119.45,119.45,0,0,0-12.72-22.62,113.6,113.6,0,0,0-17.57-19c-13.85-12.08-33.24-19.78-53.88-22.05a120.26,120.26,0,0,0-31.31,1.39,103.23,103.23,0,0,0-30,10.59,83.52,83.52,0,0,0-24.92,20.75,70.9,70.9,0,0,0-14.26,31v.06a3.33,3.33,0,0,1-6.54-.06Z"/></g></g></svg>