<svg xmlns="http://www.w3.org/2000/svg" xmlns:xlink="http://www.w3.org/1999/xlink" viewBox="0 0 2786.89 3354.53"><defs><style>.cls-1{fill:none;}.cls-2{fill:#ff1b40;}.cls-3{opacity:0.6;}.cls-4{fill:#ffed00;}.cls-5{opacity:0.2;}.cls-6{fill:#371a45;}.cls-7{fill:#fff;}.cls-8{fill:#272727;}.cls-9{fill:#ffc200;}.cls-10{fill:#650000;}.cls-11{fill:#ffc891;}.cls-12{clip-path:url(#clip-path);}.cls-13{fill:#ffbc00;}.cls-14{fill:#ffbd00;}.cls-15{fill:#ffbe00;}.cls-16{fill:#ffbf00;}.cls-17{fill:#ffc000;}.cls-18{fill:#ffc100;}.cls-19{fill:#ffc300;}.cls-20{fill:#ffc400;}.cls-21{fill:#ffc500;}.cls-22{fill:#ffc600;}.cls-23{fill:#ffc700;}.cls-24{fill:#ffc800;}.cls-25{fill:#ffc900;}.cls-26{fill:#ffca00;}.cls-27{fill:#ffcb00;}.cls-28{fill:#fc0;}.cls-29{fill:#ffcd00;}.cls-30{fill:#ffce00;}.cls-31{fill:#ffcf00;}.cls-32{fill:#ffd000;}.cls-33{fill:#ffd100;}.cls-34{fill:#ffd200;}.cls-35{fill:#ffd300;}.cls-36{fill:#ffd400;}.cls-37{fill:#ffd500;}.cls-38{fill:#ffd600;}.cls-39{fill:gold;}.cls-40{fill:#ffd800;}.cls-41{fill:#ffd900;}.cls-42{fill:#ffda00;}.cls-43{fill:#ffdb00;}.cls-44{fill:#ffdc00;}.cls-45{fill:#ffde00;}.cls-46{fill:#ffdf00;}.cls-47{fill:#ffe000;}.cls-48{fill:#ffe100;}.cls-49{fill:#ffe200;}.cls-50{fill:#ffe300;}.cls-51{fill:#ffe400;}.cls-52{fill:#ffe500;}.cls-53{fill:#ffe600;}.cls-54{fill:#ffe700;}.cls-55{fill:#ffe800;}.cls-56{fill:#ffe900;}.cls-57{fill:#ffea00;}.cls-58{fill:#ffeb00;}.cls-59{fill:#ffec00;}.cls-60{fill:#fe0;}.cls-61{fill:#ffef00;}.cls-62{fill:#fff000;}.cls-63{fill:#fff100;}.cls-64{fill:#fff200;}.cls-65{fill:#fff300;}.cls-66{fill:#fff400;}.cls-67{fill:#fff500;}.cls-68{fill:#fff600;}.cls-69{fill:#fff700;}.cls-70{fill:#fff800;}.cls-71{fill:#fff900;}.cls-72{fill:#fffa00;}.cls-73{fill:#fffb00;}.cls-74{fill:#fffc00;}.cls-75{fill:#fffd00;}.cls-76{fill:#fffe00;}.cls-77{fill:#ff0;}.cls-78{clip-path:url(#clip-path-2);}.cls-79{fill:#f6ac82;}.cls-80{fill:#f6ab81;}.cls-81{fill:#f5aa81;}.cls-82{fill:#f4a980;}.cls-83{fill:#f3a87f;}.cls-84{fill:#f3a77e;}.cls-85{fill:#f2a67e;}.cls-86{fill:#f1a57d;}.cls-87{fill:#f0a47c;}.cls-88{fill:#efa37b;}.cls-89{fill:#efa27b;}.cls-90{fill:#eea17a;}.cls-91{fill:#eda079;}.cls-92{fill:#ec9f78;}.cls-93{fill:#ec9e78;}.cls-94{fill:#eb9d77;}.cls-95{fill:#ea9c76;}.cls-96{fill:#e99b76;}.cls-97{fill:#e89a75;}.cls-98{fill:#e89974;}.cls-99{fill:#e79873;}.cls-100{fill:#e69773;}.cls-101{fill:#e59672;}.cls-102{fill:#e59571;}.cls-103{fill:#e49470;}.cls-104{fill:#e39370;}.cls-105{fill:#e2926f;}.cls-106{fill:#e1916e;}.cls-107{fill:#e1906e;}.cls-108{fill:#e08f6d;}.cls-109{fill:#df8e6c;}.cls-110{fill:#de8d6b;}.cls-111{fill:#de8b6b;}.cls-112{fill:#dd8a6a;}.cls-113{fill:#dc8969;}.cls-114{fill:#db8868;}.cls-115{fill:#db8768;}.cls-116{fill:#da8667;}.cls-117{fill:#d98566;}.cls-118{fill:#d88466;}.cls-119{fill:#d78365;}.cls-120{fill:#d78264;}.cls-121{fill:#d68163;}.cls-122{fill:#d58063;}.cls-123{fill:#d47f62;}.cls-124{fill:#d47e61;}.cls-125{fill:#d37d60;}.cls-126{fill:#d27c60;}.cls-127{fill:#d17b5f;}.cls-128{fill:#d07a5e;}.cls-129{fill:#d0795e;}.cls-130{fill:#cf785d;}.cls-131{fill:#ce775c;}.cls-132{fill:#cd765b;}.cls-133{fill:#cd755b;}.cls-134{fill:#cc745a;}.cls-135{fill:#cb7359;}.cls-136{fill:#ca7258;}.cls-137{fill:#c97158;}.cls-138{fill:#c97057;}.cls-139{fill:#c86f56;}.cls-140{fill:#c76e55;}.cls-141{fill:#c66d55;}.cls-142{fill:#c66c54;}.cls-143{fill:#c56b53;}.cls-144{fill:#c46a53;}.cls-145{fill:#c36952;}.cls-146{fill:#c26851;}.cls-147{fill:#c26750;}.cls-148{fill:#c16650;}.cls-149{fill:#c0654f;}.cls-150{fill:#bf644e;}.cls-151{fill:#bf634d;}.cls-152{fill:#be624d;}.cls-153{fill:#bd614c;}.cls-154{fill:#f7b92f;}.cls-155{opacity:0.4;}.cls-156{fill:#fff539;}.cls-157{fill:#b199c5;}</style><clipPath id="clip-path"><path class="cls-1" d="M1806,1271.05c-1.14,4.1-2.44,8.19-3.87,12.26a183.37,183.37,0,0,0,32.36,2.9,177.48,177.48,0,0,0,21.76-1.33A168.74,168.74,0,0,1,1806,1271.05Z"/></clipPath><clipPath id="clip-path-2"><path class="cls-1" d="M2016.11,635.8v.46a116.53,116.53,0,0,1-19.52-2.85l-1.15,5.14s-4.59,248-140.09,450.15l-41.34,4.59-43.64,89.57s-94.16-117.13-147-383.54c0,0-121.35-62.52-183-126.69l3.85-35.23c33.31,45.94,110.24,32.16,110.24,32.16l21.82-64.31c45.93,78.09,114,61.23,114,61.23-23-51.26,17.23-62.38,17.23-62.38l1.51,1.66c42.77,46.39,100.32,38.17,100.32,38.17,26.78,29.85,72.35,37.11,72.35,37.11l-3.45-57.78c28.34,29.07,75,36.74,75,36.74l4.59-45.93C1972.06,624,1993.1,630.88,2016.11,635.8Z"/></clipPath></defs><title>being-brave</title><g id="Layer_2" data-name="Layer 2"><g id="Layer_1-2" data-name="Layer 1"><path class="cls-2" d="M2769.41,2379.42c-535.12-229.67-438.66,509.85-902.58,608.61,0,0,56.63-389.65-528.23-518.26-452.3-99.5-456.26,107.16-456.26,107.16C441.39,2261.51,597.56,1636.82,683.27,1566.4s532.82-76.57,532.82-76.57,607.1-116.35,717.34,255.71q6.55,22.18,12.86,44.6c75.33-150.15,144.05-248.27,265-265.08C2294.83,1513.44,2753.34,1497.5,2769.41,2379.42Z"/><g class="cls-3"><path class="cls-4" d="M1216.11,1489.84S769,1496,683.28,1566.38c-49.88,41-123.55,269.55-89.66,515.67a63.26,63.26,0,0,1,22.68-8.78,65,65,0,0,1,18.09-.44c-29.52-241,42.38-462.07,91.36-502.32,85.75-70.41,532.84-76.54,532.84-76.54s134.46-25.78,288.33-14.29C1376.21,1459.15,1216.11,1489.84,1216.11,1489.84Z"/></g><g class="cls-3"><path class="cls-4" d="M1598.07,1493.07c25.3,3,50.84,7.2,76.12,12.76q-14.16-4.33-28.55-8C1629.66,1495.81,1613.76,1494.24,1598.07,1493.07Z"/></g><g class="cls-5"><path class="cls-6" d="M2566.45,1823.35c-179.67-196.3-258.46-38.4-289.31,71.83-5.32,31.75-8.49,62.6-14.23,90.24-3.45,82.22-18.31,151.84-42.72,197.11,41.72-88.17,22.13-207.17,4.91-275.45-2.62-10.39-17.61-9.64-19.22,1-7.42,48.76-30.58,113.56-100.73,123-47.36,6.35-83-29.55-108.5-73.81-22.45-83.94-36.28-154.17-36.28-154.17q-6.3-22.44-12.88-44.64c-39.5-133.36-142.85-204-259.22-239.68-195.84-43.09-407-2.64-407-2.64s-447.09,6.18-532.83,76.59c-82.54,67.81-230.48,649.72,152.66,974.3,17-50.83,94.8-162.81,451.57-84.33q39.91,8.78,75.93,19.11l.47.14c59.32,17,110.94,36.91,155.82,58.85,24.49-102.88,51.87-175.79,51.87-175.79s306.74,424.72,528.53,330.34c45.07-19.16,73.57-46.53,92.36-78.86,73.71-126.8-1.94-330.14,186.07-416.64,28.27-13,54.27-20.58,78.1-23.79,2.27-124.35-14.16-246.38-68.66-332.5,0,0,166.86,144.45,188.34,356.52,84.75,51.53,116.84,162.06,116.84,162.06C2732.13,2168.41,2677.53,1944.73,2566.45,1823.35Z"/></g><g class="cls-3"><path class="cls-7" d="M1866.83,2988.05c.31-.06.6-.14.91-.21-.09-1.7-.2-3.43-.33-5.21C1867.1,2986.14,1866.83,2988.05,1866.83,2988.05Z"/><path class="cls-7" d="M1933.41,1792.71c4.51,14.78,8.69,29.68,12.89,44.64,10-19.87,19.77-38.79,29.63-56.72,64.75-118,130.39-193.77,235.39-208.4,27-3.77,93.39-8,171.35,18,135.23,45.06,314.13,216.45,376.91,615.1-45.15-459.68-231.22-613.74-376.91-662.29-78-26-144.31-21.75-171.35-18-105,14.63-170.64,90.42-235.39,208.4-9.86,17.93-19.68,36.85-29.63,56.72q-6.3-22.44-12.89-44.64c-39.49-133.36-142.84-204-259.22-239.69-59-13-119.31-18.36-174.87-19.57C1693.09,1544.48,1886.88,1639.81,1933.41,1792.71Z"/></g><path class="cls-8" d="M1866.83,3005.51a17.46,17.46,0,0,1-17.29-20c.12-.9,12.52-94.77-44-202.2-75.09-142.76-237.85-245.28-470.72-296.49-237.41-52.23-344.45-18.11-392.42,19.71-40.75,32.13-42.6,70.34-42.61,70.72a17.47,17.47,0,0,1-27.63,13.88c-240.44-172-298.1-423.31-304.13-603.87-7-210.35,55.91-394.76,104.13-434.37,87.07-71.49,489.12-79.74,542.17-80.52,17.37-3.21,161.63-28.36,320.9-11.59,224.21,23.59,367.69,120.34,414.94,279.79l.72,2.46c72.77-137,142.35-219.22,258-235.29,41.49-5.76,187.51-15.55,324.07,101.16,161.67,138.15,247.08,397.29,253.88,770.19a17.47,17.47,0,0,1-24.36,16.37c-131.27-56.33-230.06-56.82-310.93-1.55-73.74,50.4-126.33,141.95-182,238.89-88.13,153.44-188,327.37-399.13,372.31A17.84,17.84,0,0,1,1866.83,3005.51Zm-745-580.5q94.45,0,220.48,27.69c308.72,67.89,439.69,209.52,495.19,316.38,43.54,83.81,48.93,158.92,48.25,196.41,180.44-48.77,268.37-201.86,353.5-350.09,57.72-100.5,112.23-195.43,192.58-250.33,86.28-59,188.31-62.93,319.45-11.94-10-348.14-91.08-589.51-241-717.65-125.47-107.23-258.71-98.38-296.56-93.11-111.11,15.44-176.47,105.41-251.83,255.61a17.48,17.48,0,0,1-32.44-3.12q-6.24-22.27-12.8-44.37c-43.51-146.86-173.07-232.64-385.07-255-161.11-17-310.72,11.16-312.22,11.45a17.24,17.24,0,0,1-3.05.31c-122.65,1.7-455.51,18-522,72.6C659.69,1608.39,596,1777.58,603,1986.1c5.59,167.19,57.24,397.65,268.15,560.71,6.73-19.25,20.69-44.87,49.67-67.71C966.49,2443.07,1033.8,2425,1121.87,2425Z"/><path class="cls-8" d="M1963.11,1785.4c17.39,59.2,32.94,118.73,49.51,177.64,8.31,29.44,16.86,58.74,26.21,87.6s19.18,57.42,31.18,84.44a318.7,318.7,0,0,0,20.07,38.51c7.43,11.91,16,22.78,25.31,30.12,9.5,7.29,18.55,10.16,28.57,8.48a50.64,50.64,0,0,0,15.86-5.66l4.06-2.33,4-2.64a59.51,59.51,0,0,0,6.82-5.51,72,72,0,0,0,11.84-14.24,116.45,116.45,0,0,0,9.49-17.63c5.64-12.55,9.83-26.35,13.3-40.5,6.87-28.4,10.65-58.29,13.41-88.38,5.35-60.3,6.42-121.68,9.74-183.35,1.63-30.84,3.64-61.82,7.31-92.92s8.86-62.41,19.8-93.38c5.8-15.35,13.13-30.79,24.64-44.52a87.49,87.49,0,0,1,20.74-17.9,79.6,79.6,0,0,1,12.65-6.18l6.71-2.11c2.14-.55,4.12-.89,6.19-1.34,32.74-7.15,67.25-3.3,97.3,8.64,30.33,11.65,56.84,30,80.27,50.75,23.21,21.14,43.9,44.58,60.75,70.75a1.94,1.94,0,0,1-3.08,2.33l-.07-.07a431.77,431.77,0,0,0-66.81-61.73c-24.16-17.91-50.46-32.8-78.22-41.55a171.65,171.65,0,0,0-42.23-7.64,137.82,137.82,0,0,0-41.81,4.43c-1.66.45-3.46.85-5,1.33s-2.81,1-4.23,1.52a51.84,51.84,0,0,0-7.89,4.19,59.27,59.27,0,0,0-13.56,12.53c-8,10.12-13.89,22.94-18.48,36.42-9.07,27.23-13.57,57-16.62,86.94s-4.44,60.41-5.49,90.94c-2.05,61.1-2.44,122.7-7.21,184.91-2.49,31.1-6,62.41-13.18,93.87a257.49,257.49,0,0,1-15.2,47,152.29,152.29,0,0,1-12.29,22.91,109.21,109.21,0,0,1-17.52,21.1,98.85,98.85,0,0,1-11.07,9l-5.6,3.67-5.92,3.42a87.57,87.57,0,0,1-27.39,9.66,68.55,68.55,0,0,1-31.11-1.84,81,81,0,0,1-26.38-13.83c-14.88-11.73-25.27-25.68-34.18-39.68a355,355,0,0,1-22.68-43.07c-25.8-58.28-42.36-118-58.82-177.51l-47.35-178.09,0-.06a17.47,17.47,0,0,1,33.65-9.42Z"/><path class="cls-7" d="M1782.83,3240.38c-.1,8.26-2.93,16.85-6,23.74-.29.61-.52,1.22-.81,1.84a94.6,94.6,0,0,1-6.79,12.22l-392.72,16.09s-.15-.47-.33-1.22h-.85s-5.24-17.65-5.43-48.47c-.24-31.9,4.95-78,26.9-133.17v0c.14-.28.23-.61.38-.9,0,0-10-81.49-24.45-184-.14-.9-.24-1.84-.38-2.74,0-.38-.09-.76-.14-1.13a8.19,8.19,0,0,0,1,0c-5.38-38-11.37-78.71-17.65-119.2-14.44-92-30.58-182.58-45.16-235.86a259.58,259.58,0,0,1-33-.57l-108.49,257.15-61.45,145.58-78.1,185.18s30.58,99.52,16.8,156.2a4.7,4.7,0,0,0-.56.05c-13.64,1.55-270.78,30.25-342.37,19.82,0,0-.38-.38-1-1.18h-.1a47.13,47.13,0,0,1-11.75-29.73v-.29c-.37-10.71,2.69-23.88,13.26-38.88,19.64-27.94,60.31-77.58,84.62-106.79,11.65-14,19.53-23.36,19.53-23.36S812,3048.69,819,2935l1.18.38c10.29-167,26.52-401.69,43.8-544.49,0,0,25.43-15.67,68.38-36.57a1162.74,1162.74,0,0,1,173.42-68.1C1176.52,2265,1257,2249,1339.14,2249c73.52,0,148.32,12.83,218.49,46.15a444.32,444.32,0,0,1,115.15,78.95s70,386.54-52.38,706.92c-2,5.19-4.06,10.38-6.14,15.52,5.29,4.3,27.89,22.56,54.56,43.7,38.08,30.2,84.47,66.3,100.42,75.88a27.45,27.45,0,0,1,5.85,4.72C1780.89,3226.22,1782.92,3233.21,1782.83,3240.38Z"/><path class="cls-2" d="M1776.84,3264.12c-.29.61-.52,1.22-.81,1.84a99.12,99.12,0,0,1-8,14.86l-392.72,16s-5.67-19.11-5.43-52.29c.23-31.95,5.85-76.83,27.28-130.29,0,0-.15-1-.38-2.88v0c-1.94-15.57-11.47-92-24.59-184.94a1.84,1.84,0,0,1,.52,0c32.28,1.55,62.43,1.93,90.18,1.46,112.88-2,186.17-18,203.06-22A1267.61,1267.61,0,0,1,1619.55,3081c-2.13,6.13-4.3,12.22-6.51,18.35,0,0,21.7,17.61,49.22,39.5,39.16,31.15,90.08,71,107,81.08,8.49,5.09,11.84,12.55,12.36,20.43C1782.12,3248.45,1779.76,3257,1776.84,3264.12Z"/><path class="cls-2" d="M1028.2,3157.56s29.68,96.51,17.37,153.61c-.15.89-.38,1.74-.57,2.59,0,0-269.46,30.58-342.94,19.87a47.31,47.31,0,0,1-11.75-33.55v-.29c.48-9.95,3.92-21.85,13.26-35.06,17.28-24.54,50.73-65.83,75.09-95.32,0,0,0,0,0-.1,16.66-20.15,29-34.73,29-34.73S812,3052.51,819,2938.83c8.4,2.79,104.91,34.26,221.85,34a597.75,597.75,0,0,0,65.4-3.64l1.18.52-78.1,185.18Z"/><path class="cls-8" d="M715,3230.82c9.17-2.05,17-3.2,25.45-4.38s16.54-2,24.78-2.77c16.48-1.47,32.92-2.24,49.32-2.6s32.76-.09,49.07.63,32.54,1.89,48.72,3.34a4.92,4.92,0,0,1-.24,9.81H912c-16.07.65-32.1,1.5-48,3s-31.83,3.3-47.59,5.58-31.38,5.2-46.79,8.63c-7.7,1.72-15.36,3.55-22.88,5.61s-15.3,4.33-21.65,6.66l-.21.08a17.52,17.52,0,1,1-12.09-32.88A19.62,19.62,0,0,1,715,3230.82Z"/><path class="cls-8" d="M1440.32,2946.72c-21.42,0-44-.51-67.81-1.69a17.47,17.47,0,1,1,1.72-34.9c161.67,8,269-15.29,288.82-20a17.47,17.47,0,1,1,8.12,34C1653.44,2928.32,1568.88,2946.72,1440.32,2946.72Z"/><path class="cls-8" d="M1040.28,2991.55c-122.49,0-221.53-33.55-226.41-35.23a17.47,17.47,0,0,1,11.37-33c1.35.45,136.08,46,280.21,29.78a17.47,17.47,0,1,1,3.9,34.73A619.84,619.84,0,0,1,1040.28,2991.55Z"/><path class="cls-2" d="M1549.89,2665.72c-48.09,47.4-116.58,94.57-194.34,141.56-14.43-92.05-30.55-182.58-45.16-235.86a259.7,259.7,0,0,1-33-.6L1168.88,2828l-4.83.05q-32-87-90.35-171.52c23.89-105.56,32.11-230.81,32.06-366.5,134.08-40.24,303.3-61.6,451.89,9C1562.2,2434.49,1561.28,2559.93,1549.89,2665.72Z"/><path class="cls-8" d="M1164.05,2845.52a17.48,17.48,0,0,1-16.4-11.45c-20.56-56-50.28-112.37-88.34-167.63a17.42,17.42,0,0,1-2.65-13.76c21.34-94.3,31.68-212.92,31.63-362.65a17.46,17.46,0,0,1,12.45-16.73c177.8-53.36,338.4-49.93,464.41,9.9a17.47,17.47,0,0,1,10,15.2c5.11,152,2.54,272.75-7.84,369.19a17.46,17.46,0,0,1-5.11,10.57c-44.17,43.53-107,89.31-197.58,144.08a17.47,17.47,0,0,1-26.29-12.25c-15.63-99.75-29.51-173.91-41.31-220.84q-4.12,0-8.31-.18L1185,2834.79a17.45,17.45,0,0,1-15.94,10.68l-4.83.05Zm-71.65-192.59c30.09,44.47,55,89.69,74.45,134.93L1261.27,2564a17.45,17.45,0,0,1,17.48-10.63,242.76,242.76,0,0,0,30.82.57,17.49,17.49,0,0,1,17.68,12.83c11.83,43.16,25.76,114.39,41.46,211.95,73.45-45.53,126.26-84.44,164.47-121.15,9.42-91.46,11.83-205.25,7.36-347.24-141.71-62.94-302.4-40.06-417.33-7.24C1122.68,2445.51,1112.58,2560.16,1092.4,2652.93Zm457.49,12.79h0Z"/><path class="cls-8" d="M1376.49,3315.55a17.45,17.45,0,0,1-16.74-12.5c-1-3.2-22.49-78.7,20.67-189.83-3.27-26.41-21-167.36-42.14-303.25a17.47,17.47,0,0,1,34.53-5.38c23.47,150.54,42.65,307.22,42.84,308.79a17.54,17.54,0,0,1-1.11,8.6c-30.25,75.61-27.31,133.32-23.79,158L1759,3264.93c4-7.9,7.46-17.93,6.1-24.06-.39-1.75-1.16-3.23-3.69-4.74-29.43-17.66-153-117.74-158.19-122a17.47,17.47,0,0,1-5.41-19.56c119.75-328.6,67.06-661.64,58.86-707.82a429.26,429.26,0,0,0-106.47-72,17.47,17.47,0,1,1,15-31.58,464.69,464.69,0,0,1,119.61,82,17.51,17.51,0,0,1,5.15,9.25c.73,3.63,71,362.42-55.06,720.35,40.6,32.75,123.68,98.87,144.53,111.38a41.63,41.63,0,0,1,19.86,27.28c5.74,26.27-13.38,55.21-15.58,58.43a17.51,17.51,0,0,1-13.71,7.59l-392.72,16.07C1377,3315.55,1376.73,3315.55,1376.49,3315.55Z"/><path class="cls-8" d="M1309.59,2554l12.76-.31c4.26-.18,8.61.07,12.8-.67,8.43-1.09,17.06-1.76,25.34-4,16.89-3.35,33.16-9.64,48.71-17.57a200.38,200.38,0,0,0,43.47-30,198.25,198.25,0,0,0,35-40.55l.13-.2a2.82,2.82,0,0,1,4.94,2.71,206.46,206.46,0,0,1-30.73,47.09,217,217,0,0,1-42.2,38.3c-15.76,10.92-33,20.37-51.44,26.73-9.08,3.75-18.6,5.87-28.12,8.38-4.74,1.44-9.6,1.88-14.43,2.74l-14.59,2.28a17.54,17.54,0,1,1-5.43-34.66,16.38,16.38,0,0,1,2.19-.21Z"/><path class="cls-8" d="M747.56,3354.53c-19,0-35.21-.72-46.87-2.42a17.48,17.48,0,0,1-9.84-4.93c-13.13-13.12-30.11-49.1-.42-91.31,25.76-36.62,85.48-108,101.28-126.85,3-57,27.8-512.23,54.91-736.41a17.48,17.48,0,0,1,8.19-12.78c4.23-2.6,105.31-64.33,245.93-106.53a17.47,17.47,0,1,1,10,33.46c-115.3,34.61-205.17,84-230.49,98.61-28.27,240.23-53.74,726.39-54,731.33a17.47,17.47,0,0,1-4.1,10.37c-.75.89-74.89,88.68-103.19,128.91-14.63,20.8-10.41,35.33-6.36,42.37,68.84,6.66,266.15-13.69,318.6-19.36,6.37-52.75-18.35-134.22-18.62-135.09a17.55,17.55,0,0,1,.6-11.93l139.55-330.76a17.47,17.47,0,0,1,32.2,13.58l-137.13,325c6.63,23.42,28.11,106.44,15.27,159.24a17.47,17.47,0,0,1-15,13.24C1038.75,3333.36,850.89,3354.53,747.56,3354.53Z"/><path class="cls-2" d="M1618.79,1999l-68.9,78.09,7.21,156c-37.3-12.35-77.21-20.94-119.24-26-56.87-6.89-117.54-7.4-180.56-2.21-55.17,4.51-112.13,13.42-170,26.14-5.7-86.54-47.27-160.08-47.27-160.08l-96.46-56.63-19.89-70.42c56-106.61,67.3-200.36,69-246.57,12.68,3.13,27.15,3.13,40.42-5.32,22.42-14.24,33.67-62.15,10.15-104.78-.73-1.33-1.51-2.66-2.29-4l16.72-3.49c25.44,50.57,84.61,85.57,145.93,86.44,70.41,1.1,129.48-43,134.95-105.32,25.4,17.82,56.68,47.81,66.6,91.36,12.13,53.23,49.79,75.79,81.26,59.8,49.28,54.16,108.17,130,132.33,184.38Z"/><path class="cls-7" d="M1900.13,2038c-100.36,23.75-177.53,109.64-190.85,216.12a529.45,529.45,0,0,1-48.87-29.58c-.65-140.1-41.62-225.63-41.62-225.63V1896.34c-24.16-54.43-83-130.22-132.33-184.38,14.19-7.21,27.14-22.32,35.87-46,15.43-41.89,35.09-66.19,52.32-80.25l1.28,1.38s196,32.15,192.92,284.79c0,0,39.78,53.6,45.94,84.19C1814.79,1956.05,1855.25,1978.93,1900.13,2038Z"/><g class="cls-5"><path class="cls-6" d="M1706.07,2105.66c-9.84,11.9-29.43,6.49-31.49-8.8,0-.13,0-.26,0-.39-7.13-54.22,20.15-100.75,20.15-100.75-35.4-55.45-23.6-100.28-23.6-100.28S1572,1792.8,1568.44,1687.8c-1.27-38,25.91-63.94,61.07-81.59-30.35-15.34-53.57-19.16-53.57-19.16l-1.27-1.37c-17.23,14.06-36.9,38.37-52.33,80.27-8.73,23.69-21.71,38.79-35.87,46,49.27,54.18,108.16,130,132.32,184.38v102.59s17.65,36.86,30,101.79a682.82,682.82,0,0,1,11.66,123.88,522.69,522.69,0,0,0,48.84,29.54,257.53,257.53,0,0,1,18.17-68S1784,2070.05,1854,2043.31C1854,2043.31,1764.2,2035.36,1706.07,2105.66Z"/></g><path class="cls-1" d="M574.73,1795.15c-18.79,27.1-29.26,46.07-29.26,46.07"/><path class="cls-1" d="M695.53,1845.44s-24.11-52.82-119.42-36.74"/><path class="cls-1" d="M843.67,2013.1s-11.12,11-31.42,25.86v0"/><path class="cls-7" d="M1660.41,2224.58c.13,17.82-.42,36.56-1.8,56.08-30.86-19.66-64.95-35.41-101.51-47.59l-7.21-156,68.9-78.09S1659.76,2084.48,1660.41,2224.58Z"/><path class="cls-1" d="M1615,1566.4s-18.19,1.19-40.33,19.29"/><line class="cls-1" x1="1087.3" y1="2231.01" x2="1087.3" y2="2230.96"/><path class="cls-7" d="M864,2297.52l1.52-130.18c-28.34-50.52-52.83-127.83-52.83-127.83l-.41-.5c-46.9,34.35-142.67,89.43-262.78,76.84v0c68.9-24.12,117.36-82.91,117.36-160.72,0-60.59-29.4-114.42-75-148.46a186.63,186.63,0,0,0-17.13-11.48C624.11,1723.91,731,1596.3,856.3,1608.52l.37-.78c32.34,14,66.23,34.36,93.61,63.85,9.14,9.83,20.16,17.87,32.7,22.64a70,70,0,0,0,9.74,3c-1.74,46.21-13,140-69,246.57l19.89,70.42,96.46,56.63s41.57,73.54,47.27,160.08C1013.62,2247.22,938.52,2269.73,864,2297.52Z"/><g class="cls-3"><path class="cls-4" d="M880.26,1619.05c-113.17,7.12-208,121.23-253.61,187.11l-26.42,7.08c-2.74-2.27-5.53-4.49-8.36-6.61a190,190,0,0,0-17.13-11.47C624.11,1723.9,731,1596.3,856.28,1608.52l.38-.8Q868.42,1612.82,880.26,1619.05Z"/></g><path class="cls-1" d="M856.67,1607.74c-58.66-25.4-112.12-29.86-112.12-29.86"/><path class="cls-8" d="M1404.05,1986.69c-1.47,1.25-4.61.43-8.87-1.41a161.89,161.89,0,0,0-17.65-6.2c-14.77-4.14-36.58-5.54-61.61-3.38-25,2-48,6.1-65,8.26s-28.06,2.83-29.41-.72,7.7-10.69,24.11-18a217.78,217.78,0,0,1,68.17-17c27.74-2.48,54.89,2.4,71.77,13.05,8.44,5.18,14,11.27,16.82,16C1405.06,1982.24,1405.47,1985.5,1404.05,1986.69Z"/><path class="cls-9" d="M1672.76,2377.9c-63.2-39.59-139.22-63.34-223.46-73.49-57-6.89-117.73-7.58-180.89-2.67-128.8,9.92-267.6,42.86-404.44,93-2.71-35.18,0-94.9,0-94.9,133-49.6,267.88-82.4,393.33-92.69,63-5.19,123.7-4.69,180.56,2.2,83.23,10.07,158.33,33.9,220.75,73.64C1658.61,2283,1685.94,2328.11,1672.76,2377.9Z"/><g class="cls-5"><path class="cls-6" d="M1486.26,2258.79c-57-6.89-117.72-7.58-180.88-2.67-111.15,8.57-229.76,34.27-348.12,73.36-28.51,9.42-57.87-12-57.32-42v-.59q-18,6.28-36,12.94s-2.71,59.72,0,94.9c136.84-50.11,275.64-83.05,404.44-93,63.16-4.91,123.93-4.22,180.88,2.67,84.25,10.15,160.27,33.89,223.47,73.49,6.77-25.57,2.85-49.87-2.56-67.5C1615.7,2283.74,1553.62,2266.91,1486.26,2258.79Z"/></g><path class="cls-10" d="M864,2412.18a17.46,17.46,0,0,1-17.42-16.13c-2.76-35.84-.15-94.55,0-97a17.48,17.48,0,0,1,11.36-15.58c137.39-51.23,275-83.65,398-93.73,65.33-5.37,127.27-4.62,184.1,2.27,88.68,10.71,165.4,36.36,228,76.24a17.48,17.48,0,0,1,5.56,5.69c1.27,2.1,31,52.14,16.09,108.46a17.47,17.47,0,0,1-26.16,10.34c-58.87-36.88-131.64-60.75-216.28-70.95-54.77-6.62-114.46-7.5-177.44-2.6-123.2,9.49-261.44,41.29-399.79,92A17.54,17.54,0,0,1,864,2412.18Zm17-100c-.44,13.56-1,36.91-.6,58.09,133.8-47.07,267-76.71,386.68-85.93,65.26-5.08,127.29-4.15,184.33,2.74,79.12,9.54,148.79,30.54,207.51,62.51,0-25.21-9.4-46.33-13.44-54.23-57.52-35.7-128-58.8-209.7-68.67-54.51-6.6-114.07-7.31-177-2.13C1142.14,2234.1,1011.76,2264.36,881,2312.16Z"/><path class="cls-8" d="M864,2412.18a17.46,17.46,0,0,1-17.42-16.13c-2.76-35.84-.15-94.55,0-97a17.48,17.48,0,0,1,11.36-15.58c137.39-51.23,275-83.65,398-93.73,65.33-5.37,127.27-4.62,184.1,2.27,88.68,10.71,165.4,36.36,228,76.24a17.48,17.48,0,0,1,5.56,5.69c1.27,2.1,31,52.14,16.09,108.46a17.47,17.47,0,0,1-26.16,10.34c-58.87-36.88-131.64-60.75-216.28-70.95-54.77-6.62-114.46-7.5-177.44-2.6-123.2,9.49-261.44,41.29-399.79,92A17.54,17.54,0,0,1,864,2412.18Zm17-100c-.44,13.56-1,36.91-.6,58.09,133.8-47.07,267-76.71,386.68-85.93,65.26-5.08,127.29-4.15,184.33,2.74,79.12,9.54,148.79,30.54,207.51,62.51,0-25.21-9.4-46.33-13.44-54.23-57.52-35.7-128-58.8-209.7-68.67-54.51-6.6-114.07-7.31-177-2.13C1142.14,2234.1,1011.76,2264.36,881,2312.16Z"/><path class="cls-9" d="M1449.3,2304.41c-57-6.89-117.73-7.58-180.89-2.67l-11.11-94.62c63-5.19,123.7-4.69,180.56,2.2Z"/><g class="cls-5"><path class="cls-6" d="M1295.14,2204.74h0c-12.52.58-25.12,1.33-37.84,2.38l11.11,94.62c63.16-4.91,123.93-4.22,180.88,2.67l-5-42c-27.57-2-55.91-2.58-84.87-1.93A63.18,63.18,0,0,1,1295.14,2204.74Z"/></g><path class="cls-10" d="M1449.3,2321.88a18.48,18.48,0,0,1-2.1-.12c-54.76-6.63-114.46-7.51-177.43-2.6a17.5,17.5,0,0,1-18.71-15.38l-11.12-94.62a17.47,17.47,0,0,1,15.92-19.45c65.32-5.37,127.26-4.61,184.1,2.27a17.48,17.48,0,0,1,15.25,15.26l11.44,95.08a17.47,17.47,0,0,1-17.35,19.56Zm-101.17-40.79c27.92,0,55,1.21,81.2,3.62l-7.16-59.55c-45.45-4.63-94.22-5.28-145.39-1.95l7,59.93Q1316.58,2281.1,1348.13,2281.09Z"/><path class="cls-8" d="M1449.3,2321.88a18.48,18.48,0,0,1-2.1-.12c-54.76-6.63-114.46-7.51-177.43-2.6a17.5,17.5,0,0,1-18.71-15.38l-11.12-94.62a17.47,17.47,0,0,1,15.92-19.45c65.32-5.37,127.26-4.61,184.1,2.27a17.48,17.48,0,0,1,15.25,15.26l11.44,95.08a17.47,17.47,0,0,1-17.35,19.56Zm-101.17-40.79c27.92,0,55,1.21,81.2,3.62l-7.16-59.55c-45.45-4.63-94.22-5.28-145.39-1.95l7,59.93Q1316.58,2281.1,1348.13,2281.09Z"/><path class="cls-2" d="M2018.41,2480.47s-59.72,62-91.87,67.38-68.12-61.27-68.12-61.27c-18.33,10.75-34,11.57-46.48.46a37,37,0,0,1-10.43-17c-5.6-18.69-13.59-66.28,17.87-137.34,0,0-3.08-29.07-80.38-62-10.11-4.27-20.08-9.09-29.72-14.23,13.32-106.48,90.49-192.37,190.85-216.12C1958.19,2116.77,2023.6,2253.84,2018.41,2480.47Z"/><g class="cls-5"><path class="cls-6" d="M2018.69,2455.08q0,12.52-.28,25.39s-59.7,62-91.89,67.39-68.09-61.26-68.09-61.26c-18.36,10.71-34,11.56-46.48.43a37,37,0,0,1-10.43-17c-5.62-18.69-13.59-66.26,17.88-137.33,0,0-3.11-29.07-80.41-62-10.1-4.29-20.06-9.1-29.73-14.25a256.79,256.79,0,0,1,18.92-69.7c4.58,3.63,9.53,7.22,14.87,10.71,120.33,79.05,133.31,142.76,133.31,142.76s-53.09,51.91-38.93,87.3,44.83,15.34,44.83,15.34,15.34-50.73,54.27-42.48,20.06,48.37,50.73,61.35C1998.07,2466.31,2009,2462.25,2018.69,2455.08Z"/></g><path class="cls-8" d="M1922.92,2565.62c-30.64,0-57.75-35.06-71.5-56.58-25.38,8.68-42.46-1.27-51.1-8.95a54.46,54.46,0,0,1-15.52-25c-7-23.24-13.86-72,15.64-142.64-4.57-7.3-20-25.14-68.3-45.73-10.09-4.28-20.57-9.29-31.09-14.9a17.47,17.47,0,0,1-9.11-17.58c14.09-112.58,96.13-205.39,204.17-231a17.47,17.47,0,0,1,17.94,6.43c58.52,77.05,127.17,217.86,121.83,451.1a17.52,17.52,0,0,1-4.88,11.72c-10.64,11-65.55,66.48-101.58,72.5A39.85,39.85,0,0,1,1922.92,2565.62Zm-64.5-96.51a17.43,17.43,0,0,1,15.38,9.17c14.22,26.24,38.52,54.22,49.89,52.33,17-2.84,53.77-33.78,77.38-57.43,3.5-209.84-55-339.25-108-412.93-84.65,24.64-149,97.49-164.7,186.39,5.88,2.89,11.7,5.56,17.38,8,80.54,34.31,90,67.05,91,76.27a17.48,17.48,0,0,1-1.4,8.91c-29.42,66.43-21.77,109.72-17.11,125.24a19.87,19.87,0,0,0,5.3,9c2.82,2.51,8.65,7.72,26-2.48A17.57,17.57,0,0,1,1858.42,2469.11Zm160,11.36h0Z"/><path class="cls-8" d="M1927.88,2467.84s-12.63,0-11.48-10.91-19.91-4.79-16.08,11.67S1935.15,2477.22,1927.88,2467.84Z"/><path class="cls-8" d="M1841.8,2481.17a235.94,235.94,0,0,1,9.38-23.14,214.57,214.57,0,0,1,11.7-21.93,149.84,149.84,0,0,1,15.24-20.93,93.72,93.72,0,0,1,21.68-18.34,17,17,0,0,1,16.91-.33l.13.07h0a92.87,92.87,0,0,1,7.79,6c2.38,2,4.69,4.1,6.93,6.27a114.87,114.87,0,0,1,12.55,14.11,74.56,74.56,0,0,1,9.88,17.1,47.54,47.54,0,0,1,3.5,20.73,8.74,8.74,0,0,1-17.22,1.4l-.27-1.16a28.8,28.8,0,0,0-5.32-10.73A51.92,51.92,0,0,0,1925,2441a86.51,86.51,0,0,0-12-7.8c-2.12-1.17-4.3-2.27-6.49-3.29a56.26,56.26,0,0,0-6.25-2.58h0l17-.26a59.87,59.87,0,0,0-13,11.23,115.81,115.81,0,0,0-11.63,16,177.38,177.38,0,0,0-9.81,18.43A203,203,0,0,0,1875,2492l-.15.43a17.47,17.47,0,0,1-33.08-11.27Z"/><path class="cls-8" d="M1709.26,2273.93a17.35,17.35,0,0,1-8.15-2,543,543,0,0,1-50.51-30.56,17.47,17.47,0,0,1,19.61-28.93,507.4,507.4,0,0,0,47.24,28.6,17.48,17.48,0,0,1-8.19,32.92Z"/><path class="cls-8" d="M1900.15,2057.81a17.43,17.43,0,0,1-13.93-6.91c-41.8-55.05-79.7-77.15-80.08-77.37a17.56,17.56,0,0,1-8.48-11.73c-4.41-21.91-32.42-63.18-42.84-77.24a17.41,17.41,0,0,1-3.44-10.62c2.82-234.89-176.46-267-178.27-267.33a17.47,17.47,0,1,1,5.65-34.49c2.19.36,54.18,9.28,105.81,51.36,46.66,38,101.8,111.29,101.79,245,9.71,13.58,34.92,50.44,43.59,78.74,13.88,9.25,47.72,34.59,84.1,82.51a17.48,17.48,0,0,1-13.9,28Z"/><path class="cls-8" d="M545.47,1861a17.48,17.48,0,0,1-15.28-25.92c5.86-10.59,145.56-259.41,327.8-241.67a17.47,17.47,0,1,1-3.39,34.78C695.25,1612.7,562.11,1849.59,560.78,1852A17.48,17.48,0,0,1,545.47,1861Z"/><path class="cls-8" d="M691.67,1849.5a82.69,82.69,0,0,0-25-16.16c-8.94-3.9-18.44-6-28-7.33s-19.54-1.06-29.43-.87l-15,1.27c-5.06.74-10.11,1.4-15.22,1.81l-1.41.12a17.45,17.45,0,0,1-4.41-34.58c5.87-1,11.8-1.81,17.73-2.51,6-.31,12.09-.51,18.13-.44,6.15.55,12.22.62,18.34,1.87l9.13,1.73c3,.71,6,1.76,9,2.63a95.39,95.39,0,0,1,33.1,17.84,74.94,74.94,0,0,1,12.68,14A52.5,52.5,0,0,1,699.4,1846a4.27,4.27,0,0,1-7.08,4.14Z"/><path class="cls-2" d="M666.83,1957.38c0,90.21-65.13,154.89-151.77,169.63l-222.4-144.18c-86.27-20-179.78-99.26-182.68-101.74l-.09,0-68.17-58.52a44.28,44.28,0,0,1-15.11-28.11l-8.91-70.18a27.66,27.66,0,0,1-.23-3.82,30.21,30.21,0,0,1,57.88-12.12l23.05,52.55c.65-29,4.87-50,9.56-64.72a37.36,37.36,0,0,1,39.73-25.77l.73,0a37.49,37.49,0,0,1,33.12,37.76c-.5,63.66,16.4,102.48,16.4,102.48,5-58.52,15.48-101.74,23.15-127.1a35,35,0,0,1,68.44,10.29v1L286,1813.66l50.8-88a28.06,28.06,0,0,1,52.37,14,28.52,28.52,0,0,1-1,7.25l-17.31,64.72,6,1.61S401.61,1820,421,1837l11-.19,142.58-39.5C629.85,1830,666.83,1889.45,666.83,1957.38Z"/><g class="cls-3"><path class="cls-4" d="M382.63,1856.51l6,1.61s24.76,6.71,44.09,23.75l11-.18,136-38.16c37.35,22,69.26,55.71,86.09,96.17-5.8-60.48-40.89-112.6-91.33-142.35L432,1836.85l-11,.19c-9.32-8.21-40.34-24.79-48.8-28.61Z"/><path class="cls-4" d="M299.12,1818.3a6.43,6.43,0,0,0,11.61,4l37.82-51.72a28.11,28.11,0,0,1,34.36-12.18c.68.27,1.3.62,1.95.93l3.29-12.32a28.52,28.52,0,0,0,1-7.25,28.06,28.06,0,0,0-52.37-14l-36.93,63.93Z"/><path class="cls-4" d="M29.5,1769.06a26.19,26.19,0,0,1-.23-3.82,30.2,30.2,0,0,1,57.87-12.12l23.06,52.55c.64-29,4.87-50,9.56-64.72a37.35,37.35,0,0,1,39.73-25.77l.73,0a36.92,36.92,0,0,1,21.66,10.26c-.24-5.57-.39-11.3-.34-17.33a37.49,37.49,0,0,0-33.12-37.76l-.73,0A37.36,37.36,0,0,0,108,1696.12c-4.69,14.69-8.91,35.73-9.56,64.72l-23.05-52.55a30.21,30.21,0,0,0-57.88,12.12,27.66,27.66,0,0,0,.23,3.82l8.91,70.18a44.35,44.35,0,0,0,8.83,21.43Z"/><path class="cls-4" d="M197.94,1811.14c1.66,9.64,15.55,9.35,17-.32,5.36-36.24,12.4-64.06,18-82.46A34.94,34.94,0,0,1,289,1712l.51-17.16v-1a35,35,0,0,0-68.44-10.29c-7.67,25.36-18.14,68.58-23.15,127.1l-.14-.35C197.85,1810.57,197.9,1810.86,197.94,1811.14Z"/></g><path class="cls-8" d="M515.06,2144.48a17.44,17.44,0,0,1-9.5-2.81L285.67,1999.13c-86.88-21.42-177.28-96.5-186.43-104.23-.25-.19-.49-.39-.73-.6l-68.17-58.52A61.63,61.63,0,0,1,9.28,1796.6L.37,1726.43a42.18,42.18,0,0,1-.37-6,47.67,47.67,0,0,1,89.38-23.11q.91-3.32,1.93-6.49a55,55,0,0,1,57.92-37.87l.36,0,.79.07a54.8,54.8,0,0,1,48.06,46.79c2.05-8,4.06-15.17,5.93-21.35A52.46,52.46,0,0,1,307,1693.82v1c0,.17,0,.35,0,.53l-1.49,49.49L321.62,1717A45.52,45.52,0,0,1,405,1751.43L392,1800a143.27,143.27,0,0,1,35,19.42l2.37,0,140.43-38.91a17.53,17.53,0,0,1,13.54,1.79C645.64,1819,684.3,1886.08,684.3,1957.38c0,94.84-66.83,169.93-166.31,186.86A18,18,0,0,1,515.06,2144.48Zm-394.38-277.2.65.53c.92.79,92.93,78.88,175.28,98a17.58,17.58,0,0,1,5.55,2.36l216.55,140.38c78.43-16.05,130.65-76.06,130.65-151.17,0-57.48-28.83-109.73-77.49-141.16L436.64,1853.7a18,18,0,0,1-4.37.63l-11,.18a18.1,18.1,0,0,1-11.85-4.36c-15.88-14-36.95-20-37.16-20l-5.9-1.58A17.46,17.46,0,0,1,354,1807.17l17.31-64.72a11,11,0,0,0,.38-2.74,10.6,10.6,0,0,0-19.77-5.28l-50.8,88a17.47,17.47,0,0,1-32.59-9.27l3.58-119.31a17.56,17.56,0,0,0-16.65-17.55,17.32,17.32,0,0,0-17.59,12.27c-7.58,25.06-17.62,66.8-22.48,123.57a17.47,17.47,0,0,1-33.43,5.49c-.75-1.72-18.38-43-17.85-109.59a20,20,0,0,0-17.27-20.21l-.28,0c-.27,0-.54,0-.81-.08a20,20,0,0,0-21.12,13.78c-5.26,16.51-8.2,36.62-8.72,59.74a17.48,17.48,0,0,1-33.47,6.64l-23.05-52.55a12.74,12.74,0,0,0-24.41,5.1,10.93,10.93,0,0,0,.06,1.39l9,70.41a26.81,26.81,0,0,0,9.14,17Z"/><path class="cls-8" d="M329.34,2004.8a181.34,181.34,0,0,1-40.61-4.94,17.48,17.48,0,0,1,7.86-34.06c16,3.7,30.59,4.88,43.42,3.51a17.48,17.48,0,0,1,3.68,34.76A139.63,139.63,0,0,1,329.34,2004.8Z"/><path class="cls-8" d="M113.41,1868.84c16.77,3.59,34.4,7.18,51.75,10.4s35,6.15,52.6,8.64,35.34,4.73,53.17,6.55c17.84,2,35.77,3.06,54,4.76h0a1,1,0,0,1,.92,1.11,1,1,0,0,1-.79.91,352.29,352.29,0,0,1-54.31,8.18c-9.15.93-18.31.95-27.5,1.38-9.17-.08-18.38.09-27.54-.4a502.75,502.75,0,0,1-54.9-5.1c-18.27-2.76-36.11-6.29-54.27-11.93a12.72,12.72,0,0,1,6.38-24.6Z"/><path class="cls-8" d="M371.63,1827.87a28.52,28.52,0,0,1,3.38,3.49c.89,1.09,1.77,2.16,2.56,3.28a64.52,64.52,0,0,1,4.41,6.83,57.87,57.87,0,0,1,6,15,39.18,39.18,0,0,1,.55,15.85c-.71,5.12-3.08,9.59-5.44,13.43a2.35,2.35,0,0,1-4.36-1.1l0-.36c-.21-4.12-.66-7.89-2.34-11.08a23.61,23.61,0,0,0-6.09-7.92,36.08,36.08,0,0,0-8.3-5.2,37.34,37.34,0,0,0-4.57-1.75c-.76-.26-1.53-.43-2.28-.62s-1.68-.42-1.71-.07a17.47,17.47,0,1,1,18.22-29.82Z"/><path class="cls-8" d="M362.53,1860.25a17.78,17.78,0,0,1-4.53-.59,17.47,17.47,0,0,1-12.36-21.4l8.32-31.09a17.47,17.47,0,1,1,33.75,9l-8.31,31.09A17.48,17.48,0,0,1,362.53,1860.25Z"/><path class="cls-8" d="M135.16,1848.77a17.42,17.42,0,0,1-13.51-6.39c-19.39-23.62-32.9-49.56-40.15-77.1a17.47,17.47,0,1,1,33.8-8.89c6,23,17,43.83,33.36,63.82a17.48,17.48,0,0,1-13.5,28.56Z"/><path class="cls-8" d="M432.5,1823.93c8.3,8.43,15.75,18.55,20.11,30.35a72.24,72.24,0,0,1,3.57,36.27c-1.82,11.71-6.13,22.19-11.27,31.67s-11.56,17.83-18,25.91a8.63,8.63,0,0,1-14.24-9.68l.27-.47c4.7-8.18,9.36-16.36,12.28-24.86s5-16.95,4.95-24.92a43.65,43.65,0,0,0-5.48-21.56c-3.56-6.33-9-11.76-15.3-16.49a17.53,17.53,0,1,1,21-28.05,17.81,17.81,0,0,1,1.91,1.65Z"/><path class="cls-8" d="M584.57,2137.44a353,353,0,0,1-36.94-1.93,17.47,17.47,0,1,1,3.64-34.75,323.2,323.2,0,0,0,91.34-3.5c69.62-12.56,124.72-44.78,158.68-69.58a17.47,17.47,0,1,1,20.61,28.21c-36.92,27-96.92,62-173.08,75.76A360.46,360.46,0,0,1,584.57,2137.44Z"/><path class="cls-8" d="M860.78,1983.68a356,356,0,0,1-16.33,35.76,392.67,392.67,0,0,1-20.25,34.44l-.13.2a17.81,17.81,0,0,1-29.75-19.6,18.26,18.26,0,0,1,4.67-4.8,363.43,363.43,0,0,0,29.36-22.86,344.1,344.1,0,0,0,27.31-26.19l.08-.09a3,3,0,0,1,5,3.14Z"/><path class="cls-8" d="M864,2317.29h-.21a17.47,17.47,0,0,1-17.27-17.68L848,2174.07c-22.55-41.6-44.36-102-52.88-126.57a17.48,17.48,0,0,1,33-11.44c8.5,24.55,30.64,85.88,52.62,125.06a17.41,17.41,0,0,1,2.23,8.75L881.45,2300A17.48,17.48,0,0,1,864,2317.29Z"/><path class="cls-8" d="M1658.62,2300.43c-.42,0-.84,0-1.26,0a17.48,17.48,0,0,1-16.19-18.67c11.73-165.75-37.65-271.9-38.15-272.95a17.47,17.47,0,0,1,31.53-15.07c2.2,4.61,53.91,114.88,41.48,290.49A17.47,17.47,0,0,1,1658.62,2300.43Z"/><path class="cls-8" d="M1466.11,1736.77c-1.36,0-2.73,0-4.11-.13-34.53-2.23-63.51-33-73.84-78.32-15.31-67.25-91.37-99.16-92.14-99.47a17.48,17.48,0,0,1,13.16-32.38c3.82,1.55,93.65,38.86,113.06,124.09,6.81,29.9,23.3,50,42,51.2,16.7,1.16,32.18-13.73,41.69-39.57,38.69-105.14,105.06-110.74,107.87-110.93a17.47,17.47,0,1,1,2.32,34.87c-1.61.18-47.11,5.82-77.39,88.12C1524.21,1713.71,1497.27,1736.77,1466.11,1736.77Z"/><path class="cls-8" d="M1557.08,2252.85a17.49,17.49,0,0,1-17.44-16.67l-7.2-156a17.5,17.5,0,0,1,4.35-12.37l64.53-73.13v-92.23c-25-54-84.1-128.39-127.79-176.39a17.48,17.48,0,0,1,25.85-23.53c48.56,53.37,109.64,131.06,135.38,189a17.49,17.49,0,0,1,1.5,7.09v102.62a17.44,17.44,0,0,1-4.37,11.56l-64.22,72.79,6.89,149a17.5,17.5,0,0,1-16.65,18.27Z"/><path class="cls-8" d="M1087.28,2250.78a17.48,17.48,0,0,1-17.42-16.33c-4.63-70.29-34.63-132.64-42.93-148.7l-92.2-54.13a17.5,17.5,0,0,1-8-10.32l-19.89-70.42a17.47,17.47,0,0,1,1.35-12.88c54.39-103.56,65.35-194.25,67-239.1a17.3,17.3,0,0,1,18.12-16.8,17.48,17.48,0,0,1,16.8,18.12c-1.77,46.9-13,140.72-67.8,247.81l16.1,57,90.4,53.07a17.42,17.42,0,0,1,6.37,6.47c1.78,3.15,43.59,78.09,49.49,167.58a17.47,17.47,0,0,1-16.29,18.58C1088.06,2250.77,1087.67,2250.78,1087.28,2250.78Z"/><ellipse class="cls-8" cx="1459.23" cy="1625.44" rx="17.73" ry="26.54" transform="translate(-239.37 252.06) rotate(-9.13)"/><ellipse class="cls-8" cx="992.5" cy="1640.66" rx="17.73" ry="23.35" transform="translate(-677.84 698.97) rotate(-29.42)"/><path class="cls-8" d="M745.12,1573.12c22.79.35,44.75,3.56,66.75,8.42a370.25,370.25,0,0,1,64.51,20.76A288.79,288.79,0,0,1,936,1637.12c4.52,3.69,9.36,7,13.62,11.05l12.88,12.06c1.19,1.1,1.92,1.85,2.69,2.64l2.43,2.3c1.65,1.48,3.33,2.91,5.06,4.23a67,67,0,0,0,10.83,6.77c7.27,3.6,16.16,6,23.14,6a29.81,29.81,0,0,0,9.78-1.4,27.49,27.49,0,0,0,4.3-1.83l2-1.2c.41-.4.86-.63,1.33-1,3.86-3.18,7.85-10.29,10-18.13a71.38,71.38,0,0,0,2.35-25.41,88.5,88.5,0,0,0-19.67-48.79c-11.36-14.23-27.08-25.48-44.76-34l-.23-.11a17.48,17.48,0,0,1,14-32c22.25,8.69,43.82,22.29,60.42,41.69a122.24,122.24,0,0,1,20.25,32.56,117.65,117.65,0,0,1,9.32,37.61,111.09,111.09,0,0,1-.07,19.64,100.77,100.77,0,0,1-3.59,19.73c-3.86,13-10,26.31-22.92,37.32-1.62,1.35-3.47,2.6-5.24,3.84-1.69,1-3.33,2-5,2.9a66.29,66.29,0,0,1-33.3,7.27,83.69,83.69,0,0,1-20.76-3.58,98.22,98.22,0,0,1-18.65-7.68,103.57,103.57,0,0,1-16.52-11.08c-2.54-2.06-5-4.24-7.28-6.49l-3.4-3.43-3-3.21-10.47-10.84c-3.44-3.68-7.55-6.72-11.29-10.13a291.53,291.53,0,0,0-51-34.51,415.53,415.53,0,0,0-57.77-25.3,471.59,471.59,0,0,0-61.38-17.26l-.38-.08a7.1,7.1,0,0,1,1.56-14Z"/><path class="cls-11" d="M1338.93,1559.23c-3.34,64.29-63.45,110.28-135.3,109.2-72.66-1.08-142.34-50-156.35-116.07-15.91-75,44.7-141.17,136.28-138C1273.87,1417.44,1342.71,1486.43,1338.93,1559.23Z"/><g class="cls-5"><path class="cls-6" d="M1338.93,1532.1c-3.34,64.29-63.45,110.27-135.3,109.2-72.66-1.08-142.34-50-156.35-116.07-15.91-75,44.7-141.17,136.28-138C1273.87,1390.31,1342.71,1459.29,1338.93,1532.1Z"/></g><path class="cls-8" d="M1206.19,1685.93l-2.82,0c-83.29-1.25-157.74-57.1-173.19-129.92-8.3-39.13,1-77.26,26.3-107.36,29.1-34.68,75.59-53.53,127.68-51.75,51.21,1.75,99.48,23.36,132.43,59.28,27.58,30.06,41.71,67,39.79,104h0C1352.63,1632.26,1288.28,1685.93,1206.19,1685.93Zm-28.8-254.22c-38.92,0-73,14.19-94.14,39.38-18.19,21.69-24.9,49.26-18.88,77.65,12,56.33,73.23,101.23,139.52,102.22l2.27,0c63.16,0,112.56-39.52,115.32-92.66,1.43-27.54-9.45-55.44-30.65-78.54-26.65-29-66-46.54-107.88-48C1181.09,1431.74,1179.23,1431.71,1177.39,1431.71Zm161.54,127.52h0Z"/><circle class="cls-11" cx="603.67" cy="1171.38" r="115.98"/><g class="cls-3"><path class="cls-4" d="M527.8,1186.32a115.9,115.9,0,0,1,135.79-114.26,116,116,0,1,0-79.73,213.58A115.92,115.92,0,0,1,527.8,1186.32Z"/></g><path class="cls-8" d="M603.67,1304.83c-73.59,0-133.46-59.87-133.46-133.45s59.87-133.46,133.46-133.46,133.45,59.87,133.45,133.46S677.26,1304.83,603.67,1304.83Zm0-232a98.51,98.51,0,1,0,98.51,98.51A98.62,98.62,0,0,0,603.67,1072.87Z"/><path class="cls-11" d="M1834.44,1087.17c-41.21,0,36.6-90.59,55.36-286.32C1912.86,560.11,1562.13,363,1157.93,363s-695.12,193-695.12,434.84c0,100.24,35.28,241.65,119.41,349.1-29.92,37.48-36.57,74-38.26,118.07-6.57,170.69,166.9,327,607.84,303,331.54-18,568.82-146,610.49-296.88,20.92,9.59,45.64,15.16,72.15,15.16,75.13,0,122.72-44.56,122.72-99.52S1909.57,1087.17,1834.44,1087.17Z"/><g class="cls-12"><rect class="cls-13" x="1802.08" y="1271.05" width="54.12" height="15.16"/><circle class="cls-13" cx="1829.14" cy="1278.63" r="19.87"/><circle class="cls-14" cx="1829.14" cy="1278.63" r="19.57" transform="translate(274.03 2879.34) rotate(-80.78)"/><circle class="cls-15" cx="1829.14" cy="1278.63" r="19.28"/><circle class="cls-16" cx="1829.14" cy="1278.63" r="18.98"/><circle class="cls-17" cx="1829.14" cy="1278.63" r="18.68" transform="translate(274.03 2879.34) rotate(-80.78)"/><circle class="cls-18" cx="1829.14" cy="1278.63" r="18.39" transform="translate(-350.07 797.31) rotate(-22.5)"/><circle class="cls-9" cx="1829.14" cy="1278.63" r="18.09"/><circle class="cls-19" cx="1829.14" cy="1278.63" r="17.79" transform="translate(274.03 2879.34) rotate(-80.78)"/><circle class="cls-20" cx="1829.14" cy="1278.63" r="17.5" transform="translate(-350.07 797.31) rotate(-22.5)"/><circle class="cls-21" cx="1829.14" cy="1278.63" r="17.2"/><circle class="cls-22" cx="1829.14" cy="1278.63" r="16.9" transform="translate(274.03 2879.34) rotate(-80.78)"/><circle class="cls-23" cx="1829.14" cy="1278.63" r="16.61" transform="translate(-350.07 797.31) rotate(-22.5)"/><circle class="cls-24" cx="1829.14" cy="1278.63" r="16.31"/><circle class="cls-25" cx="1829.14" cy="1278.63" r="16.01"/><circle class="cls-26" cx="1829.14" cy="1278.63" r="15.72" transform="translate(-368.38 1667.9) rotate(-45)"/><circle class="cls-27" cx="1829.14" cy="1278.63" r="15.42"/><circle class="cls-28" cx="1829.14" cy="1278.63" r="15.13"/><circle class="cls-29" cx="1829.14" cy="1278.63" r="14.83" transform="translate(274.03 2879.34) rotate(-80.78)"/><circle class="cls-30" cx="1829.14" cy="1278.63" r="14.53"/><circle class="cls-31" cx="1829.14" cy="1278.63" r="14.24"/><circle class="cls-32" cx="1829.14" cy="1278.63" r="13.94" transform="translate(274.03 2879.34) rotate(-80.78)"/><circle class="cls-33" cx="1829.14" cy="1278.63" r="13.64" transform="translate(-350.07 797.31) rotate(-22.5)"/><circle class="cls-34" cx="1829.14" cy="1278.63" r="13.35"/><circle class="cls-35" cx="1829.14" cy="1278.63" r="13.05" transform="translate(274.03 2879.34) rotate(-80.78)"/><circle class="cls-36" cx="1829.14" cy="1278.63" r="12.75" transform="translate(-350.07 797.31) rotate(-22.5)"/><circle class="cls-37" cx="1829.14" cy="1278.63" r="12.46"/><circle class="cls-38" cx="1829.14" cy="1278.63" r="12.16"/><circle class="cls-39" cx="1829.14" cy="1278.63" r="11.86" transform="translate(-350.07 797.31) rotate(-22.5)"/><circle class="cls-40" cx="1829.14" cy="1278.63" r="11.57"/><circle class="cls-41" cx="1829.14" cy="1278.63" r="11.27"/><circle class="cls-42" cx="1829.14" cy="1278.63" r="10.97" transform="translate(-368.38 1667.9) rotate(-45)"/><circle class="cls-43" cx="1829.14" cy="1278.63" r="10.68"/><circle class="cls-44" cx="1829.14" cy="1278.63" r="10.38"/><circle class="cls-45" cx="1829.14" cy="1278.63" r="10.08" transform="translate(274.03 2879.34) rotate(-80.78)"/><circle class="cls-46" cx="1829.14" cy="1278.63" r="9.79" transform="translate(-350.07 797.31) rotate(-22.5)"/><circle class="cls-47" cx="1829.14" cy="1278.63" r="9.49"/><circle class="cls-48" cx="1829.14" cy="1278.63" r="9.19" transform="translate(274.03 2879.34) rotate(-80.78)"/><circle class="cls-49" cx="1829.14" cy="1278.63" r="8.9" transform="translate(-350.07 797.31) rotate(-22.5)"/><circle class="cls-50" cx="1829.14" cy="1278.63" r="8.6"/><circle class="cls-51" cx="1829.14" cy="1278.63" r="8.3" transform="translate(274.03 2879.34) rotate(-80.78)"/><circle class="cls-52" cx="1829.14" cy="1278.63" r="8.01" transform="translate(-350.07 797.31) rotate(-22.5)"/><circle class="cls-53" cx="1829.14" cy="1278.63" r="7.71"/><circle class="cls-54" cx="1829.14" cy="1278.63" r="7.41"/><path class="cls-55" d="M1836.26,1278.63a7.12,7.12,0,1,1-7.12-7.12A7.12,7.12,0,0,1,1836.26,1278.63Z"/><circle class="cls-56" cx="1829.14" cy="1278.63" r="6.82"/><circle class="cls-57" cx="1829.14" cy="1278.63" r="6.52"/><path class="cls-58" d="M1835.37,1278.63a6.23,6.23,0,1,1-6.23-6.23A6.23,6.23,0,0,1,1835.37,1278.63Z"/><circle class="cls-59" cx="1829.14" cy="1278.63" r="5.93"/><circle class="cls-4" cx="1829.14" cy="1278.63" r="5.63"/><path class="cls-60" d="M1834.48,1278.63a5.34,5.34,0,1,1-5.34-5.34A5.34,5.34,0,0,1,1834.48,1278.63Z"/><path class="cls-61" d="M1834.19,1278.63a5,5,0,1,1-5-5A5,5,0,0,1,1834.19,1278.63Z"/><circle class="cls-62" cx="1829.14" cy="1278.63" r="4.75"/><path class="cls-63" d="M1833.59,1278.63a4.45,4.45,0,1,1-4.45-4.45A4.45,4.45,0,0,1,1833.59,1278.63Z"/><path class="cls-64" d="M1833.3,1278.63a4.16,4.16,0,1,1-4.16-4.15A4.15,4.15,0,0,1,1833.3,1278.63Z"/><circle class="cls-65" cx="1829.14" cy="1278.63" r="3.86"/><path class="cls-66" d="M1832.7,1278.63a3.56,3.56,0,1,1-3.56-3.56A3.56,3.56,0,0,1,1832.7,1278.63Z"/><path class="cls-67" d="M1832.41,1278.63a3.27,3.27,0,1,1-3.27-3.26A3.26,3.26,0,0,1,1832.41,1278.63Z"/><circle class="cls-68" cx="1829.14" cy="1278.63" r="2.97"/><circle class="cls-69" cx="1829.14" cy="1278.63" r="2.67"/><path class="cls-70" d="M1831.52,1278.63a2.38,2.38,0,1,1-2.38-2.37A2.38,2.38,0,0,1,1831.52,1278.63Z"/><circle class="cls-71" cx="1829.14" cy="1278.63" r="2.08"/><circle class="cls-72" cx="1829.14" cy="1278.63" r="1.78"/><path class="cls-73" d="M1830.63,1278.63a1.49,1.49,0,1,1-1.49-1.49A1.49,1.49,0,0,1,1830.63,1278.63Z"/><circle class="cls-74" cx="1829.14" cy="1278.63" r="1.19"/><circle class="cls-75" cx="1829.14" cy="1278.63" r="0.89"/><path class="cls-76" d="M1829.74,1278.63a.6.6,0,0,1-1.19,0,.6.6,0,1,1,1.19,0Z"/><path class="cls-77" d="M1829.44,1278.63a.3.3,0,1,1-.3-.3A.29.29,0,0,1,1829.44,1278.63Z"/></g><g class="cls-3"><path class="cls-4" d="M587.61,1265c1.69-44,8.34-80.59,38.26-118.07C541.74,1039.43,506.46,898,506.46,797.79c0-237.46,280.47-427.79,673.23-434.63-7.24-.12-14.49-.21-21.76-.21-404.2,0-695.12,193-695.12,434.84,0,100.24,35.28,241.64,119.41,349.1-29.92,37.48-36.57,74-38.26,118.07-6.24,162.06,149.85,311.09,543,305.23C725.88,1564.73,581.61,1420.88,587.61,1265Z"/></g><g class="cls-5"><path class="cls-6" d="M1834.46,1087.16c-41.25,0,36.57-90.56,55.35-286.31a236,236,0,0,0-11.21-97.3v-.13c-.23-.71-.5-1.4-.74-2.1-.65-1.93-1.32-3.84-2-5.75-.46-1.25-.94-2.49-1.42-3.74-.72-1.87-1.44-3.74-2.21-5.6-.52-1.28-1.08-2.54-1.62-3.81-.79-1.83-1.56-3.65-2.39-5.47-.59-1.3-1.22-2.59-1.84-3.89-.84-1.77-1.66-3.55-2.54-5.32-.71-1.41-1.47-2.81-2.2-4.22-1.48-2.84-3-5.67-4.58-8.46-1-1.74-1.94-3.49-3-5.22-.79-1.35-1.62-2.67-2.44-4-1-1.69-2.05-3.38-3.11-5.06-.85-1.33-1.72-2.64-2.59-4-1.1-1.68-2.2-3.36-3.34-5-.88-1.29-1.78-2.56-2.68-3.84-1.2-1.7-2.4-3.4-3.63-5.08-.9-1.24-1.83-2.48-2.75-3.71-1.29-1.72-2.59-3.43-3.92-5.13-.92-1.19-1.86-2.37-2.8-3.55q-2.1-2.62-4.28-5.25l-2.77-3.32c-1.55-1.83-3.14-3.65-4.73-5.46-.88-1-1.76-2-2.65-3-1.76-2-3.56-3.91-5.37-5.85-.79-.84-1.55-1.68-2.34-2.51q-3.21-3.37-6.52-6.7c-.51-.51-1-1-1.51-1.54q-12.65-12.63-26.78-24.71l-.84-.71q-4.23-3.6-8.59-7.16c-.56-.45-1.14-.9-1.7-1.36q-4-3.23-8.07-6.4l-2.07-1.59q-4-3.06-8-6.08l-2.22-1.63q-4.1-3-8.28-6c-.72-.52-1.45-1-2.18-1.54q-4.32-3-8.75-6l-1.94-1.31q-4.71-3.17-9.55-6.26l-1.37-.89q-5.46-3.5-11-6.91l-.14-.09q-29.13-17.83-61.66-33.69l-.79-.38q-6-2.91-12.08-5.75l-1.4-.65q-5.85-2.72-11.79-5.36l-1.62-.72q-5.92-2.62-12-5.18l-1.53-.65q-6.23-2.62-12.54-5.19l-1-.43c-27.89-11.25-57.13-21.42-87.52-30.42l-.23-.07q-7.31-2.16-14.69-4.23l-1.45-.4q-6.84-1.9-13.73-3.73l-2-.52q-6.69-1.75-13.45-3.44l-2.18-.54q-6.8-1.67-13.65-3.27l-2-.46q-7.15-1.65-14.38-3.22l-1.32-.29Q1371.95,381,1330,375l-.74-.1c-5.19-.74-10.39-1.43-15.61-2.1l-2.48-.31c-4.68-.59-9.36-1.15-14.07-1.68l-3.26-.37q-6.72-.73-13.47-1.42l-3.62-.35q-6.64-.65-13.32-1.21l-3.7-.32q-6.75-.56-13.53-1l-3.47-.25q-7.12-.48-14.29-.89l-2-.13h0q-33.93-1.87-68.48-1.91C942,363,758.47,418,634.28,506.19c54.43,103.73,151.09,184,266.12,213-4.14-14.66-18.7-49.29-24-85.12,99.35,73.77,223.51,114.56,347.35,110.61-19.66-16.22-37.67-34.86-54.25-54.89,47.49,18.74,99.81,25.12,150.11,16.12,1,.36,2.12.71,3.27,1,90.13,26.16,164.26,90.55,197,178.5,45,120.83,61,268.25,46.18,363.51-44.83,287.86-807,487.24-1017,74.46,32,146,212.83,265.74,602.72,244.55,331.57-18,568.84-146,610.51-296.88,20.91,9.58,45.63,15.15,72.16,15.15,75.12,0,122.69-44.55,122.69-99.53S1909.58,1087.16,1834.46,1087.16Z"/></g><path class="cls-8" d="M1064.06,1587.87c-264.93,0-396.27-71.33-460.64-134.68-53.07-52.23-79.67-117.55-76.93-188.9,1.67-43.35,8.32-80.41,33.86-117.27-84.6-114.13-115-254.26-115-349.23,0-257.86,306.34-452.31,712.59-452.31,275,0,536.42,92,665.84,234.45,62,68.21,90.83,145.18,83.42,222.59-10.07,105.05-37.32,181.9-53.6,227.82-5.1,14.39-10.73,30.25-12.77,39.45,77.92,2.51,133.81,50.89,133.81,116.9,0,67.79-59,117-140.19,117a196.26,196.26,0,0,1-61.3-9.65c-27.47,72.56-97.51,139.78-199.56,190.92-113.57,56.9-259.09,91.63-420.83,100.43Q1106.09,1587.92,1064.06,1587.87Zm93.87-1207.44c-190.24,0-364.18,44-489.75,124C547,581.57,480.28,685.75,480.28,797.79c0,87.9,30.3,229.26,115.7,338.33a17.47,17.47,0,0,1-.11,21.67c-26.51,33.22-32.84,65.9-34.45,107.85-2.36,61.25,20.64,117.49,66.51,162.64,66.17,65.13,210.62,139.19,522.92,122.21,308.54-16.79,553.05-133.61,594.6-284.09a17.46,17.46,0,0,1,24.13-11.23c19.35,8.87,41.78,13.56,64.86,13.56,62,0,105.25-33.74,105.25-82s-43.28-82-105.25-82c-13.45,0-20.6-6.13-24.23-11.27-10.69-15.13-3.63-35,10.44-74.71,16.77-47.27,42.1-118.71,51.75-219.48,6.45-67.33-19.3-135-74.49-195.75C1674.8,468,1423.59,380.43,1157.93,380.43Z"/><g class="cls-78"><polygon class="cls-79" points="1440.38 1176.62 1455.59 1182.86 1440.38 1182.86 1440.38 1176.62"/><polygon class="cls-80" points="1440.38 1170.3 1470.95 1182.86 1455.59 1182.86 1440.38 1176.62 1440.38 1170.3"/><polygon class="cls-81" points="1440.38 1163.99 1486.32 1182.86 1470.95 1182.86 1440.38 1170.3 1440.38 1163.99"/><polygon class="cls-82" points="1440.38 1157.68 1501.68 1182.86 1486.32 1182.86 1440.38 1163.99 1440.38 1157.68"/><polygon class="cls-83" points="1440.38 1151.37 1517.05 1182.86 1501.68 1182.86 1440.38 1157.68 1440.38 1151.37"/><polygon class="cls-84" points="1440.38 1145.06 1532.41 1182.86 1517.05 1182.86 1440.38 1151.37 1440.38 1145.06"/><polygon class="cls-85" points="1440.38 1138.74 1547.78 1182.86 1532.41 1182.86 1440.38 1145.06 1440.38 1138.74"/><polygon class="cls-86" points="1440.38 1132.43 1563.14 1182.86 1547.78 1182.86 1440.38 1138.74 1440.38 1132.43"/><polygon class="cls-87" points="1440.38 1126.12 1578.51 1182.86 1563.14 1182.86 1440.38 1132.43 1440.38 1126.12"/><polygon class="cls-88" points="1440.38 1119.81 1593.88 1182.86 1578.51 1182.86 1440.38 1126.12 1440.38 1119.81"/><polygon class="cls-89" points="1440.38 1113.5 1609.24 1182.86 1593.88 1182.86 1440.38 1119.81 1440.38 1113.5"/><polygon class="cls-90" points="1440.38 1107.19 1624.61 1182.86 1609.24 1182.86 1440.38 1113.5 1440.38 1107.19"/><polygon class="cls-91" points="1440.38 1100.87 1639.97 1182.86 1624.61 1182.86 1440.38 1107.19 1440.38 1100.87"/><polygon class="cls-92" points="1440.38 1094.56 1655.34 1182.86 1639.97 1182.86 1440.38 1100.87 1440.38 1094.56"/><polygon class="cls-93" points="1440.38 1088.25 1670.7 1182.86 1655.34 1182.86 1440.38 1094.56 1440.38 1088.25"/><polygon class="cls-94" points="1440.38 1081.94 1686.07 1182.86 1670.7 1182.86 1440.38 1088.25 1440.38 1081.94"/><polygon class="cls-95" points="1440.38 1075.63 1701.43 1182.86 1686.07 1182.86 1440.38 1081.94 1440.38 1075.63"/><polygon class="cls-96" points="1440.38 1069.32 1716.8 1182.86 1701.43 1182.86 1440.38 1075.63 1440.38 1069.32"/><polygon class="cls-97" points="1440.38 1063 1732.17 1182.86 1716.8 1182.86 1440.38 1069.32 1440.38 1063"/><polygon class="cls-98" points="1440.38 1056.69 1747.53 1182.86 1732.17 1182.86 1440.38 1063 1440.38 1056.69"/><polygon class="cls-99" points="1440.38 1050.38 1762.9 1182.86 1747.53 1182.86 1440.38 1056.69 1440.38 1050.38"/><polygon class="cls-100" points="1440.38 1044.07 1778.26 1182.86 1762.9 1182.86 1440.38 1050.38 1440.38 1044.07"/><polygon class="cls-101" points="1440.38 1037.76 1793.63 1182.86 1778.26 1182.86 1440.38 1044.07 1440.38 1037.76"/><polygon class="cls-102" points="1440.38 1031.44 1808.99 1182.86 1793.63 1182.86 1440.38 1037.76 1440.38 1031.44"/><polygon class="cls-103" points="1440.38 1025.13 1824.36 1182.86 1808.99 1182.86 1440.38 1031.44 1440.38 1025.13"/><polygon class="cls-104" points="1440.38 1018.82 1839.73 1182.86 1824.36 1182.86 1440.38 1025.13 1440.38 1018.82"/><polygon class="cls-105" points="1440.38 1012.51 1855.09 1182.86 1839.73 1182.86 1440.38 1018.82 1440.38 1012.51"/><polygon class="cls-106" points="1440.38 1006.2 1870.46 1182.86 1855.09 1182.86 1440.38 1012.51 1440.38 1006.2"/><polygon class="cls-107" points="1440.38 999.88 1880.81 1180.8 1879.96 1182.86 1870.46 1182.86 1440.38 1006.2 1440.38 999.88"/><polygon class="cls-108" points="1440.38 993.57 1883.02 1175.4 1880.81 1180.8 1440.38 999.88 1440.38 993.57"/><polygon class="cls-109" points="1440.38 987.26 1885.24 1170 1883.02 1175.4 1440.38 993.57 1440.38 987.26"/><polygon class="cls-110" points="1440.38 980.95 1887.46 1164.6 1885.24 1170 1440.38 987.26 1440.38 980.95"/><polygon class="cls-111" points="1440.38 974.64 1889.68 1159.2 1887.46 1164.6 1440.38 980.95 1440.38 974.64"/><polygon class="cls-112" points="1440.38 968.33 1891.9 1153.8 1889.68 1159.2 1440.38 974.64 1440.38 968.33"/><polygon class="cls-113" points="1440.38 962.01 1894.12 1148.39 1891.9 1153.8 1440.38 968.33 1440.38 962.01"/><polygon class="cls-114" points="1440.38 955.7 1896.34 1142.99 1894.12 1148.39 1440.38 962.01 1440.38 955.7"/><polygon class="cls-115" points="1440.38 949.39 1898.55 1137.59 1896.34 1142.99 1440.38 955.7 1440.38 949.39"/><polygon class="cls-116" points="1440.38 943.08 1900.77 1132.19 1898.55 1137.59 1440.38 949.39 1440.38 943.08"/><polygon class="cls-117" points="1440.38 936.77 1902.99 1126.79 1900.77 1132.19 1440.38 943.08 1440.38 936.77"/><polygon class="cls-118" points="1440.38 930.46 1905.21 1121.39 1902.99 1126.79 1440.38 936.77 1440.38 930.46"/><polygon class="cls-119" points="1440.38 924.14 1907.43 1115.99 1905.21 1121.39 1440.38 930.46 1440.38 924.14"/><polygon class="cls-120" points="1440.38 917.83 1909.64 1110.59 1907.43 1115.99 1440.38 924.14 1440.38 917.83"/><polygon class="cls-121" points="1440.38 911.52 1911.86 1105.19 1909.64 1110.59 1440.38 917.83 1440.38 911.52"/><polygon class="cls-122" points="1440.38 905.21 1914.08 1099.79 1911.86 1105.19 1440.38 911.52 1440.38 905.21"/><polygon class="cls-123" points="1440.38 898.9 1916.3 1094.39 1914.08 1099.79 1440.38 905.21 1440.38 898.9"/><polygon class="cls-124" points="1440.38 892.59 1918.52 1088.99 1916.3 1094.39 1440.38 898.9 1440.38 892.59"/><polygon class="cls-125" points="1440.38 886.27 1920.74 1083.59 1918.52 1088.99 1440.38 892.59 1440.38 886.27"/><polygon class="cls-126" points="1440.38 879.96 1922.95 1078.19 1920.74 1083.59 1440.38 886.27 1440.38 879.96"/><polygon class="cls-127" points="1440.38 873.65 1925.17 1072.79 1922.95 1078.19 1440.38 879.96 1440.38 873.65"/><polygon class="cls-128" points="1440.38 867.34 1927.39 1067.39 1925.17 1072.79 1440.38 873.65 1440.38 867.34"/><polygon class="cls-129" points="1440.38 861.03 1929.61 1061.99 1927.39 1067.39 1440.38 867.34 1440.38 861.03"/><polygon class="cls-130" points="1440.38 854.71 1931.83 1056.59 1929.61 1061.99 1440.38 861.03 1440.38 854.71"/><polygon class="cls-131" points="1440.38 848.4 1934.05 1051.19 1931.83 1056.59 1440.38 854.71 1440.38 848.4"/><polygon class="cls-132" points="1440.38 842.09 1936.27 1045.79 1934.05 1051.19 1440.38 848.4 1440.38 842.09"/><polygon class="cls-133" points="1440.38 835.78 1938.48 1040.38 1936.27 1045.79 1440.38 842.09 1440.38 835.78"/><polygon class="cls-134" points="1440.38 829.47 1940.7 1034.98 1938.48 1040.38 1440.38 835.78 1440.38 829.47"/><polygon class="cls-135" points="1440.38 823.15 1942.92 1029.58 1940.7 1034.98 1440.38 829.47 1440.38 823.15"/><polygon class="cls-136" points="1440.38 816.84 1945.14 1024.18 1942.92 1029.58 1440.38 823.15 1440.38 816.84"/><polygon class="cls-137" points="1440.38 810.53 1947.36 1018.78 1945.14 1024.18 1440.38 816.84 1440.38 810.53"/><polygon class="cls-138" points="1440.38 804.22 1949.58 1013.38 1947.36 1018.78 1440.38 810.53 1440.38 804.22"/><polygon class="cls-139" points="1440.38 797.91 1951.8 1007.98 1949.58 1013.38 1440.38 804.22 1440.38 797.91"/><polygon class="cls-140" points="1440.38 791.6 1954.01 1002.58 1951.8 1007.98 1440.38 797.91 1440.38 791.6"/><polygon class="cls-141" points="1440.38 785.28 1956.23 997.18 1954.01 1002.58 1440.38 791.6 1440.38 785.28"/><polygon class="cls-142" points="1440.38 778.97 1958.45 991.78 1956.23 997.18 1440.38 785.28 1440.38 778.97"/><polygon class="cls-143" points="1440.38 772.66 1960.67 986.38 1958.45 991.78 1440.38 778.97 1440.38 772.66"/><polygon class="cls-144" points="1440.38 766.35 1962.89 980.98 1960.67 986.38 1440.38 772.66 1440.38 766.35"/><polygon class="cls-145" points="1440.38 760.04 1965.11 975.58 1962.89 980.98 1440.38 766.35 1440.38 760.04"/><polygon class="cls-146" points="1440.38 753.73 1967.32 970.18 1965.11 975.58 1440.38 760.04 1440.38 753.73"/><polygon class="cls-147" points="1440.38 747.41 1969.54 964.78 1967.32 970.18 1440.38 753.73 1440.38 747.41"/><polygon class="cls-148" points="1440.38 741.1 1971.76 959.38 1969.54 964.78 1440.38 747.41 1440.38 741.1"/><polygon class="cls-149" points="1440.38 734.79 1973.98 953.98 1971.76 959.38 1440.38 741.1 1440.38 734.79"/><polygon class="cls-150" points="1440.38 728.48 1976.2 948.58 1973.98 953.98 1440.38 734.79 1440.38 728.48"/><polygon class="cls-151" points="1440.38 722.17 1978.41 943.17 1976.2 948.58 1440.38 728.48 1440.38 722.17"/><polygon class="cls-152" points="1440.38 715.85 1980.63 937.77 1978.41 943.17 1440.38 722.17 1440.38 715.85"/><polygon class="cls-153" points="1440.38 709.54 1982.85 932.37 1980.63 937.77 1440.38 715.85 1440.38 709.54"/><polygon class="cls-153" points="1440.38 620.48 1447.11 604.1 2016.11 604.1 2016.11 851.41 1982.85 932.37 1440.38 709.54 1440.38 620.48"/></g><path class="cls-154" d="M669.49,618.66s-119.42,131.65-150,255.67c0,0,15.3,153.14,62.75,272.56,0,0-148.5-192.92-182.17-361.35L372.49,810s-20.86-177.35,49.38-302.1l-.42-1.15-58.15,20s61.23-238.86,280.19-294l26,199Z"/><path class="cls-8" d="M582.23,1164.37a17.48,17.48,0,0,1-13.86-6.82C562.55,1150,433,980.38,389.73,818.08l-5.64,5a17.48,17.48,0,0,1-29-11c-.79-6.77-17.13-152.76,33.53-275.52L369,543.32a17.47,17.47,0,0,1-22.61-20.86c2.6-10.17,66.41-249.58,292.84-306.58a17.48,17.48,0,0,1,21.6,14.68l26,199a19,19,0,0,1,.14,2.26V618.66a17.48,17.48,0,0,1-4.52,11.74c-1.16,1.28-114.94,127.79-145.26,245.17,2.43,21.78,18.89,158.2,61.28,264.87a17.49,17.49,0,0,1-16.23,23.93ZM400.05,768.07a17.43,17.43,0,0,1,17.13,14c17.94,89.75,70.24,187.87,113.68,258a1332,1332,0,0,1-28.78-164.07,17.62,17.62,0,0,1,.43-5.92C530.73,755.73,629.3,638.05,652,612V433L628.79,255.16c-145.45,46.12-213.26,181-237.53,243.53l24.51-8.44a17.46,17.46,0,0,1,22.14,10.64l.41,1.15a17.46,17.46,0,0,1-1.23,14.45c-48.4,86-51.49,200.2-49.51,256.75l.87-.77A17.44,17.44,0,0,1,400.05,768.07ZM669.49,618.66h0Z"/><g class="cls-5"><path class="cls-6" d="M669.5,618.65s-119.44,131.66-150,255.68c0,0,0,.37.1,1.08,0,.33.09.8.14,1.37.24,1.79.52,4.53.94,8.12.19,1.32.33,2.78.57,4.34.38,3.3.9,7.17,1.46,11.42.24,1.89.52,3.82.8,5.85,1.09,7.79,2.41,16.8,4,26.76q.63,4.25,1.41,8.78,1.27,7.79,2.79,16.23C409.43,782,466.54,586.7,466.54,586.7c-41.58,22.23-72,58.19-94.06,97.68.33-3.49.66-7,1-10.57.76-7,1.65-14.25,2.69-21.52.05-.14.05-.23.1-.37q.78-5.38,1.7-10.9c.51-3.36,1.13-6.75,1.74-10.15.1-.61.24-1.23.33-1.84.66-3.49,1.37-7,2.08-10.48.8-3.77,1.6-7.55,2.5-11.32.8-3.5,1.7-7,2.59-10.57,1.51-5.9,3.17-11.85,5-17.75.57-1.89,1.13-3.73,1.75-5.61s1.18-3.68,1.74-5.48A357.59,357.59,0,0,1,409.25,533c.56-1.33,1.18-2.65,1.79-3.92.94-2.08,1.93-4.15,3-6.23q1.85-3.83,3.82-7.5c1.28-2.5,2.65-5,4-7.41l-.38-1.18-58.19,20s.14-.52.43-1.51c.09-.37.19-.75.33-1.18a11.21,11.21,0,0,1,.42-1.46q.57-2,1.42-4.81c.42-1.23.85-2.6,1.32-4,.38-1.18.8-2.41,1.23-3.73,1.18-3.54,2.59-7.55,4.24-12,.62-1.7,1.28-3.44,1.94-5.24,1.08-2.78,2.26-5.71,3.44-8.73a2.7,2.7,0,0,0,.24-.56c.71-1.75,1.46-3.5,2.22-5.34,38-23.64,81-41.71,119.48-55,29.83-10.24,49.88-37.47,53-68.85a2.2,2.2,0,0,0,0-.57c7.88-76.26,59.6-98.25,69.22-101.7,1-.37,1.56-.52,1.56-.52L601,337.34a123.5,123.5,0,0,0,4.77,56.91c3.53-.7,5.47-1,5.47-1a190.18,190.18,0,0,1,55.78,19.72l2.45,18.93Z"/></g><line class="cls-153" x1="505.3" y1="460.18" x2="421.45" y2="506.77"/><path class="cls-6" d="M505.3,460.18,429.94,522a17.76,17.76,0,1,1-17-30.54Z"/><path class="cls-154" d="M2016.11,635.8c-23-4.92-44-11.85-58.2-21.73L1953.32,660s-46.67-7.67-75-36.74l3.45,57.78s-45.57-7.26-72.35-37.11c0,0-57.55,8.22-100.32-38.17l-1.51-1.66s-40.19,11.12-17.23,62.38c0,0-68.12,16.86-114-61.23l-21.82,64.31s-76.93,13.78-110.24-32.16l-3.85,35.23a195.47,195.47,0,0,1-17.92-21,390,390,0,0,1-102.84-21.26c-50.3,9-102.62,2.61-150.11-16.13,16.58,20,34.59,38.68,54.25,54.89-123.84,4-248-36.83-347.35-110.6,5.28,35.82,19.84,70.46,24,85.11C759.24,608.1,645.74,495.33,604,356.71A89.77,89.77,0,0,1,607.11,297q23-56.16,46-112.35a156.73,156.73,0,0,1,93.29-88.56c149.24-52.32,519.18-151.35,847.15,7.3C2006.83,303.33,2015.93,621.88,2016.11,635.8Z"/><g class="cls-3"><path class="cls-7" d="M1593.55,103.42c-328-158.66-697.91-59.6-847.17-7.27a156.72,156.72,0,0,0-31.7,15.32c1.27,3.23,1.75,1.38,2.36,4.88C866.48,64,1245,8.93,1577.88,156.46c404.66,179.33,437.51,472.15,437.91,472.22C2012.74,578.59,1978.44,289.58,1593.55,103.42Z"/></g><path class="cls-154" d="M2016.11,635.8v.46a116.53,116.53,0,0,1-19.52-2.85l-1.15,5.14s-4.59,248-140.09,450.15l-41.34,4.59-43.64,89.57s-94.16-117.13-147-383.54c0,0-121.35-62.52-183-126.69l3.85-35.23c33.31,45.94,110.24,32.16,110.24,32.16l21.82-64.31c45.93,78.09,114,61.23,114,61.23-23-51.26,17.23-62.38,17.23-62.38l1.51,1.66c42.77,46.39,100.32,38.17,100.32,38.17,26.78,29.85,72.35,37.11,72.35,37.11l-3.45-57.78c28.34,29.07,75,36.74,75,36.74l4.59-45.93C1972.06,624,1993.1,630.88,2016.11,635.8Z"/><g class="cls-5"><path class="cls-6" d="M2016.11,635.8h0c-.14-10-4.81-176.73-160.07-344,72.2,134.83,45.12,276.78,45.12,276.78-39.31-19.63-81-59-81-59-9.44,33.84.8,75.5.8,75.5-44.83-33.78-68.43-88.05-68.43-88.05-18.87,35.39-15,83.34-15,83.34-55-35.4-81-107.74-81-107.74-35.4,53.47-27.94,112.08-27.94,112.08-62.53-38.94-93.2-113.26-93.2-113.26-44.83,59-15.34,136.85-15.34,136.85-110.9-49.55-148.65-152.19-148.65-152.19-23.6,62.53-20.06,136.86-20.06,136.86-118-21.24-218.25-194.67-218.25-194.67-17.7,60.17,22.41,151,22.41,151-89.66-62.52-146.29-149.83-146.29-149.83-23.22,69.66,1.51,155.26,2.31,158-3.94-2.4-248.83-152.69-265-306.24-9.74,31.36-25,112.42,22,234.32,0,0-94.39-68.43-88.49-181.69s66.07-164,66.07-164-10.87,56.16-.06,85.94a136,136,0,0,1,6-31.67c16-50.87,40.73-90.65,67.53-121.42C791.44,80.91,766.86,89,746.38,96.15a156.67,156.67,0,0,0-93.3,88.53q-22.94,56.2-46,112.36A89.42,89.42,0,0,0,604,356.69c41.77,138.65,155.26,251.39,296.41,287-4.15-14.68-18.69-49.32-24-85.13,99.34,73.76,223.5,114.58,347.33,110.61a410.74,410.74,0,0,1-54.22-54.88c47.47,18.73,99.81,25.1,150.11,16.14a388.61,388.61,0,0,0,102.83,21.23,196.14,196.14,0,0,0,17.88,21c20.72,21.57,48.19,43,75.51,61.78,37.47,9.29,85,17.88,123.36,14.3l-35.4-49.56s61.35,40.12,179.33,40.12l-26-51.91h0c107.48,53.24,155.71,180.23,110.34,291.26a774,774,0,0,1-48.37,98.43c1.19,5.08,2.18,10.19,3,15.32l33.11-3.68c135.5-202.11,140.09-450.15,140.09-450.15L1996,636l.59-2.59c2.16.5,4.32.84,6.48,1.22a115.61,115.61,0,0,0,13,1.62Z"/></g><path class="cls-8" d="M1770.37,1200.33a17.48,17.48,0,0,1-13.62-6.52c-3.91-4.87-95.55-121.13-148.86-382.91-30.59-16.38-144.32-79.76-194.54-142.44a407.16,407.16,0,0,1-95.2-20.11,285.18,285.18,0,0,1-92.27-.4q4.5,4,9,7.72a17.47,17.47,0,0,1-10.56,30.94c-111.73,3.57-223.89-27.55-320.52-88.21,2.72,8.77,5.52,16.88,8,23.93,2.36,6.81,4.22,12.19,5.45,16.58a17.47,17.47,0,0,1-21.08,21.68C750,623.77,631.68,509.25,587.26,361.73a107.28,107.28,0,0,1,3.7-71.3l46-112.35A174.45,174.45,0,0,1,740.6,79.62c147.13-51.55,525.51-154,860.53,8.08C1823.91,195.46,1929.57,338.11,1979,438.8c54,110,54.62,193.94,54.62,197.46a17.48,17.48,0,0,1-18.48,17.44c-.93-.05-1.87-.12-2.81-.19-3.21,57.06-23,266.69-142.44,444.92a17.49,17.49,0,0,1-12.58,7.63l-31.78,3.53-39.42,80.92a17.47,17.47,0,0,1-13.76,9.71A18.21,18.21,0,0,1,1770.37,1200.33ZM1319.63,612.9a17.4,17.4,0,0,1,5.79,1,371.62,371.62,0,0,0,98.22,20.32,17.49,17.49,0,0,1,12.95,7.14C1485.18,708,1629.93,783,1631.39,783.79a17.43,17.43,0,0,1,9.13,12.13c38.15,192.39,98.62,306.22,127.33,352.21l30.45-62.49a17.48,17.48,0,0,1,13.78-9.72l33.21-3.69c126.6-194.07,132.63-431.61,132.68-434a17.16,17.16,0,0,1,.42-3.49l1.15-5.14a17.49,17.49,0,0,1,7.75-11,17.67,17.67,0,0,1,9.8-2.67c-3.44-30.21-14.56-91.19-50.38-163.56-47.12-95.19-148-230.28-360.79-333.22C1262.67-37.19,895.17,62.49,752.15,112.6a139.45,139.45,0,0,0-82.86,78.72l-46,112.35a72.17,72.17,0,0,0-2.59,48c37,123,134.24,224.16,252.41,265.57-5.28-16.12-11-35.88-14-56.13a17.47,17.47,0,0,1,27.7-16.58c86,63.84,188.28,101,292.12,106.66q-11.6-12.13-22.9-25.77a17.47,17.47,0,0,1,19.87-27.4c46,18.16,94.65,23.4,140.62,15.18A16.8,16.8,0,0,1,1319.63,612.9Z"/><path class="cls-8" d="M866,572.56a386.76,386.76,0,0,1-56.37-64.3c-16-23.26-29.37-48.8-35.44-75.83,11.63,25.09,29.28,46.09,48.73,64.49a361,361,0,0,0,63.92,47.59,17.58,17.58,0,1,1-20.73,28.16Z"/><path class="cls-10" d="M1169.44,631.67a17.33,17.33,0,0,1-12.65-5.45l0,0a17.45,17.45,0,1,1,12.7,5.49Z"/><path class="cls-8" d="M1157.12,626.56l0,0,5.93,3.89a302.15,302.15,0,0,1-75.36-54,268.32,268.32,0,0,1-52.94-72.9c36.11,47.35,87.39,79.42,141.15,94.4a11.17,11.17,0,0,1,4.87,2.83l1.06,1.07,0,0a17.47,17.47,0,0,1-24.71,24.71Z"/><path class="cls-8" d="M1153.33,460.18a306.51,306.51,0,0,0,31.27,52.4,260.46,260.46,0,0,0,40.71,43.07,323.61,323.61,0,0,0,47.89,33.61,355.18,355.18,0,0,0,52.19,24.62l.39.15a17.47,17.47,0,0,1-11.91,32.84,239,239,0,0,1-58.28-29.82,265.19,265.19,0,0,1-48.52-43,226.77,226.77,0,0,1-35.51-53.57A212.15,212.15,0,0,1,1153.33,460.18Z"/><path class="cls-8" d="M1374.2,494.24a213.27,213.27,0,0,0,24.88,64.41c11.36,19.24,25.74,36.22,42.36,48.06l3.08,2.21,3.49,2.28c2.3,1.54,4.64,3,7,4.42,4.7,2.89,9.41,5.67,14.22,8.22a265.21,265.21,0,0,0,29,13.73,210.07,210.07,0,0,0,29.58,9.44,206,206,0,0,0,30.11,4.59l-18.3,18.56,3.81-78v-.22a17.51,17.51,0,0,1,32.87-7.53c10.18,18.69,26.23,35,44.73,47s39.84,19.93,60.74,21.18l-15.56,29.21a115.74,115.74,0,0,1-12-43.29,98.1,98.1,0,0,1,6-41.25,87,87,0,0,0,34.76,62.4,16.45,16.45,0,0,1-11,29.54l-4.58-.33c-28.69-2.09-55.13-12.61-78-27.66-22.79-15.22-42.58-35.32-56-60.35l32.87-7.74-.54,78.13a18.54,18.54,0,0,1-16,18.25l-2.27.31a128,128,0,0,1-40.18-1.32,164.43,164.43,0,0,1-37.72-11.83,204.19,204.19,0,0,1-33.5-19.15c-5.19-3.67-10.25-7.49-15.07-11.55-2.43-2-4.82-4.06-7.13-6.17l-3.51-3.13-3.63-3.54a144.51,144.51,0,0,1-23.92-31.22A166.14,166.14,0,0,1,1379.73,567C1372.48,543.1,1370.08,518,1374.2,494.24Z"/><path class="cls-8" d="M1764.3,585.27c9.79,9.46,19.23,18.52,29,26.78a268.6,268.6,0,0,0,29.84,22.18,203.93,203.93,0,0,0,31,16.06,262.5,262.5,0,0,0,31.62,10.39h0L1861.23,684l2.1-67.16a9.09,9.09,0,0,1,17.71-2.59L1902.28,678a18.12,18.12,0,0,1-18.42,23.81l-6.06-.45h0a116.28,116.28,0,0,1-42-15.33,141.71,141.71,0,0,1-33.51-27.86,166.55,166.55,0,0,1-23.76-34.61A159.67,159.67,0,0,1,1764.3,585.27Z"/><path class="cls-8" d="M1992.63,650.43c-9,.24-16.5-5.61-23.77-10.16a115,115,0,0,1-19.7-16.86,85.46,85.46,0,0,1-14-21.25,58.84,58.84,0,0,1-5.25-23.6c7.89,13.6,19.69,22.36,32.26,27.63a89,89,0,0,0,19.3,6c6.51,1.62,13.43.56,19.1,4.24l1.39.9a18,18,0,0,1,5.33,24.92A18.22,18.22,0,0,1,1992.63,650.43Z"/><path class="cls-8" d="M1846.36,573.4a228.89,228.89,0,0,0,24,24.85,189.58,189.58,0,0,0,25.91,19.44c8.92,5.65,18.28,10.1,27.39,14.43s18.31,8,27.55,12.4l0,0-21.2,11.1c6.85-11.21,10.13-26.52,12-42.71v0a9.86,9.86,0,0,1,19.48-.8,194,194,0,0,1,3.65,26.3,107,107,0,0,1-2,28.94,15,15,0,0,1-16.62,11.72l-4.58-.62h-.06c-12.94-1.7-25.23-6.72-36.25-13.42s-20.65-15.54-29-25.08a136,136,0,0,1-20.47-31.44A109,109,0,0,1,1846.36,573.4Z"/><path class="cls-8" d="M1693.53,580.83c12.2,21.09,30.79,37.39,51.45,46.14s43.47,10,63.09,4.44a17.65,17.65,0,1,1,9.64,34,17.32,17.32,0,0,1-4.23.66l-.82,0a122.56,122.56,0,0,1-76.53-24A118.87,118.87,0,0,1,1693.53,580.83Z"/><path class="cls-8" d="M865.9,835a9.32,9.32,0,0,0,2.63,2.06,12.77,12.77,0,0,0,4.75,1.83c3.86.77,9.64.64,17.47-3.56s10.43-9.78,10.32-15.16a20.79,20.79,0,0,0-1.7-7.15,22.12,22.12,0,0,0-2.9-4.49A115.16,115.16,0,0,0,857,779.47a134.66,134.66,0,0,0-40.27-11.1A139.1,139.1,0,0,0,751,776.64c-17.78,7.19-31.06,17-40.34,27a84.54,84.54,0,0,0-17.75,28.22c-2.81,8.5-3.66,15.24-3.56,20.36.1,2.58.28,4.72.5,6.51a28.17,28.17,0,0,0,1.17,4.44c1.6,4.68,2.84,5.1,2.84,5.1s1.3-.54,3.46-4.54c.56-1,1.07-2.2,1.8-3.62s1.73-3,2.68-4.91a109.27,109.27,0,0,1,8.91-13.72,92.53,92.53,0,0,1,18.22-17.11,105.73,105.73,0,0,1,32.79-15.27,120.73,120.73,0,0,1,49.67-2.37,105.94,105.94,0,0,1,28.66,9A80.47,80.47,0,0,1,865.9,835Z"/><path class="cls-8" d="M1300.19,810.89a10.2,10.2,0,0,0,2.88,2.11,13.85,13.85,0,0,0,5,1.82c4,.73,9.85.52,17.52-4s9.93-10.38,9.41-16a21.65,21.65,0,0,0-2.28-7.37,25,25,0,0,0-3.29-4.57,120.86,120.86,0,0,0-20.8-17.14,144.18,144.18,0,0,0-21.79-11.35,154.55,154.55,0,0,0-42.13-10.56,160.14,160.14,0,0,0-68.66,7.49A123,123,0,0,0,1132.29,777c-10.45,9.75-17.1,19.62-20.79,28.34a82.5,82.5,0,0,0-3.93,11.88,70.48,70.48,0,0,0-1.23,9.44c0,5.5.39,9.14,1.33,11.69,1.56,5,2.79,5.42,2.79,5.42s1.31-.58,3.5-4.79c.61-1,1-2.32,1.91-3.79s1.82-3.16,2.82-5.12,2.63-4,4-6.44c1.65-2.34,3.64-4.88,5.92-7.6a90.21,90.21,0,0,1,20.45-17.08,119,119,0,0,1,36.32-14.71,146.74,146.74,0,0,1,54.19-1.93,128.85,128.85,0,0,1,31.53,9,114.26,114.26,0,0,1,15.39,8.3A86.73,86.73,0,0,1,1300.19,810.89Z"/><path class="cls-8" d="M976.28,1298.77c13.46,5.12,26.48,8.6,39.31,9.16a76.64,76.64,0,0,0,36.41-6.85c11.22-5.24,21-13.48,29.12-23.78s14.12-22.76,19.2-36.33l.09-.23a6.57,6.57,0,0,1,12.72,2.27,95.4,95.4,0,0,1-12.29,47.2,87,87,0,0,1-37.07,35.37,111.17,111.17,0,0,1-12.24,5c-4.24,1.18-8.58,2.08-12.89,2.88-4.36.36-8.76.75-13.1.69-4.33-.41-8.72-.34-12.93-1.26a85.11,85.11,0,0,1-44.07-22.39,7.13,7.13,0,0,1,7.49-11.79Z"/><g class="cls-155"><path class="cls-7" d="M907.18,184.18S813.39,298,919.57,419.55c0,0-3.54-48.37,18.87-102.64,0,0,11.8,31.85,31.86,56.63,0,0-17.7-90.84,1.18-142.75,0,0-18.88,7.07-29.5,49.55s1.18,4.72,1.18,4.72S904.82,210.14,907.18,184.18Z"/></g><g class="cls-155"><path class="cls-7" d="M1032.82,238.65s-30.08,60.56,8.85,113.65c0,0-.59-30.08,8.26-56.63,0,0,12.39,76.69,46.6,120.93,0,0-23.2-129.78,5.11-203.51,0,0-38.14,21.83-51.71,58.4C1049.93,271.49,1038.33,262.64,1032.82,238.65Z"/></g><g class="cls-155"><path class="cls-7" d="M1175.58,256.15s-12.39,50.73,28.9,100.87c0,0,2.36-40.7,11.21-70.2,0,0,28.9,73.74,73.74,118.57,0,0-4.72-52.5,2.94-97.33,0,0,34.81,24.78,47.79,60.76,0,0-13.57-89.07-54.86-122.11l1.77,33.63s-12.39-36.58-46-71.38c0,0-24.77,33-25.36,51.32,0,0-20.06-34.21-15.34-60.17C1200.35,200.11,1180.89,216.63,1175.58,256.15Z"/></g><g class="cls-155"><path class="cls-7" d="M1371.42,273.26s114.44,56.63,235.95,55.45c0,0-138,60.17-193.48,18.87S1371.42,273.26,1371.42,273.26Z"/></g><g class="cls-155"><path class="cls-7" d="M832.26,183.2S729.23,297.25,881,406.57C881,406.57,811,278.37,832.26,183.2Z"/></g><g class="cls-5"><path class="cls-6" d="M1136.58,1983.29c4.29-17.91,16.21-33,31.67-43,25.07-16.24,73.84-36.52,153.48-26.57,125.85,15.73,182.48,89.66,144.72,99.1s-108.54-37.75-226.51-3.14C1147.24,2036.91,1129.32,2013.6,1136.58,1983.29Z"/></g><g class="cls-5"><path class="cls-6" d="M1617.62,1884.76s-5.9,228.88-51.91,273.71S1457.17,2208,1457.17,2208l199.38,59s11.8-131-30.67-263.09Z"/></g><g class="cls-5"><path class="cls-6" d="M828.33,1620.16s64.5,33,88.88,73.93c18.28,30.68,90.77,47.42,131.51,32.63,20.42-7.41,42.44-9.7,63.49-4.35,18.38,4.68,46,8.18,87.36,7.9,118.76-.78,162.8-79.43,162.8-79.43s4.92,65.87,56.24,90.05,93.2-37.16,93.2-37.16-26.54,37.16-74.32,2.36-40.71-97.33-61.94-116.21-36-20.05-58.4,23.6-86.71,82.58-163.4,53.09-100.87-70.2-100.87-70.2,10.62,102.44-55.45,105.59S938.44,1611.51,828.33,1620.16Z"/></g><g class="cls-5"><path class="cls-6" d="M1782.84,3249.27c-.1,8.26-2.93,16.84-6,23.73-.28.62-.52,1.23-.8,1.84a98.94,98.94,0,0,1-8,14.87l-392.73,16s-5.66-19.11-5.42-52.28c-.24-31.9,4.95-78,26.89-133.18v0c-1.93-15.58-11.46-92-24.58-184.94a2.28,2.28,0,0,1,.52,0c-.14-.89-.24-1.84-.38-2.73,0-.38-.09-.76-.14-1.14a6.57,6.57,0,0,0,1,.05c-5.38-38-11.37-78.71-17.65-119.2-14.44-92-30.58-182.58-45.16-235.86a259.58,259.58,0,0,1-33-.57L1168.88,2833l-61.44,145.59-78.1,185.17s30.58,99.53,16.8,156.21c0,0-.19,0-.57,0-.14.9-.37,1.75-.56,2.6,0,0-269.46,30.58-342.94,19.87A47.32,47.32,0,0,1,690.32,3309v-.28c-.38-10.71,2.69-23.88,13.26-38.89,19.63-27.93,60.31-77.58,84.61-106.79l.81-.23s-4.44,5.85-10.29,15.43c0,0,0,0-.05.09-12.46,20.58-31.19,58.19-25.81,91.41,7.83,48.8,180.88,28.31,224.91-7.83,25.74-21.14,13.92-53-.37-75.83a67.41,67.41,0,0,1-3.71-65.1l67.17-139.2c78.74-144.39,139.06-302.7,133.55-495.39,177,27.13,344.5-39.33,344.5-39.33-22.42,94.38-100.28,155.73-100.28,155.73s14.06,197.17,44.31,334.07c12.65,57.24,28.12,104,46.53,121.32,26.38,24.87,69.28,31.9,110.1,31.76-2.13,6.14-4.3,12.23-6.52,18.36,0,0,21.71,17.6,49.22,39.5-48.6-10.1-163.75-30.53-190.55-4.67-34.22,33-21.24,106.18-21.24,106.18Z"/></g><ellipse class="cls-156" cx="1083.91" cy="2270.25" rx="41.29" ry="17.5" transform="matrix(0.96, -0.27, 0.27, 0.96, -581.98, 385.12)"/><g class="cls-5"><path class="cls-6" d="M1111.44,2125c-156.43-13.31-233-123.14-233-123.14s34.95-69.06,26.63-95.69-94.85,102.34-161.42,84-84.87-81.54-84.87-81.54a110.23,110.23,0,0,1,.93,18c-.22-1.3-.41-2.61-.66-3.89-1.51,9.44-5.19,17.6-11.71,23.78-29.39,28-122.65,18.11-180.5,6.69,11.23-33.28-9.63-72.32-15.73-74.72-4.65,20.91-18.82,42.5-33.65,60.5-1.63-.46-2.53-.73-2.53-.73s7.08-38.93-76.69-38.93c-9.61,0-19.13.16-28.56.38,21.24-13.85,17.9-32-.93-43.44-30.08-18.29-25.95-47.19-25.95-47.19s-20.65-61.94-45.43-56.63-37.75,60.76-37.75,60.76l-10-33s-38.34-28.9-63.7-11.2-3.54,46.6-3.54,46.6-40.12-45.42-73.15-47.19-27.61,21.56-27.61,21.56l.62,4.82a44.29,44.29,0,0,0,15.1,28.12l68.14,58.52.1.05c2.92,2.45,96.41,81.68,182.67,101.74l222.41,144.17a203.65,203.65,0,0,0,61.93-20.94c59-.53,156-13.07,234.33-79.6l56.58,129.8,5,142.28s262.93-104,504.22-107.33C1372.7,2191.53,1267.86,2138.27,1111.44,2125Z"/></g><path class="cls-8" d="M1208.63,911.82c51.26-7.06,97,51.49,102.2,130.79s-32.16,149.29-83.41,156.36-97-51.49-102.2-130.79S1157.38,918.89,1208.63,911.82Z"/><path class="cls-7" d="M1211.42,945c16.12,6.81,22.48,33.66,14.21,60s-28,42.14-44.15,35.33-22.47-33.67-14.2-60S1195.31,938.21,1211.42,945Z"/><path class="cls-157" d="M1262.12,1114.34c7.56,5.89,8.14,20.78,1.29,33.26s-18.54,17.82-26.1,11.93-8.14-20.77-1.29-33.25S1254.55,1108.45,1262.12,1114.34Z"/><path class="cls-8" d="M834.87,926.34c-50-8.5-96.64,47.47-104.16,125s26.91,147.28,76.92,155.78,96.64-47.47,104.16-125S884.87,934.84,834.87,926.34Z"/><path class="cls-7" d="M831.12,958.79c-16,6.17-23.06,32.29-15.77,58.33s26.17,42.15,42.17,36,23.06-32.3,15.77-58.34S847.12,952.61,831.12,958.79Z"/><path class="cls-157" d="M776.23,1123.14c-7.6,5.54-8.62,20.11-2.29,32.55s17.61,18,25.21,12.5,8.61-20.11,2.29-32.55S783.82,1117.6,776.23,1123.14Z"/></g></g></svg>