<svg xmlns="http://www.w3.org/2000/svg" viewBox="0 0 2418.5 3302.6"><defs><style>.cls-1{fill:#fdc7a3;}.cls-2{fill:#000072;}.cls-3{fill:#f28b51;}.cls-4{opacity:0.3;}.cls-5{fill:#fff;}.cls-6{fill:none;}.cls-7{fill:#5065c2;}.cls-8{opacity:0.6;}.cls-9{fill:#ff3e3e;}.cls-10{fill:#fa9b27;}.cls-11{fill:#4881ff;}.cls-12{fill:#9f2;}.cls-13{fill:#b2a1a1;}.cls-14{fill:#a84535;}.cls-15{fill:#ff668f;}.cls-16{fill:#c4b7b7;}.cls-17{fill:#f7ae46;}.cls-18{fill:#b199c5;}.cls-19{fill:#ff7673;}.cls-20{opacity:0.5;}.cls-21{fill:#ff0068;}</style></defs><title>feeling-grateful</title><g id="Layer_2" data-name="Layer 2"><g id="Layer_1-2" data-name="Layer 1"><ellipse class="cls-1" cx="868.67" cy="2260.99" rx="117.96" ry="66.34"/><path class="cls-2" d="M813.55,2337.46a17.82,17.82,0,0,1-11-31.85c14.48-11.33,22.88-38.33,24.9-47.77a17.81,17.81,0,0,1,34.86,7.33c-1,4.76-10.52,47.15-37.8,68.5A17.73,17.73,0,0,1,813.55,2337.46Z"/><path class="cls-2" d="M884.39,2338.44a12.73,12.73,0,0,1-8.33-22.35c17.48-15.1,14.3-53,14.26-53.33a12.73,12.73,0,1,1,25.33-2.48c.21,2.08,4.67,51.2-22.94,75.07A12.68,12.68,0,0,1,884.39,2338.44Z"/><path class="cls-2" d="M868.67,2345.14c-76.13,0-135.77-37-135.77-84.15s59.64-84.15,135.77-84.15,135.78,37,135.78,84.15S944.81,2345.14,868.67,2345.14Zm0-132.67c-59,0-100.14,25.57-100.14,48.52s41.13,48.52,100.14,48.52,100.15-25.57,100.15-48.52S927.69,2212.47,868.67,2212.47Z"/><path class="cls-3" d="M2060.34,2108c-25.09,20.62-64.29,35.18-122.82,38l-4.78-162.73-.67-22.85s53.8-56.75,106.38-48.25C2078.36,1918.6,2139.23,2043.2,2060.34,2108Z"/><g class="cls-4"><path class="cls-2" d="M2038.65,2129c-25.09,20.62-64.29,35.17-122.82,38l-4.78-162.72-.67-22.85s53.8-56.75,106.38-48.26C2056.67,1939.56,2117.54,2064.16,2038.65,2129Z"/></g><path class="cls-3" d="M2072,2201.39c-69.16-13.35-139.94,75.81-139.94,75.81l.88,35.91,6.29,219.53c67.4,32.73,129.75,28.91,161.56-23.53C2204.59,2407.23,2124.51,2211.47,2072,2201.39Z"/><g class="cls-4"><path class="cls-2" d="M2039.78,2239.88c-69.17-12.4-139.94,70.42-139.94,70.42l.87,33.35,6.29,203.9c67.41,30.41,129.76,26.86,161.57-21.85C2172.35,2431.07,2092.27,2249.24,2039.78,2239.88Z"/></g><path class="cls-2" d="M2060.34,2120.55a12.47,12.47,0,0,1-7.81-2.75c-10.85-8.67-15.79-22.53-14.7-41.18,3-48.93-6.2-85.07-24.47-96.7-13.19-8.38-33-5.51-58.87,8.55a62.35,62.35,0,0,1-19.83,7.17,12.5,12.5,0,0,1-14.42-12l-.66-22.85a12.55,12.55,0,0,1,3.42-9c2.39-2.52,59-61.46,117.45-52,25.35,4.07,53.34,39.89,65.09,83.31,14.62,54,1,103.06-37.26,134.54A12.46,12.46,0,0,1,2060.34,2120.55Zm-64.22-170.32a55.93,55.93,0,0,1,30.66,8.6c36.19,23,38.1,84.61,36,119.28a47.32,47.32,0,0,0,.35,10c30.84-34.63,23.39-79.48,18.27-98.41-10.56-39-33.28-63.29-44.94-65.16-37.9-6.12-78.56,28.6-91.29,40.57C1964.08,1955.19,1981.11,1950.23,1996.12,1950.23Z"/><path class="cls-2" d="M1937.52,2163.83a17.82,17.82,0,0,1-17.81-17.29L1914.27,1961a17.81,17.81,0,0,1,4.88-12.77c2.46-2.6,61-63.5,122.14-53.58,31.42,5.05,58.69,47.68,69.38,87.17,15.19,56.13,1,107.17-39,140h0c-30.56,25.1-75.4,39.23-133.28,42Zm12.59-196.14,4.67,159.22c41.15-4.06,72.8-15,94.25-32.63,39.27-32.28,33.93-78.51,27.25-103.2-10.18-37.59-31.88-59.89-40.65-61.31C2004.09,1924.7,1967.05,1951.94,1950.11,1967.69Zm110.23,140.36h0Z"/><path class="cls-2" d="M2100.8,2524.11a14.92,14.92,0,0,1-10.36-4.16c-13.15-12.56-19.14-32.68-17.81-59.8,4.23-83.85-9.91-143.5-37.81-159.58-17-9.78-41.52-4.4-73,16-9.2,6-18,9.77-26.18,11.29a15,15,0,0,1-17.74-14.39l-.87-35.91a14.91,14.91,0,0,1,3.25-9.68c3.12-3.94,77.35-96.09,154.53-81.22,33.94,6.52,64,58.58,78.68,107.29,26.9,89.07,11.11,173.5-42.23,225.86A15,15,0,0,1,2100.8,2524.11Zm-84.51-258.31a65.9,65.9,0,0,1,33.51,8.78c52.61,30.31,55.66,130.21,52.8,187.06a86,86,0,0,0,1.26,21.46c50-65.15,29.15-153.38,21-180.48-16.58-54.9-43-84.07-55.63-86.5-51.63-10-107.8,50.05-122,66.39l.19,7.7C1972.93,2274,1996,2265.8,2016.29,2265.8Z"/><path class="cls-2" d="M2019.63,2571.57c-26.73,0-56.57-7.56-88.17-22.91a17.82,17.82,0,0,1-10-15.51l-6.29-219.53-.87-36a17.82,17.82,0,1,1,35.62-.86l.86,35.91,6,208.37c33.81,14.5,96.72,31.79,128.84-21.18a17.82,17.82,0,0,1,30.47,18.48C2094.68,2553.55,2060.87,2571.57,2019.63,2571.57Z"/><circle class="cls-1" cx="800.73" cy="1157.53" r="104.01" transform="translate(-583.97 905.23) rotate(-45)"/><path class="cls-2" d="M800.73,1279.36a121.83,121.83,0,1,1,121.82-121.83A122,122,0,0,1,800.73,1279.36Zm0-208a86.2,86.2,0,1,0,86.19,86.2A86.3,86.3,0,0,0,800.73,1071.33Z"/><path class="cls-3" d="M1750.88,1867.42s-186.73,92.27-195.12,262.77,0,388,0,388,64.48,32.55,169.67,0"/><g class="cls-4"><path class="cls-2" d="M1750.88,1867.42s-186.73,92.27-195.12,262.77,0,388,0,388,64.48,32.55,169.67,0"/></g><g class="cls-4"><path class="cls-2" d="M1555.76,2518.17s64.48,32.55,169.67,0"/></g><path class="cls-2" d="M1611.77,2551.14c-58.49,0-105.52-32-107.7-33.46a17.81,17.81,0,0,1,20.21-29.34h0c.49.33,48.93,33,102.23,26.27a17.81,17.81,0,1,1,4.42,35.35A152.85,152.85,0,0,1,1611.77,2551.14Z"/><path class="cls-5" d="M1348.78,3004.79s86.52,84.84,81.43,178.15c0,0-128.94,100.1-157.78,101.8s-151-28.84-151-28.84-18.67-76.35,71.26-78.05c0,0,21.71-100.1,12.55-145.91"/><path class="cls-2" d="M1270.11,3295c-33.34,0-138.88-26.14-151.15-29.2a10.19,10.19,0,0,1-7.42-7.46c-.36-1.46-8.48-36,11.91-62.44,12.72-16.52,33.17-25.87,60.85-27.85,4.74-24,18.17-98,11-134.09a10.18,10.18,0,1,1,20-4c9.46,47.34-11.68,145.88-12.59,150.06a10.15,10.15,0,0,1-9.75,8c-25.3.49-43.2,7.27-53.2,20.17-10.32,13.29-10.2,30.55-9.26,39.45,37.65,9.23,120.36,28.17,141.41,26.94,17.3-1,95.81-56.23,148.39-96.78,1.75-85.78-77.76-164.94-78.58-165.74a10.18,10.18,0,0,1,14.26-14.53c3.67,3.59,89.76,89.17,84.48,186a10.18,10.18,0,0,1-3.92,7.48c-22,17-133,102.13-163.43,103.92C1272.13,3295,1271.15,3295,1270.11,3295Zm160.1-112h0Z"/><g class="cls-4"><path class="cls-2" d="M1254.56,3188c-1.58-.61-26.88-10.32-61.87-10.11.56-2.9,2.73-13.71,3.54-18.08C1233.79,3166.33,1253.39,3186.69,1254.56,3188Z"/></g><g class="cls-4"><path class="cls-2" d="M1430.21,3182.93S1301.29,3283,1272.43,3284.72s-151-28.81-151-28.81-5.6-22.9,4.12-43.87c40.21,12.06,110.56,32.47,130.76,33.69,28.86,1.68,97.58-54.31,103.53-73.8,2.43-8,.27-24.8-3.1-41.73-5-25.13-30.36-40.24-55.14-33.74-37.35,9.8-73.48,11.75-97.31,11.24,3.21-27.18,4.84-56.35,1-75.74l143.54-27.18S1435.3,3089.63,1430.21,3182.93Z"/></g><path class="cls-2" d="M1270.36,3302.6c-34.52,0-140.88-26.32-153.25-29.42a17.81,17.81,0,0,1-13-13c-.39-1.6-9.32-39.54,13.28-68.91,13.19-17.12,33.51-27.27,60.53-30.27,6.4-33.47,15.83-95.55,9.84-125.51a17.82,17.82,0,1,1,34.94-7c9.77,48.89-11.7,148.94-12.61,153.17a17.84,17.84,0,0,1-17.08,14c-22.82.43-38.72,6.2-47.25,17.12-7.06,9.06-8.32,20.6-8.11,28.77,47,11.41,116.2,26.47,133.72,25.4,15.28-1.95,83.75-48.77,141.23-92.93-.54-81.26-75.52-155.74-76.31-156.5a17.82,17.82,0,1,1,25-25.44c3.76,3.69,92.22,91.62,86.75,191.83a17.83,17.83,0,0,1-6.86,13.1c-40.09,31.12-136.66,103.69-167.67,105.51C1272.51,3302.58,1271.47,3302.6,1270.36,3302.6Zm159.85-119.66h0Z"/><path class="cls-5" d="M1591.39,2741.82s65.32-33.93,186.21,8.48c0,0,37.73,224,24.16,273.16s-69.55,0-69.55,0-95-130.64-156.09-173.06"/><path class="cls-2" d="M1777.81,3055.49c-23.8,0-49.15-21.6-52.32-24.39a9.56,9.56,0,0,1-1.51-1.66c-.94-1.28-94.71-129.73-153.66-170.68a10.18,10.18,0,1,1,11.61-16.72c59.68,41.45,148.33,161.51,157.81,174.47,9.26,7.84,30.38,21.6,42.1,18.09,1.7-.52,6.86-2.06,10.11-13.85,10.31-37.39-12.52-196.88-23.4-262.79-110.94-37.22-171.9-7.39-172.51-7.08a10.18,10.18,0,0,1-9.34-18.09c2.83-1.47,70.65-35.47,194.27,7.91a10.18,10.18,0,0,1,6.67,7.91c1.55,9.24,37.94,226.76,23.94,277.55-5.16,18.73-15.86,25.54-23.93,27.94A34.51,34.51,0,0,1,1777.81,3055.49Z"/><g class="cls-4"><path class="cls-2" d="M1801.77,3023.46c-13.59,49.22-69.57,0-69.57,0s-1.79-2.49-5.09-6.87a259.1,259.1,0,0,0,19.54-52.53c15.35-58.82-18.07-99.76-47-123a30,30,0,0,0-46.59,11.77,215.47,215.47,0,0,1-25,44.23c-18.07-18.94-36.09-35.73-51.87-46.68l15.27-108.56s65.3-34,186.19,8.45C1777.6,2750.29,1815.31,2974.24,1801.77,3023.46Z"/></g><path class="cls-2" d="M1777.78,3063.13c-25.92,0-51.77-21.4-57.33-26.29a18.16,18.16,0,0,1-2.64-2.9c-.94-1.29-94-128.7-151.85-168.9a17.82,17.82,0,0,1,20.32-29.27c59.68,41.44,147.07,159.11,159.08,175.49,11.25,9.35,27.81,18,34.29,16,2.61-.79,4.44-6.75,4.94-8.56,8.75-31.74-8.72-168.76-22.82-254.95-104.55-33.82-161.71-6.37-162.3-6.07a17.82,17.82,0,0,1-16.29-31.69c3-1.53,73.61-37,200.32,7.48a17.81,17.81,0,0,1,11.66,13.85c3.93,23.32,38,229.33,23.78,280.85-6.09,22.1-19.19,30.27-29.1,33.23A41.85,41.85,0,0,1,1777.78,3063.13Z"/><path class="cls-6" d="M1204.62,2617.86l.62,1.08c-.08-.33-.17-.64-.25-1Z"/><path class="cls-7" d="M1641,2711.28l-93.09-42.42c2.34-47.5-17-103.49-17-103.49,36.21-40.72,28.26-203.16,28.26-203.16l-173.85,1.09a754.18,754.18,0,0,1-309.3-64.22l-71.65-31.62S851.63,2709.25,1174,3081.14c0,0,106.54,15.27,212.76-64.47l-63.07-190.45c112.33,97.27,252.42,81.87,252.42,81.87C1644,2847,1641,2711.28,1641,2711.28Zm-436.39-93.42.37.11c.08.33.17.64.25,1Z"/><g class="cls-8"><path class="cls-5" d="M1004.36,2267.46h0S851.63,2709.25,1174,3081.14c0,0,.72.1,2,.23C984.41,2774,976.75,2450.85,1004.36,2267.46Z"/></g><g class="cls-4"><path class="cls-2" d="M1430.43,2462.3c95.23,98.83,83.77,333.81,83.77,333.81,29.69-35.63,22.9-81.44,22.9-81.44l99.63,55.56a400.9,400.9,0,0,0,4.28-58.95l-93.09-42.42c2.34-47.5-17-103.49-17-103.49,36.21-40.72,28.26-203.16,28.26-203.16l-173.85,1.09a754.18,754.18,0,0,1-309.3-64.22l-71.65-31.62s-14.27,41.35-24.88,109.33C1080.39,2376.2,1353.29,2382.25,1430.43,2462.3Z"/></g><g class="cls-4"><path class="cls-2" d="M1238.49,2558.58c-78-4.24-174.75-40.41-174.75-40.41-1,51.65,36.7,85.66,68.27,105,32.43,19.9,58.44,48.66,73.8,83.47,7.42,16.82,15,35.21,22.64,54.54.71,2.05,59.11,171.07,38.89,243.59-20.35,72.95-89.85,76.57-89.85,76.57s142.08,10,209.28-64.7l-63.07-190.45c112.33,97.27,252.42,81.87,252.42,81.87,14.07-12.66,25.05-28.55,33.69-45.74C1312.69,2881.06,1238.49,2558.58,1238.49,2558.58Zm-33.87,59.28.37.11c.08.33.17.64.25,1Z"/></g><path class="cls-2" d="M1202.46,2635.6c-23-6.33-45.32-15.77-64.8-28.88a178.79,178.79,0,0,1-48.47-48.13,169.63,169.63,0,0,0,56.45,32.2c20.17,6.79,41.1,9.51,61.87,9.54a18,18,0,0,1-.06,36,17.8,17.8,0,0,1-4.65-.61Z"/><path class="cls-2" d="M1553.83,2926.83a394.8,394.8,0,0,1-140.3-26.32c-79.66-30.94-183.5-104.35-225.85-278.33a17.82,17.82,0,0,1,34.62-8.43c31.08,127.7,99.76,213,204.13,253.56,65.07,25.27,123.91,24.49,142,23.49C1615,2844.13,1622,2754,1623,2722.67l-82.51-37.6a17.79,17.79,0,0,1-10.4-17.08c2.14-43.56-15.89-96.27-16.07-96.8a17.79,17.79,0,0,1,3.53-17.66c22.83-25.67,26.7-130.44,23.77-190.45a17.82,17.82,0,0,1,35.59-1.74c.8,16.38,6.46,153.93-26.36,207.18,5,16.54,14.75,53.25,15.31,89l82.5,37.59a17.81,17.81,0,0,1,10.42,15.82c.13,5.88,2.32,144.65-70.78,210.44a17.78,17.78,0,0,1-10,4.46A235.09,235.09,0,0,1,1553.83,2926.83Z"/><path class="cls-2" d="M1196.72,3100.18a191.73,191.73,0,0,1-25.24-1.4,17.86,17.86,0,0,1-10.94-6c-170-196.17-208.09-411.58-210.06-557.73-2.13-158.23,35.44-268.82,37-273.45a17.82,17.82,0,0,1,33.68,11.65c-.57,1.66-37.35,110.75-35.08,262.67,2.07,138.49,38,342,196.69,528.1,22.51,1.43,102,1.68,182.94-54.19l-59-178a17.81,17.81,0,1,1,33.82-11.2l63.07,190.45a17.83,17.83,0,0,1-6.22,19.85C1316.82,3091.46,1236.36,3100.18,1196.72,3100.18Z"/><path class="cls-9" d="M1574.89,1662.45c-73.59-72.8-188.75-130.27-340.64-33.6-279.94,178.15-193.62,668.88-193.62,668.88,203.4,116.65,539.73,44.53,539.73,44.53V2192.11c24.61-19.51,4.25-47.53,4.25-47.53C1764.22,1841.9,1698.9,1685.49,1574.89,1662.45Z"/><g class="cls-8"><path class="cls-5" d="M1228.85,1892.41l37.63,18.91S1423,1679.73,1592.15,1672.1C1592.15,1672.1,1364.69,1652.09,1228.85,1892.41Z"/></g><path class="cls-5" d="M1516.67,2044.76c-62.74-127-171.68-171.87-228.55-187.11a48.89,48.89,0,0,0-54.66,22.54l-3.48,5.89a44.6,44.6,0,0,0,11,57.83l206.31,161.15a45.45,45.45,0,0,0,60.59-4.16h0A49.32,49.32,0,0,0,1516.67,2044.76Z"/><path class="cls-10" d="M1251.15,1551.2s-171.21,83.08-194.58,341.21"/><path class="cls-2" d="M1056.59,1910.23c-.54,0-1.08,0-1.62-.08a17.81,17.81,0,0,1-16.14-19.35c24-265.11,197.19-352.06,204.55-355.63a17.82,17.82,0,0,1,15.59,32h0c-6.62,3.26-162.55,82.65-184.66,326.81A17.81,17.81,0,0,1,1056.59,1910.23Z"/><path class="cls-2" d="M995.89,2041.12a18.21,18.21,0,0,1-3.71-.39,17.82,17.82,0,0,1-13.73-21.12c70.65-333.43,286.59-431.33,295.75-435.33a17.81,17.81,0,0,1,14.31,32.63h0c-2.08.92-208.56,95.56-275.21,410.08A17.82,17.82,0,0,1,995.89,2041.12Z"/><path class="cls-5" d="M1103.16,1938.64c53.17-36.85-4.57-75.06-4.57-75.06l1.34-21.5c-209.21-56.7-468.17-56.88-468.17-56.88l-3.83,61.5,88,16.41L630.8,1874.8,628.41,1913Z"/><path class="cls-2" d="M641.93,1785.81,638,1851.2l-8.72-10.69,86.8,21.55a1.08,1.08,0,0,1,.79,1.31,1.1,1.1,0,0,1-.79.8l-83.89,20.71,8.78-9.45-2.39,38.23a10.18,10.18,0,1,1-20.32-1.26l2.38-38.23.07-1a9.05,9.05,0,0,1,8.71-8.45l86.37-2.65v2.1l-89.37-3.5a9.16,9.16,0,0,1-8.8-9.51V1851l.06-1,3.93-65.38a10.18,10.18,0,0,1,20.33,1.22Z"/><path class="cls-9" d="M1102,1959.63a20.56,20.56,0,0,1-16-9.49,22.05,22.05,0,0,1,5.67-29.91c8.44-5.88,13.26-11.78,13.23-16.17,0-7.21-10.26-17.9-17.61-22.85a22,22,0,0,1-9.51-19.48l.21-3.6c-202.85-50.63-472.59-51.2-475.36-51.2-11.5,0-13.14-9.15-13.14-21.06s1.66-22,13.13-22c11.87,0,292.91.61,502.38,56.87a21.49,21.49,0,0,1,15.53,22.2l-.61,10c10.88,9.73,26.22,27.51,26.51,50.53.17,13.8-5.17,34.13-31.62,52.54A20,20,0,0,1,1102,1959.63Z"/><path class="cls-2" d="M1103.39,1972.18c-.71,0-1.43,0-2.15-.07h0a32.9,32.9,0,0,1-25.66-15.18c-10-15.46-5.95-36.53,9-47a36.36,36.36,0,0,0,7.38-6.44c-1.66-3-6.43-8.49-11.59-12a34.41,34.41,0,0,1-14.72-23.61c-200.19-48-460.32-48.54-463-48.54-17,0-25.64-11.31-25.64-33.56,0-28.55,13.94-34.54,25.63-34.54h.07c12.89,0,294.79.7,505.55,57.3,15.32,4.11,25.74,18.84,24.76,35l-.25,4.19c12.66,12.56,25.88,31.39,26.18,55.46.21,16.83-6,41.41-37,63A32.36,32.36,0,0,1,1103.39,1972.18ZM602.73,1794.43c3.16,0,274.26.63,478.37,51.57a12.51,12.51,0,0,1,9.45,12.89l-.22,3.59a9.54,9.54,0,0,0,4,8.37c7.94,5.35,23,19.15,23.12,33.11.07,9-6.19,17.88-18.59,26.53a9.61,9.61,0,0,0-2.32,12.86,8.12,8.12,0,0,0,6.28,3.81h0a7.68,7.68,0,0,0,4.89-1.39c17.38-12.11,26.46-26.68,26.27-42.15-.23-18.8-14.1-34-22.34-41.37a12.52,12.52,0,0,1-4.15-10.06l.61-10a9,9,0,0,0-6.29-9.38c-206.89-55.56-484.38-56.44-498.92-56.44-.37,1.22-.85,3.89-.85,9.54A37.7,37.7,0,0,0,602.73,1794.43Z"/><path class="cls-5" d="M696.17,1862s161.16,11.42,288.72,30.38"/><path class="cls-2" d="M984.89,1892.41c-.6,3.74-65.14-2.79-144.8-10.76-79.65-8.16-144.18-15.84-143.92-19.62s65.43-2.24,145.32,5.94C921.42,1876,985.5,1888.65,984.89,1892.41Z"/><path class="cls-5" d="M1114.5,2077.7c56.08-42.75-10-79.31-10-79.31l0-22.9c-234-45.77-519.09-28.18-519.09-28.18l-.15,65.5,97.94,11.36-92.93,18.25-.09,40.72Z"/><path class="cls-2" d="M595.64,1947.31v69.63l-9.43-10.15,97.12,16.32a1.09,1.09,0,0,1,.89,1.25,1.1,1.1,0,0,1-.76.86l-91.18,27.19,8.22-10-.09,40.72a10.18,10.18,0,1,1-20.36,0l.09-40.71v-.93a9.14,9.14,0,0,1,8.22-9l94.69-9.3.12,2.11-98.46,1.85a9.26,9.26,0,0,1-9.43-9.08v-70.7a10.18,10.18,0,1,1,20.36,0Z"/><path class="cls-11" d="M1114.66,2100a22.9,22.9,0,0,1-13.94-41.09c8.9-6.82,13.82-13.4,13.49-18.07-.53-7.63-12.47-18.28-20.89-23a23.09,23.09,0,0,1-11.76-20V1994c-226.65-39.77-523.6-21.85-526.65-21.66-12.66.77-15.06-8.81-15.85-21.44s.37-23.49,13-24.28c13.06-.82,322.46-19.47,556.76,25.82a22.91,22.91,0,0,1,18.56,22.49v10.68c12.61,9.58,30.68,27.38,32.52,51.78,1.1,14.63-3.44,36.55-31.32,57.91A22.84,22.84,0,0,1,1114.66,2100Z"/><path class="cls-2" d="M1114.66,2112.54a35.4,35.4,0,0,1-21.54-63.51,38.72,38.72,0,0,0,8.12-7.84c-2-3.15-7.83-8.93-14.06-12.44a35.64,35.64,0,0,1-17.45-24.08c-222.93-37.17-511.12-20-514.05-19.84-17.9,1.07-27.65-10-29.1-33.13-1.48-23.79,6.83-36.42,24.69-37.54,13.13-.82,324.14-19.55,559.91,26a35.48,35.48,0,0,1,28.69,34.77v4.66c14.72,12.36,30.56,31.37,32.48,56.86,1.34,17.71-3.86,44-36.18,68.77A35.06,35.06,0,0,1,1114.66,2112.54Zm-395.85-156.8c105.86,0,245.41,5,364.91,26a12.5,12.5,0,0,1,10.34,12.31v3.83a10.66,10.66,0,0,0,5.4,9.12c.26.15,26,14.83,27.22,33,.65,9.32-5.53,19-18.36,28.87a10.4,10.4,0,0,0,6.34,18.66,10.28,10.28,0,0,0,6.3-2.14c18.56-14.22,27.71-30.49,26.46-47.05-1.51-20.12-18-35.43-27.62-42.77a12.48,12.48,0,0,1-4.93-9.95V1975a10.43,10.43,0,0,0-8.43-10.22c-232.68-45-540.61-26.43-553.61-25.62a7.68,7.68,0,0,0-.79.09c-.36,1-.95,3.77-.5,10.94.38,6.22,1.1,8.75,1.54,9.75a7.78,7.78,0,0,0,1.07,0C555.57,1959.79,623.54,1955.74,718.81,1955.74Z"/><path class="cls-5" d="M603.11,1998.7s178.14,1,319.81,12.39"/><path class="cls-2" d="M922.92,2011.1c-.16,2-18.12,2.08-47.07,1.55s-68.86-1.86-113-3.46c-88.22-3.19-159.78-6.7-159.76-10.49s71.79-6.45,160.26-3.25c44.22,1.6,84.22,4.42,113.09,7.5S923.07,2009.28,922.92,2011.1Z"/><rect class="cls-5" x="514.88" y="2097.1" width="635.39" height="129.79" rx="64.9" ry="64.9"/><path class="cls-2" d="M1085.37,2242.16H579.78a80.17,80.17,0,0,1,0-160.33h505.59a80.17,80.17,0,1,1,0,160.33ZM579.78,2112.37a49.63,49.63,0,1,0,0,99.26h505.59a49.63,49.63,0,0,0,0-99.26Z"/><rect class="cls-5" x="576.39" y="2097.1" width="573.88" height="129.79"/><path class="cls-2" d="M1150.27,2239.62H576.39a12.73,12.73,0,0,1-12.73-12.73V2097.1a12.72,12.72,0,0,1,12.73-12.72h573.88A12.72,12.72,0,0,1,1163,2097.1v129.79A12.73,12.73,0,0,1,1150.27,2239.62Zm-561.16-25.45h548.44V2109.83H589.11Z"/><path class="cls-12" d="M1128.48,2261.52H588.61c-67.79,0-122.93-42.94-122.93-95.7s55.14-95.71,122.93-95.71h571c16.64,0,30.13,12,30.13,26.84s-13.49,26.83-30.13,26.83h-571c-34,0-62.67,19.25-62.67,42s28.69,42,62.67,42h539.87c16.63,0,30.12,12,30.12,26.83S1145.11,2261.52,1128.48,2261.52Z"/><path class="cls-2" d="M1128.48,2276.52H588.61c-76.06,0-137.93-49.66-137.93-110.71s61.87-110.7,137.93-110.7h571c24.88,0,45.13,18.77,45.13,41.84s-20.25,41.83-45.13,41.83h-571c-26.85,0-47.67,14.53-47.67,27s20.82,27,47.67,27h539.87c24.88,0,45.12,18.77,45.12,41.83S1153.36,2276.52,1128.48,2276.52ZM588.61,2085.11c-59.51,0-107.93,36.2-107.93,80.7s48.42,80.71,107.93,80.71h539.87c8.19,0,15.12-5.42,15.12-11.84s-6.93-11.83-15.12-11.83H588.61c-42.83,0-77.67-25.59-77.67-57s34.84-57,77.67-57h571c8.2,0,15.13-5.42,15.13-11.83s-6.93-11.84-15.13-11.84Z"/><line class="cls-5" x1="609.9" y1="2162" x2="916.98" y2="2162"/><path class="cls-2" d="M917,2162c0,3.86-68.75,7-153.55,7s-153.54-3.14-153.54-7,68.74-7,153.54-7S917,2158.13,917,2162Z"/><path class="cls-5" d="M1137.07,1707.74l-568.32-55.33c-57.26,102.62,0,136.6,0,136.6l537,50.9C1145.18,1803,1137.07,1707.74,1137.07,1707.74Z"/><path class="cls-2" d="M1105.74,1850.09c-.32,0-.64,0-1,0l-537-50.9a10.25,10.25,0,0,1-4.23-1.38c-2.69-1.6-65.08-40.31-3.7-150.32a10.19,10.19,0,0,1,9.88-5.17l568.32,55.33a10.19,10.19,0,0,1,9.16,9.27c.34,4.09,8,100.65-34.53,140.47A10.17,10.17,0,0,1,1105.74,1850.09Zm-533.36-71,529.5,50.19c25.87-28.67,26.28-89.9,25.49-112.29l-552.89-53.84C532.88,1741.88,564.36,1772.9,572.38,1779.13Z"/><path class="cls-10" d="M580.52,1703.52l8.56-22.32s299.74,16.4,556.86,52.37a12.37,12.37,0,0,0,14.1-12.27v-15.65a12.4,12.4,0,0,0-9.93-12.18C907.35,1645.14,558.47,1642,558.47,1642l-19.6,45.26s-21-2.55-31.2,29.88,22.91,46.46,22.91,46.46l16.54,42.56L1136.76,1859a12.41,12.41,0,0,0,13.51-12.36v-10a12.38,12.38,0,0,0-10.66-12.29c-177.8-24.87-559.86-56.21-559.86-56.21l-6.29-17.08C538.87,1718.39,580.52,1703.52,580.52,1703.52Z"/><path class="cls-2" d="M1137.85,1871.58c-.74,0-1.47,0-2.21-.1L546,1818.57a12.48,12.48,0,0,1-10.53-7.92l-14.8-38.07c-15-8.46-34.53-28.59-24.92-59.22,8.51-27.12,24.19-35.35,34.52-37.74L547,1637a12.5,12.5,0,0,1,11.47-7.54h.11c3.5,0,352.84,3.74,594,51.75a25,25,0,0,1,20,24.44v15.65a24.87,24.87,0,0,1-28.33,24.65c-228.79-32-494.64-48.66-546.73-51.74L592.19,1708a12.48,12.48,0,0,1-7.41,7.28c-3.5,1.3-11.48,5.74-12.45,10.51-.75,3.7,2.88,9.76,9.72,16.23a12.52,12.52,0,0,1,3.15,4.76l3.53,9.6c55.87,4.66,390.69,33,552.61,55.64a25,25,0,0,1,21.43,24.66v10a24.9,24.9,0,0,1-24.92,24.91ZM556,1794.36l581.91,52.22-.1-9.9c-175.3-24.45-555.22-55.73-559-56A12.51,12.51,0,0,1,568,1772.5l-5.31-14.43c-12.44-12.55-17.43-25.14-14.84-37.45,3-14.29,15.35-22.58,22.83-26.39l6.71-17.5a12.47,12.47,0,0,1,12.36-8c3,.17,303.21,16.84,557.9,52.47l-.13-15.54c-218.13-43.38-526.67-50.19-580.91-51.07l-16.29,37.6c-2.35,5.43-7.19,8.64-13,7.45-.7,0-11.19.26-17.77,21.22s13.54,30.22,15.86,31.2a12.54,12.54,0,0,1,6.77,7Zm24.56-90.84h0Z"/><line class="cls-10" x1="609.9" y1="1717.1" x2="841.06" y2="1743.2"/><path class="cls-2" d="M841.06,1743.2c-.43,3.78-52.52,1-116.35-6.21s-115.24-16.11-114.81-19.89,52.51-1,116.35,6.22S841.49,1739.43,841.06,1743.2Z"/><line class="cls-5" x1="903.41" y1="1735.57" x2="1135.63" y2="1765.05"/><path class="cls-2" d="M1135.63,1765.05c-.48,3.77-52.85.22-117-7.92s-115.72-17.79-115.24-21.56,52.85-.22,117,7.92S1136.11,1761.28,1135.63,1765.05Z"/><path class="cls-1" d="M1288.28,1647.49c-34.55,41.82-72.5,67.51-84.77,57.37s5.79-52.25,40.33-94.07,72.51-67.51,84.78-57.38S1322.83,1605.67,1288.28,1647.49Z"/><path class="cls-2" d="M1298.23,1655.7a271.11,271.11,0,0,1-41.5,37.3,186,186,0,0,1-24.1,15.23,67.09,67.09,0,0,1-14.29,5.69,29.28,29.28,0,0,1-9,1.07,18.52,18.52,0,0,1-10.9-4,18.71,18.71,0,0,1-6.14-9.91,30,30,0,0,1-.85-9.12,64.94,64.94,0,0,1,2.81-15.24,161.39,161.39,0,0,1,10.64-26.51,335.32,335.32,0,0,1,29-47.67c11-15,23-29.4,37.27-42.39,7.24-6.4,14.77-12.66,24-18a70.81,70.81,0,0,1,16.23-7,38.25,38.25,0,0,1,11.89-1.5,26.91,26.91,0,0,1,26,21.24,39.37,39.37,0,0,1,1,12,68.7,68.7,0,0,1-3.77,17.39,133.49,133.49,0,0,1-13.41,27C1322.63,1627.49,1310.65,1641.87,1298.23,1655.7Zm-19.9-16.43a242,242,0,0,0,26.06-43.78,153.1,153.1,0,0,0,8.46-22,41.05,41.05,0,0,0,1.7-8.82c.12-1.06,0-1.7,0-1.31a7.87,7.87,0,0,0,2.67,3.76,7,7,0,0,0,4.21,1.73c.37-.06-.32-.15-1.38.11a37,37,0,0,0-8.48,3.28A131.16,131.16,0,0,0,1291.7,1585a304.46,304.46,0,0,0-37.91,34,256.71,256.71,0,0,0-31.86,40.6c-4.39,7.29-8.51,14.8-11.22,22.42a48.58,48.58,0,0,0-2.67,11,14.61,14.61,0,0,0,.07,4.21,6.05,6.05,0,0,0,.48,1.49,2.81,2.81,0,0,0,1.55.38,13.76,13.76,0,0,0,4.25-.54,45.51,45.51,0,0,0,10.42-4.64,113.62,113.62,0,0,0,19.84-15.47C1257,1666.52,1268,1653,1278.33,1639.27Z"/><g class="cls-4"><path class="cls-2" d="M1150.27,1600.6s-20.36,93.13,84,110.94,347.39-91.25,347.39-91.25Z"/></g><g class="cls-4"><path class="cls-2" d="M1629.9,1687.91s80.68,193.72-139.88,426.78L1208.92,1913l25.33-177.46S1111.65,1892,1082.73,2004.9s-34.26,314.36-34.26,314.36,299.63,94.07,523,42.95l8.9-162.18s25.45-50.84,1.28-69.84C1581.64,2130.19,1792.27,1804.66,1629.9,1687.91Z"/></g><path class="cls-2" d="M1341.25,2385.48c-127.19,0-273.44-17.12-356.59-84.52a17.81,17.81,0,0,1,22.43-27.68c136.57,110.7,479.57,71.33,555.46,61V2188.72a17.83,17.83,0,0,1,4.79-12.16c9.34-10,7.65-16.11,4.58-19.47l.37.36,24.64-25.73c12.08,11.57,21.37,37.29,1.25,63.51v154.46a17.81,17.81,0,0,1-15,17.59C1574.43,2368.69,1467.18,2385.47,1341.25,2385.48Z"/><path class="cls-3" d="M1777.6,1805.71s-13.79-246.86-313.45-198.93c-329.15,52.65-495.42,621,152.69,860.19l52.6-112.57s-234.91-36.31-312.61-162.29-277.73-301.5,79.52-507.35c161.83-93.25,288.23,62.14,258.15,165.45Z"/><g class="cls-4"><path class="cls-2" d="M1699.5,1681.64c-46.5-33.21-116.92-53.51-223.58-36.45-269.89,43.17-430.26,433-122,703.89,64.66,51.65,147.46,98.34,251.13,136.61l46.39-121.38c-55.13-12.13-173.79-22.1-246.45-90-24-18.06-44.91-39.06-60-63.45-77.7-126-277.73-301.5,79.52-507.35,87.68-50.53,164.94-28,212.56,19.58,44.85,31.1,72.64,82.85,73.54,130.9l55.14-29.53S1761.22,1742,1699.5,1681.64Z"/></g><path class="cls-2" d="M1584.59,2162.4a17.81,17.81,0,0,1-15.3-26.91c107.26-180.75,136.59-329.31,80.47-407.57-30.88-43.06-85.9-59.82-151-46-141,29.91-251,201.2-273.9,239.15,54.37,117.27,258.42,191.63,260.52,192.38a17.81,17.81,0,0,1-12,33.53c-9.39-3.36-230.44-84-285-220.54a17.81,17.81,0,0,1,1-15.26c5.15-9.26,128.09-227.23,302-264.11,78.38-16.63,148.39,5.85,187.3,60.11,38,53.06,78.41,181.63-78.78,446.53A17.81,17.81,0,0,1,1584.59,2162.4Z"/><path class="cls-2" d="M1599.45,1962.22c-3.28,17.77-8.7,34.75-15,51.33a382.45,382.45,0,0,1-22.26,48.46,300.69,300.69,0,0,1-29.78,45.28c-11.73,14.16-24.54,28.28-43.71,38.11a17.84,17.84,0,0,1-19.6-29.55l1.06-.88c10.38-8.69,21.34-20.62,31.78-33s21.13-25.41,31.55-38.82l31.93-40.44C1576.21,1989.12,1587.3,1975.54,1599.45,1962.22Z"/><path class="cls-3" d="M1698.28,2114.69c11.88-96.48.7-155-6.45-239.21,0,0,84.49-112.85,206.65-63.53s110.28,661.8,56,753.42-313.88-15.27-313.88-15.27-48.44-17.81-23.75-83.13"/><g class="cls-4"><path class="cls-2" d="M1711.88,2553.42s-48.45-17.81-23.75-83.13c0,0,67-153.21,81.44-352.27,7-97,.7-155-6.45-239.22,0,0,44.82-59.76,116.33-73.26-111.8-31.19-187.62,69.94-187.62,69.94,7.15,84.23,18.33,142.73,6.45,239.21L1616.84,2467c-24.69,65.32,23.75,83.13,23.75,83.13s146.11,60.16,242,51.53C1798.83,2589.22,1711.88,2553.42,1711.88,2553.42Z"/></g><path class="cls-2" d="M1669.45,2377.21a15,15,0,0,1-3.79-.48c-176.47-45.94-294.1-121.66-349.62-225.05a15,15,0,1,1,26.43-14.19c51.41,95.73,162.69,166.45,330.75,210.2a15,15,0,0,1-3.77,29.52Z"/><polyline class="cls-13" points="1287.05 1697.71 1364.05 1730.76 1295.39 1796.09 1228.85 1771.67"/><path class="cls-2" d="M1616.84,2482a15,15,0,0,1-5.19-.93c-163.56-60.37-285.89-144.55-363.59-250.19-67.23-91.41-97.37-195-87.13-299.66,8.1-82.8,42.22-162.2,96.07-223.56,54.58-62.2,127.31-103.27,204.78-115.66,103.41-16.55,185.71-.88,244.59,46.56,79.62,64.14,86,162.2,86.2,166.34a15,15,0,0,1-30,1.7h0c0-.88-6.1-89.33-75.34-144.9-52-41.71-126.25-55.2-220.77-40.08-144.31,23.08-260.27,154.52-275.73,312.52-21.25,217.33,140,411.27,431.26,518.78a15,15,0,0,1-5.2,29.08Z"/><path class="cls-2" d="M1295.39,1811.09a14.92,14.92,0,0,1-5.17-.92l-66.54-24.42a15,15,0,0,1,10.34-28.16l57.78,21.21,45.43-43.23-56.09-24.07a15,15,0,0,1,11.83-27.57l77,33a15,15,0,0,1,4.42,24.66L1305.73,1807A15,15,0,0,1,1295.39,1811.09Z"/><path class="cls-1" d="M1255,1927l-145.4,193.68c-37.47,7-69.31-5.71-88.54-16.73a34.35,34.35,0,0,0-39.53,3.47l-1.43,1.22a34.11,34.11,0,0,0-5,46.58l35.21,46.26s-64.48,72.06-77.62,96.71c-25.45,47.72,50.9,28,50.9,28s122.15,48.35,165.42,33.08,103.07-92.89,103.07-92.89l219.77-176C1420.17,2014.31,1349.61,1958,1255,1927Z"/><g class="cls-8"><path class="cls-5" d="M986.35,2170a34,34,0,0,1,11.88-24.67l1.43-1.22a34.37,34.37,0,0,1,39.53-3.47c19.23,11,51.07,23.69,88.54,16.74l138.75-226.61c-10.83-4.53,0,0-11.53-3.79l-145.4,193.68c-37.47,7-69.31-5.71-88.54-16.73a34.35,34.35,0,0,0-39.53,3.47l-1.43,1.22a34.11,34.11,0,0,0-5,46.58Z"/></g><g class="cls-4"><path class="cls-2" d="M1437.79,2046.39l-207.9,166.51s-59.8,77.62-103.06,92.89c-29.49,10.4-131.08.41-184.74-22.11a137.09,137.09,0,0,0-9.41,14.47c-25.45,47.72,50.9,28,50.9,28s122.15,48.35,165.42,33.08,103.07-92.89,103.07-92.89l219.77-176A447.81,447.81,0,0,0,1437.79,2046.39Z"/></g><path class="cls-11" d="M2394.6,1551l-207.27-339.55c-228.45,27.54-406,83.81-338.93,278.38l196,140.69c99.32,28.75,257-1.89,324.24-17.48a41.5,41.5,0,0,0,26-62Z"/><g class="cls-8"><path class="cls-5" d="M2394.6,1543.07l-207.27-379.15c-84.5,11.37-162,27.15-222.79,53.49,52.21-16.7,112.95-28,177.79-36.74l207.27,379.15a50.42,50.42,0,0,1,6.08,24.15,48.75,48.75,0,0,1-14.43,35.11c10.21-2.39,19.45-4.68,27.38-6.74,18.79-4.86,32-23.59,32-45.12A50.42,50.42,0,0,0,2394.6,1543.07Z"/></g><g class="cls-4"><path class="cls-2" d="M2106.4,1641c-22.09-1.68-43.11-5-62-10.49l-196-140.68c-67.09-194.54,110.5-250.83,338.93-278.37l66.12,108.27c-28.81,50.79-75.84,104.54-152.65,143.68C2029.39,1499.81,2050.72,1568.57,2106.4,1641Z"/></g><path class="cls-7" d="M2296.93,544.18C1938.06,14.89,1419.06,1.93,1201.44,23.43a264.63,264.63,0,0,0-171.52,87.14C847.05,315.86,800.73,516.72,800.73,516.72l1409.93,732.07c98.79-124.91,131.46-354.14,142.27-492.1A332.33,332.33,0,0,0,2296.93,544.18Z"/><path class="cls-11" d="M2296.93,544.18C1938.06,14.89,1419.06,1.93,1201.44,23.43a264.63,264.63,0,0,0-171.52,87.14C847.05,315.86,800.73,516.72,800.73,516.72l1409.93,732.07c98.79-124.91,131.46-354.14,142.27-492.1A332.33,332.33,0,0,0,2296.93,544.18Z"/><path class="cls-5" d="M1140.68,308.92l-45,45v45s0,45,45,45v45s-45-45-135,0h-45l45-180Z"/><g class="cls-8"><path class="cls-5" d="M1141.7,60.68c236.32-23.36,799.54-9.3,1189.65,564.19a330.24,330.24,0,0,0-44.42-95.69C1928.06-.11,1409.06-13.07,1191.44,8.43a264.63,264.63,0,0,0-171.52,87.14c-4,4.54-8,9.09-11.93,13.63A288.24,288.24,0,0,1,1141.7,60.68Z"/></g><path class="cls-14" d="M1017.44,330.26l65.34-130.41s216.37-55,269.81,3.67,12.24,113.81,12.24,113.81S1174.16,299.46,1017.44,330.26Z"/><path class="cls-14" d="M868.63,524.33S671.82,462.4,615,687.21l60.23-30.54s-49.21,46-50.9,112.05c0,0,41.94-38.67,101.62-59.1-.2.15-45.65,35.43-53.27,104.83,0,0,22.17-17.6,48.11-21.74.19,1.08,8.17,48.3-39.63,70.95,0,0,20.85,76.91,104.16,105.89,0,0,972.35,408.18,1157.33,402.88s244.69-161,244.69-161C1846.73,246.08,868.63,524.33,868.63,524.33Z"/><path class="cls-1" d="M1942.64,1372.43c123,7.63,206.09-88.86,157.74-171.15s-138.28-12.72-138.28-12.72c6.79,112.83-78,142.52-78,142.52-58.58-41.36-28-136.58-28-136.58s-145.91-56.84-135.73-319L1476,684.66V509.06s-324-101.8-607.39,15.27l8.48,128.95L770.23,809.36l30.26,321.28c-27.43,38.7-42.14,82.49-42.14,130.45,0,191.86,235.32,377.92,579,377.92,293.83,0,540.09-113.69,605.32-266.58"/><path class="cls-1" d="M1942.64,1372.43c123,7.63,206.09-88.86,157.74-171.15s-138.28-12.72-138.28-12.72c6.79,112.83-78,142.52-78,142.52-58.58-41.36-28-136.58-28-136.58s-145.91-56.84-135.73-319l-219.27-171.3a65.16,65.16,0,0,1-25-51.36V509.06s-324-101.8-607.39,15.27l8.48,128.95L770.23,809.36l30.26,321.28c-27.43,38.7-42.14,82.49-42.14,130.45,0,191.86,235.32,377.92,579,377.92,293.83,0,540.09-113.69,605.32-266.58"/><g class="cls-4"><path class="cls-2" d="M2077.07,1174.45a68.3,68.3,0,0,0-6.61-4.4c-12.69,44.88-58,82.94-119.76,93.48-21.89,51.84-66.64,67.55-66.64,67.55a78.1,78.1,0,0,1-13.09-11.71c-94,125.25-315.44,213.29-573.92,213.29-257.12,0-453.51-104.18-536.14-237,6.62,45.25,26.08,89.55,56.69,130.51C915.24,1532.09,1091.38,1609,1312.32,1609c293.83,0,540.09-113.69,605.32-266.58C2039.08,1350,2121.52,1256,2077.07,1174.45Z"/></g><path class="cls-2" d="M1337.32,1656.83c-164.42,0-316.6-42.69-428.5-120.19-106.94-74.07-168.29-174.51-168.29-275.55,0-48.69,14-94.15,41.61-135.23L752.49,811a17.84,17.84,0,0,1,3-11.73l97.92-143a28.14,28.14,0,0,0,4.85-17.68L850.85,525.5a17.82,17.82,0,0,1,11-17.63c286-118.18,606.05-20,619.53-15.8a17.8,17.8,0,0,1,12.48,17V651.69A49.47,49.47,0,0,0,1513,690.92L1731.3,861.5a17.79,17.79,0,0,1,6.84,14.72c-9.51,244.73,119,299.51,124.49,301.72a17.92,17.92,0,0,1,10.4,22c-.24.75-22.87,73.94,13.75,110.24,19-10.43,62.22-42.87,57.54-120.56a17.85,17.85,0,0,1,6.88-15.16c2.09-1.61,51.58-39.32,102.16-29.56,25.86,5,46.85,20.91,62.38,47.35,22.42,38.15,21.87,81.87-1.52,120-30.07,49-92.21,78.78-160.31,78.43C1877.52,1548,1626.84,1656.83,1337.32,1656.83ZM788.57,814.11,818.23,1129a17.8,17.8,0,0,1-3.21,12c-25.78,36.37-38.86,76.79-38.86,120.14,0,173.19,214.55,360.11,561.16,360.11,138.31,0,273.67-26.43,381.12-74.41,103.91-46.41,177.72-110.81,207.82-181.35a17.89,17.89,0,0,1,17.49-10.79c60.06,3.73,115-20.25,140.11-61.09,16.51-26.87,16.92-56.43,1.16-83.25-10.23-17.42-22.76-27.36-38.29-30.4-25.67-5-53.56,9.72-66.46,17.82,1.33,93-57.76,138.76-90.33,150.16a17.78,17.78,0,0,1-16.15-2.26c-53.89-38-45.32-110.45-38.53-141.72-38.32-22.19-138.69-101.4-133-319.91L1491,719a84.89,84.89,0,0,1-32.83-67.31V522.51c-60.63-16.4-330.75-80.05-571,13.54l6.6,100.23a63.93,63.93,0,0,1-11,40.15Z"/><path class="cls-2" d="M847.42,800.88,872,836.51s12.3-64.9,73-66.17,79.32,42,79.32,42l25.45-67.86s-22.27-50.9-101.17-42.63S847.42,800.88,847.42,800.88Z"/><path class="cls-2" d="M872,841.51a5,5,0,0,1-4.11-2.16l-24.6-35.63a5,5,0,0,1-.74-4c.23-.94,24-94.28,105.49-102.82,81.6-8.57,105.3,43.38,106.27,45.59a5,5,0,0,1,.1,3.76L1029,814.09a5,5,0,0,1-4.56,3.24,4.79,4.79,0,0,1-4.71-3c-.72-1.62-18.35-40.23-74.63-39-56,1.18-68,61.49-68.14,62.1a5,5,0,0,1-3.88,4A4.6,4.6,0,0,1,872,841.51ZM852.87,800l17.28,25c6.74-19.37,26.34-58.63,74.72-59.65,45.8-1,68.8,22,78.4,35.48l21-56.07c-4.64-8.58-28.38-45-95.2-37.94C881.26,713.93,856.81,786.57,852.87,800Z"/><path class="cls-2" d="M1244.43,819.54l24.6,35.63s12.3-64.89,73-66.17,79.32,42,79.32,42l39.44-54.08s-36.26-64.69-115.16-56.42S1244.43,819.54,1244.43,819.54Z"/><path class="cls-2" d="M1269,860.17a5,5,0,0,1-4.11-2.16l-24.6-35.62a5,5,0,0,1-.74-4c.23-.94,24.05-94.28,105.49-102.82,81.23-8.54,119.66,58.26,120,58.94a5,5,0,0,1-.32,5.39l-39.44,54.08a5,5,0,0,1-8.64-1c-.71-1.63-18.38-40.35-74.62-39-55.95,1.17-68,61.48-68.14,62.09a5,5,0,0,1-3.88,4A4.6,4.6,0,0,1,1269,860.17Zm-19.15-41.54,17.28,25c6.74-19.37,26.34-58.64,74.72-59.65,48.54-1,71.45,24.75,80,37.77l32.9-45.11c-7.75-12-42.23-58.17-108.62-51.19C1278.26,732.59,1253.82,805.23,1249.88,818.63Z"/><path class="cls-2" d="M1246.11,1301.82a17.82,17.82,0,0,1-6.25-1.14c-16.13-6-29.45-14.69-39.58-25.69a17.81,17.81,0,1,1,26.21-24.13c6.31,6.85,15,12.39,25.87,16.45a17.82,17.82,0,0,1-6.25,34.51Z"/><path class="cls-2" d="M1195.91,1246.94a17.81,17.81,0,0,1-17.38-14c-7.6-34.38,4.14-67,4.64-68.37a17.81,17.81,0,1,1,33.45,12.27c-.06.19-8.6,24.44-3.3,48.4a17.81,17.81,0,0,1-13.55,21.24A17.61,17.61,0,0,1,1195.91,1246.94Z"/><path class="cls-2" d="M1213.38,1262.92l-.05,0a296.94,296.94,0,0,1-16.84,45.1c-14.51,30.9-38.74,68.1-74.21,78.38-.61.16-1.28.36-1.89.51-38.32,10.44-75.89-16.74-79.76-55.32a56.37,56.37,0,0,1-.35-6.52c-.1-48.81-13-83.68-13.39-84.75,2.34,1.94,63.27,51,169-11.24A71.08,71.08,0,0,0,1213.38,1262.92Z"/><path class="cls-15" d="M1196.49,1308.07c-14.51,30.9-38.74,68.1-74.21,78.38-.61.16-1.28.36-1.89.51-38.32,10.44-75.89-16.74-79.76-55.32,24.84-20.77,59.76-33.65,98.49-33.65A165.08,165.08,0,0,1,1196.49,1308.07Z"/><path class="cls-2" d="M1103.73,1407.06a80.61,80.61,0,0,1-49-16.73,81.58,81.58,0,0,1-32.27-65.19c-.08-42-10.25-72.84-12.28-78.6,0-.1-.16-.43-.19-.53a17.82,17.82,0,0,1,28.25-19.37c2.16,1.76,54.14,42.76,148.65-12.87a17.82,17.82,0,0,1,26.43,11.5,53,53,0,0,0,13.07,25.48,17.83,17.83,0,0,1,3.86,17.93c-3.57,13-33.67,114.75-103,134.88-.22.07-.45.13-.68.18l-1.88.51A79.77,79.77,0,0,1,1103.73,1407.06Zm-50.35-134.61a304.07,304.07,0,0,1,4.71,52.63,46.2,46.2,0,0,0,18.26,36.93,45,45,0,0,0,39.37,7.76l1.63-.44c39.93-11.63,66.47-71.58,76.27-102.4a87.61,87.61,0,0,1-7.46-12.25C1128,1283.59,1082.64,1280.93,1053.38,1272.45Z"/><path class="cls-2" d="M1026.85,1258.18a17.74,17.74,0,0,1-12.56-5.21l0,0a17.78,17.78,0,1,1,12.61,5.26Z"/><path class="cls-2" d="M2075.42,1348.67a17.82,17.82,0,0,1-9-33.21c80.33-46.77,98.93-92.27,102.54-104-5.92-23-39.9-143.78-131.5-279.5-93.23-138.13-267.16-320.66-566.33-405.77a17.81,17.81,0,0,1,9.75-34.27c310.17,88.24,490.4,277.85,587,421.37,104.68,155.59,135.57,288.64,136.84,294.23a17.82,17.82,0,0,1,.24,6.55c-.41,2.77-11.32,68.56-120.58,132.17A17.77,17.77,0,0,1,2075.42,1348.67Z"/><path class="cls-2" d="M624.31,786.21a17.51,17.51,0,0,1-17.49-17.94,168.21,168.21,0,0,1,15.47-65.16A17.5,17.5,0,0,1,598,682.92c19.14-75.7,55.63-129,108.45-158.52,78.64-43.91,163.83-17.89,167.41-16.76A17.5,17.5,0,0,1,863.42,541h0c-.74-.23-74.93-22.54-140.2,14.09-34.71,19.48-61.17,52.23-79,97.61l23-11.68a17.5,17.5,0,0,1,19.86,28.4c-.3.28-24,23-37,58,25.56-16.52,62.36-35.64,104.94-43.77a17.5,17.5,0,0,1,6.56,34.38c-70.27,13.41-124.92,63-125.46,63.48A17.52,17.52,0,0,1,624.31,786.21Z"/><path class="cls-2" d="M672.68,832.25A17.83,17.83,0,0,1,655,812.51c8.37-76.21,58-115.37,60.11-117a17.81,17.81,0,0,1,21.85,28.14c-1.37,1.08-24.56,19.84-38,56.35,11.48-4.11,24.7-6.87,38.4-5.78a17.81,17.81,0,1,1-2.84,35.51c-20-1.61-43.43,12.94-50.71,18.68A17.85,17.85,0,0,1,672.68,832.25Z"/><path class="cls-2" d="M785.32,987.37a17.9,17.9,0,0,1-5.86-1C688.31,954.67,664.91,871.83,664,868.32a17.81,17.81,0,0,1,9.57-20.76c35.6-16.87,30-50.31,29.72-51.72a17.81,17.81,0,1,1,35-6.37c3.44,19-.45,57.72-35.25,82,9.22,20.89,33.68,62.27,88.12,81.21a17.81,17.81,0,0,1-5.85,34.64Z"/><path class="cls-2" d="M2210.65,1266.61a17.82,17.82,0,0,1-14-28.87c97.24-123,128.5-355,138.48-482.45a315.63,315.63,0,0,0-53-201.11c-355.39-524.15-873-533.37-1079-513a246,246,0,0,0-160,81.25C865.86,321.53,818.54,518.76,818.08,520.73a17.81,17.81,0,0,1-34.71-8c1.93-8.38,49.46-207.67,233.25-414a281.46,281.46,0,0,1,183.07-93c212.36-21,745.86-11.52,1112,528.47a351.45,351.45,0,0,1,59,223.9c-10.3,131.44-43,371.41-146.06,501.76A17.76,17.76,0,0,1,2210.65,1266.61Z"/><path class="cls-2" d="M2299,1083.25a17.82,17.82,0,0,1-17.53-14.76C2252,898.84,2122.61,714,1935.51,574.14c-206.13-154.12-457-239-706.35-239s-301.93,33.29-368.53,75.44l-9.16,5.78a17.81,17.81,0,0,1-19-30.16l9.07-5.73c71.47-45.23,127.92-81,387.58-81,257,0,515.44,87.4,727.69,246.09,194.2,145.2,328.69,338.39,359.76,516.78a17.8,17.8,0,0,1-17.58,20.87Z"/><path class="cls-2" d="M2299,1077.94a12.51,12.51,0,0,1-12.3-10.36c-29.77-171-159.88-357-348-497.7-207-154.8-459-240-709.53-240-250.87,0-304.05,33.65-371.37,76.26l-9.14,5.77a12.5,12.5,0,1,1-13.31-21.17l9.08-5.73c70.74-44.77,126.62-80.13,384.74-80.13,255.87,0,513.17,87,724.5,245,193.15,144.41,326.87,336.35,357.71,513.43a12.5,12.5,0,0,1-10.17,14.46A12.29,12.29,0,0,1,2299,1077.94Z"/><path class="cls-5" d="M1363.08,325.26s-20.46,110.76-47.9,151.53a1099.34,1099.34,0,0,0-153-8.65c-77.49-32.18-78.29-71.73-61.56-102,16.48-29.87,48.56-47.73,82.68-48.37q21.81-.39,45.91-.4A1143.22,1143.22,0,0,1,1363.08,325.26Z"/><path class="cls-2" d="M1315.18,487a9.12,9.12,0,0,1-1.27-.08,1090.61,1090.61,0,0,0-151.62-8.57,9.79,9.79,0,0,1-4.06-.78c-40.2-16.69-64.86-37.37-73.3-61.48-6.06-17.35-3.8-35.81,6.72-54.88,17.86-32.36,52.88-52.9,91.4-53.62,14.72-.28,30.23-.41,46.11-.41a1154.65,1154.65,0,0,1,135.11,8,10.18,10.18,0,0,1,8.82,11.95c-.85,4.61-21.17,113.33-49.46,155.37A10.2,10.2,0,0,1,1315.18,487Zm-137.45-29.13A1115.22,1115.22,0,0,1,1310,465.9c19.6-34,35.43-104.81,41-131.77a1136.79,1136.79,0,0,0-121.78-6.62c-15.75,0-31.14.13-45.73.4-31.26.59-59.6,17.1-74,43.1-7.61,13.79-9.4,26.68-5.33,38.32,6.32,18.07,26.49,34.41,60,48.6C1168.63,457.87,1173.18,457.84,1177.73,457.84Z"/><path class="cls-2" d="M1315.18,494.61a18.34,18.34,0,0,1-2.21-.14A1082,1082,0,0,0,1162.4,486a16.8,16.8,0,0,1-7.1-1.36c-42.29-17.56-68.39-39.77-77.57-66-6.72-19.21-4.22-40.33,7.24-61.09,19.17-34.74,56.7-56.8,97.94-57.57,14.77-.27,30.33-.41,46.25-.41a1163.62,1163.62,0,0,1,136,8.06,17.82,17.82,0,0,1,15.43,20.93c-.87,4.67-21.47,114.9-50.64,158.24A17.82,17.82,0,0,1,1315.18,494.61ZM1177.73,450.2a1121.36,1121.36,0,0,1,128,7.51c15.23-29.37,28.83-83.31,36-116.86a1125.72,1125.72,0,0,0-112.61-5.71c-15.71,0-31,.14-45.59.41-28.54.53-54.37,15.53-67.41,39.15-6.6,12-8.17,22.48-4.8,32.11,5.41,15.48,24.15,30.47,54.27,43.46Q1171.66,450.21,1177.73,450.2Z"/><path class="cls-5" d="M1451.89,268.36c-10.17,62.2-27.73,142-57.51,221.11-22.19-4.38-48.25-8.76-77.21-12.42,33.18-83.68,50.79-169,59.4-221.06a51.32,51.32,0,0,0-36.86-58c-109-30.08-216-8.71-256.93,1.88a16.83,16.83,0,0,0-10.59,8.45c-25,47.59-77.11,156.87-101,283A693.92,693.92,0,0,0,889.72,516c21.68-152.7,85.56-287.53,114.88-343.32a93.17,93.17,0,0,1,59-46.77c46.93-12.12,169.65-36.55,296.38-1.58A127.56,127.56,0,0,1,1451.89,268.36Z"/><path class="cls-2" d="M889.72,526.22a10.19,10.19,0,0,1-10.08-11.61C901.77,358.79,968.1,220.3,995.59,168a103.38,103.38,0,0,1,65.5-51.9c47.73-12.32,172.64-37.13,301.64-1.53A137.76,137.76,0,0,1,1461.94,270h0c-13.23,80.8-32.75,155.84-58,223a10.17,10.17,0,0,1-11.5,6.4c-24.66-4.86-50.4-9-76.52-12.3a10.17,10.17,0,0,1-8.18-13.86c32.08-80.89,49.69-163.71,58.81-219A41.17,41.17,0,0,0,1337,207.78c-106.66-29.44-211.54-8.46-251.68,1.93a6.55,6.55,0,0,0-4.07,3.23c-27.45,52.16-76.87,157.77-100,280.2a10.19,10.19,0,0,1-7.63,8,687.42,687.42,0,0,0-80.3,24.42A10.19,10.19,0,0,1,889.72,526.22Zm330.56-409.74a633.6,633.6,0,0,0-154.1,19.32,83,83,0,0,0-52.57,41.66c-26,49.48-87.39,177.44-111.25,323.22C921.89,494,942,488,962.45,482.9c24.16-122.28,73.29-227.19,100.73-279.34a26.94,26.94,0,0,1,17-13.54c41.82-10.82,150.91-32.61,262.29-1.86a61.48,61.48,0,0,1,44.19,69.48c-8.83,53.48-25.5,132.39-55.27,211,19.18,2.64,38.11,5.71,56.5,9.19,23.37-63.88,41.53-134.86,54-211.12a117.45,117.45,0,0,0-84.54-132.54C1309.79,121.07,1262.79,116.48,1220.28,116.48Zm231.61,151.88h0Z"/><path class="cls-2" d="M889.72,533.85a17.82,17.82,0,0,1-17.64-20.32c22.3-157,89.07-296.43,116.75-349.09a111,111,0,0,1,70.34-55.74c48.33-12.47,174.81-37.59,305.59-1.5a145.39,145.39,0,0,1,104.72,164h0c-13.31,81.3-33,156.83-58.43,224.5a17.8,17.8,0,0,1-20.12,11.2c-24.48-4.82-50-8.94-76-12.22a17.81,17.81,0,0,1-14.32-24.24c31.83-80.26,49.31-162.52,58.38-217.39a33.56,33.56,0,0,0-24-38c-104.42-28.83-207.29-8.45-247.22,1.82-22.16,42.2-75.3,152.17-99,277.6a17.8,17.8,0,0,1-13.36,14A680.88,680.88,0,0,0,896,532.72,17.68,17.68,0,0,1,889.72,533.85Zm330.54-409.74a625.12,625.12,0,0,0-152.17,19.09A75.31,75.31,0,0,0,1020.37,181C995.29,228.73,937.07,350,912.05,489.39c14.37-4.67,29-8.91,43.87-12.71,24.66-121.19,73.23-224.83,100.51-276.67a34.52,34.52,0,0,1,21.71-17.36c42.5-11,153.15-33.08,266.32-1.86a69.13,69.13,0,0,1,49.69,78.08c-8.56,51.82-24.42,127.34-52.34,203.55,13.87,2,27.59,4.27,41,6.73,21.9-61.32,39.62-131.38,51.45-203.67a109.81,109.81,0,0,0-79-123.94C1308.48,128.63,1262.16,124.11,1220.26,124.11Zm231.63,144.25h0Zm-363.84-51.94,0,0Z"/><path class="cls-2" d="M1156.42,371.21c-18.29,0-18.32,28.42,0,28.42S1174.74,371.21,1156.42,371.21Z"/><path class="cls-2" d="M1223.54,368.64c-18.28,0-18.31,28.42,0,28.42S1241.86,368.64,1223.54,368.64Z"/><path class="cls-2" d="M1287.06,378.5c-18.29,0-18.32,28.42,0,28.42S1305.38,378.5,1287.06,378.5Z"/><path class="cls-2" d="M1905.47,761.6a12.5,12.5,0,0,1-9.86-20.17c107.57-138.3,133.07-263.37,135.53-343.94,2.66-87.31-20.4-142.76-20.63-143.32a12.5,12.5,0,0,1,23-9.81c1,2.41,25.2,60,22.67,152.41-2.33,84.62-28.65,215.78-140.82,360A12.49,12.49,0,0,1,1905.47,761.6Z"/><path class="cls-2" d="M2144.3,1660.06c-37.48,0-73.83-3.43-104.86-12.42A17.6,17.6,0,0,1,2034,1645l-196-140.69a17.81,17.81,0,0,1,20.77-29l193.46,138.87c96.14,26.33,250.16-4.11,312.37-18.54a23.69,23.69,0,0,0,14.79-35.4l-207.27-339.54a17.82,17.82,0,1,1,30.41-18.57l207.27,339.55a59.31,59.31,0,0,1-37.15,88.67C2326.67,1641.07,2232.38,1660.06,2144.3,1660.06Z"/><path class="cls-2" d="M1479.42,2124.25a17.82,17.82,0,0,1-16.46-11c-49.53-119.51-232-175.84-233.85-176.4a17.81,17.81,0,0,1,10.27-34.11c8.16,2.45,200.46,61.67,256.49,196.86a17.82,17.82,0,0,1-16.45,24.64Z"/><path class="cls-2" d="M1127.3,2379.93c-49,0-120.15-25.61-145-35.16-18.31,4-51.36,8-66.16-10.79-6.19-7.86-11.06-21.91.83-44.21,11-20.58,51.1-67.3,70.3-89.18L960.91,2166a52,52,0,0,1,7.55-70.9l1.43-1.22a52.32,52.32,0,0,1,60-5.4c16.14,9.25,40.9,19.06,69.81,15.68l141-187.87a17.82,17.82,0,1,1,28.49,21.4L1123.8,2131.34a17.81,17.81,0,0,1-11,6.82c-42.35,7.86-78.12-5.88-100.65-18.8a16.66,16.66,0,0,0-19.09,1.55l-1.42,1.22a16.31,16.31,0,0,0-2.37,22.26l35.21,46.27a17.8,17.8,0,0,1-.91,22.66c-17.53,19.6-65.22,74.56-75.17,93.22a39,39,0,0,0-2.43,5.37c6.76,1.25,21.18.05,33.17-3a17.9,17.9,0,0,1,11,.69c44.86,17.74,126,42.36,152.94,32.85,31.42-11.09,79.15-66.53,94.89-87a17,17,0,0,1,3-3l219.77-176a17.81,17.81,0,1,1,22.27,27.81l-218.13,174.7c-10.84,13.85-65.36,81.38-109.92,97.1C1147.18,2378.76,1137.74,2379.93,1127.3,2379.93Z"/><path class="cls-2" d="M1530.9,2095a17.81,17.81,0,0,1-16.61-11.36c-75.61-194.59-257.18-214.88-264.87-215.65a17.81,17.81,0,0,1,3.44-35.46c8.57.82,210.88,22.65,294.64,238.2a17.81,17.81,0,0,1-16.6,24.27Z"/><path class="cls-16" d="M1464.57,2462.3a25.47,25.47,0,0,1-11.07-2.53c-2.23-1.08-54.8-26.88-85.52-75.49a25.44,25.44,0,0,1-.81-25.81l59.17-108.16a25.44,25.44,0,0,1,35.2-9.74l73.8,43.26a25.45,25.45,0,0,1,10.41,32.24l-57.9,131.07a25.5,25.5,0,0,1-23.28,15.16Zm-45.08-93.43c10.57,13.05,23,23.51,33.57,31.05l37-83.66-31.61-18.53Z"/><path class="cls-2" d="M1464.57,2474.8a38.24,38.24,0,0,1-16.52-3.78c-2.34-1.13-58-28.39-90.64-80.07a38,38,0,0,1-1.21-38.48l59.17-108.16a38,38,0,0,1,52.49-14.53l73.8,43.27a37.93,37.93,0,0,1,15.52,48.07l-57.9,131.07a38,38,0,0,1-34.71,22.61Zm-15.93-225.22a12.87,12.87,0,0,0-11.34,6.73l-59.17,108.16a13,13,0,0,0,.42,13.13c28.87,45.69,78.29,69.9,80.38,70.91a13,13,0,0,0,17.48-6.42l57.9-131.07a12.93,12.93,0,0,0-5.29-16.4l-73.81-43.27A13,13,0,0,0,1448.64,2249.58Zm4.42,162.85a12.49,12.49,0,0,1-7.28-2.35,184.42,184.42,0,0,1-36-33.34,12.48,12.48,0,0,1-1.25-13.86l38.91-71.14a12.5,12.5,0,0,1,17.29-4.79l31.61,18.53a12.51,12.51,0,0,1,5.11,15.84l-37,83.66a12.5,12.5,0,0,1-8.14,7A12.71,12.71,0,0,1,1453.06,2412.43Zm-18.44-45.16a154.43,154.43,0,0,0,13.49,12.94l26-58.8L1463.2,2315Z"/><path class="cls-2" d="M1651.62,2224.35c3.81,10.43,6,21.5,7.64,32.62a303.46,303.46,0,0,1,2.82,33.78c.4,11.35.07,22.73-.55,34.13-.3,5.71-.89,11.37-1.33,17.1l-2,17.07-34.39-9.3,6-14.83c1.8-5,3.77-10,5.46-15.07,3.39-10.14,6.57-20.43,9.07-30.9a289.9,289.9,0,0,0,6-31.88C1651.63,2246.3,1652.51,2235.36,1651.62,2224.35Z"/><path class="cls-2" d="M1695.82,2114.39a660.76,660.76,0,0,0-3.9-118.86c-4.78-39.23-12.55-78.38-18.58-118.48a15.58,15.58,0,0,1,2.61-11.21l1-1.48h0c3.06-4,5.51-6.76,8.34-9.91s5.58-6,8.44-8.87q8.63-8.6,18-16.31a231.2,231.2,0,0,1,40.77-27c29.11-15.19,63.21-23.47,96.88-20.67a184,184,0,0,1,48.78,10.64l5.82,2.14,1.48.57,1.77.82,3.51,1.7a48.83,48.83,0,0,1,6.57,3.86l3.13,2.08,2.82,2.28a98.51,98.51,0,0,1,18.61,20c10.23,14.15,17.12,29,23.07,43.84a411.54,411.54,0,0,1,14.54,44.91c8,30.08,13.43,60.33,17.75,90.59s7.34,60.58,9.59,90.89c4.45,60.63,5.73,121.29,4.62,181.92s-4.59,121.22-12.47,181.88c-2,15.17-4.35,30.35-7.3,45.57s-6.32,30.46-11.63,46.08c-2.72,7.8-5.62,15.77-10.83,24.19-5.3,8.15-11.78,15.75-19.46,21.36-15.25,11.64-32.61,17.27-49.09,20.3s-32.87,3.47-48.8,2.93a387.79,387.79,0,0,1-47-4.71c-30.78-4.84-60.7-12.19-90.1-20.87q-22.05-6.51-43.72-14.06c-7.24-2.5-14.43-5.11-21.62-7.8l-10.79-4.14-5.62-2.25a57.33,57.33,0,0,1-7.2-3.71A68.81,68.81,0,0,1,1604,2542c-1.34-2.17-2.82-4.28-3.94-6.57l-3.19-6.94c-1.57-4.78-3.17-9.61-3.75-14.47-3.19-19.64,1.28-37.53,7-53.31a17.81,17.81,0,0,1,33.46,12.22l0,.09-.11.29c-4.54,12.24-7,24.75-5.16,35,.23,2.65,1.18,4.93,1.82,7.33.55,1.08,1.06,2.17,1.54,3.28s1.29,2,1.86,3.09a33.27,33.27,0,0,0,10.62,10,23.32,23.32,0,0,0,2.79,1.48l4.85,1.94,10.27,3.92c6.89,2.57,13.82,5.08,20.79,7.48q20.92,7.24,42.13,13.5c28.25,8.32,56.86,15.27,85.49,19.73a349.17,349.17,0,0,0,42.72,4.27c14.08.49,28,0,41-2.41s24.87-6.7,33.55-13.42c4.53-3.21,7.77-7.36,10.76-11.7,2.78-4.34,5.23-10.56,7.39-16.93,4.38-12.85,7.52-27.11,10.32-41.32s5-28.83,6.91-43.46c7.56-58.6,10.83-118.27,12-177.81s-.3-119.26-4.72-178.54c-2.22-29.64-5.23-59.18-9.4-88.43s-9.49-58.26-17-86.28a370.79,370.79,0,0,0-13.23-40.82c-5.19-13-11.24-25.6-18.7-35.8a62.21,62.21,0,0,0-11.89-12.95l-1.54-1.29-1.59-1a17.58,17.58,0,0,0-3.13-1.85l-1.56-.76-.77-.4-1.15-.43-4.77-1.74a147.51,147.51,0,0,0-39-8.52c-26.41-2.14-53,4.2-77.14,16.74a194,194,0,0,0-34.22,22.75c-5.35,4.38-10.49,9-15.38,13.93-2.42,2.46-4.82,4.93-7.09,7.47s-4.67,5.34-6.2,7.32h0l3.64-12.69c.59,39.6,3.1,79.84,2.59,120.5A673.88,673.88,0,0,1,1700.74,2115a2.48,2.48,0,0,1-4.92-.61Z"/><path class="cls-17" d="M1714.81,2267.85c41.34-1.39,126-.35,207.17,24.28a14.23,14.23,0,0,1,7.66,21.55c-15.1,22.51-48.52,63.18-103.49,83.9a14,14,0,0,1-12.66-1.52c-16.69-11-64.85-45.7-109.51-105.43A14.23,14.23,0,0,1,1714.81,2267.85Z"/><path class="cls-2" d="M1821.39,2416.26a32.27,32.27,0,0,1-17.71-5.33c-19-12.56-68.15-48.36-114-109.63a32,32,0,0,1,24.5-51.26h0c43.85-1.48,129.83-.16,212.94,25A31.69,31.69,0,0,1,1948,2295a32.21,32.21,0,0,1-3.57,28.65c-16.22,24.21-52.35,68.17-112,90.65A31.39,31.39,0,0,1,1821.39,2416.26Zm-99-130.81c40,51.88,81.56,82.78,99.38,94.73,46.14-18,75.52-51.48,90.29-72.41C1839.52,2286.63,1764.84,2284.48,1722.41,2285.45Zm-7.6-17.6h0Z"/><g class="cls-4"><path class="cls-2" d="M1863.26,2368.7c-16.26-10.74-62.42-44-106.1-101-16.66-.4-31.14-.23-42.35.15a14.23,14.23,0,0,0-10.83,22.78c44.66,59.73,92.82,94.41,109.51,105.43a14,14,0,0,0,12.66,1.52,203.58,203.58,0,0,0,49.71-27.34A14,14,0,0,1,1863.26,2368.7Z"/></g><path class="cls-5" d="M1847.6,2146a25.46,25.46,0,0,1-25.45-25.45V1805.75c0-14.06,11.4-8.6,25.45-8.6s25.45-5.46,25.45,8.6v314.81A25.45,25.45,0,0,1,1847.6,2146Z"/><path class="cls-2" d="M1847.6,2158.5a38,38,0,0,1-37.95-37.94V1805.75c0-7.33,2.21-13,6.55-17,6.84-6.21,15.52-5.37,23.18-4.64a86.82,86.82,0,0,0,16.44,0c7.67-.73,16.35-1.57,23.18,4.64,4.35,4,6.55,9.66,6.55,17v314.81A38,38,0,0,1,1847.6,2158.5Zm-12.95-349.71v311.77a13,13,0,0,0,25.9,0V1808.79c-.8.07-1.61.14-2.33.22-3.14.3-6.69.64-10.62.64s-7.48-.34-10.61-.64C1836.26,1808.93,1835.45,1808.86,1834.65,1808.79Z"/><line class="cls-5" x1="1822.15" y1="1819.7" x2="1873.05" y2="1867.42"/><path class="cls-2" d="M1873.05,1874.92a7.47,7.47,0,0,1-5.13-2l-50.9-47.72a7.5,7.5,0,1,1,10.26-10.94l50.9,47.72a7.5,7.5,0,0,1-5.13,13Z"/><line class="cls-5" x1="1822.15" y1="1878.15" x2="1873.05" y2="1925.86"/><path class="cls-2" d="M1873.05,1933.36a7.47,7.47,0,0,1-5.13-2l-50.9-47.71a7.5,7.5,0,0,1,10.26-10.95l50.9,47.72a7.5,7.5,0,0,1-5.13,13Z"/><line class="cls-5" x1="1822.15" y1="1936.59" x2="1873.05" y2="1984.31"/><path class="cls-2" d="M1873.05,1991.81a7.51,7.51,0,0,1-5.13-2l-50.9-47.72a7.5,7.5,0,1,1,10.26-10.94l50.9,47.71a7.51,7.51,0,0,1-5.13,13Z"/><line class="cls-5" x1="1822.15" y1="1995.03" x2="1873.05" y2="2042.75"/><path class="cls-2" d="M1873.05,2050.25a7.47,7.47,0,0,1-5.13-2L1817,2000.5a7.5,7.5,0,1,1,10.26-10.94l50.9,47.72a7.5,7.5,0,0,1-5.13,13Z"/><line class="cls-5" x1="1822.15" y1="2053.47" x2="1873.05" y2="2101.19"/><path class="cls-2" d="M1873.05,2108.69a7.47,7.47,0,0,1-5.13-2l-50.9-47.72a7.5,7.5,0,1,1,10.26-10.94l50.9,47.72a7.5,7.5,0,0,1-5.13,13Z"/><g class="cls-4"><path class="cls-2" d="M868.63,589.23s790.63-335.87,1304.81,649.45c9.63-16.2,13.89-27.22,13.89-27.22-340.6-965.38-1318.7-687.13-1318.7-687.13S671.82,462.4,615,687.21l33.13-16.8C725.51,544.23,868.63,589.23,868.63,589.23Z"/></g><path class="cls-2" d="M982.86,926.38c-42.58-14.18-90.91,28.55-108,95.46s3.67,132.64,46.25,146.83,90.91-28.55,107.95-95.46S1025.44,940.57,982.86,926.38Z"/><path class="cls-5" d="M975.2,954.29c-14.82,3.26-24.52,25.19-21.66,49s17.2,40.45,32,37.2,24.52-25.18,21.65-49S990,951,975.2,954.29Z"/><path class="cls-18" d="M905,1090.86c-7.38,3.82-10.25,16.45-6.39,28.2s13,18.18,20.36,14.35,10.25-16.45,6.39-28.2S912.42,1087,905,1090.86Z"/><path class="cls-2" d="M1269.42,1101.68c-2.86-12.26,1.12-25.5,7.19-36.14,6.15-10.83,14.56-19.91,23.89-27.57a130,130,0,0,1,30.87-18.78,135.22,135.22,0,0,1,35.45-10.21,111.66,111.66,0,0,1,39,1.24,88.74,88.74,0,0,1,37.41,17.9,79.85,79.85,0,0,1,24.42,33.82,74.88,74.88,0,0,1,3.86,39.74,16,16,0,0,1-31.06,1.75l-.53-1.75c-5-16.42-13.54-29-25.21-36.6-11.41-7.78-26.43-11.35-43.69-11.08a143.42,143.42,0,0,0-52.45,12.16,110.45,110.45,0,0,0-23.61,14c-7,5.72-13,12.43-16.21,21.53l-.18.49a4.75,4.75,0,0,1-6.06,2.91A4.81,4.81,0,0,1,1269.42,1101.68Z"/><g class="cls-4"><path class="cls-2" d="M2352.3,697.75l-1.44,6C2319,837,2149.61,878.11,2060.09,774.39c-193-223.55-424.8-325.8-639-366.44a1271.47,1271.47,0,0,0,30.84-139.59,127.56,127.56,0,0,0-91.87-144c-57.26-15.8-113.68-19.45-162.69-17.62,37.05,1.44,76.76,6.55,116.88,17.62a127.57,127.57,0,0,1,91.88,144c-2.92,17.83-6.45,37.1-10.71,57.39-8.67,41.34-47,69.91-89,65.79-115.91-11.37-223-6.66-311.16,3.57a1116.63,1116.63,0,0,1,77-186.81,16.83,16.83,0,0,1,10.59-8.45,564.42,564.42,0,0,1,114.14-16.78c-70.92-3.17-131.46,9.41-160,16.78a16.83,16.83,0,0,0-10.59,8.45c-14.19,27-29.58,55.19-47.39,104.47-11.5,31.82-37.08,57-69.66,66.1-28.2,7.89-55,20.62-76.56,44.06-23.66,57.49-32,93.79-32,93.79l45.69,23.72c131.34-53.63,306-94.17,507.11-64.66-.73,2-1.43,4.07-2.18,6.11,15.54,2.43,30,5,43,7.58.8-2.13,1.56-4.25,2.34-6.38a989.65,989.65,0,0,1,125,32.95c534.36,178.33,688.91,732.75,688.91,732.75,98.79-124.91,131.46-354.14,142.27-492.1A336.08,336.08,0,0,0,2352.3,697.75Z"/></g><line class="cls-19" x1="1228.85" y1="1892.41" x2="1266.48" y2="1911.32"/><path class="cls-2" d="M1048.47,2277.2a316.2,316.2,0,0,1-24.81,34.37c-9.33,11-19.32,21.74-33.23,31l-1,.65A18.4,18.4,0,1,1,969,2312.62a18.75,18.75,0,0,1,7.69-2.92c11.16-1.54,23.83-6.37,35.92-12.13A307.18,307.18,0,0,0,1048.47,2277.2Z"/><path class="cls-5" d="M370.45,673.45a205.68,205.68,0,0,0,56.6-119.25c13.42-113.34-67.58-216.1-180.92-229.52S30,392.26,16.61,505.6,84.19,721.69,197.53,735.12a205.85,205.85,0,0,0,90.41-9.4l88.64,41.81Z"/><g class="cls-20"><path class="cls-5" d="M241.46,364.15c105.87,12.54,183.5,103,182.33,207.29a208.11,208.11,0,0,0,3.79-21.74C441,436.36,360,333.6,246.67,320.18S30.57,387.75,17.15,501.09a207.29,207.29,0,0,0-1.42,22.13C38.9,421.52,135.55,351.61,241.46,364.15Z"/></g><path class="cls-2" d="M376.58,782.7a15.18,15.18,0,0,1-6.47-1.45L286.9,742a219.92,219.92,0,0,1-91.16,8.18C74.28,735.79-12.83,625.27,1.55,503.81S126.49,295.25,247.92,309.62A221.79,221.79,0,0,1,386,679l5.7,87.52a15.17,15.17,0,0,1-15.13,16.15Zm-88.64-72.15a15.2,15.2,0,0,1,6.47,1.45l65.37,30.84-4.46-68.4a15.12,15.12,0,0,1,4.23-11.53,191.47,191.47,0,0,0-115.2-323.17C139.51,327.32,44.09,402.52,31.67,507.38S94.46,707.64,199.31,720.06a189.62,189.62,0,0,0,83.77-8.71A15.33,15.33,0,0,1,287.94,710.55Z"/><g class="cls-4"><path class="cls-2" d="M372,671.77A238.72,238.72,0,0,1,22.82,474.16a208.46,208.46,0,0,0-6.21,31.44C3.19,618.93,84.19,721.69,197.53,735.12a205.85,205.85,0,0,0,90.41-9.4l88.64,41.81-6.13-94.08C371,672.9,371.49,672.32,372,671.77Z"/></g><path class="cls-21" d="M287.18,471.86h0c-17.88-17.88-46.88-14.68-64.76,3.21l-2.78,2.78-2.79-2.78C199,457.18,170,454,152.09,471.86h0a45.81,45.81,0,0,0,0,64.77l2.78,2.78,56.23,56.23a12.08,12.08,0,0,0,17.07,0l56.23-56.23,2.78-2.78A45.79,45.79,0,0,0,287.18,471.86Z"/></g></g></svg>