<svg xmlns="http://www.w3.org/2000/svg" xmlns:xlink="http://www.w3.org/1999/xlink" viewBox="0 0 2655.76 3023.37"><defs><style>.cls-1{fill:none;}.cls-2{fill:#dd3740;}.cls-3{opacity:0.3;}.cls-4{fill:#000072;}.cls-5{fill:#995837;}.cls-6{fill:#fff;}.cls-7{fill:#9d6342;}.cls-8{fill:#f2e56e;}.cls-9{fill:#545cb3;}.cls-10{opacity:0.5;}.cls-11{fill:#3aa5fc;}.cls-12{clip-path:url(#clip-path);}.cls-13{fill:#f9c4b2;}.cls-14{fill:#4c9bff;}.cls-15{fill:#c67842;}.cls-16{fill:#494963;}.cls-17{fill:#f73737;}.cls-18{opacity:0.6;}.cls-19{fill:#0fd15d;}.cls-20{fill:#b199c5;}</style><clipPath id="clip-path"><path class="cls-1" d="M1687.87,1333.07l-505.49-115.85s-172.36,212.4-290.8,613.05c0,0,241.4,361.07,869.29,200.32Z"/></clipPath></defs><title>spreading-kindness</title><g id="Layer_2" data-name="Layer 2"><g id="Layer_1-2" data-name="Layer 1"><path class="cls-2" d="M679,1830.27s183.17-112.84,427.07,28-7.94-320.55-7.94-320.55S676.59,1545.47,679,1830.27Z"/><g class="cls-3"><path class="cls-4" d="M679,1830.27s183.17-112.84,427.07,28-7.94-320.55-7.94-320.55S676.59,1545.47,679,1830.27Z"/></g><path class="cls-4" d="M1106.05,1875.22a16.79,16.79,0,0,1-8.43-2.27c-121.09-70-225.91-74-292.54-65-72.38,9.74-116.81,36.44-117.25,36.71a16.9,16.9,0,0,1-17.69-28.79c7.83-4.82,194.62-116.46,444.38,27.81a16.9,16.9,0,0,1-8.47,31.53Z"/><path class="cls-5" d="M1957.85,2948c-225.23-30.56-450.47,14.63-450.47,14.63-3.76-48.13-3-129.37,28.44-215.73l228.46-38.62,119.09,135.16S1953.65,2875,1957.85,2948Z"/><path class="cls-6" d="M1947.72,3007.61H1513.27s-3.71-16.85-5.89-44.94c0,0,225.24-45.19,450.47-14.63C1958.87,2965.47,1956.07,2985.31,1947.72,3007.61Z"/><path class="cls-7" d="M1250.68,2807.76c-7.34,36.26-16.32,70.29-29.78,98.38a57.25,57.25,0,0,1-51.51,32.54l-315.84.33c6.66-28.91,25.87-64.1,77.57-82.83l49.82-143.46h222.92S1232.62,2754,1250.68,2807.76Z"/><path class="cls-6" d="M1226.88,2985.06H851.57a123.24,123.24,0,0,1,2-46l315.84-.33a57.25,57.25,0,0,0,51.51-32.54c13.46-28.09,22.44-62.12,29.78-98.38C1269.7,2864.19,1276.94,2934.38,1226.88,2985.06Z"/><path class="cls-8" d="M931.12,2856.18c41.52-15.06,104.08-19.5,198-1.45"/><path class="cls-4" d="M1693.67,2833.45l-8.25-12.53c2.09-1.38,52.07-33.68,118.55-19.1l-3.21,14.65C1740.68,2803.29,1694.13,2833.15,1693.67,2833.45Z"/><path class="cls-4" d="M1675.37,2803.08l-8-12.69c1.85-1.16,45.83-28.43,105.33-22.38l-1.5,14.92C1717,2777.45,1675.78,2802.83,1675.37,2803.08Z"/><rect class="cls-4" x="1759.45" y="2693.23" width="25" height="164.47" transform="translate(-1403.29 1903.17) rotate(-42.08)"/><rect class="cls-4" x="1655.61" y="2717.47" width="20" height="139.2" transform="translate(-1192.94 1247.36) rotate(-30.83)"/><rect class="cls-4" x="1613.48" y="2731.85" width="25" height="138.61" transform="translate(-1245.9 1303.62) rotate(-32.33)"/><path class="cls-4" d="M1618.52,2879.5a102.33,102.33,0,0,1,13.6-12.31c4.77-3.54,9.63-7,14.7-10.06,5-3.27,10.32-5.75,15.54-8.62,5.3-2.59,10.75-4.86,16.17-7.27,21.89-9,45-14.42,68.11-18,23.23-3.78,46.64-4.54,70-4.39,11.63.4,23.23,1.25,34.83,2.07,11.48,1.59,23,2.93,34.42,4.77a16.89,16.89,0,0,1-4,33.51l-1-.08c-11-.9-21.87-2.3-32.79-3.45l-32.73-2.36c-21.78-.65-43.65-1.41-65.25.51-21.62,1.5-43.2,4.43-64.13,9.86l-15.55,4.53c-5,1.84-10.31,3.35-15.21,5.53-5.08,1.9-10,4.16-14.8,6.52a143.8,143.8,0,0,0-13.54,7.86l-.49.34a6,6,0,0,1-7.88-8.91Z"/><path class="cls-4" d="M1507.37,2974a12.5,12.5,0,0,1-2.44-24.75c2.27-.46,229.87-45.2,454.59-14.73a12.5,12.5,0,0,1-3.36,24.77c-220.44-29.9-444.09,14-446.32,14.47A13,13,0,0,1,1507.37,2974Z"/><path class="cls-4" d="M1947.73,3023.37H1513.29a16.89,16.89,0,0,1-16.5-13.25c-1.16-5.26-27.83-130.31,23.16-270.1a16.89,16.89,0,0,1,13-10.87l228.49-38.61A16.88,16.88,0,0,1,1777,2696l116.74,132.52c42.51,20.73,107.57,83.23,69.83,183.86A16.88,16.88,0,0,1,1947.73,3023.37Zm-420.22-33.79h408.08c26.94-91.32-55.52-130.16-59.17-131.83a17.1,17.1,0,0,1-5.73-4.23l-112.85-128.1-209.4,35.39C1513.82,2862.57,1522.54,2955.92,1527.51,2989.58Z"/><g class="cls-3"><path class="cls-4" d="M1947.72,3006.49H1513.27s-27.32-123.91,22.55-260.66l228.46-38.62,28.24,32.05c-75.93,9.13-157.94,24.24-175.46,47.79-34.18,46,54.3,69.32,54.3,69.32s-42.62,35.87,50.3,57.59c52.33,12.21,154.47,14.91,233.68,14.86C1960.12,2950.26,1959.16,2976,1947.72,3006.49Z"/></g><path class="cls-4" d="M853.54,2950.39a12.5,12.5,0,0,1,0-25l315.85-.35a45,45,0,0,0,40.25-25.45c11.23-23.4,20.38-53.73,28.8-95.44a12.5,12.5,0,0,1,24.51,4.95c-8.84,43.79-18.62,76-30.77,101.31A70.13,70.13,0,0,1,1169.4,2950l-315.85.35Z"/><path class="cls-4" d="M1106.06,2822.27a7.55,7.55,0,0,1-3.91-1.1c-38.93-23.84-109.11-12.51-109.81-12.39a7.5,7.5,0,1,1-2.47-14.79c3.1-.53,76.47-12.35,120.11,14.38a7.5,7.5,0,0,1-3.92,13.9Z"/><path class="cls-4" d="M1120.62,2800.24a7.49,7.49,0,0,1-4.56-1.54c-40.62-31.15-108.2-14.19-108.87-14a7.5,7.5,0,0,1-3.77-14.52c3.05-.79,75.29-19,121.77,16.63a7.5,7.5,0,0,1-4.57,13.45Z"/><rect class="cls-4" x="928.93" y="2765.46" width="139.49" height="25" transform="matrix(0.31, -0.95, 0.95, 0.31, -1951.77, 2874.25)"/><rect class="cls-4" x="1046.17" y="2767.18" width="144.11" height="25" transform="translate(-1874.36 2926.4) rotate(-70.89)"/><g class="cls-3"><path class="cls-4" d="M1203.85,2711.59H980.93L931.1,2855.07h0c-39.65,14.37-60.19,38.43-70.61,61.9l82.37-63.35s115.44-32.69,184,2.56c68.15,35,81.5,98-269.71,69.2-10.83,30.91-5.63,58.57-5.63,58.57h375.31C1324.63,2885,1203.85,2711.59,1203.85,2711.59Z"/></g><path class="cls-4" d="M1128.07,2859.15c-30.19-3-60.25-5.42-90-5.25L1027,2854l-11.06.57c-3.67.23-7.37.27-11,.66l-10.9,1.17c-7.3.59-14.35,2.15-21.5,3.16-3.52.7-7,1.58-10.46,2.35l-5.21,1.2-5,1.56c-27.18,7.57-51.21,22-65.91,42.76a96.45,96.45,0,0,0-15.06,35.09,110.87,110.87,0,0,0-2.42,19.46c0,3.29-.12,6.57,0,9.81.08,1.62.17,3.24.33,4.8s.38,3.34.48,4L851.57,2966l93.83.34,93.83.55c62.55.36,125.1.11,187.65.19l-12,5A128.63,128.63,0,0,0,1234,2946.4a123.58,123.58,0,0,0,11-30.11c2.48-10.55,3.17-21.66,3.1-32.81a189.05,189.05,0,0,0-3.5-33.79c-4.19-22.58-11.67-44.94-21.1-66.55-4.7-10.82-9.9-21.46-15.52-31.87s-11.8-20.9-18-30l13.86,7.24H980.93l16-11.35-49.83,143.47a16.9,16.9,0,1,1-31.92-11.09L965,2706.05a16.92,16.92,0,0,1,16-11.35h223.16a16.6,16.6,0,0,1,13.62,7.24c7.61,11.27,13.8,21.93,20,33.26s11.68,22.71,16.79,34.45c10.21,23.47,18.52,48,23.33,73.86a221.13,221.13,0,0,1,4.06,39.52c.1,13.39-.76,27-3.87,40.48a157.16,157.16,0,0,1-14.27,39,162.47,162.47,0,0,1-24.81,33.35,16.14,16.14,0,0,1-11.67,5h-.35c-62.55.07-125.1-.18-187.65.19l-93.83.54-93.83.34h-.25a17.6,17.6,0,0,1-17.4-14.62c-.53-3.05-.74-4.94-1-7.27s-.36-4.42-.47-6.6c-.22-4.36-.2-8.68,0-13a146,146,0,0,1,3.61-25.73,125.79,125.79,0,0,1,22-47.65c10.55-14.28,24.48-25.64,39.34-34a163.54,163.54,0,0,1,46.73-17.65l6-1.4,6-1c4-.62,8-1.34,12-1.86l12-1.11,6-.52,6-.13,11.88-.26c4-.07,7.88.21,11.81.3l11.77.42,11.68,1.09c31.08,2.94,61.45,9.08,91.09,17.18a5.65,5.65,0,0,1-2,11.07Z"/><path class="cls-9" d="M1684.8,1919.41,942.32,1772.34s-130.4,399,28.81,930c0,0,86.8,99.36,242.48,11.26l71.2-403.06,74.82-21.53,168.95,481.31,261.87-41S1789.94,2155.09,1684.8,1919.41Z"/><g class="cls-10"><path class="cls-6" d="M1006.13,2707.37c-153.1-510.61-38.41-899.13-29.38-928.21l-34.43-6.82s-130.4,399,28.81,930c0,0,38.83,44.32,111,47.46C1032.51,2737.46,1006.13,2707.37,1006.13,2707.37Z"/><polygon class="cls-6" points="1394.63 2294.04 1364.43 2302.72 1528.58 2770.35 1560.09 2765.41 1394.63 2294.04"/></g><g class="cls-3"><path class="cls-4" d="M1209.41,2333.11l75.3-22.11-71.1,402.63c-155.68,88.1-242.47-11.25-242.47-11.25-.68-2.31-1.4-4.63-2-6.9,37.85,17.33,82.88,23.22,125.51-8.4C1195.5,2612.26,1209.41,2333.11,1209.41,2333.11Z"/></g><g class="cls-3"><path class="cls-4" d="M1790.45,2729.32l-261.87,41-166.35-474c18.3,50.74,130.34,348.43,263.76,410.84,81.24,38,131.34-57.59,159.78-149.74C1790.4,2659,1790.45,2729.32,1790.45,2729.32Z"/></g><g class="cls-3"><path class="cls-4" d="M906.07,1950.75c14.92-113,36.25-178.41,36.25-178.41l742.46,147.08c17.57,39.39,32.25,88.29,44.41,142.36C1587.76,2103.43,1225.82,2175.7,906.07,1950.75Z"/></g><path class="cls-4" d="M1204.14,2326.72l76-32.4a17,17,0,1,1,9.29,32.49l-81.67,12.66a6.68,6.68,0,0,1-3.64-12.75Z"/><path class="cls-4" d="M1528.57,2787.25a16.91,16.91,0,0,1-15.94-11.3L1349,2309.68l-49.36,14.21-69.37,392.68a16.91,16.91,0,0,1-8.31,11.77c-165.74,93.79-262.57-13.76-263.53-14.86a17,17,0,0,1-3.46-6.26C872,2430.44,868.48,2190,880.17,2037c12.71-166.25,44.73-265.7,46.09-269.86a16.89,16.89,0,0,1,19.34-11.32l742.48,147.07a16.9,16.9,0,0,1,12.15,9.69c105.39,236.24,107.09,793.18,107.11,816.78a16.89,16.89,0,0,1-14.28,16.7l-261.87,41A16.72,16.72,0,0,1,1528.57,2787.25Zm-168.94-515.11a16.91,16.91,0,0,1,15.94,11.3l164.29,468,233.58-36.6c-1-89.26-10.55-567.35-100.61-780.62l-718.6-142.34c-20.65,75.44-105.51,439.73,31.93,901.73,13.84,13.69,87.09,76.17,212.21,9.09l69.8-395.11a16.87,16.87,0,0,1,12-13.3L1355,2272.8A16.9,16.9,0,0,1,1359.63,2272.14Z"/><path class="cls-11" d="M1760.86,2030.59C1133,2191.34,891.59,1830.27,891.59,1830.27q8.32-28.17,17-55.13c15.45-48.13,31.62-93.21,47.93-135.3q19.26-49.46,38.77-93.31c20.37-46.2,40.59-87.66,59.8-124.35,70.62-135.11,127.29-205,127.29-205l505.5,115.85,25.83,246.77,14,134.24,8.4,80.37,14.15,135.16Z"/><path class="cls-6" d="M1793,1920.15q-21.59,5.14-42.72,9.46c-91.57,18.87-176.34,26.55-253.72,26.55-163.78,0-294.5-34.47-386.84-70.86-93.12-36.69-160.75-80.13-201.15-110.16,15.45-48.13,31.62-93.21,47.93-135.3.68.58,1.31,1.16,1.93,1.78,1.4,1.4,73.47,69,207.18,120.39,172.67,66.42,364.5,77.28,570.52,32.44q12.75-2.75,25.49-5.79A67.59,67.59,0,0,1,1793,1920.15Z"/><path class="cls-6" d="M1577.79,1723.52c-163.77,0-294.51-34.5-386.83-70.87-157.27-62-241.82-143.17-245.35-146.59a67.58,67.58,0,0,1,94.05-97.07c1.43,1.37,73.49,68.94,207.19,120.38,179.76,69.17,380.29,78.11,596,26.65a67.58,67.58,0,0,1,31.37,131.47C1766.21,1713.27,1667.06,1723.51,1577.79,1723.52Z"/><path class="cls-4" d="M1456.66,2088.38c-166.29,0-289.66-40.2-373.52-82.59-141.17-71.36-203-162.3-205.61-166.13a16.87,16.87,0,0,1-2.15-14.18c118-399.3,286.76-610.12,293.88-618.9a16.89,16.89,0,0,1,16.89-5.82l505.49,115.85a16.87,16.87,0,0,1,13,14.7l73,697.52a16.89,16.89,0,0,1-12.61,18.13C1649.34,2076.58,1546.7,2088.38,1456.66,2088.38ZM910.16,1827c16.26,21.17,76.69,92.66,190.1,149.54,122,61.19,332,117.39,642.28,41.19l-70.22-670.93-483.15-110.73C1157.41,1278.45,1013.27,1482.62,910.16,1827Z"/><g class="cls-12"><path class="cls-1" d="M1496.56,1956.17c-163.77,0-294.51-34.5-386.83-70.86-157.27-62-241.82-143.17-245.35-146.59a67.58,67.58,0,0,1,94-97.08c1.43,1.38,73.49,68.94,207.19,120.39,179.76,69.17,380.29,78.1,596,26.64A67.59,67.59,0,0,1,1793,1920.15C1685,1945.93,1585.83,1956.16,1496.56,1956.17Z"/><path class="cls-1" d="M1577.79,1723.52c-163.77,0-294.51-34.5-386.83-70.87-157.27-62-241.82-143.17-245.35-146.59a67.58,67.58,0,0,1,94.05-97.07c1.43,1.37,73.49,68.94,207.19,120.38,179.76,69.17,380.29,78.11,596,26.65a67.58,67.58,0,0,1,31.37,131.47C1766.21,1713.27,1667.06,1723.51,1577.79,1723.52Z"/></g><ellipse class="cls-13" cx="1470.16" cy="1337.09" rx="138.77" ry="197.91" transform="translate(-237.96 2352.72) rotate(-73.02)"/><path class="cls-14" d="M1509.5,1520.75a313.12,313.12,0,0,1-91.14-14C1291.51,1468,1214.9,1363.15,1243.94,1268c14.61-47.84,53.34-84.19,109.06-102.35,50.88-16.6,110.88-16,169,1.77,126.85,38.73,203.47,143.59,174.42,238.72C1674.46,1478,1599.49,1520.75,1509.5,1520.75ZM1431.7,1231c-19.5,0-38.14,2.69-54.76,8.12-18,5.86-49.63,20.36-59.13,51.48-15.85,51.92,40.52,117.08,123.1,142.3s165.75,2.65,181.61-49.27-40.53-117.09-123.11-142.3A233.49,233.49,0,0,0,1431.7,1231Zm227.75,163.91h0Z"/><path class="cls-4" d="M1509.5,1537.65a329.28,329.28,0,0,1-96.07-14.74c-64.82-19.8-119.65-56.87-154.38-104.41-35.8-49-46.9-104.19-31.27-155.41,16.26-53.26,58.87-93.56,120-113.49,54.14-17.66,117.76-17.06,179.13,1.68,135.9,41.5,217.45,155.62,185.65,259.81C1689.07,1488,1609.37,1537.65,1509.5,1537.65Zm-77.72-367.1a237.51,237.51,0,0,0-73.54,11.18c-50.34,16.41-85.19,48.81-98.14,91.23-12.46,40.8-3.14,85.41,26.23,125.61,30.45,41.67,79.09,74.35,137,92a295.59,295.59,0,0,0,86.2,13.27c84.67,0,151.69-40.29,170.73-102.63,26.27-86.07-45.41-181.67-163.2-217.63A292.89,292.89,0,0,0,1431.78,1170.55Zm77.44,289.73A252.22,252.22,0,0,1,1436,1449c-42.94-13.12-80.7-36.64-106.31-66.25-27.49-31.78-37.44-66.28-28-97.15,11.74-38.43,48.93-55.72,70-62.61,18.2-5.94,38.39-9,60-9a252.24,252.24,0,0,1,72.64,11.07c92.92,28.37,153.18,101.67,134.34,163.39C1624.9,1433.65,1572.63,1460.28,1509.22,1460.28Zm-77.52-212.41c-18,0-34.71,2.45-49.52,7.29s-40.94,16.55-48.21,40.35c-5.82,19.07,1.92,42.83,21.26,65.18,21.19,24.49,54.22,44.91,90.62,56,72.56,22.16,147.56,4.37,160.51-38s-39.33-99.06-111.88-121.22A218.31,218.31,0,0,0,1431.7,1247.87Z"/><g class="cls-3"><path class="cls-4" d="M1760.86,2030.59C1133,2191.34,891.59,1830.27,891.59,1830.27q8.32-28.17,17-55.13c15.45-48.13,31.62-93.21,47.93-135.3q10.22-26.22,20.57-50.93c-21.73,174.94,103.83,343.55,299.76,384.48,3.81.82,7.58,1.55,11.39,2.22,219.73,40.45,422.18-119.81,413.64-322.88l-13.23-312.32,25.06,239.43,14,134.24,8.4,80.37,14.15,135.16Z"/></g><g class="cls-3"><path class="cls-4" d="M1807.34,1391.7s-287.61,186.73-504.83,84.16-107.48-301-107.48-301S1380.54,1406.88,1807.34,1391.7Z"/></g><path class="cls-13" d="M1030.86,938.11a86.7,86.7,0,0,1-16.37,1.55c-48.66,0-88.1-40.25-88.1-89.9s39.44-89.91,88.1-89.91a86.3,86.3,0,0,1,45.69,13"/><path class="cls-13" d="M2155.57,1116.67c48.8.34,88.24,36.74,88.24,81.63,0,45.13-39.82,81.67-88.91,81.67a93.45,93.45,0,0,1-52.14-15.54"/><path class="cls-15" d="M2617.09,2200.36c-56.33,131.93-175.56,117.74-175.56,117.74a87.92,87.92,0,0,1-60.19,21.57c-51-1.4-142.31-5.93-160.07-19.93-8.93-7-17.52-18.68-24.91-30.7h-.05s-42.38,1.49-81.38-63.91c-37.41-62.76-42.63-139.6-16.56-207.81,51.31-134.29,162.82-343.55,276.16-555.12-.82-3.24,13.27-93.74-39.82-105.81s-64.35-42.63-39.44-60.34,177.83,4.83,177.83,4.83-2.65,17.13,40.21,12.88,94.71-24.71,108,19.31S2466,1395.83,2466,1395.83L2435.79,1688S2673.43,2068.39,2617.09,2200.36Z"/><g class="cls-3"><path class="cls-4" d="M2497.71,2271.92a88,88,0,0,1-60.2,21.58c-51-1.4-142.3-5.94-160.07-19.94-8.93-7-17.52-18.68-24.9-30.7h-.05s-42.38,1.5-81.39-63.91c-37.41-62.75-31.49-137-5.43-205.25,37.83-99,126.39-260.81,121.07-198.39l67.92-167.65s-7.52,152.8,14.28,164.69,47-71.74,47-71.74l4.17,60.85s46-84.88,45-165.48l-66.4-120.29,5.63-10.53,26.31-49.14c-.83-3.23,13.27-93.74-39.83-105.81-24.71-5.6-40.35-15.2-47.5-25.68-15.4.63-27.46,2.56-33.11,6.52-24.91,17.71-13.66,48.27,39.44,60.34s39,102.57,39.82,105.81c-113.34,211.57-224.85,420.83-276.16,555.12-26.07,68.21-20.85,145,16.56,207.81,39,65.4,81.38,63.91,81.38,63.91h.05c7.39,12,16,23.65,24.91,30.7,17.76,14,109,18.53,160.07,19.93a87.92,87.92,0,0,0,60.19-21.57s89.64,10.66,150.22-72.56C2553.46,2278.58,2497.71,2271.92,2497.71,2271.92Z"/></g><path class="cls-4" d="M2271.71,1786.82c-3.41-1.33,28.81-92.1,72-202.73s80.93-199.25,84.34-197.92-28.81,92.1-72,202.74S2275.13,1788.16,2271.71,1786.82Z"/><path class="cls-4" d="M2373.32,1751.22c.8.29,0,6.34-4,16.79a42.41,42.41,0,0,1-4.41,8.65,12.23,12.23,0,0,1-2.23,2.47,7.44,7.44,0,0,1-1.95,1.21,5.5,5.5,0,0,1-3.38.23,6.81,6.81,0,0,1-4.13-3.49,16.8,16.8,0,0,1-1.43-3.37,53.4,53.4,0,0,1-2-13.07,130.84,130.84,0,0,1,.39-14.47c1.41-19.74,4.86-42.67,8.9-68.15s9.19-53.31,14.82-82.48c11.35-58.33,23-110.85,32.05-148.71s15.79-61,17.58-60.66-1.63,24.26-8.39,62.58-16.88,91.09-28.2,149.32l-15.82,82.06c-4.67,25.2-9.06,48-11.6,66.95-.86,4.85-.92,9.05-1.3,13.22a50.92,50.92,0,0,0,.78,11.44,11.21,11.21,0,0,0,.57,2c.1.33.17.34.17.43-.15.27-.53.48-.65.71s-.29.64-.27.5c-.06.28.07-.43-.25-.95l-.12-.37h0s.13-.09.21-.12a6.07,6.07,0,0,0,1.29-1.16,44.85,44.85,0,0,0,4.72-7C2369.88,1756.47,2372.4,1750.88,2373.32,1751.22Z"/><path class="cls-4" d="M2405.91,1772.34c-.91.12-2.35-5.32-4.17-15.33-.88-5-2-11.16-2.93-18.32-.64-7.27-1.35-15.46-2.14-24.45-2.5-36.3-1.6-86.72,4.74-141.78a1144.76,1144.76,0,0,1,25.19-139.4c8.86-35.17,16.39-56.37,18.16-55.88s-2.52,22.41-9,57.86-14.8,84.48-21.19,138.94-8.61,104-8.54,139.93c.06,8.93.11,17,.16,24.25.26,7,.48,13.14.67,18.31C2407.11,1766.55,2406.82,1772.22,2405.91,1772.34Z"/><path class="cls-4" d="M2173.89,2303.56c-1.08-7.45-1.57-14.53-1.93-21.57s-.47-14-.53-20.87c-.06-13.82.27-27.51.91-41.2a1.5,1.5,0,0,1,2.95-.33c3.83,13,7.95,26,12.4,38.76,2.24,6.35,4.52,12.67,7,18.8s5.06,12.16,7.88,17.6a15.25,15.25,0,1,1-27.06,14.05A15.4,15.4,0,0,1,2174,2304Z"/><path class="cls-4" d="M2519.94,2242.6l-65.11,101.06a15.1,15.1,0,1,1-25.38-16.35,15.31,15.31,0,0,1,2.18-2.66l86.31-83.69a1.3,1.3,0,0,1,2,1.64Z"/><path class="cls-4" d="M2340.59,1289.28c53.69,0,132.51,11.6,132.51,11.6s-2.1,13.56,27.63,13.56c3.68,0,7.86-.21,12.58-.67,21.69-2.15,45.68-8.45,65.81-8.46,19.66,0,35.64,6,42.22,27.76,13.23,44-155.33,62.76-155.33,62.76L2435.79,1688s237.63,380.38,181.3,512.35c-46.35,108.57-135.31,118.18-165.36,118.18a96.83,96.83,0,0,1-10.2-.44,88,88,0,0,1-57.7,21.61c-.83,0-1.66,0-2.49,0-51-1.39-142.31-5.93-160.07-19.93-8.93-7-17.52-18.68-24.91-30.7h-.29c-3.46,0-43.84-1.37-81.14-63.91-37.41-62.76-42.63-139.6-16.56-207.81,51.31-134.29,162.82-343.55,276.16-555.12-.82-3.24,13.27-93.74-39.82-105.81s-64.35-42.62-39.44-60.34c7-5,24.25-6.77,45.32-6.77m0-30c-31.75,0-50.49,3.67-62.66,12.28-19.43,13.83-28.5,34.55-24.31,55.49,5.55,27.75,32.68,49.1,74.44,58.59,13.29,3,19.57,28.52,16.86,68.31-104.34,194.76-221.63,414.11-274.57,552.66-29.51,77.2-22.47,164.63,18.81,233.88,32,53.64,67.94,70.74,89.41,76.13,8,11.48,16,20.26,24.11,26.67,9.19,7.24,28.27,22.27,177.83,26.37,1.09,0,2.2.05,3.32.05a117.91,117.91,0,0,0,67.37-21.17h.53c31.6,0,138.91-9.84,192.95-136.4,27.25-63.82,4.36-171.82-70-330.19-43.93-93.61-92-174.64-108-201l26.75-258.61c12.87-2,29.65-4.83,47.18-8.7,57.25-12.64,89.11-27.86,103.33-49.36a46.8,46.8,0,0,0,6.14-39.87c-5.56-18.38-22.15-49.13-71-49.13-14.59,0-29.58,2.53-44.07,5-8.77,1.48-17.05,2.87-24.7,3.63-3.55.35-6.79.53-9.62.53-.95,0-1.81,0-2.57,0-.29-.45-.6-.89-.92-1.32a29.94,29.94,0,0,0-19.77-11.87c-3.31-.49-81.63-11.92-136.88-11.92Z"/><path class="cls-16" d="M1014.49,759.85s-12.88-261.87,66-416.34c0,0,50.68-54.71,111.83-69.19,0,0-53.5-11.06-82.17-4.12,0,0,110.32-149.54,302.6-168,0,0-42.06-56.32-93.44-70.8,0,0,122.41-21.72,260.79,55.51C2127.94-185.86,2247,427.18,2483.54,424c0,0-19.31,48.28-89.3,63.56,0,0,122.69,88.9,96.14,249.4,0,0-32.58-50.68-91.71-77.23,0,0,59.13,86.89,39.82,203.95L2386.6,790s-14.48,201.53-191.88,330.66"/><g class="cls-10"><path class="cls-6" d="M1580.07,124.92c517-257.36,621.89,275,903.47,289h0c-236.53,3.22-355.6-609.82-903.47-337.09C1441.69-.36,1319.28,21.36,1319.28,21.36c28.7,8.09,54.47,29.22,71.65,46.3C1439.37,71.14,1507.5,84.42,1580.07,124.92Z"/><path class="cls-6" d="M1156.16,264.06c49.4-45.36,141.43-142.44,260.84-153.93,0,0,19.56-11.47-45.37-6.79C1204.85,137,1110.12,265.2,1110.12,265.2,1122.86,262.12,1140.49,262.59,1156.16,264.06Z"/></g><g class="cls-3"><path class="cls-4" d="M2401.88,500.35c-25,55.26-68.2,123.09-146.15,161.31C1922.66,825,1288,629.92,1173.78,430.4c-25.53-44.59-38.9-87.57-44.31-127.44a296.18,296.18,0,0,0-49,40.55c-69.27,135.72-67.75,354.32-66.36,405.4l1150.62,351.77C2342.12,971.55,2356.6,770,2356.6,770l27.55,39.09c-.25,1.54-.53,3.19-.82,4.9,2.63-15.14,3.27-24,3.27-24l51.89,73.61L2411,824.57c10.47-107.29-42.28-184.88-42.28-184.88a212,212,0,0,1,44.38,27.2,229.22,229.22,0,0,1,49.16,36.89h0C2472.84,612.32,2434.19,541.26,2401.88,500.35Z"/></g><path class="cls-13" d="M2181.44,1084.48c-45.85,43.44-68.78,132.69-68.78,132.69a174.86,174.86,0,0,1-11,50.3c-60.87,160.07-347.41,199.6-640,88.34S981.18,1024.57,1042.05,864.5a171.84,171.84,0,0,1,19.69-37.36l-2.22-76.56s88.24-27.32,102-191.44l88.24-36.44,2.7-4.74c9.71,11.16,22.88,22.35,40.74,32.54,0,0-8.44-40.45-1.49-61l3.67-2.12c15.54,15.2,39.53,27.08,76.41,27.08h.05a138.71,138.71,0,0,0,48.9,11.63c-30.51-63.76-15.16-144.81,11.87-189.46,0,0,36.78-5.22,87.47,20.13,0,0,91.38,5.45,114.45,38.32-10,73.76-14.1,178.37,48.46,235.23,0,0-3.09-19.69,1.69-46.15l5.94,1.06s15.69,51.12,72.6,82.07c0,0-2.41-49.43,14.92-99.25l9.84.48s86.22,56.09,51.36,123.67c2.08-1.3,52.09-33.16,77.38-74.09l4.4.53c3.23,29.78-8.84,61.93-8.84,61.93,26.07-7,43.64-19.16,55.47-32.73l6.46,1.35c24.14,93.36,104.61,105.43,104.61,105.43-29.78-38.62-23.32-105.43-23.32-105.43a85.31,85.31,0,0,0,9.61,18.78l-.77.53,86.89,155.29C2092.14,1002.41,2181.44,1084.48,2181.44,1084.48Z"/><g class="cls-3"><path class="cls-4" d="M2103.54,1262.21c-.58,1.79-1.21,3.52-1.89,5.26-60.87,160.07-347.41,199.6-640,88.34S981.18,1024.57,1042.05,864.5a171.84,171.84,0,0,1,19.69-37.36l3.82.73c-43.78,158.52,141.34,368.11,424.64,475.9C1751.83,1403.26,2008.59,1382.16,2103.54,1262.21Z"/></g><g class="cls-3"><path class="cls-4" d="M1451.73,561.89c-68.31,12.79-126.67-7.24-160.6-23.89-1.93-13.57-3.86-35.19.63-48.47l3.67-2.12c15.54,15.2,39.53,27.08,76.41,27.08h.05a138.71,138.71,0,0,0,48.9,11.63c-30.51-63.76-15.16-144.81,11.87-189.46,0,0,17.76-2.51,45.62,4.44C1413.45,383.43,1432.52,494.31,1451.73,561.89Z"/></g><g class="cls-3"><path class="cls-4" d="M2042.62,766.85,2082.15,819C1837.66,792.82,1715.63,700.43,1656,604.13c-56.52-91-57.39-185.46-53.53-230.74,13.76,5.41,25.68,12.46,32.15,21.72-8.5,62.81-12.74,147.91,24.76,206.94a137.87,137.87,0,0,0,23.7,28.29s-3.09-19.69,1.69-46.15l5.94,1.06s15.69,51.12,72.6,82.07c0,0-2.41-49.43,14.92-99.25l9.84.48s86.22,56.09,51.36,123.67c2.08-1.3,52.09-33.16,77.38-74.09l4.4.53c3.23,29.78-8.84,61.93-8.84,61.93,26.07-7,43.64-19.16,55.47-32.73l6.46,1.35c24.14,93.36,104.61,105.43,104.61,105.43-29.78-38.62-23.32-105.43-23.32-105.43a85.31,85.31,0,0,0,9.61,18.78l-.77.53,76.41,136.61C2076,804.12,2047.44,772.79,2042.62,766.85Z"/></g><path class="cls-4" d="M1782.9,1435.94c-102.75,0-216-22-327.26-64.35-144.13-54.81-268.14-137.27-349.21-232.18C1023,1041.71,994.51,942,1026.24,858.5a191.33,191.33,0,0,1,18.47-36.29l-2.06-71.12a16.9,16.9,0,0,1,11.89-16.63c3-1,77.64-27.66,90.19-176.75a16.91,16.91,0,0,1,10.4-14.2l88.24-36.41a16.9,16.9,0,1,1,12.88,31.24l-78.83,32.52c-13.83,130.5-74.32,176.46-100.67,190.49l1.89,65.29a17,17,0,0,1-3,10.11,158.18,158.18,0,0,0-17.82,33.76c-27.14,71.38-.75,159.08,74.31,247,77.44,90.67,196.6,169.7,335.52,222.53s280.48,72.94,398.6,56.65c114.49-15.79,192.48-63.8,219.63-135.17a158.93,158.93,0,0,0,9.92-45.47,18.4,18.4,0,0,1,.49-3c.91-3.53,21.06-80.58,62.32-128.9-23.52-30.24-71.07-114-25.67-258.45l-83.3-148.84a16.9,16.9,0,0,1,29.49-16.5L2166,815.56a16.88,16.88,0,0,1,1.29,13.56c-54.6,164.94,22.34,239.88,25.64,243a17,17,0,0,1,.11,24.63c-38.79,36.75-60.62,112.21-63.67,123.3a192.87,192.87,0,0,1-11.93,53.45c-31.73,83.44-119.31,139.07-246.59,156.63A644.53,644.53,0,0,1,1782.9,1435.94Z"/><path class="cls-4" d="M1654.08,1077.24c-141.59,3.21-216.41-86.29-216.41-86.29s-103,194.9,19.3,244C1575.05,1282.31,1654.08,1077.24,1654.08,1077.24Z"/><path class="cls-17" d="M1431.73,1128.16a114.75,114.75,0,0,0-34.55,5.31c-.82,42.45,13,82.65,59.79,101.45,31.84,12.78,60.84,7.18,86.22-7.78C1538.08,1171.66,1490.14,1128.16,1431.73,1128.16Z"/><line class="cls-6" x1="1760.86" y1="1778.04" x2="1760.86" y2="1777.99"/><path class="cls-6" d="M1889.79,1781.37a8.81,8.81,0,0,1-.24-1.11"/><line class="cls-6" x1="612.68" y1="777.84" x2="612.68" y2="777.79"/><path class="cls-6" d="M761.06,874.48a177.14,177.14,0,0,0-1.93-35.87"/><path class="cls-6" d="M754.64,903.44c2.51,38.71-6.56,63.43-20.75,78.92"/><path class="cls-6" d="M704.73,1053.08c-22.4,5.31-38.23,4.3-49.38,0"/><path class="cls-6" d="M676.38,793.85c-17.83-6.73-38.41-12.34-63.7-16"/><path class="cls-6" d="M422,842.72s70-5.63,125.1-2.82"/><line class="cls-6" x1="435.63" y1="892.2" x2="555.51" y2="882.14"/><line class="cls-6" x1="469.42" y1="942.08" x2="564.96" y2="926.39"/><path class="cls-6" d="M633.14,919.45S654,882,714.9,886.87"/><path class="cls-6" d="M823.82,851.31c5.31,13.56,6.61,30.5.82,51.65"/><path class="cls-13" d="M733.89,982.36a0,0,0,0,1,0,0h-.05c-35.77,38.91-104.27,20-104.27,20-172,.58-160.11-60.34-160.11-60.34-40.6-12.07-33.79-49.87-33.79-49.87-37-16.12-13.66-49.47-13.66-49.47a6.28,6.28,0,0,1-.24-1c-6-23.7,11-47,35.38-49.28l155.58-14.63C586.9,722.28,602.59,666.14,646,675s29,44.27,74.82,85.3c12.89,11.53,21.72,25.63,27.76,39.92,1.5,3.52,2.8,7,4,10.57a168.06,168.06,0,0,1,6.56,27.85l2.17-.34,4.69,1.55a27.67,27.67,0,0,1,19.31,25.73C785.87,897.55,780.56,959.05,733.89,982.36Z"/><g class="cls-18"><path class="cls-6" d="M507.89,971.62c-40.6-12.06-33.79-49.86-33.79-49.86-37-16.12-13.66-49.48-13.66-49.48a7.39,7.39,0,0,1-.24-1c-6-23.7,11.05-47,35.38-49.29l169.54-28.13c-25.4-54.7-51.59-114.22,16.37-90.37-7.2-14-14.74-24.3-35.46-28.51-43.44-8.83-59.13,47.31-33.35,102.82L457.1,792.42c-24.33,2.26-41.37,25.58-35.38,49.28a5.93,5.93,0,0,0,.24,1s-23.32,33.36,13.66,49.48c0,0-6.81,37.8,33.79,49.87,0,0-5.16,26.77,41.46,44.65C506.67,978.06,507.89,971.62,507.89,971.62Z"/></g><path class="cls-2" d="M885.46,910.34a95.22,95.22,0,0,1-2.51,23.9c-18.1,81-140.09,194.77-204,153.74v0c-10-6.37-18.53-16.55-25-31.23l1.4-3.67c-31.28-12.16-25.83-50.63-25.83-50.63s68.5,18.92,104.27-20h.05a0,0,0,0,0,0,0c46.67-23.31,52-84.81,51.41-116.81A27.67,27.67,0,0,0,766,839.82l-4.69-1.55-2.17.34a168.06,168.06,0,0,0-6.56-27.85c-1.16-3.52-2.46-7-4-10.57l1.21-.53s57.2,8.69,74,51.65C823.82,851.31,884.11,854.83,885.46,910.34Z"/><path class="cls-2" d="M1254.64,1252.2c-17.91-40.64-55-76.46-93.07-104.75-4.15-3.09-8.35-6.13-12.5-9-2.08-1.44-4.15-2.89-6.23-4.29-18.68-12.74-36.88-23.51-52.33-32.05-1.73-.92-3.42-1.89-5.06-2.8-2.42-1.26-4.73-2.51-7-3.67-1.06-.58-2.17-1.11-3.18-1.69-1.26-.63-2.46-1.26-3.62-1.88-15.79-8.07-25.83-12.41-25.83-12.41-62.75-96.54-160.35-169.29-160.35-169.29h0a95.22,95.22,0,0,1-2.51,23.9c-18.1,81-140.09,194.77-204,153.74.24,2.7,10.57,115.13,96,253.81,2.61,4.25,5.26,8.5,8.06,12.79,4.16,6.42,8.4,12.89,12.89,19.41q2.17,3.26,4.49,6.52c2.71,4,5.51,7.91,8.45,11.87,3.48,4.83,7.05,9.65,10.76,14.53,1.65,2.17,3.33,4.39,5.07,6.61s3.43,4.44,5.22,6.66,3.57,4.49,5.35,6.71q8,10,16.75,20.08a891.09,891.09,0,0,0,90.27,90.8c-213.5,86.46-231,164.56-231.56,167,69.85-113.39,242.81-99.53,399.35-172.37l.05,0c2.22-1.93,73.28-64.4,125.55-186.38L1214,1292Z"/><path class="cls-6" d="M1161.57,1147.45c-4.15-3.09-8.35-6.13-12.5-9-2.08-1.45-4.15-2.9-6.23-4.3-18.68-12.74-36.88-23.51-52.33-32.05-1.73-.92-3.42-1.89-5.06-2.8-2.42-1.26-4.73-2.51-7-3.67-1.06-.58-2.17-1.11-3.18-1.69-1.26-.63-2.46-1.26-3.62-1.88"/><path class="cls-2" d="M1319.8,1327c-55.32,109.24-130.38,168.42-209.64,205.3,2.22-1.93,73.28-64.4,125.55-186.38L1214,1292l40.65-39.82Z"/><g class="cls-3"><path class="cls-4" d="M1259.64,1252.22c-1.6-3.57-3.33-7.15-5.17-10.67-74.63,74.19-250.82,222.29-364,98.86-146.7-160-88-283.06-88-283.06s-53.92-34-14.39-98.28a174.38,174.38,0,0,1,18.92-24.81c23.37-25.88,28.29-55,24.19-82.69-1.6-.2-2.46-.24-2.46-.24-16.8-43-74-51.65-74-51.65l-1.21.53c1.5,3.52,2.8,7,4,10.57a168.06,168.06,0,0,1,6.56,27.85l2.17-.34,4.69,1.55a27.67,27.67,0,0,1,19.31,25.73c.43,23.41-2.32,62.56-22,91a78.07,78.07,0,0,1-29.39,25.77,0,0,0,0,1,0,0h-.05c-21.31,23.18-54.22,25.83-77.36,24.19h0c1.55,12.19,7.19,28.48,25.64,35.66l-1.4,3.67c6.51,14.67,15.06,24.85,25.05,31.23v0c.24,2.71,10.57,115.13,96,253.82,2.61,4.24,5.26,8.49,8.06,12.79,4.16,6.42,8.4,12.89,12.89,19.4,1.45,2.17,2.95,4.35,4.49,6.52,2.7,4,5.5,7.92,8.45,11.87q5.21,7.25,10.76,14.53c1.64,2.18,3.33,4.4,5.07,6.62s3.43,4.44,5.22,6.66,3.57,4.49,5.35,6.71q8,10,16.75,20.08a893.13,893.13,0,0,0,90.27,90.8c-114.21,46.25-172.33,90.1-201.78,121.26h0c85.22-54.86,219.13-58.33,342.84-115.89l.05-.05c79.26-36.88,154.32-96.06,209.64-205.3Z"/></g><path class="cls-6" d="M710.76,1704.74v0c-19.06,30.9-30.45,71.3-31.76,125.46"/><path class="cls-6" d="M1072.41,1492.35c-35.19,10.72-67,21.43-95.67,32.15q-18,6.66-34.42,13.27"/><path class="cls-6" d="M710.76,1704.79v0"/><line class="cls-6" x1="942.37" y1="1537.82" x2="942.32" y2="1537.77"/><path class="cls-6" d="M852.05,1447q-8.68-10-16.75-20.08c-1.78-2.22-3.57-4.49-5.35-6.71s-3.53-4.44-5.22-6.66-3.42-4.44-5.07-6.61c-3.71-4.88-7.28-9.7-10.76-14.53-2.94-4-5.74-7.92-8.45-11.87q-2.31-3.27-4.49-6.52c-4.53-6.52-8.78-13-12.89-19.41-2.8-4.29-5.45-8.54-8.06-12.79"/><path class="cls-2" d="M1709.88,1378.48c-33.4,35.72-39.72,136.41-39.72,136.41l-88.1,9.61c9-69.13,24.57-116.62,24.57-116.62S1645.25,1384.42,1709.88,1378.48Z"/><path class="cls-2" d="M2163.34,1436.84c-95.33-38.62-264.67-22.5-264.67-22.5v0c-5.65-2.66-11.25-5.07-16.8-7.34-1.88-.77-3.71-1.55-5.55-2.27-9-3.67-17.86-6.81-26.55-9.61-1.93-.62-3.86-1.2-5.79-1.78-1.74-.53-3.48-1.06-5.21-1.55s-3.48-1-5.22-1.49c-9-2.47-17.71-4.54-26.26-6.28-1-.14-1.93-.34-2.84-.53s-1.89-.39-2.8-.53v0a338.85,338.85,0,0,0-91.77-4.49c-33.4,35.72-39.72,136.41-39.72,136.41l-88.1,9.61c-20,155-6.56,418.7,291.66,498.83,0,0,115.85-124.29-37-241.88v0c6.37,0,12.6,0,18.78-.05,3.91,0,7.72-.1,11.53-.24,2.22,0,4.49-.1,6.67-.19s4.24-.15,6.37-.25c3.18-.09,6.32-.24,9.46-.43,162-8.3,251.78-57.88,263.9-65l1.45-.87C2183.86,1609.41,2163.34,1436.84,2163.34,1436.84Zm-291.75,458,8.45,26.4s-26.84,29.11-67.24,47.79l-18.44-21.39Z"/><path class="cls-6" d="M1889.55,1780.24c-3.14.19-6.28.34-9.46.43-2.13.1-4.25.2-6.37.25s-4.45.14-6.67.19c-3.81.14-7.62.19-11.53.24-6.18.1-12.41.1-18.78.05"/><path class="cls-6" d="M1898.67,1414.34q-8.48-4-16.8-7.38c-1.88-.77-3.71-1.55-5.55-2.27q-13.53-5.36-26.55-9.61c-1.93-.62-3.86-1.2-5.79-1.78-1.74-.53-3.48-1.06-5.21-1.55s-3.48-1-5.22-1.49c-9-2.47-17.71-4.54-26.26-6.28-1-.14-1.93-.34-2.84-.53s-1.89-.34-2.8-.48"/><path class="cls-6" d="M1807.34,1780.77c-4.1-.14-8.2-.29-12.35-.53-4.78-.24-9.61-.48-14.44-.82"/><path class="cls-6" d="M1760.86,1778c-17.09-1.4-34.71-3.23-52.86-5.65"/><path class="cls-2" d="M1880,1921.24s-26.84,29.11-67.24,47.79l-18.44-21.39,77.23-52.8Z"/><path class="cls-6" d="M1711.19,1377.17l-1.31,1.31"/><path class="cls-2" d="M2285.42,1560c-3.33,69.17-19.45,140.22-40.4,163.25-22,24.18-43.45,6.42-43.45,6.42s-41.17,18.25-48.12-14.39v0l1.45-.87c29-105,8.44-277.56,8.44-277.56s5.65-20.52,26.17-19.31,36.3,23.27,36.3,23.27,34.75-28.82,44.12-8.79c.62,1.35,1.25,2.7,1.78,4.15C2284,1465.75,2287.74,1512.48,2285.42,1560Z"/><g class="cls-3"><path class="cls-4" d="M2246.61,1674.59c-28.33,3-29.59-21.72-29.59-21.72s-3.57,19.31-26.55,15.11-21.19-55.32-21.19-55.32c-21.91,116-240.58,153.21-333.17,163.78-25.24,2.9-41.12,3.82-41.12,3.82s-170.69,9.8-169.82-230c.29-75.59,13.9-127.19,32.39-162.43-32.59,8.88-50.93,20-50.93,20s-15.59,47.5-24.57,116.63c-20,155-6.56,418.7,291.66,498.83,0,0,115.85-124.3-37-241.88v0c6.37,0,12.6,0,18.78-.05,3.91,0,7.72-.1,11.53-.24,2.22-.05,4.49-.1,6.67-.2s4.24-.14,6.37-.24c3.18-.09,6.32-.24,9.46-.43,162-8.3,251.78-57.88,263.9-65v0c7,32.63,48.12,14.39,48.12,14.39s21.44,17.76,43.45-6.42c16.6-18.25,30.17-66.66,36.73-120.44C2270.31,1643.55,2256.36,1673.53,2246.61,1674.59Zm-375,220.26,8.45,26.41s-26.84,29.11-67.24,47.79l-18.44-21.39Z"/></g><line class="cls-6" x1="2450.17" y1="1507.27" x2="2450.12" y2="1507.27"/><path class="cls-13" d="M2450.17,1507.27c0,3.42-.05,6.42-.1,8.83a12.94,12.94,0,0,1-7.28,11.2c-21.29,10.28-41.47-5.17-54.7-20a142.43,142.43,0,0,1-12.59-16.51,2.78,2.78,0,0,0-4.93.58c-25.44,65.55-85.15,68.69-85.15,68.69,2.32-47.55-1.4-94.28-13.71-123.87h.05s73.42-62.07,129.71-39.53c16.17,6.47,27,19.64,34.32,35.14C2447.71,1457.11,2450,1488.68,2450.17,1507.27Z"/><path class="cls-13" d="M2527,1448.52c-16.46-29.35-91.18-16.75-91.18-16.75,11.92,25.34,14.19,56.91,14.38,75.5,0,3.42-.05,6.42-.1,8.83a12.94,12.94,0,0,1-7.28,11.2c-21.29,10.28-41.47-5.17-54.7-20-7.33,13.9-8.25,26.06-4.77,36.3-31.77,21.52-29.31,48.65-13,69.07-34.85,13.57,11,86.07,53.2,74,48.8-14,42.18-58.41,42.18-58.41,28.58-22.25,22.16-48.94,22.16-48.94a39.6,39.6,0,0,0,14.19-8.07c32.15-29.78,8.16-77,8.16-77C2530.49,1483,2536.77,1466,2527,1448.52Z"/><path class="cls-4" d="M1843.57,1793.94l-6.93,0c-25.24-.16-51.1-1.33-76.82-3.47a12.52,12.52,0,0,1-11.39-11.1c-23.31-212.43,38.77-393,41.42-400.54a12.5,12.5,0,0,1,14-8.17c33.26,6.07,66.92,16.95,100,32.33a12.53,12.53,0,0,1,6.94,14c-.47,2.11-46.17,213.07-9.21,360.2a12.5,12.5,0,0,1-11.48,15.53C1874.7,1793.54,1859,1793.94,1843.57,1793.94Zm-71.35-27.6c21.67,1.58,43.35,2.45,64.6,2.58,12.31.08,24.75-.07,37.16-.5-28.42-134,1.82-303.82,10.41-346.83a391.14,391.14,0,0,0-74.25-24.22C1797.71,1437.84,1755.37,1592,1772.22,1766.34Z"/><line class="cls-8" x1="1760.86" y1="1778.04" x2="1760.86" y2="1777.99"/><path class="cls-4" d="M1877.62,1784.23a17.85,17.85,0,0,1-.47-2.4l19.23-2.44Z"/><path class="cls-4" d="M852.06,1459.49a12.49,12.49,0,0,1-9.48-4.35,843.88,843.88,0,0,1-78.21-106.77A12.5,12.5,0,0,1,771,1330c157.7-54.24,249.39-176.37,290-244.35a12.5,12.5,0,0,1,16.44-4.7c23.14,11.89,57.81,31.35,91.63,56.5a12.49,12.49,0,0,1,3.7,15.65c-42.52,84.45-140.14,236.43-316.1,305.54A12.59,12.59,0,0,1,852.06,1459.49Zm-58.19-111.2A821.72,821.72,0,0,0,855.74,1432c156.81-65,247.33-199.47,289.82-280.75a647.67,647.67,0,0,0-69.31-42.71C1032.55,1178.62,942.67,1292,793.87,1348.29Z"/><path class="cls-4" d="M752.55,827.65a16.9,16.9,0,0,1-16-11.58c-6-18-15-32.57-26.94-43.22-23-20.6-32.75-40.52-39.86-55.07-8.18-16.76-11.25-23-27.06-26.25-10.57-2.14-15.36,2.12-18,5.52C615,709.25,613,738.48,628,770.72a16.89,16.89,0,1,1-30.65,14.22c-18.86-40.66-18.55-84.4.76-108.84,12.17-15.4,30.88-21.85,51.3-17.68,32.13,6.54,41.56,25.85,50.68,44.52,6.54,13.38,13.94,28.54,32,44.72,16.37,14.65,28.65,34.09,36.49,57.79a16.88,16.88,0,0,1-16,22.2Z"/><path class="cls-4" d="M758.32,874.28a171.64,171.64,0,0,0-8.44-30.75,153,153,0,0,0-13.37-27.46,17.37,17.37,0,1,1,32-11.29l.08.66a188.46,188.46,0,0,1-4.78,69.27,2.8,2.8,0,0,1-5.46-.25Z"/><path class="cls-4" d="M634,986.13l10.3,1.17c3.62.28,7.24.65,10.85.79a161.91,161.91,0,0,0,21.28-.23c13.83-1.05,26.7-4.28,36.91-10.71A54.25,54.25,0,0,0,726.91,965a72.46,72.46,0,0,0,10.3-17c6-12.83,9.54-28.05,13.25-44.21v0a4.35,4.35,0,0,1,5.21-3.27,4.4,4.4,0,0,1,3.11,2.77,104.48,104.48,0,0,1,4.74,52.44c-2.67,18.39-13.43,37.42-29.69,50-16.26,12.8-36.08,18.21-54.48,19.69a138.28,138.28,0,0,1-27.42-.68,133.47,133.47,0,0,1-13.34-2.22A114.55,114.55,0,0,1,625,1018.7a16.88,16.88,0,0,1,7.33-32.76Z"/><path class="cls-4" d="M645.47,1004.68c.19.08.25,1.3.37,2l.32,2.57c.2,1.73.52,3.45.77,5.12a71.48,71.48,0,0,0,2.29,9.25c2,5.51,4.24,9.67,8.7,13.19s11.37,6.05,19.26,7.43,16.75,1.62,25.9,1.76h.22a7.44,7.44,0,0,1,3.11,14.13,98.07,98.07,0,0,1-29.23,8.94c-10.57,1.2-22.59.89-34.53-4.64a52.14,52.14,0,0,1-16.11-11.73,53.43,53.43,0,0,1-10.36-16.69,63,63,0,0,1-4-26.6c.08-1.46.28-2.91.48-4.39s.45-2.69.94-4.91a6.92,6.92,0,0,1,8.26-5.27,6.51,6.51,0,0,1,1.16.36Z"/><path class="cls-4" d="M627.11,1019.32c-84.08,0-138.77-14.59-162.56-43.38a52.63,52.63,0,0,1-11.14-21.89c-26.06-12.21-34.24-34.9-35.13-52.11-11.78-7.94-16.77-17.6-18.86-25-4.22-14.95.73-29,4.74-37.08A56.26,56.26,0,0,1,414,799.63a57.31,57.31,0,0,1,41.53-24L611.1,761a16.89,16.89,0,1,1,3.16,33.64L458.68,809.26a23.53,23.53,0,0,0-17.08,9.87,22.16,22.16,0,0,0-3.51,18.45c.07.27.13.54.19.81a17.27,17.27,0,0,1-2.48,14c-1.83,2.75-5.33,10.33-3.84,15.43,1.21,4.12,6.33,7.1,10.41,8.88a16.9,16.9,0,0,1,9.88,18.48c-.81,5.27-1.7,23.65,22,30.68,4.36,1.3,8.26,3.33,10.38,7.34s2.73,7.49,1.53,11.62c.07,1.36.71,5.67,5.78,11.07,10.54,11.19,42.36,29.79,137.56,29.61h0a16.9,16.9,0,0,1,.06,33.79ZM438.43,839.27v0Zm0,0h0Zm0,0h0Z"/><path class="cls-4" d="M675.88,795.16a291.61,291.61,0,0,0-65.65-.63,17.4,17.4,0,1,1,4.49-33.6l.4.16c21.92,8.41,43,18.8,61.75,31.44a1.44,1.44,0,0,1-1,2.63Z"/><path class="cls-4" d="M420.6,825.88c10.81.21,21.29.62,31.9,1.12s21.13,1.13,31.68,1.87c21.1,1.51,42.18,3.52,63.11,6.61a4.45,4.45,0,0,1-.42,8.84h0c-20.76,1.08-41.45,3.23-62.07,5.86q-15.47,2-30.86,4.34c-10.23,1.56-20.59,3.23-30.59,5h0a17,17,0,1,1-6-33.42A18.32,18.32,0,0,1,420.6,825.88Z"/><path class="cls-4" d="M434.22,875.36l121,3.11a3.71,3.71,0,0,1,.62,7.34L437.05,909a17,17,0,1,1-6.53-33.36A18,18,0,0,1,434.22,875.36Z"/><path class="cls-4" d="M466.69,925.4l97.79-1.92a3,3,0,0,1,1,5.82l-93.28,29.45a17.07,17.07,0,0,1-10.28-32.56A17.92,17.92,0,0,1,466.69,925.4Z"/><path class="cls-4" d="M630,917.69c2.39-8.88,7.41-16,13.62-22.16a70,70,0,0,1,21.79-14.44,76.49,76.49,0,0,1,25.19-5.74c4.26-.39,8.5.16,12.7.39a79.91,79.91,0,0,1,12.27,2.8,8.56,8.56,0,0,1-.27,16.35l-1,.3a89,89,0,0,1-10.79,2l-5.21.94c-1.72.24-3.46.42-5.12.82-6.78,1.18-13.3,2.56-19.77,4.26a131.32,131.32,0,0,0-18.87,7.1,120.49,120.49,0,0,0-18.18,10.9l-.6.44a3.69,3.69,0,0,1-5.71-3.95Z"/><path class="cls-4" d="M741.31,997.54l-15-30.25c37.94-18.88,42.68-71.67,42.14-101.45a10.73,10.73,0,0,0-7.54-10l-4.71-1.5,10.27-32.19,4.7,1.5a44.48,44.48,0,0,1,31.06,41.51C802.88,903,795.9,970.38,741.31,997.54Z"/><path class="cls-4" d="M752.2,783.89a91.48,91.48,0,0,1,10.86,1.32,102.42,102.42,0,0,1,10.1,2.29,114.71,114.71,0,0,1,19.62,7.28c12.69,6.13,25.08,14.87,34.57,27.11,9.55,12.05,15.66,27.57,16.2,42.64.22,15.08-4.39,29.18-13.45,39.91a6.27,6.27,0,0,1-10.92-2.76l0-.24c-2.65-12.81-4.44-23.44-7.19-32.66A85.64,85.64,0,0,0,806.87,856a55.37,55.37,0,0,0-7.75-10.85,84.84,84.84,0,0,0-23-17.37c-4.5-2.48-9.3-4.68-14.2-6.77l-7.45-3c-2.38-.88-5.29-1.9-7-2.61l-2.28-.92a15.93,15.93,0,0,1,7.08-30.65Z"/><path class="cls-4" d="M710.05,1113.51c-31.91,0-57.09-17.47-71.53-50a16.9,16.9,0,0,1,30.88-13.73c9.94,22.36,24.7,31.76,46.45,29.6,55-5.48,136.62-86.18,150.61-148.88,4.15-18.61,2.38-33.23-5.26-43.47-12.64-16.94-38.21-18.89-38.47-18.91a16.9,16.9,0,0,1,2.06-33.73c1.67.1,41.08,2.73,63.27,32.13,14,18.53,17.81,42.53,11.38,71.34-15.81,70.86-103.84,167.52-180.24,175.14C716.1,1113.36,713,1113.51,710.05,1113.51Z"/><path class="cls-4" d="M679,1847.16h-.41a16.91,16.91,0,0,1-16.49-17.3c4.58-191.74,132.67-223.67,268.28-257.48,129.64-32.31,276.26-68.86,369.12-242.92l-57.61-66.15a16.84,16.84,0,0,1-2.73-4.28c-41.43-94.07-198.46-163.2-200-163.88a17,17,0,0,1-7.43-6.29c-60.41-92.94-155.33-164.25-156.28-165a16.89,16.89,0,1,1,20.19-27.09c4,3,98,73.62,161.66,169.44,28,12.79,167.54,80.49,211.75,176.76l63.52,72.93a16.91,16.91,0,0,1,2.34,18.73c-99.5,196.52-264.07,237.54-396.31,270.5-138.59,34.55-238.71,59.5-242.68,225.5A16.89,16.89,0,0,1,679,1847.16Z"/><path class="cls-4" d="M696,1702.05a30.12,30.12,0,0,1,.79-3.09l.72-2.17a32.14,32.14,0,0,1,1.55-4,72.91,72.91,0,0,1,3.43-7.27l3.75-6.75c1.35-2.13,2.76-4.15,4.15-6.22a121,121,0,0,1,8.84-11.75l4.59-5.66,4.93-5.19c12.93-14.17,27.49-25.93,42.22-37.28,29.8-22.22,61.86-40.07,94.31-56.77,33-15.37,65.81-31.08,99.75-43.84q12.83-4.52,25.8-8.54c8.68-2.61,17.31-5.35,26.22-7.14,17.72-3.93,35.59-7.29,53.92-8.75a5.12,5.12,0,0,1,3.06,9.48l-.15.09c-15.76,9.56-32,17.21-48.36,24.29-4.06,1.86-8.24,3.37-12.28,5.25s-8.1,3.69-12.22,5.34q-12.25,5.21-24.68,9.89l-12.47,4.58-12.32,4.86c-8.23,3.21-16.52,6.31-24.71,9.62-16.48,6.45-32.17,14.45-48.23,21.75-31.22,16.06-61.94,33.22-89.64,53.89-13.61,10.49-27,21.35-38.25,33.71l-4.34,4.54-3.86,4.79a93.9,93.9,0,0,0-7.31,9.69l-3.33,4.94-2.76,5a45.16,45.16,0,0,0-2.31,4.86,13.29,13.29,0,0,0-.87,2.21l-.35,1c-.18.49,0,.09-.09.16l-7.25,7A13.32,13.32,0,0,1,696,1702.05Z"/><path class="cls-4" d="M1053.51,1404.27l-22.29,29.09c-7.11,9.57-14.14,18.94-20.35,28.71a232.55,232.55,0,0,0-16.32,30c-4.81,10.19-8,20.73-11.18,31.28l-.25.84a12.49,12.49,0,0,1-24.24-5.85,132.66,132.66,0,0,1,12.61-37.41,170.78,170.78,0,0,1,21.67-32,177.48,177.48,0,0,1,27.45-26.21C1030.7,1415.15,1041.49,1408.47,1053.51,1404.27Z"/><path class="cls-4" d="M942.36,1554.72a16.83,16.83,0,0,1-11.11-4.17C685.45,1335.73,663,1099.28,662.16,1089.32a16.89,16.89,0,0,1,33.67-2.84c.22,2.42,22.77,233.34,257.66,438.63a16.89,16.89,0,0,1-11.13,29.61Z"/><path class="cls-4" d="M1110.13,1549.26a16.89,16.89,0,0,1-11.06-29.67c.73-.63,67.9-59.74,118.34-173.9l-19.07-47.33a16.89,16.89,0,0,1,3.84-18.38l40.63-39.83a16.89,16.89,0,1,1,23.65,24.13l-32.56,31.92,17.5,43.43a16.9,16.9,0,0,1-.14,13c-54,126-127,189.91-130.11,192.56A16.77,16.77,0,0,1,1110.13,1549.26Z"/><path class="cls-4" d="M1873.72,2040.25a16.86,16.86,0,0,1-4.39-.58c-119.87-32.2-206.5-96.38-257.49-190.73-103.23-191-24.67-436-21.27-446.32a16.86,16.86,0,0,1,7.28-9.17c5.2-3.15,128.5-75.79,303.79,3.66,28.57-2.36,177.76-12.48,268,24.09a16.91,16.91,0,0,1,10.43,13.66c.85,7.18,20.57,177.09-8.94,284.05a16.87,16.87,0,0,1-7.31,9.82c-5.07,3.18-101.2,61.85-283.52,69,31.27,32.65,48.66,68.34,51.81,106.49,6.09,73.76-44,128.37-46.09,130.66A16.87,16.87,0,0,1,1873.72,2040.25Zm-252.94-620.83c-11.34,39-66.77,251.64,20.86,413.6,44.93,83,120.91,140.55,225.93,171.07,11.52-15.52,34.69-52.79,30.89-97.42-3.3-38.69-26-75.11-67.56-108.32a1064.08,1064.08,0,0,1-125.12-9.26,16.89,16.89,0,1,1,4.41-33.5c252.26,33.27,400.38-36.46,430.18-52.38,21.48-86.47,10.91-217.1,7.26-254.22-92-32.12-245.78-18-247.37-17.84a17,17,0,0,1-8.73-1.5C1749,1363.4,1645.37,1406.93,1620.78,1419.42Z"/><path class="cls-4" d="M1778.08,1938.33a104.67,104.67,0,0,1-13.51-16.72,177.36,177.36,0,0,1-10.65-18.21,235.65,235.65,0,0,1-15.33-39.23l-2.86-10.16-2.33-10.27c-1.71-6.86-2.57-13.8-3.83-20.75-1.06-7-1.69-13.93-2.55-20.93l-1.35-21a15.05,15.05,0,1,1,30-1.94,14.74,14.74,0,0,1,0,1.88l0,.8-1.3,19.54c0,6.5-.33,13.06-.19,19.58.33,6.48.25,13.08,1,19.54l.89,9.76,1.41,9.67a218.8,218.8,0,0,0,9.36,38,163.56,163.56,0,0,0,7.57,18,97.6,97.6,0,0,0,9.9,16.34l.28.36a4.37,4.37,0,0,1-6.51,5.79Z"/><path class="cls-4" d="M1812.78,1976.55a7.52,7.52,0,0,1-5.7-2.62l-18.4-21.42a7.49,7.49,0,0,1,1.46-11.08l77.23-52.79a7.51,7.51,0,0,1,11.38,3.91l8.44,26.39a7.48,7.48,0,0,1-1.63,7.37c-1.13,1.24-28.33,30.43-69.64,49.54A7.43,7.43,0,0,1,1812.78,1976.55Zm-7.26-27.46,9.19,10.7a235.45,235.45,0,0,0,56.82-40.59l-4-12.5Z"/><g class="cls-3"><path class="cls-4" d="M1871.6,1894.83l-77.23,52.8,18.4,21.42c40.43-18.71,67.28-47.82,67.28-47.82Z"/></g><path class="cls-4" d="M1583.9,1541.29l-3.66-33.59,74.27-8.09c3.21-31.54,13.73-103.49,44.77-134.4l23.84,23.94c-24.59,24.5-34.39,99.84-36.08,126.8l-.9,14.19Z"/><path class="cls-4" d="M2219.77,1752.86a47.22,47.22,0,0,1-20.12-4.56c-10.31,3.07-27.64,6.18-42.22-1.26-7.42-3.78-17-11.74-20.52-28.21l33-7.06c.89,4.19,2.3,4.9,2.83,5.17,4.91,2.51,16.71-.37,21.93-2.68l9.57-4.25,8.06,6.69c4.13,3.09,11.26,5,20.16-4.8,29-31.91,52.75-200.56,23.53-269.58-4.86,1.54-13.34,6.44-19.48,11.49l-14,11.46-10.54-14.65c-2.9-4-13.58-15.62-23.56-16.21-5.72-.27-8.05,4.37-8.95,7.2l-32.5-9.22c3.2-11.67,16.37-33.32,43.43-31.71,15.92.94,29,9.79,37.7,17.72,10.39-6.32,24.6-12.47,37.42-9.61a28.27,28.27,0,0,1,19.64,16.07c35.57,75.93,12.54,265.44-27.73,309.77C2245.3,1748.06,2231.85,1752.86,2219.77,1752.86Z"/><path class="cls-4" d="M2286.28,1576.89l-1.88-33.74c2-.13,49.47-3.92,70.4-57.91a19.68,19.68,0,0,1,34.84-3.74c4.21,6.43,25.39,37.13,43.59,31.44.24-19.26-1.63-86.07-38-100.62-38.29-15.32-94.25,21.33-112.58,36.74l-21.79-25.83c3.31-2.8,81.92-68.3,146.92-42.29,56.11,22.45,60.09,102.32,59.19,135.61a29.65,29.65,0,0,1-16.81,25.94c-23.94,11.59-50.72,2.8-74.29-23.48C2343.53,1573.22,2288.86,1576.75,2286.28,1576.89Z"/><path class="cls-4" d="M2450.42,1522.24l-.57-30c39.27-.74,59.54-12.08,65-21.57,1.6-2.8,3.26-7.38-.91-14.8-7.38-13.14-48.66-13.84-75.62-9.3l-5-29.58c14.22-2.39,86.16-12.48,106.77,24.19,8.37,14.9,8.65,30.67.78,44.4C2528,1508,2495,1521.39,2450.42,1522.24Z"/><path class="cls-4" d="M2460.13,1598.53c-24.55,0-51.14-7.41-69.85-21.79-25.26-19.41-30.89-47.3-15.45-76.51l26.52,14c-8.5,16.09-6.21,28.39,7.21,38.71,24,18.47,69.45,20.06,83.3,7.24,23.33-21.58,5.73-57.7,5-59.22l26.77-13.55c1.18,2.34,28.68,57.75-11.37,94.79C2500.38,1593.19,2481,1598.53,2460.13,1598.53Z"/><path class="cls-4" d="M2429.84,1657.53c-30.42,0-62.94-19.84-77.56-44.72-13.49-23-14.63-56.48,22.6-81.69L2391.7,1556c-18.3,12.4-22.74,26-13.55,41.65,13.18,22.46,46.72,36.32,65.25,27,33.75-17,30.33-39.56,29.82-42.07l29.23-6.77c.46,1.92,10.68,47.27-45.54,75.63A59.65,59.65,0,0,1,2429.84,1657.53Z"/><path class="cls-4" d="M2413.9,1703c-29.87,0-58.38-26-67.9-54.46-7.68-22.88-.23-42.46,19-49.87l10.81,28c-3.21,1.24-3.66,5.4-1.33,12.35,5.68,16.94,27,38.34,45,33.24,34.54-9.88,31.88-38.7,31.46-42l29.7-4.26c3,19.88-4.31,61.15-52.91,75A49.76,49.76,0,0,1,2413.9,1703Z"/><path class="cls-4" d="M2078.87,771.52a16.41,16.41,0,0,1-2.51-.19c-3.73-.56-91.81-14.91-118.44-117.87a16.9,16.9,0,1,1,32.72-8.46c10.92,42.24,34.49,65.59,54.89,78.32-10.35-36.71-7-73.57-6.81-75.71a16.89,16.89,0,0,1,32.73-4.06c13.36,37.4,62.68,59.14,63.18,59.35A16.9,16.9,0,0,1,2121.29,734a193,193,0,0,1-45.63-29.24c2.92,14.08,8,28.43,16.59,39.6a16.9,16.9,0,0,1-13.38,27.21Z"/><path class="cls-4" d="M2134.22,581.48a326.91,326.91,0,0,0-2.49,33.91c-.28,11.37,0,22.72.78,34a297.87,297.87,0,0,0,4.08,33.29,258.43,258.43,0,0,0,7.8,31.91l.15.5a17,17,0,1,1-32.51,9.68,19.35,19.35,0,0,1-.53-2.44,288.63,288.63,0,0,1-3.33-36.83,324.58,324.58,0,0,1,1-36.3c1-12,2.47-23.86,4.54-35.59a342.12,342.12,0,0,1,8-35,6.44,6.44,0,0,1,12.58,2.6Z"/><path class="cls-4" d="M1997.12,579.72a101.25,101.25,0,0,1,.15,18.65c-.19,3.08-.71,6.11-1.06,9.2-.6,3-1.15,6.1-1.86,9.15a103.26,103.26,0,0,1-15.43,34.74c-7.39,10.55-16.57,20.45-27.49,27.69a57.21,57.21,0,0,1-8.23,5.37l-8.58,4.77c-5.83,2.91-11.89,5.09-17.93,7.64a15.91,15.91,0,0,1-21-20.06l.78-2.2c1.34-3.75,2.83-8.75,4-13.26s2.1-9.3,2.83-13.95a107.28,107.28,0,0,0,1.1-27l0-.3a16.89,16.89,0,0,1,33.62-3.33,140.42,140.42,0,0,1-1.3,35.84q-1.37,8.6-3.44,16.93c-1.45,5.68-2.89,10.79-5.09,16.93L1908,664.28h0c4.89-1.22,10-2.07,14.92-3.53,4.64-1.83,9.82-3,14.13-5.51,9.36-4,17.38-10.3,24.65-17.51A84.19,84.19,0,0,0,1979,611.67a99.35,99.35,0,0,0,7.85-31.31l0-.51a5.14,5.14,0,0,1,10.23-.13Z"/><path class="cls-4" d="M1726.85,511.44c-4.71,10.2-9.54,19.4-12.82,29.22-1.92,4.72-3.15,9.72-4.76,14.43-1.07,5-2.56,9.67-3.38,14.6a275.64,275.64,0,0,0-4.23,29.32c-.41,4.91-.81,9.82-1.07,14.73-.14,2.45-.32,4.9-.4,7.31s-.18,5.07-.45,6.67l-1.4,8.29a15.05,15.05,0,0,1-26.66,6.82h0a162,162,0,0,1-37.89-52.6c-9-19.49-14.42-40-17.67-60.36-6.44-40.92-4.72-81.6-.25-121.22,2.27-19.82,5.39-39.47,8.73-58.77,1.62-9.58,3.43-19.36,4.56-28.08.28-2.12.45-4.24.47-5.34,0-.42,0-.19,0-.29a8.65,8.65,0,0,0,.73,2.91,15.45,15.45,0,0,0,3.75,5.44,12.38,12.38,0,0,0,3.49,2.49,11.53,11.53,0,0,0,1.88.69l.63.21a5.31,5.31,0,0,0,1,.2l.52,0c.06,0,0,0,0,0l-.06,0-.05,0-.44.06a20.92,20.92,0,0,0-2.22.35c-.83.13-1.78.34-2.78.59s-2,.47-3,.77c-17,4.75-35.22,12.07-52.89,19.24-17.76,7.32-35.59,15.07-53,23a16.95,16.95,0,0,1-23.9-14.25v-.25c0-.63-.24-2.32-.41-3.58s-.42-2.74-.75-4.11a59.93,59.93,0,0,0-2.15-8,44.64,44.64,0,0,0-6.76-13.13,19.69,19.69,0,0,0-9.19-7l-1.27-.59-1.48-.26c-1-.14-1.88-.54-3-.6-2,0-5.06-.34-5.59,0-2.23.2-6.17,2.29-9.93,5.55a68.56,68.56,0,0,0-10.94,12.41c-6.92,9.55-12.43,21-17,32.75A217.37,217.37,0,0,0,1420.92,446c-.12,25.42,4.53,50.69,15.09,72.87h0a15.95,15.95,0,0,1-12.82,24l-2.63.13c-3.35.18-5.5.13-8.15.09s-5-.26-7.49-.49a140.19,140.19,0,0,1-14.7-2.24,136.49,136.49,0,0,1-28.46-9.42c-18.36-8.38-35.35-21.7-47.13-38.77a116.41,116.41,0,0,1-20.32-56.05,145,145,0,0,1,5.38-55.75,5.77,5.77,0,0,1,11.26,1v0c2,17.44,4.72,34.16,9.72,49.4a120.67,120.67,0,0,0,9.19,21.48,89.81,89.81,0,0,0,12.76,18.18,105.52,105.52,0,0,0,35.22,25.69,156,156,0,0,0,21.34,7.9c3.67,1.15,7.43,2.09,11.18,3,1.87.45,3.75.85,5.6,1.19s4,.72,5,1l-15.45,24.19h0c-13.18-27.71-18.53-58-18.4-87.62a250.8,250.8,0,0,1,16.1-86.8c5.45-13.88,11.88-27.51,21.1-40.35a101.28,101.28,0,0,1,16.44-18.41c6.67-5.57,14.82-11.24,26.32-13.22a36.68,36.68,0,0,1,8-.54l7,.33a65.69,65.69,0,0,1,7.16,1.35l3.57.84,3.51,1.38a56.29,56.29,0,0,1,13.14,7.28q2.79,2.38,5.51,4.89c1.76,1.68,3.16,3.55,4.72,5.36a77.93,77.93,0,0,1,12.27,23.3,93.32,93.32,0,0,1,3.22,12c.46,2,.75,4,1.09,6.06s.53,3.89.71,6.69l-23.91-14.49c18.05-8.2,36-16,54.28-23.53,18.45-7.44,36.42-14.82,57-20.63,1.29-.37,2.64-.71,4.06-1s2.79-.65,4.36-.92a50.53,50.53,0,0,1,5-.74l1.38-.15,1.77-.05h2.69l1.43.16c1,.12,1.9.28,2.84.48a14.82,14.82,0,0,1,1.52.37,25.91,25.91,0,0,1,2.7,1.1,21.51,21.51,0,0,1,5.09,3.36,19.7,19.7,0,0,1,4.65,7,22.91,22.91,0,0,1,1.44,6.49c.06,1.11.14,2.55.11,3.36a82.84,82.84,0,0,1-.73,9.23c-1.39,10.6-3.16,20-4.79,29.65-3.3,19.11-6.3,38-8.47,56.91-4.29,37.73-5.69,75.77,0,112,5.57,36.07,19.51,70.37,44.92,93.3h0l-28.06,15.11a82.2,82.2,0,0,1-1.93-9.9c-.43-3.12-.66-6.22-.84-9.31s-.07-6.18-.07-9.27l.69-9.22a127.76,127.76,0,0,1,9.15-35.74,121.32,121.32,0,0,1,18.63-31.7,104.28,104.28,0,0,1,26.91-24,5.66,5.66,0,0,1,8.18,7.13Z"/><path class="cls-4" d="M1706.84,580.31l.79,2.17,1.1,2.7c.78,1.83,1.64,3.67,2.53,5.5,1.82,3.67,3.84,7.29,6,10.83a141.83,141.83,0,0,0,15,20,145.85,145.85,0,0,0,39.14,31h0l-24.95,15.67c.31-8.22,1.1-15.17,2.06-22.6s2.19-14.53,3.64-21.7a298.59,298.59,0,0,1,11.67-42.18,226.53,226.53,0,0,1,18.47-39.49A163.6,163.6,0,0,1,1809,508.26a2.7,2.7,0,0,1,4,3.54l0,0a154.09,154.09,0,0,0-19.52,35.89,209.63,209.63,0,0,0-10.76,39.08,274.67,274.67,0,0,0-4.08,40.21c-.2,6.73-.19,13.45.05,20.12s.71,13.61,1.5,19.37a16.05,16.05,0,0,1-22.72,16.72l-2.23-1.05h0A179.66,179.66,0,0,1,1707,644a174.76,174.76,0,0,1-18.49-24.77q-4.08-6.6-7.57-13.62c-1.15-2.35-2.27-4.74-3.32-7.2l-1.54-3.79c-.52-1.39-.92-2.41-1.56-4.41a16.87,16.87,0,0,1,31.91-11Z"/><path class="cls-4" d="M1797.25,554.41c3.38,2.27,5.81,4.08,8.55,6.2s5.25,4.15,7.77,6.34a197.29,197.29,0,0,1,14.57,13.8c9.23,9.78,17.78,20.6,24.42,33.22a112.5,112.5,0,0,1,8.29,20.08,94.14,94.14,0,0,1,3.63,22.25c.64,15.34-3.45,30.69-10.15,43.73h0l-24-22.08c5.63-3.89,12-8.55,17.89-13s11.88-9.16,17.59-14c11.39-9.62,22.35-19.73,31.64-30.77,4.57-5.56,9.1-11.16,12.61-17.17a96.51,96.51,0,0,0,8.63-18.5c4.56-12.68,4.61-26.29.39-41.79l0-.09a2.58,2.58,0,0,1,1.81-3.16,2.62,2.62,0,0,1,2.39.55,53.9,53.9,0,0,1,14.59,21.67c.64,2.16,1.45,4.35,1.9,6.59s.89,4.53,1.17,6.83l.29,6.91c0,2.31-.16,4.59-.38,6.89a91,91,0,0,1-7.19,26,136.28,136.28,0,0,1-12.56,22.89c-9.54,14.34-20.91,26.82-33,38.24-6.11,5.66-12.42,11.06-19,16.11a220.94,220.94,0,0,1-20.77,14.4,17,17,0,0,1-24.11-21.82l.13-.27h0c4.4-8.75,6.75-17.8,6.39-27s-3.16-18.63-8-27.7-11.47-17.73-19-25.73a163.6,163.6,0,0,0-12.08-11.44c-2.11-1.83-4.29-3.57-6.46-5.28s-4.6-3.45-6.31-4.59l-.36-.24a16.9,16.9,0,0,1,18.79-28.09Z"/><path class="cls-4" d="M1271,422.44a136.39,136.39,0,0,0,14.9,33.17,84.87,84.87,0,0,0,23,24.41c2,1.8,4.53,3,6.84,4.3a42,42,0,0,0,7.18,3.63l7.45,3.09c2.68.64,5.3,1.41,7.93,2.14,1.32.36,2.6.79,3.94,1.1l4.16.61c2.77.44,5.54.85,8.28,1.36,5.66.56,11.47.64,17.2,1.35l2.47.3a16.81,16.81,0,0,1-2.47,33.49c-7.19-.18-14.38-.37-21.6-1.2L1339.41,528l-5.4-1.14c-1.78-.55-3.55-1.24-5.32-1.86-3.54-1.29-7.08-2.54-10.55-3.91-3.39-1.74-6.71-3.62-10-5.46a42.39,42.39,0,0,1-4.87-2.92l-4.54-3.5c-3-2.38-6.08-4.56-8.62-7.43a91.94,91.94,0,0,1-23.31-37.37c-1-3.47-2-6.89-2.83-10.33-.56-3.52-1.37-6.93-1.66-10.44a84.94,84.94,0,0,1,.12-21,4.35,4.35,0,0,1,8.47-.68Z"/><path class="cls-4" d="M1232.31,450.93a122.76,122.76,0,0,0,4.27,13.45,103.88,103.88,0,0,0,6.06,12.88,126.55,126.55,0,0,0,16.09,22.55,198.06,198.06,0,0,0,20.35,18.67c3.47,3,7.51,5.58,11.06,8.65a142.75,142.75,0,0,1,11.48,8.67l-24.9,18.13h0c-1.16-5.81-1.94-10.92-2.68-16.43s-1.28-10.89-1.59-16.5a142.81,142.81,0,0,1-.09-17.34,76.46,76.46,0,0,1,3.39-19.54,16.9,16.9,0,0,1,32.14,10.44l-.05.14-.08.25a45.68,45.68,0,0,0-1.67,10.69,109.11,109.11,0,0,0,.09,13.38c.26,4.62.74,9.35,1.36,14.09s1.41,9.66,2.26,13.91h0a15.61,15.61,0,0,1-21,19.92l-3.88-1.79a147.7,147.7,0,0,1-15.33-8.22c-4.78-3.42-9.65-6.67-14-10.7s-8.74-8-12.43-12.83c-4-4.4-7.24-9.6-10.53-14.58a110,110,0,0,1-13.4-33.31c-2.4-11.84-3.1-23.41-.11-35.81a6.66,6.66,0,0,1,12.93-.11Z"/><path class="cls-4" d="M1014.49,956.56c-57.9,0-105-47.91-105-106.8s47.09-106.8,105-106.8a103.49,103.49,0,0,1,54.6,15.56,16.9,16.9,0,0,1-17.81,28.72,69.65,69.65,0,0,0-36.79-10.49c-39.26,0-71.2,32.75-71.2,73s31.94,73,71.2,73a70.09,70.09,0,0,0,13.19-1.25,16.9,16.9,0,0,1,6.35,33.19A104.74,104.74,0,0,1,1014.49,956.56Z"/><path class="cls-4" d="M2194.73,1137.58a16.9,16.9,0,0,1-10-30.56c169.1-123.08,184.84-316.27,185-318.21a16.89,16.89,0,0,1,30.66-8.52l25,35.49c-.29-85.47-40.28-145.91-40.75-146.62a16.9,16.9,0,0,1,20.91-24.88c30.92,13.88,55,33.72,71.67,50.59,1.6-123-88.73-190.6-93-193.69a16.91,16.91,0,0,1,6.34-30.17c31.3-6.83,50.86-20.8,62.47-32.75-77.16-14.23-141-84.69-213.59-164.84C2094.38,113.2,1929.87-68.39,1587.59,102a16.87,16.87,0,0,1-15.76-.37c-74.22-41.43-144.12-53.19-191-55.56a276.56,276.56,0,0,1,45.39,46A16.89,16.89,0,0,1,1414.34,119c-130.91,12.6-223.23,89.67-265.2,132.55a367.44,367.44,0,0,1,46.57,6.26,16.89,16.89,0,0,1,.47,33c-49.66,11.77-93.17,53.89-101.79,62.65-74.62,148.92-63.15,403.05-63,405.61a16.9,16.9,0,0,1-33.75,1.66c-.53-10.87-12.17-268.17,67.8-424.85a17,17,0,0,1,2.66-3.8,309.11,309.11,0,0,1,58.06-47,69.1,69.1,0,0,0-12,1.62,16.89,16.89,0,0,1-17.57-26.45c4.43-6,104.93-139.68,282.5-170.51C1363.3,74,1340,54.74,1314.7,47.62a16.9,16.9,0,0,1,1.63-32.9c5.14-.91,125.41-21.09,264.14,53.12,158.8-77.21,296.68-88.38,421.25-34.2,109.21,47.5,190.83,137.6,262.84,217.09,76.5,84.44,142.49,157.41,218.75,156.34a16.9,16.9,0,0,1,15.92,23.17c-.79,2-17.52,42.31-71.35,64.49,36.51,36.52,99.84,120,79.17,244.95a16.89,16.89,0,0,1-30.88,6.38c-.18-.28-13-19.74-36.45-40,14.06,38.71,26.23,94.9,15.44,160.29a16.9,16.9,0,0,1-30.48,7l-27.83-39.49c-14.34,68.13-58.63,203.24-192.19,300.46A16.85,16.85,0,0,1,2194.73,1137.58Z"/><path class="cls-4" d="M2154.9,1296.87a110.06,110.06,0,0,1-61.54-18.4,16.89,16.89,0,0,1,18.8-28.07,76.49,76.49,0,0,0,42.74,12.68c39.71,0,72-29.06,72-64.78,0-35.42-32.06-64.46-71.47-64.73a16.9,16.9,0,0,1,.12-33.79h.12c57.91.4,105,44.59,105,98.52C2260.71,1252.65,2213.24,1296.87,2154.9,1296.87Z"/><path class="cls-4" d="M1634.61,412a16.87,16.87,0,0,1-13.84-7.18c-12.71-18.09-67.09-29.11-101.64-31.17a17,17,0,0,1-6.56-1.75c-44.69-22.35-77.34-18.54-77.66-18.5a16.89,16.89,0,0,1-4.62-33.47c1.68-.23,41.08-5.43,94.29,20.22,22.51,1.63,98.88,9.72,123.83,45.24a16.89,16.89,0,0,1-13.8,26.61Z"/><path class="cls-4" d="M1259.42,685.43s85.15-165.56,220.24,22.85a21.87,21.87,0,0,1-.07,25.61c-5,6.83-13.39,15.17-27.61,23.41a24.4,24.4,0,0,1-33.08-8.25C1400.23,718.78,1353,665.47,1259.42,685.43Z"/><path class="cls-4" d="M1834.23,783a11.17,11.17,0,0,1-13.87-10c-.81-12.72-.47-31.85,6.69-45.68,11.67-22.53,119.88-49.08,180.22,59.13l-6.43,31.37a11.11,11.11,0,0,1-18.09,6.27C1958.26,803.08,1903.67,766.63,1834.23,783Z"/><path class="cls-4" d="M1356.16,779.22c13,3.61,24,10.9,33.53,20.53a87.89,87.89,0,0,1,20.91,35.16,94.21,94.21,0,0,1,3.91,20.46c.15,1.72.35,3.46.44,5.18l-.1,5.15-.17,5.15,0,1.28,0,.65v.32l-.12,1-.24,1.37a18.57,18.57,0,0,1-33,7.2,21.1,21.1,0,0,1-2-3.31l-.82-1.67c-.53-1.11-1.08-2.23-1.72-3.32-1.17-2.23-2.5-4.37-3.87-6.49s-2.91-4.11-4.29-6.22-3.17-3.88-4.73-5.85a83.32,83.32,0,0,0-51.74-27.93c-20.88-3.59-43.87.11-67.08,5.26l-.14,0a3,3,0,0,1-2.25-5.41c5.12-3.28,10.4-6.45,15.79-9.5s11.3-5.12,17.11-7.58c5.93-2.08,12.11-3.79,18.37-5.32,3.2-.51,6.42-1,9.67-1.39l4.89-.65,5-.08c3.33,0,6.68,0,10,.08,3.35.41,6.73.85,10.1,1.37,3.41.34,6.67,1.47,10,2.35a54.75,54.75,0,0,1,9.79,3.38,100.61,100.61,0,0,1,34.26,23.06,122.8,122.8,0,0,1,13,15.84c1.92,2.81,3.77,5.68,5.44,8.67.88,1.46,1.69,3,2.47,4.53l1.19,2.3a14.24,14.24,0,0,0-1.43-2.35,15.23,15.23,0,0,0-13.23-6.09,15.18,15.18,0,0,0-13.76,11.93l-.2,1.09c0,.29-.09,1-.08.73v-.23l0-.47,0-.94.16-3.74c.06-1.25.11-2.5.23-3.75s-.08-2.46-.11-3.69a95.94,95.94,0,0,0-1.32-14.68c-3.06-19.31-13-38.5-27.79-56.28l-.38-.46a4.16,4.16,0,0,1,4.31-6.67Z"/><path class="cls-4" d="M1492.37,1259a111.24,111.24,0,0,1-41.69-8.35c-30.49-12.24-51.42-33.35-62.2-62.75-30-81.68,31.61-199.8,34.25-204.79a16.89,16.89,0,0,1,27.9-2.94c.67.79,71.8,83.08,203.07,80.23a16.54,16.54,0,0,1,14.2,7.17,16.91,16.91,0,0,1,1.95,15.79c-2,5.31-51,130.34-133,166A110.77,110.77,0,0,1,1492.37,1259Zm-49.55-239.14c-15.17,35.14-40.81,106.9-22.6,156.45,7.45,20.29,21.53,34.35,43,43,20.34,8.17,40,7.88,60.12-.89,50.24-21.87,87.92-89.08,104.93-124.62C1533.94,1088.67,1471.54,1045.17,1442.82,1019.81Z"/><path class="cls-6" d="M2423.08,1959.15c14.4,5.26,23.45-5.42,28.72-19.82s4.78-27.1-9.63-32.38a244.76,244.76,0,0,0-29-8.29l3.94-23.54a13.9,13.9,0,1,0-27.41-4.58l-3.93,23.48c-6-.66-12.16-1.1-18.49-1.24l4.17-24.94a13.9,13.9,0,1,0-27.41-4.58l-5.23,31.23c-14.74,2.26-29.27,6.87-42.22,15.09-46,29.15-50.77,58.2-46.71,77.43,5.19,24.56,26.81,42.74,64.39,54.29l-8.24,49.24c-6.53-2.41-13.41-5.25-20.72-8.65-14.15-6.59-22.83,1.56-29.09,15.93-6.16,14.11-7,28.64,7,35.09a313.26,313.26,0,0,0,33.53,13.29l-6.24,37.34a13.88,13.88,0,0,0,11.41,16,13.84,13.84,0,0,0,16-11.41l5.82-34.79A180.46,180.46,0,0,0,2342,2156l-5.82,34.81a13.89,13.89,0,0,0,11.41,16,13.84,13.84,0,0,0,16-11.41l6.62-39.61c24.44-2.82,40.62-12.36,50.37-20.69,22.18-18.95,30.92-48.27,22.82-76.52-6.78-23.64-24.23-42.69-47.94-53.78l8.54-51.11A177.9,177.9,0,0,1,2423.08,1959.15ZM2326,1956.8l.45-.28c.72-.46,1.53-.81,2.29-1.22l-4.89,29.24C2315.66,1977.34,2315.72,1963.34,2326,1956.8Zm7,141.6,8.44-50.48c4.83.94,9.78,1.83,15,2.61,1.1.16,2.12.42,3.18.63l-8.31,49.7A119.92,119.92,0,0,1,2332.94,2098.4Zm57-24.5c1.22,4.28,2.14,12.41-5.5,18.94a26.89,26.89,0,0,1-4.21,2.84l5.11-30.54A25.44,25.44,0,0,1,2390,2073.9Zm-21.27-77.6c-1.37-.26-2.73-.54-4.12-.75-5.1-.76-9.75-1.58-14.05-2.42l7.47-44.68a141.33,141.33,0,0,1,18.59.66Z"/><polygon class="cls-4" points="1284.81 2310.57 1359.63 2289.04 1284.71 2311 1284.81 2310.57"/><path class="cls-1" d="M2285.42,1560c-.72,14.34-1.93,28.77-3.67,42.82-11.44,40.69-25.39,70.67-35.14,71.73-28.33,3-29.59-21.72-29.59-21.72s-3.57,19.31-26.55,15.11-21.19-55.32-21.19-55.32c-21.91,116-240.58,153.21-333.17,163.78-25.24,2.9-41.12,3.82-41.12,3.82s-170.69,9.8-169.82-230c.29-75.59,13.9-127.19,32.39-162.43a303,303,0,0,1,52.32-9.36,338.85,338.85,0,0,1,91.77,4.49v0c.91.14,1.88.34,2.8.53s1.88.38,2.84.53c8.55,1.74,17.29,3.81,26.26,6.27,1.74.49,3.48,1,5.22,1.5s3.47,1,5.21,1.55c1.93.57,3.86,1.15,5.79,1.78,8.69,2.8,17.53,5.94,26.55,9.61,1.84.72,3.67,1.49,5.55,2.27,5.55,2.27,11.15,4.68,16.8,7.33v0s169.34-16.12,264.67,22.5c0,0,5.65-20.52,26.17-19.31s36.3,23.26,36.3,23.26,34.75-28.81,44.12-8.78c.62,1.35,1.25,2.7,1.78,4.15C2284,1465.77,2287.74,1512.5,2285.42,1560Z"/><g class="cls-3"><path class="cls-4" d="M733.89,982.38a0,0,0,0,1,0,0h-.05c-35.77,38.91-104.27,20-104.27,20-85.34.29-125.41-14.57-144.09-29.63,54.16,4.68,130.09,4.68,194.63-4.15s69.32-82.89,24.67-86.51c0,0,32.2-40.21-24.67-113.82-27.56-35.62-38.37-94.23-34-93.31,43.45,8.83,29,44.27,74.82,85.3,12.89,11.53,21.72,25.63,27.76,39.92,1.5,3.52,2.8,7,4,10.57a168.06,168.06,0,0,1,6.56,27.85l2.17-.34,4.69,1.55a27.67,27.67,0,0,1,19.31,25.73C785.87,897.57,780.56,959.07,733.89,982.38Z"/></g><path class="cls-19" d="M16.74,277.21c-1.55-5.95,35-150.85,96.54-182.22,0,0,14.48,169,260.67,173.77,0,0-26.55,100.08-162.92,134.52C211,403.28,50.53,407.54,16.74,277.21Z"/><g class="cls-18"><path class="cls-6" d="M113.28,95c-14.13,7.2-26.92,20.42-38.26,36.54A76.05,76.05,0,0,1,87.94,123S102.42,291.94,348.6,296.77c0,0-5.79,21.8-25.81,48.54C363.61,307.67,374,268.76,374,268.76,127.76,263.94,113.28,95,113.28,95Z"/></g><path class="cls-4" d="M210.18,420.18c-16,0-174.75-3.55-209.8-138.73h0C-3,268.42,16.86,211,25.7,189.27,49.06,131.84,76,95.06,105.61,79.94a16.89,16.89,0,0,1,24.5,13.61c.59,6.2,17.2,153.87,244.17,158.32a16.9,16.9,0,0,1,16,21.23c-1.19,4.48-30.76,110.11-175.11,146.56a17.73,17.73,0,0,1-3.69.51ZM33.8,275.6C63.67,383,191.31,386.28,208.8,386.41c87.58-22.71,125.46-73.36,140.33-101.8-117.66-7.9-179.49-54.71-211-94a203.18,203.18,0,0,1-35.56-66.38C63.61,164.6,36.77,257.58,33.8,275.6ZM33.09,273v0Z"/><path class="cls-19" d="M118.54,571.41S108.89,666.7,216.29,718c0,0,124.1-114,320.9-81.43,0,0,4.53-146.78-47.77-177.78S288.7,383.15,118.54,571.41Z"/><g class="cls-18"><path class="cls-6" d="M136,603.39C306.19,415.13,454.63,459.78,506.92,490.78a51.48,51.48,0,0,1,12.81,11.07c-7-19.09-16.72-35-30.31-43.05-52.29-31-200.72-75.65-370.88,112.61,0,0-4.57,45.21,27.68,90.12C133.44,629.39,136,603.39,136,603.39Z"/></g><path class="cls-4" d="M216.29,734.9a16.86,16.86,0,0,1-7.28-1.65C92.22,677.46,101.29,574.08,101.73,569.71a16.83,16.83,0,0,1,4.28-9.63C301,344.3,466.8,425.74,498,444.27c59.16,35.07,56.53,176.79,56,192.83a16.9,16.9,0,0,1-19.65,16.15c-186.51-30.88-305.53,76.12-306.71,77.2A16.86,16.86,0,0,1,216.29,734.9ZM135.17,578.25c0,18.36,5.78,80,78.83,119.64,31.71-25.12,142.66-100.82,306.42-80.79-.87-53.34-11.37-127-39.61-143.77C453.74,457.29,310.71,387.53,135.17,578.25Z"/><g class="cls-3"><path class="cls-4" d="M519.38,500.87C513.38,527.81,492,552.05,442,565c-122.53,31.66-200.43,75.8-240.61,145.13,4.73,2.72,9.66,5.37,14.94,7.9,0,0,124.1-114,320.9-81.43C537.19,636.58,539.68,555.23,519.38,500.87Z"/></g><g class="cls-3"><path class="cls-4" d="M76.36,275.2c.26-61,21-122.59,39.61-165.71A106.7,106.7,0,0,1,113.28,95C51.73,126.36,15.19,271.26,16.74,277.21,50.53,407.54,211,403.28,211,403.28,325.37,374.4,362.49,299.41,371.5,275.93,222.6,389.29,75.9,378.67,76.36,275.2Z"/></g><path class="cls-4" d="M1871.54,880.84c-54.16-15.79-114.24,30.33-134.18,103s7.82,144.38,62,160.17,114.24-30.34,134.18-103S1925.71,896.62,1871.54,880.84Z"/><path class="cls-6" d="M1862.53,911.15c-18.66,3.42-30.39,27.21-26.2,53.13s22.71,44.15,41.37,40.73,30.39-27.2,26.21-53.12S1881.19,907.73,1862.53,911.15Z"/><path class="cls-20" d="M1777.1,1059.2c-9.25,4.11-12.57,17.82-7.41,30.64s16.83,19.89,26.08,15.78,12.56-17.82,7.4-30.64S1786.34,1055.1,1777.1,1059.2Z"/></g></g></svg>